<svg width="24" height="24" viewBox="0 0 24 24" fill="none" xmlns="http://www.w3.org/2000/svg">
<rect x="0.375" y="6.73828" width="9" height="24" rx="4.5" transform="rotate(-45 0.375 6.73828)" fill="white"/>
<path d="M3.55698 9.91977C1.79962 8.16241 1.79962 5.31317 3.55698 3.55581C5.31434 1.79845 8.16358 1.79845 9.92094 3.55581L15.3648 8.9997C15.3648 8.9997 12.8614 10.0764 11.625 11.2497C10.2427 12.5614 9.00086 15.3637 9.00086 15.3637L3.55698 9.91977Z" fill="#9E9E9E"/>
<ellipse cx="6.44434" cy="4.19435" rx="1.16147" ry="1.05791" transform="rotate(-45 6.44434 4.19435)" fill="white"/>
<path d="M2.62509 6.75L17.2499 21.375C16.3124 21.375 15.3734 20.9305 14.8125 20.4375C14.5992 20.25 3.70309 9.375 3.56258 9.1875C2.57904 7.875 2.62509 6.75 2.62509 6.75Z" fill="#E0E0E0"/>
<rect x="0.375" y="6.73877" width="9" height="24" rx="4.5" transform="rotate(-45 0.375 6.73877)" stroke="black" stroke-linecap="round" stroke-linejoin="round"/>
<path d="M9.0203 15.3454C9.0203 15.3454 10.3867 12.5592 11.8126 11.25C12.9771 10.1807 15.2517 9.11399 15.2517 9.11399" stroke="black" stroke-linecap="round" stroke-linejoin="round"/>
</svg>
