<svg width="64" height="64" viewBox="0 0 64 64" fill="none" xmlns="http://www.w3.org/2000/svg">
<path d="M10.9804 8.06797C10.5844 7.66253 9.49511 7.89903 9 8.06797C10.1553 6.88547 12.6066 4.70182 12.9609 4.52048C13.9511 4.01359 16.9218 3 33.7555 3C50.5893 3 53.2474 3.12461 54.5501 4.01359C56.0355 5.02718 53.3949 6.71654 53.0648 8.06797V54.6933C53.0648 60.268 43.6577 60.7748 43.6577 60.7748C43.6577 60.7748 29.7946 61.2816 23.8533 60.7748C17.4169 60.2257 14.9413 59 14.9413 54.6933V13.136C14.9413 12.6292 11.4756 8.57476 10.9804 8.06797Z" fill="white"/>
<path d="M16.5 52.0508C16.5002 40.2521 16.5 31.8883 16.5001 30.096C20.5325 30.0958 44.7273 30.096 51 30.096V52.0508C51 56.9794 45.981 57.0627 42.487 57.4274C37 58 29.9416 57.8754 24.5649 57.4274C18.7403 56.942 16.4999 55.5 16.5 52.0508Z" fill="#E0E0E0"/>
<path d="M51 22.5V32.5C51 32.5 47.0157 34.7209 43 35C36.1962 35.4728 31.6272 31.7955 26 31.0001C19.9395 30.1434 16.5 32.5 16.5 32.5V22.5C16.5 22.5 19.9395 20.1434 26 21.0001C31.6272 21.7955 36.5 20.9999 43 20.0001C46.9786 19.3882 51 22.5 51 22.5Z" fill="#9E9E9E"/>
<circle cx="23" cy="47" r="1" fill="white"/>
<circle cx="31" cy="43" r="1" fill="white"/>
<circle cx="44" cy="48" r="1" fill="white"/>
<circle cx="20" cy="37" r="1" fill="white"/>
<circle cx="43" cy="41" r="2" fill="#9E9E9E"/>
<circle cx="34" cy="51" r="2" fill="#9E9E9E"/>
<circle cx="27" cy="37" r="2" fill="#9E9E9E"/>
<path d="M45 54.5V7H47.5C47.6667 22.3333 47.9 51.3 47.5 52.5C47.1 53.7 45.6667 54.3333 45 54.5Z" fill="#F5F5F5"/>
<path d="M17 6.99991L15 12.4999C13.6667 11.3332 10 8.19992 10 6.99992C12.5 7.5 15 6.66658 17 6.99991Z" fill="#E6E6E6"/>
<path d="M10.5 8C10.1 7.6 9 7.83334 8.5 8C9.66667 6.83337 12.1422 4.679 12.5 4.50009C13.5 4 16.5 3 33.5 3C50.5 3 53.1844 3.12294 54.5 4C56 5 53.3333 6.6667 53 8V54.25C53 59.75 49 60.25 47 60.75C45 61.25 38.6403 61.5 33.75 61.5C28.8597 61.5 23.5 61.5 20.5 60.75C18.5 60.25 14.5 60 14.5 54.25V13.0001C14.5 12.5001 11 8.5 10.5 8Z" stroke="black" stroke-linecap="round" stroke-linejoin="round"/>
<path d="M10.5 7C10.5 7 13.7909 5.22386 16 5.5C24 6.5 47.5 6 53.5 5" stroke="black" stroke-linecap="round" stroke-linejoin="round"/>
<path d="M16.5 22.5V52.2811C16.5 55.5 18.2979 57.298 24.2723 57.7959C29.7872 58.2555 39.5 58 42.6553 57.7959C46.5533 57.5438 51 57.3364 51 52.2811V22.5M16.5 22.5V32.4991C16.5 32.4991 21.4245 30.1805 26.8462 31.0234C31.8802 31.806 35.9676 35.4241 42.0541 34.9589C45.6466 34.6843 51 32.4991 51 32.4991V22.5M16.5 22.5C16.5 22.5 21.4245 20.3416 26.8462 21.1845M51 22.5C51 22.5 45.6466 24.8454 42.0541 25.12C35.9676 25.5852 31.8802 21.9671 26.8462 21.1845M51 22.5C49.6667 21.6133 46 20 42 20C37 20 38.1924 21.869 26.8462 21.1845" stroke="black" stroke-linecap="round" stroke-linejoin="round"/>
<circle cx="20" cy="37" r="1.5" stroke="black"/>
<circle cx="31" cy="43" r="1.5" stroke="black"/>
<circle cx="23" cy="47" r="1.5" stroke="black"/>
<circle cx="44" cy="48" r="1.5" stroke="black"/>
<circle cx="27" cy="37" r="2.5" stroke="black"/>
<circle cx="34" cy="51" r="2.5" stroke="black"/>
<circle cx="43" cy="41" r="2.5" stroke="black"/>
</svg>
