<svg width="64" height="64" viewBox="0 0 64 64" fill="none" xmlns="http://www.w3.org/2000/svg">
<rect x="31.4668" y="8.5166" width="12.8" height="34.1333" rx="6.4" transform="rotate(-45 31.4668 8.5166)" fill="white"/>
<path d="M35.9923 13.0421C33.4929 10.5427 33.4929 6.49047 35.9923 3.99112C38.4916 1.49176 42.5439 1.49176 45.0432 3.99112L52.7857 11.7335C52.7857 11.7335 49.2252 13.2649 47.4668 14.9335C45.5009 16.7991 43.7347 20.7845 43.7347 20.7845L35.9923 13.0421Z" fill="#9E9E9E"/>
<ellipse rx="1.65187" ry="1.50458" transform="matrix(0.707107 -0.707106 0.707107 0.707106 40.0987 4.89878)" fill="white"/>
<path d="M34.667 8.53345L55.4668 29.3334C54.1334 29.3334 52.7979 28.7012 52.0002 28.0001C51.6968 27.7334 36.2001 12.2668 36.0003 12.0001C34.6015 10.1334 34.667 8.53345 34.667 8.53345Z" fill="#E0E0E0"/>
<rect x="31.4668" y="8.51758" width="12.8" height="34.1333" rx="6.4" transform="rotate(-45 31.4668 8.51758)" stroke="black" stroke-linecap="round" stroke-linejoin="round"/>
<path d="M43.7625 20.7579C43.7625 20.7579 45.7059 16.7953 47.7338 14.9334C49.39 13.4126 52.6249 11.8955 52.6249 11.8955" stroke="black" stroke-linecap="round" stroke-linejoin="round"/>
<path d="M25.9289 20.2042C23.8461 18.1214 22.5798 16.0108 23.1005 15.4901C23.5566 15.034 25.2327 15.9491 27.0414 17.5832L28.5499 19.0917C30.1839 20.9004 31.0991 22.5765 30.6429 23.0326C30.1222 23.5533 28.0117 22.287 25.9289 20.2042Z" fill="#F5F5F5"/>
<ellipse rx="2.66667" ry="0.666667" transform="matrix(-0.707107 -0.707107 -0.707107 0.707107 30.7372 15.3961)" fill="#F5F5F5"/>
<path d="M2.92465 43.2089C2.50809 42.7924 2.44339 42.1817 2.54753 42.0776L4.99883 39.6263C5.18739 40.0662 5.75308 40.9839 6.50732 41.1348L4.05602 43.5861C3.95188 43.6902 3.34121 43.6255 2.92465 43.2089Z" fill="#E0E0E0"/>
<path d="M26.8717 19.2616C27.2883 19.6782 27.7104 19.9314 27.8146 19.8273L30.8315 16.8103L29.323 15.3018L26.3061 18.3188C26.2019 18.4229 26.4552 18.845 26.8717 19.2616Z" fill="#E0E0E0"/>
<path d="M4.99829 39.6257C5.15918 40.0241 5.26062 40.2652 5.56448 40.569C5.86814 40.8725 6.10915 40.9739 6.50729 41.1347C7.82068 41.6651 9.18486 41.4741 10.09 40.569L28.1919 22.467L23.6664 17.9416L5.56448 36.0435C4.65938 36.9486 4.46794 38.3124 4.99829 39.6257Z" fill="#F5F5F5"/>
<path d="M9.90126 40.7574L11.2212 39.4375C10.7184 39.1861 9.48642 38.457 8.58133 37.5519C7.67623 36.6468 6.94712 35.4148 6.69571 34.912L5.37577 36.2319C5.43863 36.6719 5.86604 37.8536 7.07283 39.0604C8.27963 40.2672 9.46128 40.6946 9.90126 40.7574Z" fill="#9E9E9E"/>
<path d="M7.4496 35.2891C7.7513 35.8925 8.07814 36.2948 8.20385 36.4205C9.33518 35.2891 23.1004 21.5243 24.6087 20.0156C24.307 19.7139 24.043 19.1985 23.8545 18.8843L7.4496 35.2891Z" fill="#E0E0E0"/>
<path d="M27.6262 21.5242L27.2491 19.6386L26.1177 18.5072L27.0605 17.5644L24.7978 16.0559C24.0435 15.3017 22.7236 15.1131 23.2893 16.433C24.1545 18.4518 26.432 20.7071 27.6262 21.5242Z" fill="#E0E0E0"/>
<path d="M6.88418 34.7235C6.57176 35.036 7.33156 36.3023 8.58124 37.552C9.83092 38.8016 11.0972 39.5614 11.4097 39.249" stroke="black" stroke-linecap="round" stroke-linejoin="round"/>
<path d="M9.90132 31.7065C9.5889 32.0189 10.3487 33.2852 11.5984 34.5349" stroke="black" stroke-linecap="round" stroke-linejoin="round"/>
<path d="M11.9755 29.6323C11.6631 29.9447 12.4229 31.211 13.6726 32.4607" stroke="black" stroke-linecap="round" stroke-linejoin="round"/>
<path d="M14.0498 27.5583C13.7373 27.8707 14.4971 29.1371 15.7468 30.3867" stroke="black" stroke-linecap="round" stroke-linejoin="round"/>
<path d="M16.124 25.4841C15.8116 25.7965 16.5714 27.0628 17.821 28.3125" stroke="black" stroke-linecap="round" stroke-linejoin="round"/>
<path d="M18.1982 23.4099C17.8858 23.7223 18.6456 24.9886 19.8953 26.2383" stroke="black" stroke-linecap="round" stroke-linejoin="round"/>
<path d="M20.2719 21.3356C19.9595 21.6481 20.7193 22.9144 21.969 24.1641" stroke="black" stroke-linecap="round" stroke-linejoin="round"/>
<path d="M22.3461 19.2614C22.0337 19.5738 22.7935 20.8402 24.0432 22.0899" stroke="black" stroke-linecap="round" stroke-linejoin="round"/>
<path d="M28.5499 19.0917C30.1839 20.9004 31.0991 22.5765 30.6429 23.0326C30.1222 23.5533 28.0117 22.287 25.9289 20.2042C23.8461 18.1214 22.5798 16.0108 23.1005 15.4901C23.5566 15.034 25.2327 15.9491 27.0414 17.5832" stroke="black" stroke-linecap="round" stroke-linejoin="round"/>
<ellipse rx="2.66667" ry="0.666667" transform="matrix(-0.707107 -0.707107 -0.707107 0.707107 30.7372 15.3961)" stroke="black" stroke-linecap="round" stroke-linejoin="round"/>
<path d="M6.50732 41.1348L4.05602 43.5861C3.95188 43.6902 3.34121 43.6255 2.92465 43.2089C2.50809 42.7924 2.44339 42.1817 2.54753 42.0776L4.99883 39.6263" stroke="black" stroke-linecap="round" stroke-linejoin="round"/>
<path d="M30.8315 16.8103L27.8146 19.8273C27.7104 19.9314 27.2883 19.6782 26.8717 19.2616C26.4552 18.845 26.2019 18.4229 26.3061 18.3188L29.323 15.3018" stroke="black" stroke-linecap="round" stroke-linejoin="round"/>
<path d="M5.56448 36.0435L5.21092 35.6899L5.56448 36.0435ZM10.09 40.569L9.73641 40.2154L10.09 40.569ZM4.99829 39.6257L4.53467 39.8129L4.53467 39.8129L4.99829 39.6257ZM5.56448 40.569L5.21098 40.9226L5.56448 40.569ZM6.50729 41.1347L6.32005 41.5983L6.32005 41.5983L6.50729 41.1347ZM23.3129 17.588C23.5081 17.3927 23.8247 17.3927 24.02 17.588C24.2152 17.7833 24.2152 18.0998 24.02 18.2951L23.3129 17.588ZM27.8383 22.1135C28.0336 21.9182 28.3502 21.9182 28.5454 22.1135C28.7407 22.3087 28.7407 22.6253 28.5454 22.8206L27.8383 22.1135ZM5.91803 36.397C5.97607 36.339 5.98283 36.2859 5.98174 36.2926C5.98081 36.2982 5.97752 36.331 5.98741 36.3988C6.00717 36.5343 6.06841 36.7362 6.18631 36.9897C6.42002 37.4922 6.84031 38.1207 7.42652 38.7069L6.71942 39.414C6.05596 38.7506 5.56579 38.0268 5.27957 37.4114C5.1375 37.1059 5.0364 36.8073 4.99787 36.5431C4.97862 36.4111 4.9722 36.2692 4.99494 36.1306C5.01753 35.993 5.07478 35.8261 5.21092 35.6899L5.91803 36.397ZM7.42652 38.7069C8.01274 39.2931 8.64125 39.7134 9.14379 39.9471C9.3973 40.065 9.59911 40.1263 9.73464 40.146C9.80246 40.1559 9.83522 40.1526 9.84089 40.1517C9.84753 40.1506 9.79445 40.1574 9.73641 40.2154L10.4435 40.9225C10.3074 41.0587 10.1405 41.1159 10.0029 41.1385C9.86429 41.1613 9.72237 41.1548 9.59034 41.1356C9.32616 41.0971 9.02756 40.9959 8.72209 40.8539C8.10666 40.5677 7.38288 40.0775 6.71942 39.414L7.42652 38.7069ZM5.46191 39.4384C5.61901 39.8274 5.68994 39.9874 5.91798 40.2154L5.21098 40.9226C4.8313 40.543 4.69934 40.2207 4.53467 39.8129L5.46191 39.4384ZM5.91798 40.2154C6.14586 40.4432 6.3057 40.514 6.69452 40.671L6.32005 41.5983C5.91259 41.4337 5.59042 41.3019 5.21098 40.9226L5.91798 40.2154ZM24.02 18.2951L5.91803 36.397L5.21092 35.6899L23.3129 17.588L24.02 18.2951ZM28.5454 22.8206L10.4435 40.9225L9.73641 40.2154L27.8383 22.1135L28.5454 22.8206ZM6.69452 40.671C7.85955 41.1415 8.99983 40.952 9.73641 40.2154L10.4435 40.9225C9.36989 41.9961 7.78181 42.1886 6.32005 41.5983L6.69452 40.671ZM4.53467 39.8129C3.94434 38.3511 4.13741 36.7634 5.21092 35.6899L5.91803 36.397C5.18134 37.1337 4.99155 38.2737 5.46191 39.4384L4.53467 39.8129Z" fill="black"/>
<path d="M25.3333 34.6667C25.1199 34.4533 24.5333 34.5778 24.2666 34.6667C24.8888 34.0445 26.2091 32.8955 26.3999 32.8C26.9333 32.5333 28.5333 32 37.5999 32C46.6666 32 48.0983 32.0656 48.7999 32.5333C49.5999 33.0667 48.1777 33.9556 47.9999 34.6667V59.2C47.9999 62.1334 45.5 63 42.6667 63C38.5011 63 35.2 63.2667 32 63C28.5333 62.7111 27.4666 61 27.4666 59.2V37.3334C27.4666 37.0667 25.5999 34.9333 25.3333 34.6667Z" fill="white"/>
<path d="M30 57.8822L30.0001 46C31.8701 45.9999 43.0909 46 46 46V57.8822C46 60.5496 43.6724 60.5947 42.052 60.7921C39.5072 61.102 36.2338 61.0346 33.7403 60.7921C31.039 60.5294 30 59.749 30 57.8822Z" fill="#E0E0E0"/>
<path d="M46 42.3647V47.6552C46 47.6552 44.1522 48.8302 42.2899 48.9779C39.1345 49.228 37.0155 47.2825 34.4058 46.8617C31.5951 46.4085 30 47.6552 30 47.6552V42.3647C30 42.3647 31.5951 41.118 34.4058 41.5712C37.0155 41.992 39.2754 41.5711 42.2899 41.0422C44.135 40.7184 46 42.3647 46 42.3647Z" fill="#9E9E9E"/>
<ellipse cx="42.6668" cy="52.2666" rx="1.06667" ry="1.06667" fill="#9E9E9E"/>
<circle cx="37.8665" cy="57.6001" r="1.06667" fill="#9E9E9E"/>
<circle cx="34.1331" cy="50.1333" r="1.06667" fill="#9E9E9E"/>
<path d="M43.7334 59.4666V34.1333H45.0667C45.1556 42.3111 45.2801 57.76 45.0667 58.4C44.8534 59.04 44.089 59.3777 43.7334 59.4666Z" fill="#F5F5F5"/>
<path d="M29.7333 35.0433L28.6667 37.9767C27.9556 37.3544 26 35.6833 26 35.0433C27.3333 35.31 28.6667 34.8655 29.7333 35.0433Z" fill="#E6E6E6"/>
<path d="M25.3333 34.6667C25.1199 34.4533 24.5333 34.5778 24.2666 34.6667C24.8888 34.0445 26.2091 32.8955 26.3999 32.8C26.9333 32.5333 28.5333 32 37.5999 32C46.6666 32 48.0983 32.0656 48.7999 32.5333C49.5999 33.0667 48.1777 33.9556 47.9999 34.6667V59.3334C47.9999 62.2667 45.8666 62.5333 44.7999 62.8C43.7333 63.0667 40.3414 63.2 37.7333 63.2C35.1251 63.2 32.2666 63.2 30.6666 62.8C29.5999 62.5333 27.4666 62.4 27.4666 59.3334V37.3334C27.4666 37.0667 25.5999 34.9333 25.3333 34.6667Z" stroke="black" stroke-linecap="round" stroke-linejoin="round"/>
<path d="M25.3335 34.1333C25.3335 34.1333 27.0886 33.186 28.2668 33.3333C32.5335 33.8667 45.0668 33.6 48.2668 33.0667" stroke="black" stroke-linecap="round" stroke-linejoin="round"/>
<path d="M30 42.3139V57.9662C30 59.658 30.8338 60.603 33.6046 60.8647C36.1622 61.1062 40.6667 60.9719 42.13 60.8647C43.9378 60.7321 46 60.6232 46 57.9662V42.3139M30 42.3139V47.5693C30 47.5693 32.2838 46.3507 34.7982 46.7936C37.1328 47.205 39.0284 49.1066 41.8512 48.862C43.5173 48.7177 46 47.5693 46 47.5693V42.3139M30 42.3139C30 42.3139 32.2838 41.1796 34.7982 41.6225M46 42.3139C46 42.3139 43.5173 43.5466 41.8512 43.6909C39.0284 43.9355 37.1328 42.0338 34.7982 41.6225M46 42.3139C45.3816 41.8479 43.6812 41 41.8261 41C39.5072 41 40.0602 41.9823 34.7982 41.6225" stroke="black" stroke-linecap="round" stroke-linejoin="round"/>
<circle cx="34.1332" cy="50.1334" r="1.1" stroke="black"/>
<circle cx="37.8666" cy="57.6" r="1.1" stroke="black"/>
<path d="M43.7664 52.2667C43.7664 52.8743 43.2739 53.3667 42.6664 53.3667C42.0589 53.3667 41.5664 52.8743 41.5664 52.2667C41.5664 51.6592 42.0589 51.1667 42.6664 51.1667C43.2739 51.1667 43.7664 51.6592 43.7664 52.2667Z" stroke="black"/>
</svg>
