<svg width="64" height="64" viewBox="0 0 64 64" fill="none" xmlns="http://www.w3.org/2000/svg">
<path d="M31.5 61V51C31.9 47.4 37.3333 47.1667 40 47.5L51.5 50V59C47.9 63.4 43.6667 62.8333 42 62L31.5 61Z" fill="#9E9E9E"/>
<path d="M21.5 60.5L31.5002 61C31.667 57.8333 31.5002 51.4 31.5002 51C31.5002 50.5 33.5 49 34.5002 48C33.0002 48 29 50 27.0002 50.5C27.4002 48.5 21.8336 23.6667 19.0002 11.5C18.1668 12 16.1 13.3 14.5 14.5C12.9 15.7 13.5 16 13 17C16.3333 28 21 49 21.5 51C20.3 51.8 20 54.6667 20 56L21.5 57V60.5Z" fill="#E0E0E0"/>
<path d="M27 50.5001C27.4 48.1001 21.8333 23.1667 19 11.0001C21.5 10.3334 27 8.90005 29 8.50005C31 8.10005 31.8333 10.0001 32 11.0001C34.0833 23.5 39.5 46.5 39.5 47.5001C38 47.0001 29.5 49 27 50.5001Z" fill="#F5F5F5"/>
<path d="M11.9998 5.49999L13.9998 14.5L18.9999 11L28.4999 8.49996L27.4999 3.49999C27.0999 1.49999 25.3334 0.833334 24.5001 1C23.0001 1 21.2726 0.655577 19.5001 1C16.6447 1.55486 13.6168 3.5 13 3.5C12.0003 3.5 11.4998 4.99999 11.9998 5.49999Z" fill="white"/>
<path d="M18 12L14 14.5C13.3333 11.3333 12 4.8 12 4C12 3.2 14.3333 2.33333 15.5 2L18 12Z" fill="#E0E0E0"/>
<path d="M14 14.4999L11.8573 5.50079C11.6468 4.61649 12.0591 3.70222 12.8774 3.30632C14.4501 2.54543 17.0562 1.38144 19 1C21.04 0.599681 23.8738 0.727978 25.5638 0.861348C26.4231 0.929163 27.1141 1.57048 27.2832 2.41572L28.5 8.49993" stroke="black" stroke-linecap="round" stroke-linejoin="round"/>
<path d="M19 11L29 8.50005C29.8333 8.16671 31.6 8.30005 32 11.5C32.4 14.7 37.1667 36.8333 39.5 47.5" stroke="black"/>
<path d="M30.5 60.5C27.6667 59.5 21.6 57.2 20 56C20 54.5 20.3334 52.1667 21.5 51M21.5 51C23 51.3333 26.2 51.8 27 51C27.8 50.2 22 24 19 11L14 14.5C13.5 15 12.7 15.4 13.5 19C14.3 22.6 19.1667 41.8333 21.5 51Z" stroke="black" stroke-linecap="round" stroke-linejoin="round"/>
<path d="M42 52.5C42.0001 57.0001 42 59.0001 42 62.0001M42 52.5L31.5 51.0001M42 52.5C43.1199 51.0068 45.6334 48.7889 48.5 48.9261M42 62.0001C47.2 63.6001 50.5 60.6668 51.5 59.0001C51.5 56.0001 51.5 54.5001 51.5 50C50.4864 49.2905 49.4729 48.9727 48.5 48.9261M42 62.0001L31.5 61.0001V51.0001M31.5 51.0001C31.8333 49.6668 33.8 47.1001 39 47.5001C44.2 47.9001 47.5 48.6174 48.5 48.9261" stroke="black" stroke-linecap="round" stroke-linejoin="round"/>
<path d="M31.5 60.9999L21.5 60.4999V57.4999M31.5 50.9999H27C28.5 49.9999 32.5 46.9998 39 47.4999" stroke="black" stroke-linecap="round" stroke-linejoin="round"/>
</svg>
