<svg width="120" height="120" viewBox="0 0 120 120" fill="none" xmlns="http://www.w3.org/2000/svg">
<path d="M7.5 98.4375V36.25C7.5 30.7272 11.9771 26.25 17.5 26.25H94.6875L112.5 43.125V110.625H18.75L7.5 98.4375Z" fill="white"/>
<path fill-rule="evenodd" clip-rule="evenodd" d="M72.3748 67.5H58.8748V77.6255H48.75V91.1255H58.8748V101.25H72.3748V91.1255H82.5V77.6255H72.3748V67.5Z" fill="#9E9E9E"/>
<path d="M17.8125 109.688L7.5 98.4375V34.6875L18.75 45L17.8125 109.688Z" fill="#E6E6E6"/>
<path d="M18.75 52.5H112.5V56.25L18.75 72.1875V52.5Z" fill="#E0E0E0"/>
<path d="M52.5 56.25V52.5H78.75V56.25H52.5Z" fill="#E0E0E0"/>
<path d="M60 61.875V56.25H69.375V61.875H60Z" fill="#E0E0E0"/>
<path d="M18.7499 45L8.43744 35.625C7.68744 31.875 11.8749 28.125 14.0624 27.1875C18.7499 31.875 17.8124 30.9375 26.2499 38.4375C22.4999 38.4375 19.6874 42.8125 18.7499 45Z" fill="#E0E0E0"/>
<path d="M18.75 110.625V52.4355H112.5V110.625H18.75Z" stroke="black" stroke-linecap="round" stroke-linejoin="round"/>
<path d="M7.5 41.1853V99.375L18.75 110.625" stroke="black" stroke-linecap="round" stroke-linejoin="round"/>
<path d="M52.6941 55.6683V52.4355H78.5562V55.6683H52.6941Z" stroke="black" stroke-linecap="round" stroke-linejoin="round"/>
<path d="M60.7759 62.1337V55.6682H70.4742V62.1337H60.7759Z" stroke="black" stroke-linecap="round" stroke-linejoin="round"/>
<path d="M59.1594 68.5991V68.0991C58.8833 68.0991 58.6594 68.323 58.6594 68.5991H59.1594ZM72.0904 68.5991H72.5904C72.5904 68.323 72.3666 68.0991 72.0904 68.0991V68.5991ZM59.1594 78.2975V78.7975C59.4356 78.7975 59.6594 78.5737 59.6594 78.2975H59.1594ZM49.4612 78.2975V77.7975C49.185 77.7975 48.9612 78.0214 48.9612 78.2975H49.4612ZM49.4612 91.2285H48.9612C48.9612 91.5047 49.185 91.7285 49.4612 91.7285V91.2285ZM59.1594 91.2285H59.6594C59.6594 90.9524 59.4356 90.7285 59.1594 90.7285V91.2285ZM59.1594 100.927H58.6594C58.6594 101.203 58.8833 101.427 59.1594 101.427V100.927ZM72.0904 100.927V101.427C72.3666 101.427 72.5904 101.203 72.5904 100.927H72.0904ZM72.0904 91.2285V90.7285C71.8143 90.7285 71.5904 90.9524 71.5904 91.2285H72.0904ZM81.7888 91.2285V91.7285C82.0649 91.7285 82.2888 91.5047 82.2888 91.2285H81.7888ZM81.7888 78.2975H82.2888C82.2888 78.0214 82.0649 77.7975 81.7888 77.7975V78.2975ZM72.0904 78.2975H71.5904C71.5904 78.5737 71.8143 78.7975 72.0904 78.7975V78.2975ZM59.1594 69.0991H72.0904V68.0991H59.1594V69.0991ZM59.6594 78.2975V68.5991H58.6594V78.2975H59.6594ZM49.4612 78.7975H59.1594V77.7975H49.4612V78.7975ZM49.9612 91.2285V78.2975H48.9612V91.2285H49.9612ZM59.1594 90.7285H49.4612V91.7285H59.1594V90.7285ZM59.6594 100.927V91.2285H58.6594V100.927H59.6594ZM72.0904 100.427H59.1594V101.427H72.0904V100.427ZM71.5904 91.2285V100.927H72.5904V91.2285H71.5904ZM81.7888 90.7285H72.0904V91.7285H81.7888V90.7285ZM81.2888 78.2975V91.2285H82.2888V78.2975H81.2888ZM72.0904 78.7975H81.7888V77.7975H72.0904V78.7975ZM71.5904 68.5991V78.2975H72.5904V68.5991H71.5904Z" fill="black"/>
<circle cx="65.6249" cy="58.901" r="1.11638" stroke="black"/>
<path d="M7.5 41.25L18.75 52.4999" stroke="black" stroke-linecap="round" stroke-linejoin="round"/>
<path d="M7.5 41.1851V36.0127C7.5 30.835 11.6973 26.6377 16.875 26.6377H91.875C94.268 26.6377 96.5625 27.6977 98.4375 29.3176C100.312 30.9375 109.417 40.3125 109.417 40.3125M18.75 47.2625V52.4349H112.5V47.2625C112.5 42.0848 108.303 37.8875 103.125 37.8875H28.125C22.9473 37.8875 18.75 42.0848 18.75 47.2625Z" stroke="black" stroke-linecap="round" stroke-linejoin="round"/>
<path d="M59.6121 9.375C36.3282 9.375 32.8489 22.9166 33.9194 30.3879L40.343 30.3879C39.5401 25.2154 42.1495 15.8405 59.6125 15.8405C77.0754 15.8405 79.6848 25.2153 78.8819 30.3878L85.3047 30.3878C86.3752 22.9165 82.896 9.375 59.6121 9.375Z" fill="white" stroke="black" stroke-linecap="round" stroke-linejoin="round"/>
<path fill-rule="evenodd" clip-rule="evenodd" d="M30 30V33.75H43.125C44.1605 33.75 45 32.9105 45 31.875C45 30.8395 44.1605 30 43.125 30H30Z" fill="#9E9E9E"/>
<path d="M30 33.75H29.5C29.5 34.0261 29.7239 34.25 30 34.25V33.75ZM30 30V29.5C29.7239 29.5 29.5 29.7239 29.5 30H30ZM30.5 33.75V30H29.5V33.75H30.5ZM43.125 33.25H30V34.25H43.125V33.25ZM44.5 31.875C44.5 32.6344 43.8844 33.25 43.125 33.25V34.25C44.4367 34.25 45.5 33.1867 45.5 31.875H44.5ZM43.125 30.5C43.8844 30.5 44.5 31.1156 44.5 31.875H45.5C45.5 30.5633 44.4367 29.5 43.125 29.5V30.5ZM30 30.5H43.125V29.5H30V30.5Z" fill="black"/>
<path fill-rule="evenodd" clip-rule="evenodd" d="M75 30V33.75H88.125C89.1605 33.75 90 32.9105 90 31.875C90 30.8395 89.1605 30 88.125 30H75Z" fill="#9E9E9E"/>
<path d="M75 33.75H74.5C74.5 34.0261 74.7239 34.25 75 34.25V33.75ZM75 30V29.5C74.7239 29.5 74.5 29.7239 74.5 30H75ZM75.5 33.75V30H74.5V33.75H75.5ZM88.125 33.25H75V34.25H88.125V33.25ZM89.5 31.875C89.5 32.6344 88.8844 33.25 88.125 33.25V34.25C89.4367 34.25 90.5 33.1867 90.5 31.875H89.5ZM88.125 30.5C88.8844 30.5 89.5 31.1156 89.5 31.875H90.5C90.5 30.5633 89.4367 29.5 88.125 29.5V30.5ZM75 30.5H88.125V29.5H75V30.5Z" fill="black"/>
<circle cx="30" cy="31.875" r="1.875" fill="white" stroke="black"/>
<circle cx="75" cy="31.875" r="1.875" fill="white" stroke="black"/>
</svg>
