<svg width="64" height="64" viewBox="0 0 64 64" fill="none" xmlns="http://www.w3.org/2000/svg">
<path d="M37.5 24.5C38 26 38 27.6667 38 27.6667C38 28.219 35.3137 29.5 32 29.5C28.6863 29.5 26 28.219 26 27.6667C26 27.6667 26.0001 26 26.4999 24.5C27.8333 24.6667 30.8 25.5 32 25.5C33.2 25.5 36.1667 24.6667 37.5 24.5Z" fill="#E0E0E0"/>
<path d="M24 29V36.2222C24 37.7563 27.5817 39 32 39C36.4183 39 40 37.7563 40 36.2222V29C39 30 35.2203 31 32 31C28.7797 31 24.8333 29.8333 24 29Z" fill="#F5F5F5"/>
<path d="M26 21V23.8889C26 24.5025 28.6863 25.5 32 25.5C35.3137 25.5 38 24.5025 38 23.8889V21H26Z" fill="#F5F5F5"/>
<path d="M32 31C36.4183 31 40 29.8807 40 28.5C39.9985 28 38.9956 27.5 37.9956 27.5C37.9956 28 36.7965 29.5 32 29.5C27.2035 29.5 25.9985 28 25.9956 27.5C24.3956 27.5 23.9985 28.1667 24 28.5C24 29.8807 27.5817 31 32 31Z" fill="#E6E6E6"/>
<path d="M32.0041 63.5C36.4224 63.5 40.0041 62.3809 40.0041 61.0002V41.4599C40.0041 38.08 37 39.0001 37 39.0001C37 39.0001 34.0849 39.5421 32 39.5001C30.5556 39.471 28.5001 39.5001 27 39C25.4999 38.4999 23.849 40.4036 24.0155 41.4599V61.0002C24.0155 62.3809 27.5858 63.5 32.0041 63.5Z" fill="#9E9E9E"/>
<path d="M25.5 43C25.5 41.5 25.5 40.5 26.5 40L28.5 40.4999C28.6667 47.3332 28.5 60 28.5 61.5C26.5001 61.5 26 61 25.5001 60.5L25.5 60.4999V43Z" fill="white"/>
<path d="M28 19H36L34.0988 1.88957C34.0426 1.38314 33.6145 1 33.105 1H30.895C30.3855 1 29.9574 1.38313 29.9012 1.88957L28 19Z" fill="white"/>
<path d="M32 59C36.4183 59 40 57.8807 40 56.5V42.5C40 43.8807 36.4183 45 32 45C27.5817 45 24 43.8807 24 42.5V56.5C24 57.8807 27.5817 59 32 59Z" fill="#F5F5F5"/>
<path d="M37.5 24.5C38 26 38 27.6667 38 27.6667C38 28.219 35.3137 29.5 32 29.5C28.6863 29.5 26 28.219 26 27.6667C26 27.6667 26.0001 26 26.4999 24.5" stroke="black" stroke-linecap="round" stroke-linejoin="round"/>
<path d="M24 29V36.2222C24 37.7563 27.5817 39.5 32 39.5C36.4183 39.5 40 37.7563 40 36.2222V29" stroke="black" stroke-linecap="round" stroke-linejoin="round"/>
<path d="M26 21V23.8889C26 24.5025 28.6863 25.5 32 25.5C35.3137 25.5 38 24.5025 38 23.8889V21" stroke="black" stroke-linecap="round" stroke-linejoin="round"/>
<path d="M37.9956 27.5C38.9956 27.5 39.9985 28 40 28.5C40 29.8807 36.4183 31.5 32 31.5C27.5817 31.5 24 29.8807 24 28.5C23.9985 28.1667 24.3956 27.5 25.9956 27.5" stroke="black" stroke-linecap="round" stroke-linejoin="round"/>
<path d="M40.5001 56.5C40.5001 56.2239 40.2763 56 40.0001 56C39.724 56 39.5001 56.2239 39.5001 56.5H40.5001ZM24.5156 56.5C24.5156 56.2239 24.2918 56 24.0156 56C23.7395 56 23.5156 56.2239 23.5156 56.5H24.5156ZM40.5001 42.5C40.5001 42.2239 40.2763 42 40.0001 42C39.724 42 39.5001 42.2239 39.5001 42.5H40.5001ZM24.5156 42.5C24.5156 42.2239 24.2918 42 24.0156 42C23.7395 42 23.5156 42.2239 23.5156 42.5H24.5156ZM24.0156 41.4599H24.5156V41.4598L24.0156 41.4599ZM37.0001 39.0001L37.0915 39.4917L37.1194 39.4865L37.1465 39.4782L37.0001 39.0001ZM32.0001 39.5001L32.0101 39.0002L32.0001 39.5001ZM39.5001 56.5C39.5001 56.6121 39.4265 56.8108 39.0743 57.071C38.7319 57.3239 38.2045 57.5728 37.5078 57.7905C36.1205 58.2241 34.1731 58.5 32.0001 58.5V59.5C34.2455 59.5 36.2981 59.2163 37.8061 58.745C38.5572 58.5103 39.2013 58.2205 39.6686 57.8753C40.126 57.5373 40.5001 57.0783 40.5001 56.5H39.5001ZM32.0001 58.5C29.8435 58.5 27.9029 58.1333 26.5146 57.6525C25.8181 57.4113 25.2805 57.1482 24.9279 56.9024C24.7511 56.7791 24.6374 56.6716 24.5724 56.5879C24.5056 56.5018 24.5156 56.4747 24.5156 56.5H23.5156C23.5156 56.7753 23.6371 57.0138 23.7825 57.2012C23.9298 57.3909 24.1293 57.5646 24.3559 57.7226C24.81 58.0393 25.4401 58.3387 26.1874 58.5975C27.6868 59.1167 29.7385 59.5 32.0001 59.5V58.5ZM39.5001 42.5C39.5001 42.6121 39.4265 42.8108 39.0743 43.071C38.7319 43.3239 38.2045 43.5728 37.5078 43.7905C36.1204 44.2241 34.1731 44.5 32.0001 44.5V45.5C34.2455 45.5 36.2981 45.2163 37.8061 44.745C38.5572 44.5103 39.2013 44.2205 39.6686 43.8753C40.126 43.5373 40.5001 43.0783 40.5001 42.5H39.5001ZM32.0001 44.5C29.8272 44.5 27.8838 44.2241 26.5005 43.7906C25.8059 43.573 25.2806 43.3242 24.9397 43.0715C24.5894 42.8117 24.5156 42.613 24.5156 42.5H23.5156C23.5156 43.0774 23.8877 43.5363 24.3441 43.8747C24.8099 44.2202 25.4523 44.5101 26.2015 44.7449C27.7059 45.2163 29.7548 45.5 32.0001 45.5V44.5ZM39.5042 61.0002C39.5042 61.1122 39.4306 61.3109 39.0784 61.5711C38.736 61.8241 38.2086 62.0729 37.5119 62.2906C36.1245 62.7241 34.1771 63 32.0042 63V64C34.2495 64 36.3021 63.7163 37.8102 63.2451C38.5612 63.0104 39.2054 62.7206 39.6726 62.3754C40.1301 62.0374 40.5042 61.5785 40.5042 61.0002H39.5042ZM32.0042 63C29.8312 63 27.8868 62.7241 26.5024 62.2907C25.8073 62.0731 25.2814 61.8243 24.9401 61.5715C24.5893 61.3116 24.5156 61.1129 24.5156 61.0002H23.5156C23.5156 61.5778 23.8882 62.0367 24.3449 62.375C24.8111 62.7204 25.454 63.0103 26.2037 63.245C27.709 63.7163 29.7589 64 32.0042 64V63ZM24.5156 61.0002V41.4599H23.5156V61.0002H24.5156ZM24.5156 41.4598C24.5156 41.3331 24.5702 41.112 24.7184 40.8384C24.862 40.5733 25.0745 40.2945 25.3418 40.0546C25.8758 39.5753 26.5823 39.2859 27.3789 39.4851L27.6214 38.5149C26.418 38.2141 25.3821 38.6747 24.6739 39.3104C24.32 39.628 24.0364 39.9979 23.8391 40.3621C23.6465 40.7178 23.5156 41.1066 23.5156 41.4599L24.5156 41.4598ZM37.0001 39.0001C37.1465 39.4782 37.1463 39.4782 37.1461 39.4783C37.146 39.4783 37.1458 39.4784 37.1457 39.4784C37.1454 39.4785 37.1453 39.4785 37.1451 39.4786C37.1448 39.4787 37.1447 39.4787 37.1448 39.4787C37.1449 39.4787 37.1457 39.4784 37.1471 39.478C37.15 39.4772 37.1556 39.4756 37.1636 39.4734C37.1796 39.4691 37.2053 39.4625 37.2393 39.4549C37.3076 39.4394 37.4077 39.42 37.5284 39.4056C37.7747 39.3764 38.0831 39.3713 38.378 39.4469C38.6652 39.5205 38.9302 39.6672 39.1298 39.9428C39.3326 40.223 39.5042 40.6868 39.5042 41.4599H40.5042C40.5042 40.543 40.3002 39.8543 39.9398 39.3564C39.5761 38.854 39.0901 38.597 38.6262 38.4782C38.1701 38.3613 37.7275 38.375 37.4105 38.4126C37.2496 38.4317 37.115 38.4578 37.019 38.4794C36.9708 38.4903 36.932 38.5002 36.904 38.5077C36.89 38.5115 36.8787 38.5147 36.8703 38.5171C36.866 38.5183 36.8625 38.5194 36.8597 38.5202C36.8584 38.5206 36.8571 38.521 36.8561 38.5213C36.8556 38.5214 36.8552 38.5216 36.8547 38.5217C36.8545 38.5217 36.8543 38.5218 36.8542 38.5219C36.8539 38.5219 36.8536 38.522 37.0001 39.0001ZM39.5042 41.4599V61.0002H40.5042V41.4599H39.5042ZM27.3789 39.4851C29.4399 40.0003 30.5471 39.9709 31.99 40L32.0101 39.0002C30.5643 38.9711 29.5605 38.9997 27.6214 38.5149L27.3789 39.4851ZM31.99 40C33.071 40.0218 34.351 39.8927 35.3472 39.7616C35.8482 39.6956 36.283 39.6283 36.5929 39.5775C36.7479 39.5521 36.8719 39.5308 36.9574 39.5157C37.0001 39.5082 37.0333 39.5023 37.0559 39.4982C37.0673 39.4961 37.076 39.4945 37.0819 39.4934C37.0849 39.4929 37.0872 39.4925 37.0888 39.4922C37.0896 39.492 37.0902 39.4919 37.0907 39.4918C37.0909 39.4918 37.0911 39.4917 37.0912 39.4917C37.0913 39.4917 37.0913 39.4917 37.0914 39.4917C37.0914 39.4917 37.0915 39.4917 37.0001 39.0001C36.9087 38.5085 36.9087 38.5085 36.9087 38.5085C36.9087 38.5085 36.9087 38.5085 36.9087 38.5085C36.9086 38.5085 36.9086 38.5085 36.9084 38.5086C36.9082 38.5086 36.9077 38.5087 36.9071 38.5088C36.9059 38.509 36.904 38.5094 36.9014 38.5099C36.8962 38.5108 36.8883 38.5123 36.8777 38.5142C36.8567 38.518 36.8251 38.5236 36.7841 38.5309C36.7021 38.5453 36.582 38.566 36.4311 38.5907C36.1293 38.6402 35.7051 38.7058 35.2167 38.7701C34.2341 38.8995 33.0141 39.0204 32.0101 39.0002L31.99 40Z" fill="black"/>
<path d="M38.2987 21V21.5C38.3595 21.5 38.4199 21.4889 38.4767 21.4672L38.2987 21ZM38.2987 16L38.4767 15.5328C38.4199 15.5111 38.3595 15.5 38.2987 15.5V16ZM25.7013 16V15.5C25.6405 15.5 25.5801 15.5111 25.5233 15.5328L25.7013 16ZM25.7013 21L25.5233 21.4672C25.5801 21.4889 25.6405 21.5 25.7013 21.5V21ZM40.5 18.5C40.5 18.7999 40.3435 19.1417 39.9387 19.5085C39.5338 19.8755 38.9202 20.2281 38.1206 20.5328L38.4767 21.4672C39.3442 21.1367 40.0812 20.7289 40.6102 20.2495C41.1393 19.77 41.5 19.1794 41.5 18.5H40.5ZM38.1206 16.4672C38.9202 16.7719 39.5338 17.1245 39.9387 17.4915C40.3435 17.8583 40.5 18.2001 40.5 18.5H41.5C41.5 17.8206 41.1393 17.23 40.6102 16.7505C40.0812 16.2711 39.3442 15.8633 38.4767 15.5328L38.1206 16.4672ZM38.2987 15.5H25.7013V16.5H38.2987V15.5ZM23.5 18.5C23.5 18.2001 23.6565 17.8583 24.0613 17.4915C24.4662 17.1245 25.0798 16.7719 25.8794 16.4672L25.5233 15.5328C24.6558 15.8633 23.9188 16.2711 23.3898 16.7505C22.8607 17.23 22.5 17.8206 22.5 18.5H23.5ZM25.8794 20.5328C25.0798 20.2281 24.4662 19.8755 24.0613 19.5085C23.6565 19.1417 23.5 18.7999 23.5 18.5H22.5C22.5 19.1794 22.8607 19.77 23.3898 20.2495C23.9188 20.7289 24.6558 21.1367 25.5233 21.4672L25.8794 20.5328ZM25.7013 21.5H38.2987V20.5H25.7013V21.5Z" fill="black"/>
<path fill-rule="evenodd" clip-rule="evenodd" d="M38.2987 21C39.9657 20.3647 41 19.4793 41 18.5C41 17.5207 39.9657 16.6353 38.2987 16H25.7013C24.0343 16.6353 23 17.5207 23 18.5C23 19.4793 24.0343 20.3647 25.7013 21H38.2987Z" fill="#E0E0E0"/>
<path d="M38.2987 21V21.5C38.3595 21.5 38.4199 21.4889 38.4767 21.4672L38.2987 21ZM38.2987 16L38.4767 15.5328C38.4199 15.5111 38.3595 15.5 38.2987 15.5V16ZM25.7013 16V15.5C25.6405 15.5 25.5801 15.5111 25.5233 15.5328L25.7013 16ZM25.7013 21L25.5233 21.4672C25.5801 21.4889 25.6405 21.5 25.7013 21.5V21ZM40.5 18.5C40.5 18.7999 40.3435 19.1417 39.9387 19.5085C39.5338 19.8755 38.9202 20.2281 38.1206 20.5328L38.4767 21.4672C39.3442 21.1367 40.0812 20.7289 40.6102 20.2495C41.1393 19.77 41.5 19.1794 41.5 18.5H40.5ZM38.1206 16.4672C38.9202 16.7719 39.5338 17.1245 39.9387 17.4915C40.3435 17.8583 40.5 18.2001 40.5 18.5H41.5C41.5 17.8206 41.1393 17.23 40.6102 16.7505C40.0812 16.2711 39.3442 15.8633 38.4767 15.5328L38.1206 16.4672ZM38.2987 15.5H25.7013V16.5H38.2987V15.5ZM23.5 18.5C23.5 18.2001 23.6565 17.8583 24.0613 17.4915C24.4662 17.1245 25.0798 16.7719 25.8794 16.4672L25.5233 15.5328C24.6558 15.8633 23.9188 16.2711 23.3898 16.7505C22.8607 17.23 22.5 17.8206 22.5 18.5H23.5ZM25.8794 20.5328C25.0798 20.2281 24.4662 19.8755 24.0613 19.5085C23.6565 19.1417 23.5 18.7999 23.5 18.5H22.5C22.5 19.1794 22.8607 19.77 23.3898 20.2495C23.9188 20.7289 24.6558 21.1367 25.5233 21.4672L25.8794 20.5328ZM25.7013 21.5H38.2987V20.5H25.7013V21.5Z" fill="black"/>
<path d="M29.915 1.90666L28 16.9688C28 18.0561 29.7909 18.9375 32 18.9375C34.2091 18.9375 36 18.0561 36 16.9688L34.0875 1.90368C34.0378 1.3911 33.6071 1 33.0921 1H30.9106C30.3945 1 29.9632 1.39279 29.915 1.90666Z" fill="white" stroke="black" stroke-linecap="round" stroke-linejoin="round"/>
<path d="M29 33V37" stroke="black" stroke-linecap="round" stroke-linejoin="round"/>
<path d="M26 32V36" stroke="black" stroke-linecap="round" stroke-linejoin="round"/>
<path d="M32 33V37" stroke="black" stroke-linecap="round" stroke-linejoin="round"/>
<path d="M35 33V37" stroke="black" stroke-linecap="round" stroke-linejoin="round"/>
<path d="M38 32V36" stroke="black" stroke-linecap="round" stroke-linejoin="round"/>
<ellipse cx="32" cy="1.5" rx="2" ry="0.875" fill="#E0E0E0" stroke="black" stroke-linecap="round" stroke-linejoin="round"/>
</svg>
