<svg width="64" height="64" viewBox="0 0 64 64" fill="none" xmlns="http://www.w3.org/2000/svg">
<path d="M15.3833 15.883C19.2885 11.9777 21.6629 8.02044 20.6866 7.04413C19.8313 6.1889 16.6887 7.90479 13.2973 10.9686L10.4689 13.797C7.40508 17.1884 5.68919 20.331 6.54442 21.1863C7.52073 22.1626 11.478 19.7882 15.3833 15.883Z" fill="#F5F5F5"/>
<ellipse cx="6.36766" cy="6.86715" rx="5" ry="1.25" transform="rotate(-45 6.36766 6.86715)" fill="#F5F5F5"/>
<path d="M58.5168 59.0163C59.2979 58.2352 59.4192 57.0902 59.2239 56.895L54.6277 52.2988C54.2742 53.1237 53.2135 54.8444 51.7993 55.1272L56.3955 59.7234C56.5908 59.9187 57.7358 59.7973 58.5168 59.0163Z" fill="#E0E0E0"/>
<path d="M13.6155 14.115C12.8345 14.896 12.043 15.3709 11.8478 15.1757L6.19092 9.5188L9.01935 6.69037L14.6762 12.3472C14.8715 12.5425 14.3966 13.3339 13.6155 14.115Z" fill="#E0E0E0"/>
<path d="M54.6286 52.2979C54.327 53.0449 54.1368 53.4971 53.567 54.0666C52.9977 54.6358 52.5458 54.8258 51.7993 55.1273C49.3366 56.1218 46.7788 55.7637 45.0818 54.0666L11.1406 20.1255L19.6259 11.6402L53.567 45.5813C55.2641 47.2784 55.623 49.8356 54.6286 52.2979Z" fill="#F5F5F5"/>
<path d="M45.4353 54.4202L42.9604 51.9453C43.9033 51.4739 46.2131 50.1068 47.9102 48.4098C49.6073 46.7127 50.9743 44.4028 51.4457 43.46L53.9206 45.9349C53.8028 46.7599 53.0014 48.9755 50.7386 51.2382C48.4759 53.5009 46.2603 54.3023 45.4353 54.4202Z" fill="#9E9E9E"/>
<path d="M50.0314 44.167C49.4658 45.2984 48.8529 46.0526 48.6172 46.2883C46.496 44.167 20.6862 18.358 17.8581 15.5292C18.4238 14.9635 18.9187 13.9971 19.2723 13.4079L50.0314 44.167Z" fill="#E0E0E0"/>
<path d="M12.201 18.3578L12.9081 14.8222L15.0295 12.7009L13.2617 10.9331L17.5043 8.10471C18.9185 6.6905 21.3934 6.33695 20.3328 8.81182C18.7105 12.5971 14.4402 16.8257 12.201 18.3578Z" fill="#E0E0E0"/>
<path d="M51.0922 43.1065C51.678 43.6923 50.2534 46.0667 47.9102 48.4098C45.5671 50.753 43.1927 52.1776 42.6069 51.5918" stroke="black" stroke-linecap="round" stroke-linejoin="round"/>
<path d="M45.435 37.4497C46.0208 38.0355 44.5962 40.4099 42.253 42.753" stroke="black" stroke-linecap="round" stroke-linejoin="round"/>
<path d="M41.5464 33.5606C42.1321 34.1464 40.7075 36.5207 38.3644 38.8639" stroke="black" stroke-linecap="round" stroke-linejoin="round"/>
<path d="M37.6572 29.6714C38.243 30.2572 36.8184 32.6316 34.4752 34.9747" stroke="black" stroke-linecap="round" stroke-linejoin="round"/>
<path d="M33.768 25.7823C34.3538 26.368 32.9292 28.7424 30.5861 31.0856" stroke="black" stroke-linecap="round" stroke-linejoin="round"/>
<path d="M29.8789 21.8933C30.4647 22.4791 29.04 24.8535 26.6969 27.1966" stroke="black" stroke-linecap="round" stroke-linejoin="round"/>
<path d="M25.9897 18.0042C26.5755 18.59 25.1509 20.9643 22.8077 23.3075" stroke="black" stroke-linecap="round" stroke-linejoin="round"/>
<path d="M22.1006 14.115C22.6863 14.7008 21.2617 17.0752 18.9186 19.4183" stroke="black" stroke-linecap="round" stroke-linejoin="round"/>
<path d="M10.4689 13.797C7.40508 17.1884 5.68919 20.331 6.54442 21.1863C7.52073 22.1626 11.478 19.7882 15.3833 15.883C19.2885 11.9777 21.6629 8.02044 20.6866 7.04413C19.8313 6.1889 16.6887 7.90479 13.2973 10.9686" stroke="black" stroke-linecap="round" stroke-linejoin="round"/>
<ellipse cx="6.36766" cy="6.86715" rx="5" ry="1.25" transform="rotate(-45 6.36766 6.86715)" stroke="black" stroke-linecap="round" stroke-linejoin="round"/>
<path d="M51.7993 55.1272L56.3955 59.7234C56.5908 59.9187 57.7358 59.7973 58.5168 59.0163C59.2979 58.2352 59.4192 57.0902 59.2239 56.895L54.6277 52.2988" stroke="black" stroke-linecap="round" stroke-linejoin="round"/>
<path d="M6.19092 9.5188L11.8478 15.1757C12.043 15.3709 12.8345 14.896 13.6155 14.115C14.3966 13.3339 14.8715 12.5425 14.6762 12.3472L9.01935 6.69037" stroke="black" stroke-linecap="round" stroke-linejoin="round"/>
<path d="M53.567 45.5813L53.9206 45.2278L53.567 45.5813ZM45.0818 54.0666L45.4353 53.7131L45.0818 54.0666ZM54.6286 52.2979L55.0922 52.4851L54.6286 52.2979ZM53.567 54.0666L53.9205 54.4202L53.567 54.0666ZM51.7993 55.1273L51.9865 55.5909L51.9865 55.5909L51.7993 55.1273ZM19.9795 11.2867C19.7842 11.0914 19.4676 11.0914 19.2724 11.2867C19.0771 11.4819 19.0771 11.7985 19.2724 11.9938L19.9795 11.2867ZM11.4942 19.7719C11.2989 19.5767 10.9823 19.5767 10.7871 19.7719C10.5918 19.9672 10.5918 20.2838 10.7871 20.479L11.4942 19.7719ZM53.2135 45.9349C53.1896 45.911 53.2049 45.9077 53.2164 45.9775C53.2277 46.0462 53.2296 46.1554 53.207 46.3107C53.1617 46.6211 53.0294 47.0418 52.7978 47.5399C52.3366 48.5316 51.518 49.7517 50.3851 50.8846L51.0922 51.5917C52.3024 50.3815 53.1908 49.0661 53.7045 47.9616C53.9603 47.4116 54.1325 46.894 54.1965 46.455C54.2285 46.2355 54.2363 46.0172 54.2032 45.8155C54.1702 45.6148 54.0909 45.3981 53.9206 45.2278L53.2135 45.9349ZM50.3851 50.8846C49.2521 52.0176 48.032 52.8362 47.0403 53.2974C46.5423 53.529 46.1215 53.6613 45.8111 53.7065C45.6558 53.7292 45.5467 53.7273 45.4779 53.716C45.4081 53.7045 45.4114 53.6892 45.4353 53.7131L44.7282 54.4202C44.8985 54.5905 45.1152 54.6698 45.3159 54.7028C45.5176 54.7359 45.7359 54.7281 45.9554 54.6961C46.3945 54.632 46.912 54.4599 47.462 54.2041C48.5666 53.6904 49.882 52.8019 51.0922 51.5917L50.3851 50.8846ZM54.165 52.1107C53.8671 52.8483 53.7074 53.2193 53.2135 53.713L53.9205 54.4202C54.5661 53.7749 54.7868 53.2415 55.0922 52.4851L54.165 52.1107ZM53.2135 53.713C52.7199 54.2064 52.3492 54.3659 51.612 54.6637L51.9865 55.5909C52.7423 55.2857 53.2754 55.0652 53.9205 54.4202L53.2135 53.713ZM19.2724 11.9938L53.2135 45.9349L53.9206 45.2278L19.9795 11.2867L19.2724 11.9938ZM10.7871 20.479L44.7282 54.4202L45.4353 53.7131L11.4942 19.7719L10.7871 20.479ZM51.612 54.6637C49.2978 55.5983 46.9638 55.2416 45.4353 53.7131L44.7282 54.4202C46.5938 56.2857 49.3755 56.6453 51.9865 55.5909L51.612 54.6637ZM55.0922 52.4851C56.1466 49.8743 55.7861 47.0932 53.9206 45.2278L53.2135 45.9349C54.7421 47.4635 55.0994 49.7969 54.165 52.1107L55.0922 52.4851Z" fill="black"/>
</svg>
