<svg width="64" height="64" viewBox="0 0 64 64" fill="none" xmlns="http://www.w3.org/2000/svg">
<path d="M16 11C15.5453 11.1111 14.7269 11.4667 15.0906 12" stroke="white"/>
<path d="M33.0001 45C33.8629 46.2281 39.2944 51.8421 37.9998 57" stroke="white" stroke-linecap="round" stroke-linejoin="round"/>
<path d="M49.0001 39C48.5 41 49.0001 47.8 49.0001 50" stroke="white" stroke-linecap="round" stroke-linejoin="round"/>
<path d="M22 60C22.5556 54.8077 28.5926 49.1154 31 47C33.5 44.5 33.9107 43.0833 40 42C44.8714 41.1333 55.6488 36.6667 61 34.5" stroke="white" stroke-linecap="round" stroke-linejoin="round"/>
<path d="M30 47C27.7778 45.9438 23.1111 44.9155 17 46.5" stroke="white" stroke-linecap="round" stroke-linejoin="round"/>
<path d="M38 42C35.6667 40 28.7692 36.4547 25 37" stroke="white" stroke-linecap="round" stroke-linejoin="round"/>
<path d="M54 36.9999C51.6528 34.8742 45.7917 29.4203 42 29.9999" stroke="white" stroke-linecap="round" stroke-linejoin="round"/>
<path d="M25.0004 32C9.40037 34 2.99999 22.5 3.00023 17.5C2.5 16 6.8335 13.1667 9.50016 12L9.50037 14C8.00037 14.6667 5.30037 16.3 6.50037 17.5C8.00037 19 14.0004 21 25.0004 20.5C33.8004 20.1 39.3337 17.3333 41.0004 16L39.5002 12C40.8335 12.1667 44.0004 13 44.0004 15C44.0004 17.5 44.5004 29.5 25.0004 32Z" fill="#F5F5F5"/>
<path d="M10.5798 10.8889L9.99985 12V13.5C9.16652 13.8333 7.29985 14.9 6.49985 16.5C5.49985 18.5 15.2198 21 24.4998 20.5C33.7799 20 41.4999 16.5 40.4999 16C39.6999 15.6 39.1665 12.7963 38.9999 11.4444L37.8398 10.8889L36.0998 9.22222L34.3598 8.66667L33.1998 7.55556L31.8223 5.33333H30.2998L29.7198 4.22222L27.3998 2.55556L24.4998 2H21.5998H18.6998L16.9598 3.11111L15.2198 4.77778L14.0598 5.33333L12.8998 7L11.1598 7.55556L10.5798 9.22222V10.8889Z" fill="#E6E6E6"/>
<path d="M32.3212 52.4599C31.2095 49.8724 33.9425 49.6568 35.1005 49.8724C36.4902 47.2849 38.4877 47.9317 39.2695 48.5786C45.5231 53.7534 39.2694 58.2818 37.8797 58.9286C36.4901 59.5755 33.7109 55.6943 32.3212 52.4599Z" fill="#E6E6E6"/>
<path d="M51.8069 47.6182C52.7958 42.0224 49.7468 42.0224 48.0987 42.7219C48.0987 42.0224 45.6265 39.2244 44.3904 42.7219C43.4015 45.5198 44.3902 49.6167 46.2445 51.1156C47.6866 52.2814 50.818 53.2141 51.8069 47.6182Z" fill="#E6E6E6"/>
<path d="M24.5303 53.2033C25.0894 52.6502 26 52.0575 26 53.338C26 55.0704 22.2667 62 20.6667 62C19.0667 62 18 59.1127 18 57.3803C18 55.6479 20.1333 51.0281 22.8 52.183C24.096 52.7443 24.4735 53.0499 24.5303 53.2033Z" fill="#E6E6E6"/>
<path d="M15.3984 47.5136C20.2599 48.6759 25.3427 47.5135 27 46.5449C24.2377 44.6077 22.5803 43.6391 18.7133 44.1234C16.6985 44.3757 11.5313 46.589 15.3984 47.5136Z" fill="#E6E6E6"/>
<path d="M23.1854 37.9685C24.0447 38.911 30.1669 41.503 35 40.9139C35 40.3248 34.4632 36.2013 30.1669 34.434C25.8706 32.6668 22.1113 36.7903 23.1854 37.9685Z" fill="#E6E6E6"/>
<path d="M40.1602 30.6344C40.9845 31.4975 46.3427 35.4895 50.9794 34.9501C50.9794 34.4106 51.4947 29.0159 47.373 27.3975C43.2513 25.7791 39.1297 29.5555 40.1602 30.6344Z" fill="#E6E6E6"/>
<path d="M31 16C31.2222 15.0906 31.9333 13.4538 33 14.1813" stroke="black" stroke-linecap="round"/>
<path d="M25 15C25.5 14.4043 26.8 13.4513 28 14.4043" stroke="black" stroke-linecap="round"/>
<path d="M30 9C30.8449 9 32.4079 9.4 31.901 11" stroke="black" stroke-linecap="round"/>
<path d="M24 7C23.25 6.24538 21.6 5.1889 21 7" stroke="black" stroke-linecap="round"/>
<path d="M3 17C3 27.1948 13.2573 32.2457 23.2873 31.9913C33.5313 31.7315 44 26.8939 44 15" stroke="black" stroke-linecap="round" stroke-linejoin="round"/>
<path d="M7.43219 17.9376C4.7238 16.6421 7.80835 14.519 9.68917 13.6193L10.8177 12C7.43225 13.0796 1.22553 15.7785 3.48252 17.9376C6.30375 20.6365 14.2032 22.7957 27.1809 21.7161C36.209 20.9651 40.7228 18.4774 43.5442 15.7785C45.4054 13.9981 41.099 12.1799 39.0301 12L39.5943 13.6193C39.7824 14.1591 40.2714 15.3467 40.7228 15.7785C41.287 16.3183 36.7731 19.0172 27.1809 20.0967C17.5887 21.1763 10.8177 19.557 7.43219 17.9376Z" stroke="black" stroke-linecap="round" stroke-linejoin="round"/>
<path d="M10 12L10.58 10.8889V9.22222L11.16 7.55556L12.9 7L14.06 5.33333L15.22 4.77778L16.96 3.11111L18.7 2H21.6H24.5L27.4 2.55556L29.72 4.22222L30.3 5.33333H31.8225L33.2 7.55556L34.36 8.66667L36.1 9.22222L37.84 10.8889L39 11.4444" stroke="black" stroke-linecap="round" stroke-linejoin="round"/>
<path d="M15 11C14.5453 11.1111 13.7269 11.4667 14.0906 12" stroke="black" stroke-linecap="round" stroke-linejoin="round"/>
<path d="M32 45C32.8629 46.2281 39.1189 53.8421 37.8243 59" stroke="black" stroke-linecap="round" stroke-linejoin="round"/>
<path d="M32.3212 52.4599C31.2095 49.8724 33.9425 49.6568 35.1005 49.8724C36.4902 47.2849 38.4877 47.9317 39.2695 48.5786C45.5231 53.7534 39.2694 58.2818 37.8797 58.9286C36.4901 59.5755 33.7109 55.6943 32.3212 52.4599Z" stroke="black" stroke-linecap="round" stroke-linejoin="round"/>
<path d="M48.0907 39C47.636 41.1667 47.7268 49.4 48.0906 52" stroke="black" stroke-linecap="round" stroke-linejoin="round"/>
<path d="M51.8069 47.6182C52.7957 42.0224 49.7467 42.0224 48.0986 42.7219C48.0986 42.0224 45.6265 39.2244 44.3904 42.7219C43.4015 45.5198 44.3902 49.6167 46.2445 51.1156C47.6866 52.2814 50.818 53.2141 51.8069 47.6182Z" stroke="black" stroke-linecap="round" stroke-linejoin="round"/>
<path d="M30 47C27.5926 49.1154 20.5556 56.8077 20 62" stroke="black" stroke-linecap="round" stroke-linejoin="round"/>
<path d="M24.4 53.338C24.9333 52.7605 26 51.952 26 53.338C26 55.0704 22.2667 62 20.6667 62C19.0667 62 18 59.1127 18 57.3803C18 55.6479 20.1333 51.0281 22.8 52.183C24.9333 53.1069 24.5778 53.338 24.4 53.338Z" stroke="black" stroke-linecap="round" stroke-linejoin="round"/>
<path d="M61 34C55.6488 36.1667 43.7286 40.7167 38.8571 41.5833C32.7679 42.6667 32.2143 45.375 30 47" stroke="black" stroke-linecap="round" stroke-linejoin="round"/>
<path d="M29 46.9999C26.7778 45.9437 20.1111 45.4155 14 47" stroke="black" stroke-linecap="round" stroke-linejoin="round"/>
<path d="M15.3984 47.5136C20.2599 48.6759 25.3427 47.5135 27 46.5449C24.2377 44.6077 22.5803 43.6391 18.7133 44.1234C16.6985 44.3757 11.5313 46.589 15.3984 47.5136Z" stroke="black" stroke-linecap="round" stroke-linejoin="round"/>
<path d="M37 42C34.6667 40 26.7692 36.5118 23 37.0572" stroke="black" stroke-linecap="round" stroke-linejoin="round"/>
<path d="M53 37C50.6528 34.8743 43.7917 29.4636 40 30.0432" stroke="black" stroke-linecap="round" stroke-linejoin="round"/>
<path d="M23.1854 37.9685C24.0447 38.911 30.1669 41.503 35 40.9139C35 40.3248 34.4632 36.2013 30.1669 34.434C25.8706 32.6668 22.1113 36.7903 23.1854 37.9685Z" stroke="black" stroke-linecap="round" stroke-linejoin="round"/>
<path d="M40.1602 30.6344C40.9845 31.4975 46.3427 35.4895 50.9794 34.9501C50.9794 34.4106 51.4947 29.0159 47.373 27.3975C43.2513 25.7791 39.1297 29.5555 40.1602 30.6344Z" stroke="black" stroke-linecap="round" stroke-linejoin="round"/>
</svg>
