<svg width="64" height="64" viewBox="0 0 64 64" fill="none" xmlns="http://www.w3.org/2000/svg">
<path d="M4 52.5V19C4 16.2386 6.23858 14 9 14H50.5L60 23V59H10L4 52.5Z" fill="white"/>
<path fill-rule="evenodd" clip-rule="evenodd" d="M38.5998 36H31.3998V41.4002H26V48.6002H31.3998V54H38.5998V48.6002H44V41.4002H38.5998V36Z" fill="#9E9E9E"/>
<path d="M9.5 58.5L4 52.5V18.5L10 24L9.5 58.5Z" fill="#E6E6E6"/>
<path d="M10 28H60V30L10 38.5V28Z" fill="#E0E0E0"/>
<path d="M28 30V28H42V30H28Z" fill="#E0E0E0"/>
<path d="M32 33V30H37V33H32Z" fill="#E0E0E0"/>
<path d="M9.99997 24L4.5 19C4.1 17 6.33331 15 7.49997 14.5C9.99997 17 9.5 16.5 14 20.5C12 20.5 10.5 22.8333 9.99997 24Z" fill="#E0E0E0"/>
<path d="M10 59.0001V27.9656H60V59.0001H10Z" stroke="black" stroke-linecap="round" stroke-linejoin="round"/>
<path d="M4 21.9656V53.0001L10 59" stroke="black" stroke-linecap="round" stroke-linejoin="round"/>
<path d="M28.1035 29.6897V27.9656H41.8966V29.6897H28.1035Z" stroke="black" stroke-linecap="round" stroke-linejoin="round"/>
<path d="M32.4138 33.138V29.6897H37.5862V33.138H32.4138Z" stroke="black" stroke-linecap="round" stroke-linejoin="round"/>
<path d="M31.5518 36.5862V36.0862C31.2757 36.0862 31.0518 36.31 31.0518 36.5862H31.5518ZM38.4484 36.5862H38.9484C38.9484 36.31 38.7245 36.0862 38.4484 36.0862V36.5862ZM31.5518 41.7586V42.2586C31.828 42.2586 32.0518 42.0347 32.0518 41.7586H31.5518ZM26.3794 41.7586V41.2586C26.1033 41.2586 25.8794 41.4825 25.8794 41.7586H26.3794ZM26.3794 48.6551H25.8794C25.8794 48.9313 26.1033 49.1551 26.3794 49.1551V48.6551ZM31.5518 48.6551H32.0518C32.0518 48.379 31.828 48.1551 31.5518 48.1551V48.6551ZM31.5518 53.8276H31.0518C31.0518 54.1037 31.2757 54.3276 31.5518 54.3276V53.8276ZM38.4484 53.8276V54.3276C38.7245 54.3276 38.9484 54.1037 38.9484 53.8276H38.4484ZM38.4484 48.6551V48.1551C38.1722 48.1551 37.9484 48.379 37.9484 48.6551H38.4484ZM43.6208 48.6551V49.1551C43.8969 49.1551 44.1208 48.9313 44.1208 48.6551H43.6208ZM43.6208 41.7586H44.1208C44.1208 41.4825 43.8969 41.2586 43.6208 41.2586V41.7586ZM38.4484 41.7586H37.9484C37.9484 42.0347 38.1722 42.2586 38.4484 42.2586V41.7586ZM31.5518 37.0862H38.4484V36.0862H31.5518V37.0862ZM32.0518 41.7586V36.5862H31.0518V41.7586H32.0518ZM26.3794 42.2586H31.5518V41.2586H26.3794V42.2586ZM26.8794 48.6551V41.7586H25.8794V48.6551H26.8794ZM31.5518 48.1551H26.3794V49.1551H31.5518V48.1551ZM32.0518 53.8276V48.6551H31.0518V53.8276H32.0518ZM38.4484 53.3276H31.5518V54.3276H38.4484V53.3276ZM37.9484 48.6551V53.8276H38.9484V48.6551H37.9484ZM43.6208 48.1551H38.4484V49.1551H43.6208V48.1551ZM43.1208 41.7586V48.6551H44.1208V41.7586H43.1208ZM38.4484 42.2586H43.6208V41.2586H38.4484V42.2586ZM37.9484 36.5862V41.7586H38.9484V36.5862H37.9484Z" fill="black"/>
<circle cx="35" cy="31.4138" r="0.5" stroke="black" stroke-width="0.724138"/>
<path d="M4 22L10 27.9999" stroke="black" stroke-linecap="round" stroke-linejoin="round"/>
<path d="M4 21.9654V19.2068C4 16.4454 6.23858 14.2068 9 14.2068H49C50.2763 14.2068 51.5 14.7721 52.5 15.6361C53.5 16.5 58.3557 21.5 58.3557 21.5M10 25.2067V27.9653H60V25.2067C60 22.4453 57.7614 20.2067 55 20.2067H15C12.2386 20.2067 10 22.4453 10 25.2067Z" stroke="black" stroke-linecap="round" stroke-linejoin="round"/>
<path d="M31.7931 5C19.375 5 17.5194 12.2222 18.0904 16.2069L21.5163 16.2069C21.088 13.4482 22.4798 8.44824 31.7933 8.44824C41.1069 8.44824 42.4986 13.4482 42.0704 16.2068L45.4958 16.2068C46.0668 12.2221 44.2112 5 31.7931 5Z" fill="white" stroke="black" stroke-linecap="round" stroke-linejoin="round"/>
<path fill-rule="evenodd" clip-rule="evenodd" d="M16 16V18H23C23.5523 18 24 17.5523 24 17C24 16.4477 23.5523 16 23 16H16Z" fill="#9E9E9E"/>
<path d="M16 18H15.5C15.5 18.2761 15.7239 18.5 16 18.5V18ZM16 16V15.5C15.7239 15.5 15.5 15.7239 15.5 16H16ZM16.5 18V16H15.5V18H16.5ZM23 17.5H16V18.5H23V17.5ZM23.5 17C23.5 17.2761 23.2761 17.5 23 17.5V18.5C23.8284 18.5 24.5 17.8284 24.5 17H23.5ZM23 16.5C23.2761 16.5 23.5 16.7239 23.5 17H24.5C24.5 16.1716 23.8284 15.5 23 15.5V16.5ZM16 16.5H23V15.5H16V16.5Z" fill="black"/>
<path fill-rule="evenodd" clip-rule="evenodd" d="M40 16V18H47C47.5523 18 48 17.5523 48 17C48 16.4477 47.5523 16 47 16H40Z" fill="#9E9E9E"/>
<path d="M40 18H39.5C39.5 18.2761 39.7239 18.5 40 18.5V18ZM40 16V15.5C39.7239 15.5 39.5 15.7239 39.5 16H40ZM40.5 18V16H39.5V18H40.5ZM47 17.5H40V18.5H47V17.5ZM47.5 17C47.5 17.2761 47.2761 17.5 47 17.5V18.5C47.8284 18.5 48.5 17.8284 48.5 17H47.5ZM47 16.5C47.2761 16.5 47.5 16.7239 47.5 17H48.5C48.5 16.1716 47.8284 15.5 47 15.5V16.5ZM40 16.5H47V15.5H40V16.5Z" fill="black"/>
<circle cx="16" cy="17" r="1" fill="white" stroke="black"/>
<circle cx="40" cy="17" r="1" fill="white" stroke="black"/>
</svg>
