<svg width="120" height="120" viewBox="0 0 120 120" fill="none" xmlns="http://www.w3.org/2000/svg">
<path d="M95.2896 94.4105C117.363 73.3517 112.505 53.1476 112.505 53.1476L105.933 28.0671L12.604 80.7373L24.4344 100.802C42.4014 117.942 73.216 115.469 95.2896 94.4105Z" fill="#E6E6E6"/>
<ellipse rx="53.8055" ry="43.7952" transform="matrix(0.723545 -0.690277 0.723545 0.690277 58.3275 50.8281)" fill="white"/>
<path d="M24.9995 27.5002L89.9364 74.7519" stroke="#E6E6E6" stroke-width="2" stroke-linecap="round" stroke-linejoin="round"/>
<path d="M94.1663 17.5002C78.0649 2.26891 49.1663 3.33346 28.333 24.0759L92.4997 70.8334C106.066 52.8301 108.242 30.8153 94.1663 17.5002Z" fill="#E0E0E0"/>
<path d="M89.7798 76.6228C90.2157 76.2837 90.2943 75.6554 89.9552 75.2195C89.6161 74.7835 88.9879 74.705 88.5519 75.0441L89.7798 76.6228ZM23.1797 83.3334L22.4942 84.0615L22.5494 84.1134L22.6117 84.1564L23.1797 83.3334ZM23.9476 32.3071C24.3013 31.8829 24.2441 31.2523 23.8199 30.8987C23.3957 30.545 22.7652 30.6022 22.4115 31.0264L23.9476 32.3071ZM88.5519 75.0441C66.2698 92.3743 42.592 95.5157 23.7478 82.5104L22.6117 84.1564C42.4064 97.8177 67.0611 94.2926 89.7798 76.6228L88.5519 75.0441ZM23.8652 82.6053C16.8017 75.9548 13.1718 67.8019 13.1054 59.1407C13.039 50.4679 16.5463 41.1846 23.9476 32.3071L22.4115 31.0264C14.7729 40.1884 11.0347 49.9164 11.1055 59.1561C11.1764 68.4074 15.0666 77.0681 22.4942 84.0615L23.8652 82.6053Z" fill="#E0E0E0"/>
<path d="M96.6465 13.525C112.022 28.194 111.466 53.2065 96.6465 73.0404C95.8625 74.0896 95.0304 77.7924 94.1668 78.8104C93.4007 79.7135 92.6116 77.9353 91.7832 78.8104C91.0052 79.6322 90.1998 80.4409 89.3671 81.2353C67.7582 101.851 35.9822 104.96 18.3935 88.1799C0.804837 71.4 4.06391 41.085 25.6729 20.4697C47.2818 -0.145722 79.0578 -3.25494 96.6465 13.525Z" stroke="black"/>
<path d="M92.6924 16.5542L92.3456 16.9144L92.6924 16.5542ZM27.9867 22.5497C27.7878 22.7413 27.7818 23.0578 27.9733 23.2567C28.1648 23.4556 28.4814 23.4616 28.6803 23.2701L27.9867 22.5497ZM93.0302 69.7026C92.8659 69.9245 92.9127 70.2376 93.1346 70.4019C93.3565 70.5662 93.6696 70.5195 93.834 70.2976L93.0302 69.7026ZM28.6803 23.2701C48.1505 4.52307 76.6519 1.80368 92.3456 16.9144L93.0392 16.194C76.834 0.590758 47.7064 3.56247 27.9867 22.5497L28.6803 23.2701ZM92.3456 16.9144C106.064 30.1234 106.358 51.7003 93.0302 69.7026L93.834 70.2976C107.383 51.9961 107.206 29.8349 93.0392 16.194L92.3456 16.9144Z" fill="black"/>
<path d="M88.6764 76.7297C88.8775 76.5404 88.887 76.224 88.6977 76.0229C88.5084 75.8219 88.192 75.8124 87.9909 76.0016L88.6764 76.7297ZM22.3111 84.3464L21.9683 84.7104L22.3111 84.3464ZM23.5643 30.3202C23.7412 30.1081 23.7126 29.7928 23.5005 29.616C23.2884 29.4391 22.9731 29.4677 22.7963 29.6798L23.5643 30.3202ZM87.9909 76.0016C78.2757 85.1488 65.852 90.8491 53.8918 92.4019C41.9279 93.9551 30.4839 91.3546 22.6538 83.9823L21.9683 84.7104C30.0774 92.3453 41.8535 94.9731 54.0205 93.3935C66.1912 91.8135 78.8093 86.0199 88.6764 76.7297L87.9909 76.0016ZM22.6538 83.9823C8.4035 70.5652 8.64758 48.2119 23.5643 30.3202L22.7963 29.6798C7.63311 47.8671 7.23614 70.8396 21.9683 84.7104L22.6538 83.9823Z" fill="black"/>
<line x1="23.7696" y1="25.1681" x2="91.5553" y2="74.3017" stroke="black" stroke-linecap="round" stroke-linejoin="round"/>
<path d="M12.5 80.8335L24.4346 100.802C42.4016 117.942 73.2161 115.469 95.2898 94.4098C117.363 73.3511 112.506 53.1475 112.506 53.1475L106.667 30.8335" stroke="black" stroke-linecap="round" stroke-linejoin="round"/>
</svg>
