<svg width="64" height="64" viewBox="0 0 64 64" fill="none" xmlns="http://www.w3.org/2000/svg">
<path d="M47.5 62C55.8264 62 59.5038 58.9819 59.9994 57.5V30.3747C59.9994 28.3989 57.4996 25.5 56.0345 24.4472V20C56.0345 16.5 51.4996 16.9429 51.4996 16.5C51.9996 14.5 51.4996 12.5 51.4996 12.5C51.4996 11.5 51.4996 8.00004 50.9996 7.5C50.4996 4 49.9996 2.5 48.9996 1.5C48.4996 1.00011 47.9996 -5.25713e-05 44.9996 1.49993C43.4996 4.00004 43.4996 6.00011 42.9996 7.5L42.4996 13.5C42.4996 13.5 42.9996 16.5 41.9996 16.5C39.8783 16.5 37.9996 18.5 37.9996 18.5V20C38.4996 21 37.9996 23.5 37.9996 24.4472C35.2241 26.0279 34.4997 28 33.9997 30.3747C33.8345 39.2659 33.6032 56.7097 33.9997 57.5C34.4953 58.4879 37.0919 62 47.5 62Z" fill="white"/>
<path d="M6.5 42.0001L8.5 40.0001C8.66667 38.8334 10.1 36.4001 14.5 36.0001C16 35.8637 17.5 34.0001 19 34.0001C21 32.5001 25.0309 29.9725 29.5 35.0001C33.5 39.5 32.5 50 28 52.5C25.5275 53.8736 21.8333 54 20 53.5H16C14 53.6667 10.5 52.5 8.5 50C7.67392 48.9674 7.07331 48.0149 6.74608 47.8436C6.66302 47.8994 6.58073 47.9516 6.5 48C6.54441 47.8224 6.62721 47.7814 6.74608 47.8436C8.37785 46.7487 10.3063 44.2839 6.5 42.0001Z" fill="white"/>
<path d="M21 44C21 38.4 17 36.3333 15 36L21 33C24.3333 33 30.5 36 30.5 42C30.5 50 25.3333 52.3333 23 53H15.5C17.3333 52.3333 21 49.6 21 44Z" fill="#E0E0E0"/>
<path d="M10.5 50L6.5 48L7 41.5C7.83333 40.8333 9.6 39.5 10 39.5C10.5 39.5 16.5 38.5 16 44.5C15.6 49.3 12.1667 50.1667 10.5 50Z" fill="#E6E6E6"/>
<path d="M50 22L46.5 20.5C48.1 20.5 50.5 19.5 51.5 19L54.5 20.5C55 22.5 55 23.5 55 25.5C57.4 25.9 58 30.6667 58 33C58.8333 40.8333 58.5 54.5 58 58C56 59.2 53.8333 59.5 53 59.5V39V34.5C53 29.7 51 27.5 50 27V22Z" fill="#E0E0E0"/>
<path d="M40.0001 39C52.0001 40.6 58.3335 37.6667 60.0001 36V53.5C52.4 58.7 43.5001 57.3333 40.0001 56L40.0001 55.4984C40.0001 51.932 39.9999 41.8517 40.0001 39Z" fill="#9E9E9E"/>
<path d="M60 30.5C60 32.9853 54.1797 35 47 35C39.8203 35 34 32.9853 34 30.5" stroke="black" stroke-linecap="round" stroke-linejoin="round"/>
<path d="M56 24C56 25.7206 51.9706 27.2309 47 27.2309C42.0294 27.2309 38 25.7206 38 24" stroke="black" stroke-linecap="round" stroke-linejoin="round"/>
<ellipse cx="47" cy="19.1154" rx="9" ry="3.11538" stroke="black" stroke-linecap="round" stroke-linejoin="round"/>
<path d="M60 35C60 37.4853 54.1797 39.5 47 39.5C44.4227 39.5 42.0206 39.2404 40 38.7926V56.2926C42.0206 56.7404 44.4227 57 47 57C54.1797 57 60 54.9853 60 52.5" stroke="black" stroke-linecap="round" stroke-linejoin="round"/>
<path d="M38 24L38 19" stroke="black" stroke-linecap="round" stroke-linejoin="round"/>
<path d="M56 24L56 19" stroke="black" stroke-linecap="round" stroke-linejoin="round"/>
<path d="M38 24.5C35.5 25 34.0001 28.5 34 30.5V57C34 59.4853 39.8203 62 47 62C54.1797 62 60 59.4853 60 57V31C59.9999 29 58.5 25 56 24.5" stroke="black" stroke-linecap="round" stroke-linejoin="round"/>
<rect x="42.5" y="9.5" width="9" height="9" fill="#C4C4C4" stroke="black" stroke-linecap="round" stroke-linejoin="round"/>
<path fill-rule="evenodd" clip-rule="evenodd" d="M51.2555 8.00004C50.3745 8.54248 48.7981 8.90388 47 8.90388C45.2019 8.90388 43.6255 8.54248 42.7445 8.00004C42.2724 8.29065 42 8.63323 42 9.00004C42 10.0515 44.2386 10.9039 47 10.9039C49.7614 10.9039 52 10.0515 52 9.00004C52 8.63323 51.7276 8.29065 51.2555 8.00004Z" fill="#C4C4C4"/>
<path d="M51.2555 8.00004L51.5177 7.57427C51.3569 7.4753 51.1542 7.4753 50.9934 7.57427L51.2555 8.00004ZM42.7445 8.00004L43.0066 7.57426C42.8458 7.4753 42.6431 7.4753 42.4823 7.57426L42.7445 8.00004ZM50.9934 7.57427C50.2239 8.04805 48.7534 8.40388 47 8.40388V9.40388C48.8428 9.40388 50.5251 9.03691 51.5177 8.42581L50.9934 7.57427ZM47 8.40388C45.2466 8.40388 43.7761 8.04805 43.0066 7.57426L42.4823 8.42581C43.4749 9.03691 45.1572 9.40388 47 9.40388V8.40388ZM42.5 9.00004C42.5 8.89931 42.5813 8.68768 43.0066 8.42581L42.4823 7.57426C41.9636 7.89362 41.5 8.36715 41.5 9.00004H42.5ZM47 10.4039C45.6641 10.4039 44.4772 10.1968 43.6424 9.87899C43.2233 9.7194 42.9186 9.54155 42.7275 9.3695C42.5362 9.19733 42.5 9.07159 42.5 9.00004H41.5C41.5 9.45422 41.7436 9.82932 42.0584 10.1127C42.3733 10.3962 42.8008 10.6286 43.2865 10.8135C44.2614 11.1847 45.5745 11.4039 47 11.4039V10.4039ZM51.5 9.00004C51.5 9.07159 51.4638 9.19733 51.2725 9.3695C51.0814 9.54155 50.7767 9.7194 50.3576 9.87899C49.5228 10.1968 48.3359 10.4039 47 10.4039V11.4039C48.4255 11.4039 49.7386 11.1847 50.7135 10.8135C51.1992 10.6286 51.6267 10.3962 51.9416 10.1127C52.2564 9.82932 52.5 9.45422 52.5 9.00004H51.5ZM50.9934 8.42581C51.4187 8.68769 51.5 8.89931 51.5 9.00004H52.5C52.5 8.36715 52.0364 7.89362 51.5177 7.57427L50.9934 8.42581Z" fill="black"/>
<path fill-rule="evenodd" clip-rule="evenodd" d="M51.2555 13C50.3745 13.5425 48.7981 13.9039 47 13.9039C45.2019 13.9039 43.6255 13.5425 42.7445 13C42.2724 13.2907 42 13.6332 42 14C42 15.0515 44.2386 15.9039 47 15.9039C49.7614 15.9039 52 15.0515 52 14C52 13.6332 51.7276 13.2907 51.2555 13Z" fill="#C4C4C4"/>
<path d="M51.2555 13L51.5177 12.5743C51.3569 12.4753 51.1542 12.4753 50.9934 12.5743L51.2555 13ZM42.7445 13L43.0066 12.5743C42.8458 12.4753 42.6431 12.4753 42.4823 12.5743L42.7445 13ZM50.9934 12.5743C50.2239 13.0481 48.7534 13.4039 47 13.4039V14.4039C48.8428 14.4039 50.5251 14.0369 51.5177 13.4258L50.9934 12.5743ZM47 13.4039C45.2466 13.4039 43.7761 13.0481 43.0066 12.5743L42.4823 13.4258C43.4749 14.0369 45.1572 14.4039 47 14.4039V13.4039ZM42.5 14C42.5 13.8993 42.5813 13.6877 43.0066 13.4258L42.4823 12.5743C41.9636 12.8936 41.5 13.3672 41.5 14H42.5ZM47 15.4039C45.6641 15.4039 44.4772 15.1968 43.6424 14.879C43.2233 14.7194 42.9186 14.5415 42.7275 14.3695C42.5362 14.1973 42.5 14.0716 42.5 14H41.5C41.5 14.4542 41.7436 14.8293 42.0584 15.1127C42.3733 15.3962 42.8008 15.6286 43.2865 15.8135C44.2614 16.1847 45.5745 16.4039 47 16.4039V15.4039ZM51.5 14C51.5 14.0716 51.4638 14.1973 51.2725 14.3695C51.0814 14.5415 50.7767 14.7194 50.3576 14.879C49.5228 15.1968 48.3359 15.4039 47 15.4039V16.4039C48.4255 16.4039 49.7386 16.1847 50.7135 15.8135C51.1992 15.6286 51.6267 15.3962 51.9416 15.1127C52.2564 14.8293 52.5 14.4542 52.5 14H51.5ZM50.9934 13.4258C51.4187 13.6877 51.5 13.8993 51.5 14H52.5C52.5 13.3671 52.0364 12.8936 51.5177 12.5743L50.9934 13.4258Z" fill="black"/>
<path fill-rule="evenodd" clip-rule="evenodd" d="M51.2555 17C50.3745 17.5425 48.7981 17.9039 47 17.9039C45.2019 17.9039 43.6255 17.5425 42.7445 17C42.2724 17.2907 42 17.6332 42 18C42 19.0515 44.2386 19.9039 47 19.9039C49.7614 19.9039 52 19.0515 52 18C52 17.6332 51.7276 17.2907 51.2555 17Z" fill="#C4C4C4"/>
<path d="M51.2555 17L51.5177 16.5743C51.3569 16.4753 51.1542 16.4753 50.9934 16.5743L51.2555 17ZM42.7445 17L43.0066 16.5743C42.8458 16.4753 42.6431 16.4753 42.4823 16.5743L42.7445 17ZM50.9934 16.5743C50.2239 17.0481 48.7534 17.4039 47 17.4039V18.4039C48.8428 18.4039 50.5251 18.0369 51.5177 17.4258L50.9934 16.5743ZM47 17.4039C45.2466 17.4039 43.7761 17.0481 43.0066 16.5743L42.4823 17.4258C43.4749 18.0369 45.1572 18.4039 47 18.4039V17.4039ZM42.5 18C42.5 17.8993 42.5813 17.6877 43.0066 17.4258L42.4823 16.5743C41.9636 16.8936 41.5 17.3672 41.5 18H42.5ZM47 19.4039C45.6641 19.4039 44.4772 19.1968 43.6424 18.879C43.2233 18.7194 42.9186 18.5415 42.7275 18.3695C42.5362 18.1973 42.5 18.0716 42.5 18H41.5C41.5 18.4542 41.7436 18.8293 42.0584 19.1127C42.3733 19.3962 42.8008 19.6286 43.2865 19.8135C44.2614 20.1847 45.5745 20.4039 47 20.4039V19.4039ZM51.5 18C51.5 18.0716 51.4638 18.1973 51.2725 18.3695C51.0814 18.5415 50.7767 18.7194 50.3576 18.879C49.5228 19.1968 48.3359 19.4039 47 19.4039V20.4039C48.4255 20.4039 49.7386 20.1847 50.7135 19.8135C51.1992 19.6286 51.6267 19.3962 51.9416 19.1127C52.2564 18.8293 52.5 18.4542 52.5 18H51.5ZM50.9934 17.4258C51.4187 17.6877 51.5 17.8993 51.5 18H52.5C52.5 17.3671 52.0364 16.8936 51.5177 16.5743L50.9934 17.4258Z" fill="black"/>
<path d="M48.7778 1.57115C48.7778 1.88659 47.9818 2.14231 47 2.14231C46.0182 2.14231 45.2222 1.88659 45.2222 1.57115M48.7778 1.57115C48.7778 1.25571 47.9818 1 47 1C46.0182 1 45.2222 1.25571 45.2222 1.57115M48.7778 1.57115C49.5185 1.73782 51 4.8 51 8M45.2222 1.57115C44.4815 1.73782 43 4.8 43 8" stroke="black" stroke-linecap="round" stroke-linejoin="round"/>
<path d="M7.82178 40.5C9.00011 37.8221 11.3247 36 13.9998 36C17.8658 36 20.9998 39.8056 20.9998 44.5C20.9998 49.1944 17.8658 53 13.9998 53C11.5478 53 9.39024 51.4691 8.14001 49.1515" stroke="black" stroke-linecap="round" stroke-linejoin="round"/>
<ellipse cx="6.47059" cy="45" rx="2.47059" ry="3" fill="#C4C4C4" stroke="black" stroke-linecap="round" stroke-linejoin="round"/>
<path d="M17.5 34.3139C19.0346 32.8637 20.9637 32 23.0588 32C28.0619 32 32.1176 36.9249 32.1176 43C32.1176 49.0751 28.0619 54 23.0588 54C21.7099 54 20.4299 53.642 19.2797 53" stroke="black" stroke-linecap="round" stroke-linejoin="round"/>
<path d="M6 42L9.6917 39.4621C10.2451 39.1649 10.8568 39 11.5 39C13.9853 39 16 41.4624 16 44.5C16 46.8919 14.6961 48.8162 12.7271 49.6136C12.1957 49.8288 11.6901 49.9617 11 50C9.07985 50.1066 6.5 48 6.5 48" stroke="black" stroke-linecap="round" stroke-linejoin="round"/>
<path d="M14 35.9998L20.5 32.9998C27.5 32.9998 30.4706 37.4769 30.4706 42.9998C30.4706 48.5226 26.7835 52.9998 22.2353 52.9998H14" stroke="black" stroke-linecap="round" stroke-linejoin="round"/>
<path d="M22.5 44L29 43.5" stroke="black" stroke-linecap="round" stroke-linejoin="round"/>
<path d="M22.5 47H28" stroke="black" stroke-linecap="round" stroke-linejoin="round"/>
<path d="M22 41.5L28.5 40.5" stroke="black" stroke-linecap="round" stroke-linejoin="round"/>
<path d="M21.5 39L26.5 37.5" stroke="black" stroke-linecap="round" stroke-linejoin="round"/>
<path d="M21.5 50H26" stroke="black" stroke-linecap="round" stroke-linejoin="round"/>
<path d="M19 36.5C20.5 36 22 35.5 23.5 35" stroke="black" stroke-linecap="round" stroke-linejoin="round"/>
</svg>
