<svg width="64" height="64" viewBox="0 0 64 64" fill="none" xmlns="http://www.w3.org/2000/svg">
<path d="M50.8217 50.3521C62.5943 39.1208 60.0034 28.3452 60.0034 28.3452L56.4981 14.969L6.72266 43.0598L13.0322 53.7607C22.6146 62.9025 39.049 61.5834 50.8217 50.3521Z" fill="#E6E6E6"/>
<ellipse rx="28.6963" ry="23.3574" transform="matrix(0.723545 -0.690277 0.723545 0.690277 31.1085 27.1082)" fill="white"/>
<path d="M13.334 14.6667L47.967 39.8676" stroke="#E6E6E6" stroke-width="1.33333" stroke-linecap="round" stroke-linejoin="round"/>
<path d="M50.2224 9.33342C41.635 1.21007 26.2224 1.77783 15.1113 12.8405L49.3336 37.7778C56.5691 28.176 57.7295 16.4348 50.2224 9.33342Z" fill="#E0E0E0"/>
<path d="M47.9647 40.9707C48.2554 40.7447 48.3077 40.3258 48.0817 40.0352C47.8556 39.7446 47.4368 39.6922 47.1462 39.9182L47.9647 40.9707ZM12.3629 44.4445L11.9059 44.9299L11.9426 44.9645L11.9842 44.9932L12.3629 44.4445ZM12.8748 17.3158C13.1106 17.033 13.0725 16.6126 12.7897 16.3769C12.5069 16.1411 12.0865 16.1792 11.8507 16.462L12.8748 17.3158ZM47.1462 39.9182C35.2915 49.1384 22.7284 50.7882 12.7415 43.8958L11.9842 44.9932C22.6047 52.3229 35.819 50.4172 47.9647 40.9707L47.1462 39.9182ZM12.8199 43.9591C9.07689 40.435 7.15831 36.1206 7.12321 31.5407C7.08806 26.953 8.94324 22.0315 12.8748 17.3158L11.8507 16.462C7.76097 21.3674 5.75187 26.5853 5.78992 31.5509C5.82803 36.5243 7.92015 41.1772 11.9059 44.9299L12.8199 43.9591Z" fill="#E0E0E0"/>
<path d="M51.5443 7.21341C59.7448 15.0369 59.4481 28.3769 51.5443 38.955C51.1262 39.5145 50.6823 41.4894 50.2218 42.0323C49.8132 42.5139 49.3923 41.5655 48.9505 42.0323C48.5356 42.4706 48.106 42.9019 47.662 43.3256C36.1372 54.3204 19.19 55.9787 9.80936 47.0294C0.428725 38.08 2.1669 21.9121 13.6917 10.9172C25.2165 -0.0776501 42.1636 -1.7359 51.5443 7.21341Z" stroke="black"/>
<path d="M49.4356 8.82897L49.0888 9.18914L49.4356 8.82897ZM14.764 11.8585C14.5651 12.05 14.5591 12.3666 14.7507 12.5655C14.9422 12.7644 15.2587 12.7704 15.4576 12.5789L14.764 11.8585ZM49.4282 37.0359C49.2639 37.2579 49.3106 37.571 49.5326 37.7353C49.7545 37.8996 50.0676 37.8529 50.2319 37.631L49.4282 37.0359ZM15.4576 12.5789C25.7836 2.63651 40.8382 1.24505 49.0888 9.18914L49.7824 8.46879C41.0202 0.0321195 25.3395 1.67591 14.764 11.8585L15.4576 12.5789ZM49.0888 9.18914C56.3007 16.1332 56.4847 27.5045 49.4282 37.0359L50.2319 37.631C57.5099 27.8003 57.4428 15.8447 49.7824 8.46879L49.0888 9.18914Z" fill="black"/>
<path d="M47.4533 41.0924C47.6544 40.9031 47.6639 40.5867 47.4746 40.3856C47.2853 40.1846 46.9689 40.175 46.7678 40.3643L47.4533 41.0924ZM11.8985 44.9847L11.5558 45.3488L11.8985 44.9847ZM12.7462 16.3202C12.923 16.1081 12.8944 15.7928 12.6823 15.616C12.4702 15.4391 12.1549 15.4677 11.9781 15.6798L12.7462 16.3202ZM46.7678 40.3643C41.6218 45.2094 35.0412 48.2279 28.7115 49.0496C22.3782 49.8718 16.3522 48.4913 12.2413 44.6207L11.5558 45.3488C15.9457 49.482 22.3038 50.8899 28.8403 50.0413C35.3804 49.1922 42.1554 46.0805 47.4533 41.0924L46.7678 40.3643ZM12.2413 44.6207C4.75353 37.5708 4.84804 25.7935 12.7462 16.3202L11.9781 15.6798C3.83357 25.4486 3.58618 37.8452 11.5558 45.3488L12.2413 44.6207Z" fill="black"/>
<line x1="13.0025" y1="13.371" x2="48.777" y2="39.3017" stroke="black" stroke-linecap="round" stroke-linejoin="round"/>
<path d="M6.66602 43.1112L13.0311 53.7609C22.6135 62.9026 39.0479 61.5833 50.8206 50.3519C62.5932 39.1206 60.0023 28.3454 60.0023 28.3454L56.8882 16.4446" stroke="black" stroke-linecap="round" stroke-linejoin="round"/>
</svg>
