<svg width="120" height="120" viewBox="0 0 120 120" fill="none" xmlns="http://www.w3.org/2000/svg">
<path d="M111.75 97.8333C111.39 102.708 105 104.208 105 104.208L94.125 104.958L94.5 108.333L91.5 111L90.375 104.958L36.75 68.9583C36.75 68.9583 37.875 64.8333 41.625 64.0833C45.3498 63.3384 104.941 64.0733 105.742 64.0832C105.767 64.0835 105.763 64.0833 105.787 64.0834C109.063 64.1035 111.716 66.748 111.75 70.02C111.75 70.062 111.75 70.1017 111.751 70.1437C111.771 71.4366 112.1 93.1043 111.75 97.8333Z" fill="#E0E0E0"/>
<path d="M35.25 75.083C35.25 70.6647 38.8317 67.083 43.25 67.083H100.75C105.168 67.083 108.75 70.6647 108.75 75.083V96.583C108.75 101.001 105.168 104.583 100.75 104.583H90.75L91.5 111.333L85.125 104.583H43.25C38.8317 104.583 35.25 101.001 35.25 96.583V75.083Z" fill="white"/>
<circle cx="59.25" cy="86.25" r="3" fill="#E6E6E6"/>
<circle cx="74.25" cy="86.25" r="3" fill="#E6E6E6"/>
<circle cx="89.25" cy="86.25" r="3" fill="#E6E6E6"/>
<path d="M89.25 45.3333C88.8897 50.2083 82.5 51.7083 82.5 51.7083L14.25 16.4583C14.25 16.4583 15.375 12.3333 19.125 11.5833C22.8498 10.8384 82.4412 11.5733 83.2419 11.5832C83.2667 11.5835 83.2626 11.5833 83.2875 11.5834C86.5628 11.6035 89.2159 14.248 89.2497 17.52C89.2501 17.562 89.2503 17.6017 89.2509 17.6437C89.2709 18.9366 89.5995 40.6043 89.25 45.3333Z" fill="#9E9E9E"/>
<path d="M12.75 22.583C12.75 18.1647 16.3317 14.583 20.75 14.583H78.25C82.6683 14.583 86.25 18.1647 86.25 22.583V44.083C86.25 48.5013 82.6683 52.083 78.25 52.083H38.25L31.5 58.833L32.625 52.083H20.75C16.3317 52.083 12.75 48.5013 12.75 44.083V22.583Z" fill="#E0E0E0"/>
<circle cx="35.25" cy="33.75" r="3" fill="#9E9E9E"/>
<circle cx="50.25" cy="33.75" r="3" fill="#9E9E9E"/>
<circle cx="65.25" cy="33.75" r="3" fill="#9E9E9E"/>
<path d="M35.25 75.083C35.25 70.6647 38.8317 67.083 43.25 67.083H100.75C105.168 67.083 108.75 70.6647 108.75 75.083V96.583C108.75 101.001 105.168 104.583 100.75 104.583H90.75L91.5 111.333L85.125 104.583H43.25C38.8317 104.583 35.25 101.001 35.25 96.583V75.083Z" stroke="black" stroke-linecap="round" stroke-linejoin="round"/>
<path d="M91.5 111.333L94.5 108.333" stroke="black" stroke-linecap="round" stroke-linejoin="round"/>
<path d="M102.75 67.083L105.75 64.083" stroke="black" stroke-linecap="round" stroke-linejoin="round"/>
<path d="M105 104.208C105 104.208 111.39 102.708 111.75 97.8333C112.1 93.1043 111.771 71.4366 111.751 70.1437C111.75 70.1017 111.75 70.062 111.75 70.02C111.716 66.748 109.063 64.1035 105.787 64.0834C105.763 64.0833 105.767 64.0835 105.742 64.0832C104.941 64.0733 45.3498 63.3384 41.625 64.0833C37.875 64.8333 36.75 68.9583 36.75 68.9583M94.125 104.958L94.5 108.333" stroke="black" stroke-linecap="round" stroke-linejoin="round"/>
<path d="M108.75 73.833L111.75 70.833" stroke="black" stroke-linecap="round" stroke-linejoin="round"/>
<circle cx="59.25" cy="86.25" r="3" stroke="black"/>
<circle cx="35.25" cy="33.75" r="3" stroke="black"/>
<circle cx="74.25" cy="86.25" r="3" stroke="black"/>
<circle cx="50.25" cy="33.75" r="3" stroke="black"/>
<circle cx="89.25" cy="86.25" r="3" stroke="black"/>
<circle cx="65.25" cy="33.75" r="3" stroke="black"/>
<path d="M12.75 22.583C12.75 18.1647 16.3317 14.583 20.75 14.583H78.25C82.6683 14.583 86.25 18.1647 86.25 22.583V44.083C86.25 48.5013 82.6683 52.083 78.25 52.083H38.25L31.5 58.833L32.625 52.083H20.75C16.3317 52.083 12.75 48.5013 12.75 44.083V22.583Z" stroke="black" stroke-linecap="round" stroke-linejoin="round"/>
<path d="M80.25 14.583L83.25 11.583" stroke="black" stroke-linecap="round" stroke-linejoin="round"/>
<path d="M82.5 51.7083C82.5 51.7083 88.8897 50.2083 89.25 45.3333C89.5995 40.6043 89.2709 18.9366 89.2509 17.6437C89.2503 17.6017 89.2501 17.562 89.2497 17.52C89.2159 14.248 86.5628 11.6035 83.2875 11.5834C83.2626 11.5833 83.2667 11.5835 83.2419 11.5832C82.4412 11.5733 22.8498 10.8384 19.125 11.5833C15.375 12.3333 14.25 16.4583 14.25 16.4583" stroke="black" stroke-linecap="round" stroke-linejoin="round"/>
<path d="M86.25 21.333L89.25 18.333" stroke="black" stroke-linecap="round" stroke-linejoin="round"/>
</svg>
