<svg width="450" height="450" viewBox="0 0 450 450" fill="none" xmlns="http://www.w3.org/2000/svg">
<path d="M225.89 286.36L17.45 166L10 170.3L218.44 290.66L225.89 286.36Z" fill="#F5F5F5" stroke="#1D1D1B" stroke-linecap="round" stroke-linejoin="round"/>
<path d="M218.3 290.74L10 170.3V316.45L218.44 436.8L218.3 290.74Z" fill="white" stroke="#1D1D1B" stroke-linecap="round" stroke-linejoin="round"/>
<path d="M10 319.5V317L218 437L225 433V435.5L218 439.5L10 319.5Z" fill="black"/>
<path d="M225.89 432.5V286.36L218.3 290.74L218.44 436.8L225.89 432.5Z" fill="#E6E6E6" stroke="#1D1D1B" stroke-linecap="round" stroke-linejoin="round"/>
<path d="M17.4502 312.15V183.2L211 294.95V423.9L17.4502 312.15Z" fill="#9E7FB2" stroke="#1D1D1B" stroke-linecap="round" stroke-linejoin="round"/>
<path d="M50.9502 327.19V271.21L184.94 348.58V404.56L50.9502 327.19Z" fill="white" stroke="#1D1D1B" stroke-linecap="round" stroke-linejoin="round"/>
<path d="M21.1699 198.24V185.35L211 294.95V309.37L21.1699 198.24Z" fill="#DFD4E5" stroke="#1D1D1B" stroke-linecap="round" stroke-linejoin="round"/>
<path d="M21.1699 262.46L50.9499 279.66V327.19L21.1699 310V262.46Z" fill="#F5F5F5" stroke="#1D1D1B" stroke-linecap="round" stroke-linejoin="round"/>
<path d="M184.94 357.34L211 372.38V419.61L184.94 404.56V357.34Z" fill="#F5F5F5" stroke="#1D1D1B" stroke-linecap="round" stroke-linejoin="round"/>
<path d="M17.4502 183.2L21.1702 185.35V310L17.4502 312.15V183.2Z" fill="#E6E6E6" stroke="#1D1D1B" stroke-linecap="round" stroke-linejoin="round"/>
<path d="M17.4502 312.15L21.1702 310L211 419.61V423.9L17.4502 312.15Z" fill="#F5F5F5" stroke="#1D1D1B" stroke-linecap="round" stroke-linejoin="round"/>
<path d="M21.1699 202.54L39.7799 239.08L21.1699 250.4V202.54Z" fill="white" stroke="#1D1D1B" stroke-linecap="round" stroke-linejoin="round"/>
<path d="M211 363.73L196.11 346.53L211 337.94V363.73Z" fill="white" stroke="#1D1D1B" stroke-linecap="round" stroke-linejoin="round"/>
<path d="M410 223.027C427.673 223.027 442 219.155 442 214.378V148.649L378 149.081V214.378C378 219.155 392.327 223.027 410 223.027Z" fill="white"/>
<path d="M378 214.378C378 219.155 392.327 223.027 410 223.027C427.673 223.027 442 219.155 442 214.378V148.649L378 149.081V214.811" stroke="black" stroke-linecap="round" stroke-linejoin="round"/>
<path d="M432.054 220.865V155.568L438.973 154.27L438.108 218.703L432.054 220.865Z" fill="#F5F5F5"/>
<path d="M389.676 220.432V155.568L406.541 158.162L423.838 157.297V222.595L406.541 223.027L389.676 220.432Z" fill="#F5F5F5"/>
<path d="M425.568 221.297V157.297L432.487 155.568V220L425.568 221.297Z" fill="#E0E0E0"/>
<path d="M410 182.378C427.673 182.378 442 178.506 442 173.73V172C442 176.777 427.673 180.649 410 180.649C392.327 180.649 378 176.777 378 172V173.73C378 178.506 392.327 182.378 410 182.378Z" fill="#9E9E9E" stroke="black" stroke-linecap="round" stroke-linejoin="round"/>
<path d="M410 224.757C427.673 224.757 442 220.885 442 216.108V213.514C442 218.29 427.673 222.162 410 222.162C392.327 222.162 378 218.29 378 213.514V216.108C378 220.885 392.327 224.757 410 224.757Z" fill="black"/>
<path d="M410 159.027C427.673 159.027 442 155.155 442 150.378V148.649C442 153.425 427.673 157.297 410 157.297C392.327 157.297 378 153.425 378 148.649V150.378C378 155.155 392.327 159.027 410 159.027Z" fill="#9E9E9E" stroke="black" stroke-linecap="round" stroke-linejoin="round"/>
<path d="M410 203.135C427.673 203.135 442 199.263 442 194.486V192.757C442 197.533 427.673 201.405 410 201.405C392.327 201.405 378 197.533 378 192.757V194.486C378 199.263 392.327 203.135 410 203.135Z" fill="#9E9E9E" stroke="black" stroke-linecap="round" stroke-linejoin="round"/>
<ellipse cx="410" cy="148.649" rx="32" ry="8.64865" fill="#9E9E9E" stroke="black"/>
<path d="M358 92.0271C375.673 92.0271 390 88.1549 390 83.3784V17.6487L326 18.0811V83.3784C326 88.1549 340.327 92.0271 358 92.0271Z" fill="white"/>
<path d="M326 83.3784C326 88.1549 340.327 92.0271 358 92.0271C375.673 92.0271 390 88.1549 390 83.3784V17.6487L326 18.0811V83.8108" stroke="black" stroke-linecap="round" stroke-linejoin="round"/>
<path d="M380.054 89.8649V24.5676L386.973 23.2703L386.108 87.7027L380.054 89.8649Z" fill="#F5F5F5"/>
<path d="M337.676 89.4325V24.5676L354.541 27.1622L371.838 26.2974V91.5947L354.541 92.0271L337.676 89.4325Z" fill="#F5F5F5"/>
<path d="M373.568 90.2974V26.2974L380.487 24.5676V89.0001L373.568 90.2974Z" fill="#E0E0E0"/>
<path d="M358 51.3784C375.673 51.3784 390 47.5062 390 42.7297V41C390 45.7765 375.673 49.6486 358 49.6486C340.327 49.6486 326 45.7765 326 41V42.7297C326 47.5062 340.327 51.3784 358 51.3784Z" fill="#9E9E9E" stroke="black" stroke-linecap="round" stroke-linejoin="round"/>
<path d="M358 93.7568C375.673 93.7568 390 89.8847 390 85.1081V82.5135C390 87.2901 375.673 91.1622 358 91.1622C340.327 91.1622 326 87.2901 326 82.5135V85.1081C326 89.8847 340.327 93.7568 358 93.7568Z" fill="black"/>
<path d="M358 28.0271C375.673 28.0271 390 24.1549 390 19.3784V17.6487C390 22.4252 375.673 26.2973 358 26.2973C340.327 26.2973 326 22.4252 326 17.6487V19.3784C326 24.1549 340.327 28.0271 358 28.0271Z" fill="#9E9E9E" stroke="black" stroke-linecap="round" stroke-linejoin="round"/>
<path d="M358 72.1351C375.673 72.1351 390 68.263 390 63.4864V61.7567C390 66.5332 375.673 70.4054 358 70.4054C340.327 70.4054 326 66.5332 326 61.7567V63.4864C326 68.263 340.327 72.1351 358 72.1351Z" fill="#9E9E9E" stroke="black" stroke-linecap="round" stroke-linejoin="round"/>
<ellipse cx="358" cy="17.6486" rx="32" ry="8.64865" fill="#9E9E9E" stroke="black"/>
<path d="M124 125.027C141.673 125.027 156 121.155 156 116.378V50.6487L92 51.0811V116.378C92 121.155 106.327 125.027 124 125.027Z" fill="white"/>
<path d="M92 116.378C92 121.155 106.327 125.027 124 125.027C141.673 125.027 156 121.155 156 116.378V50.6487L92 51.0811V116.811" stroke="black" stroke-linecap="round" stroke-linejoin="round"/>
<path d="M146.054 122.865V57.5676L152.973 56.2703L152.108 120.703L146.054 122.865Z" fill="#F5F5F5"/>
<path d="M103.676 122.432V57.5676L120.541 60.1622L137.838 59.2974V124.595L120.541 125.027L103.676 122.432Z" fill="#F5F5F5"/>
<path d="M139.568 123.297V59.2974L146.487 57.5676V122L139.568 123.297Z" fill="#E0E0E0"/>
<path d="M124 84.3784C141.673 84.3784 156 80.5062 156 75.7297V74C156 78.7765 141.673 82.6486 124 82.6486C106.327 82.6486 92 78.7765 92 74V75.7297C92 80.5062 106.327 84.3784 124 84.3784Z" fill="#9E9E9E" stroke="black" stroke-linecap="round" stroke-linejoin="round"/>
<path d="M124 126.757C141.673 126.757 156 122.885 156 118.108V115.514C156 120.29 141.673 124.162 124 124.162C106.327 124.162 92 120.29 92 115.514V118.108C92 122.885 106.327 126.757 124 126.757Z" fill="black"/>
<path d="M124 61.0271C141.673 61.0271 156 57.1549 156 52.3784V50.6487C156 55.4252 141.673 59.2973 124 59.2973C106.327 59.2973 92 55.4252 92 50.6487V52.3784C92 57.1549 106.327 61.0271 124 61.0271Z" fill="#9E9E9E" stroke="black" stroke-linecap="round" stroke-linejoin="round"/>
<path d="M124 105.135C141.673 105.135 156 101.263 156 96.4864V94.7567C156 99.5332 141.673 103.405 124 103.405C106.327 103.405 92 99.5332 92 94.7567V96.4864C92 101.263 106.327 105.135 124 105.135Z" fill="#9E9E9E" stroke="black" stroke-linecap="round" stroke-linejoin="round"/>
<ellipse cx="124" cy="50.6486" rx="32" ry="8.64865" fill="#9E9E9E" stroke="black"/>
<path d="M246 254.865C280.242 254.865 308 247.363 308 238.108V110.757L184 111.595V238.108C184 247.363 211.758 254.865 246 254.865Z" fill="white"/>
<path d="M184 238.108C184 247.363 211.758 254.865 246 254.865C280.242 254.865 308 247.363 308 238.108V110.757L184 111.595V238.946" stroke="black" stroke-linecap="round" stroke-linejoin="round"/>
<path d="M288.73 250.676V124.162L302.135 121.649L300.459 246.487L288.73 250.676Z" fill="#F5F5F5"/>
<path d="M206.622 249.838V124.162L239.297 129.189L272.811 127.513V254.027L239.297 254.865L206.622 249.838Z" fill="#F5F5F5"/>
<path d="M276.162 251.513V127.513L289.568 124.162V249L276.162 251.513Z" fill="#E0E0E0"/>
<path d="M246 176.108C280.242 176.108 308 168.606 308 159.351V156C308 165.255 280.242 172.757 246 172.757C211.758 172.757 184 165.255 184 156V159.351C184 168.606 211.758 176.108 246 176.108Z" fill="#9E9E9E" stroke="black" stroke-linecap="round" stroke-linejoin="round"/>
<path d="M246 256.54C280.242 256.54 308 249.038 308 239.784V236.432C308 245.687 280.242 253.189 246 253.189C211.758 253.189 184 245.687 184 236.432V239.784C184 249.038 211.758 256.54 246 256.54Z" fill="black"/>
<path d="M246 130.865C280.242 130.865 308 123.363 308 114.108V110.757C308 120.011 280.242 127.513 246 127.513C211.758 127.513 184 120.011 184 110.757V114.108C184 123.363 211.758 130.865 246 130.865Z" fill="#9E9E9E" stroke="black" stroke-linecap="round" stroke-linejoin="round"/>
<path d="M246 216.324C280.242 216.324 308 208.822 308 199.568V196.216C308 205.471 280.242 212.973 246 212.973C211.758 212.973 184 205.471 184 196.216V199.568C184 208.822 211.758 216.324 246 216.324Z" fill="#9E9E9E" stroke="black" stroke-linecap="round" stroke-linejoin="round"/>
<ellipse cx="246" cy="110.757" rx="62" ry="16.7568" fill="#9E9E9E" stroke="black"/>
<path d="M190 245L171.5 254.5L179 259L198 248.5L190 245Z" fill="white" stroke="black"/>
<path d="M181.5 260.5L202 249" stroke="black"/>
<path d="M143.5 162.5L173 145" stroke="black" stroke-linecap="round" stroke-linejoin="round"/>
<path d="M308 166.5L409.5 108" stroke="black" stroke-linecap="round" stroke-linejoin="round"/>
<path d="M409 223L324 272L288 251.5" stroke="black" stroke-linecap="round" stroke-linejoin="round"/>
<path d="M184 196L128 164" stroke="black" stroke-linecap="round" stroke-linejoin="round"/>
<path d="M158 143L128.5 126" stroke="black" stroke-linecap="round" stroke-linejoin="round"/>
<path d="M394.5 106L371 92" stroke="black" stroke-linecap="round" stroke-linejoin="round"/>
<path d="M405 223L324 269L289 249.5L297.5 247L324 261.5L394 222L405 223Z" fill="white" stroke="black" stroke-linecap="round" stroke-linejoin="round"/>
<path d="M128 160.64L183.5 192.5V185L140 160.64L173 141.5L141.5 124L132 125.5L160.5 141.5L128 160.64Z" fill="white" stroke="black" stroke-linecap="round" stroke-linejoin="round"/>
<path d="M324 272V269" stroke="black" stroke-linecap="round" stroke-linejoin="round"/>
<path d="M128 164V161" stroke="black" stroke-linecap="round" stroke-linejoin="round"/>
<path d="M173 145V141.5" stroke="black" stroke-linecap="round" stroke-linejoin="round"/>
<path d="M409.5 108V104.5" stroke="black" stroke-linecap="round" stroke-linejoin="round"/>
<path d="M308 156L397.5 104.5L374.5 91.5L382.5 89.5L409.5 104.5L308 163V156Z" fill="white" stroke="black" stroke-linecap="round" stroke-linejoin="round"/>
<rect width="31.1255" height="83.0014" rx="15.5628" transform="matrix(0.707116 -0.707097 0.707116 0.707097 198.297 65.3037)" fill="white"/>
<path d="M209.301 76.3071C203.224 70.2297 203.224 60.3763 209.301 54.2989V54.2989C215.379 48.2215 225.233 48.2215 231.31 54.2989L250.137 73.1252C250.137 73.1252 241.479 76.8489 237.203 80.9063C232.423 85.4427 228.128 95.1335 228.128 95.1335L209.301 76.3071Z" fill="#F5B166"/>
<ellipse rx="4.01701" ry="3.65883" transform="matrix(0.70714 -0.707074 0.70714 0.707074 219.287 56.5054)" fill="white"/>
<path d="M206.079 65.3445L256.655 115.923C253.413 115.923 250.166 114.385 248.226 112.68C247.488 112.032 209.807 74.4226 209.321 73.7742C205.919 69.2351 206.079 65.3445 206.079 65.3445Z" fill="#E0E0E0"/>
<rect width="31.1257" height="83.0019" rx="15.5629" transform="matrix(0.707104 -0.707109 0.707104 0.707109 198.297 65.3051)" stroke="black" stroke-linecap="round" stroke-linejoin="round"/>
<path d="M228.195 95.0696C228.195 95.0696 232.921 85.4342 237.852 80.9066C241.88 77.2087 249.746 73.5196 249.746 73.5196" stroke="black" stroke-linecap="round" stroke-linejoin="round"/>
</svg>
