<svg width="250" height="250" viewBox="0 0 250 250" fill="none" xmlns="http://www.w3.org/2000/svg">
<path d="M159.792 242.578H56.3553C48.1708 243.1 30.7572 243.414 26.5779 240.488C26.5779 235.787 23.4432 153.246 46.9519 145.41C64.5048 139.559 77.5999 133.917 81.9533 131.827C82.3016 132.349 83.7295 133.081 86.655 131.827C87.1587 131.611 87.5457 131.444 87.8368 131.317C87.79 131.313 87.7443 131.309 87.6999 131.305C88.4206 131.016 89.2369 130.704 87.8368 131.317C89.8062 131.48 93.7889 131.484 95.0136 130.26C95.536 127.125 96.9291 124.165 97.1032 121.901C100.238 125.906 105.984 134.439 107.551 136.006C108.596 138.096 115.91 143.32 117.477 148.022C120.089 147.499 122.179 147.499 123.224 148.022C124.269 148.544 126.358 148.022 126.881 148.544C127.403 149.067 135.762 138.096 136.806 135.484C137.851 132.872 138.374 120.856 141.508 121.901C144.643 122.946 161.882 130.26 163.449 130.26C165.017 130.26 183.301 135.484 188.003 141.753H195.839C197.58 143.146 201.376 146.455 202.63 148.544C205.764 150.634 212.556 157.425 213.078 161.082C213.581 164.599 215.357 177.486 215.492 177.999C215.497 177.996 215.5 177.997 215.5 178C215.5 178.02 215.497 178.019 215.492 177.999C214.85 178.309 176.198 221.51 159.792 242.578Z" fill="#99D5B3"/>
<path d="M116.955 148.544C116.119 148.544 109.99 142.972 107.029 140.186C107.865 148.126 111.905 149.067 113.821 148.544L112.776 153.246C111.383 152.898 107.255 151.381 101.805 145.932C96.581 140.708 94.4916 134.439 94.4916 130.26C93.4468 130.782 89.7899 130.782 87.7002 131.827C86.0285 132.663 82.8244 132.872 81.4313 132.872L46.9521 144.887C47.9969 149.067 48.5193 148.544 51.1314 156.903C62.102 162.127 90.8347 148.544 96.581 150.111C98.6707 153.246 117.478 156.903 115.91 156.38C114.657 155.962 115.91 154.813 115.388 153.246C116.258 151.679 117.791 148.544 116.955 148.544Z" fill="#66C08C"/>
<path d="M36.4737 167.502C37.2504 165.275 38.1664 159.513 38.5935 156.38L44.8623 151.156V156.903L47.4743 155.336L43.2952 164.217V159.515C41.2544 161.811 37.8309 165.732 36.4737 167.502C36.3003 167.999 36.134 168.32 35.9815 168.396C35.7579 168.508 35.9779 168.148 36.4737 167.502Z" fill="#66C08C"/>
<path d="M124.791 158.992L119.567 157.425C119.567 156.38 119.88 154.186 121.134 153.768C122.388 153.35 124.094 157.077 124.791 158.992Z" fill="#66C08C"/>
<path d="M127.925 164.217C125.488 162.823 121.134 158.992 120.089 159.515C119.671 159.515 118 170.834 117.477 176.232C117.826 183.197 119.044 202.875 119.044 207.054C119.044 212.278 120.603 224.477 117.477 227.951C112.776 233.175 111.382 237.876 109.641 241.011C110.512 241.011 112.358 240.906 112.776 240.488C113.193 240.07 117.477 232.652 119.567 228.995C120.089 227.254 121.134 223.353 121.134 221.682C121.134 219.592 120.612 184.591 119.567 182.501C118.522 180.411 120.089 167.873 120.612 164.739C121.03 162.231 125.662 163.346 127.925 164.217Z" fill="#66C08C"/>
<path d="M114.343 174.142C114.343 176.232 112.776 190.859 112.253 192.427L113.298 167.351C113.646 168.918 114.343 172.471 114.343 174.142Z" fill="#66C08C"/>
<path d="M132.627 162.127C133.199 161.555 134.944 164.861 136.491 168.234C137.991 171.079 139.461 174.357 139.941 176.754C140.986 181.978 138.374 188.247 138.374 187.725C138.374 187.203 138.896 179.366 137.329 176.232C135.762 173.097 131.582 163.172 132.627 162.127Z" fill="#66C08C"/>
<path d="M138.896 141.23C138.896 142.275 128.97 152.201 127.925 152.201V155.336C130.537 156.38 131.06 155.858 134.194 153.246C141.717 145.305 142.901 140.534 142.553 139.141C141.334 139.489 138.896 140.395 138.896 141.23Z" fill="#66C08C"/>
<path d="M150.911 148.544C143.807 147.29 142.379 164.042 142.553 172.575C135.866 166.306 140.463 148.37 143.598 140.186L147.777 127.648L158.748 131.827C168.673 136.006 188.734 144.365 189.57 144.365H195.839C197.928 144.365 205.242 154.291 209.421 158.992C212.765 162.754 211.511 168.918 210.466 171.53L208.377 167.351C206.635 170.485 205.242 172.575 203.152 174.665C202.317 172.575 199.321 176.754 198.451 179.366C198.625 174.316 198.346 163.172 195.839 158.992C193.331 154.813 190.615 155.51 189.57 156.38V182.501H182.256V153.246C174.768 152.201 158.016 149.798 150.911 148.544Z" fill="#66C08C"/>
<path d="M149.867 204.442C152.792 219.487 147.603 235.438 144.643 241.533C161.36 225.338 154.046 214.368 152.479 199.74C151.225 188.038 146.036 179.192 143.598 176.232C144.468 179.366 146.941 189.397 149.867 204.442Z" fill="#66C08C"/>
<path d="M54.132 183.375C53.8139 181.956 53.5087 180.614 53.2208 179.366C53.5334 179.366 53.8388 180.84 54.132 183.375C58.4325 202.564 65.0923 235.963 63.1466 242.578H56.8777C56.4529 225.448 55.4067 194.392 54.132 183.375Z" fill="#66C08C"/>
<path d="M159.792 245.712L153.001 187.725L218.825 178.322L230.318 232.13L159.792 245.712Z" fill="white"/>
<path d="M186.777 215.097C185.732 213.007 183.12 197.335 182.239 194.2C168.493 195.768 164.211 207.695 165.881 218.754C167.654 230.504 178.329 236.63 190.956 234.948C202.524 233.408 210.808 221.366 208.718 210.918C204.539 211.44 190.956 214.052 186.777 215.097Z" fill="#CCF0F5"/>
<path d="M197.748 192.111C195.06 197.718 192.001 205.693 189.278 210.787C188.344 207.261 185.21 194.723 184.688 192.111C186.777 189.54 194.786 188.595 197.748 192.111Z" fill="#66D1E0"/>
<path d="M213.5 202C211 203.5 202.449 206.216 194.62 208.804C197.225 204.126 204.539 191.738 206.256 190.021C214.465 193.678 215 195.5 213.5 202Z" fill="#99E1EB"/>
<path d="M89.2671 78.0189C89.3695 76.2988 91.1826 58.8639 92.4016 50.3312C92.5501 49.2864 95.5361 47.1967 99.7153 44.0623C103.895 40.9278 107.029 34.1365 107.029 33.6141C107.029 33.1961 109.467 32.0468 110.686 31.5244H113.82H118H122.179C124.269 31.5244 127.925 30.8279 129.493 30.4796C129.319 30.8279 129.597 31.5244 132.105 31.5244H138.374L140.463 32.5693L142.031 35.7037L143.598 36.7485L147.255 47.1967C147.951 52.595 149.553 64.3318 150.389 68.0931C151.225 71.8545 146.21 80.4568 143.598 84.2878L150.389 76.9741C150.912 75.2327 152.165 71.6455 153.001 71.2276C153.837 70.8097 154.394 72.4465 154.568 73.3172C153.872 75.4069 152.374 79.7951 151.956 80.631C151.538 81.4668 150.041 82.0241 149.344 82.1982C149.17 83.9396 150.005 88.0519 149.344 90.0343C147.777 94.736 143.598 101.005 142.031 102.572C140.777 103.826 142.031 113.891 142.553 120.857L140.463 122.946C139.244 126.603 136.284 135.066 134.194 139.663C132.105 144.26 128.448 147.151 126.881 148.022C127.055 148.544 124.777 148.194 123.746 148.022C120.612 147.499 118.348 147.499 117.477 148.022C115.388 145.062 110.581 138.618 108.074 136.529C105.566 134.439 100.064 125.906 97.6257 121.901C98.3223 117.374 99.0004 108.435 99.0004 107.5C99.0004 106.204 91.2397 98.1715 90.5004 93C90 89.5 89.0004 82.5 89.2671 78.0189Z" fill="#FFDBAC"/>
<path d="M228 222.5L226.5 217C224.5 217.5 221 217 220 216C218.8 215.6 220.667 213.833 222 213C221.333 213.167 219.4 213.5 217 213.5C214 213.5 214.5 212 214.5 212C214.5 212 217 210 218 209C213 210 211 208.5 210.5 208C210.1 207.6 212.333 206.5 213.5 206C214 205.5 212.8 205.5 212 205.5C211 205.5 212 204.5 212 203.5C212 201.919 217 198.5 217.5 198C218 197.5 223.5 195.5 227.5 194C231.5 192.5 234 192.5 234.5 193C235 194 235.5 196 235 196.5C234.6 196.9 236.5 197.667 237.5 198L238 203C238.667 204.167 240.1 206.5 240.5 206.5C240.9 206.5 240.333 208.167 240 209C240 209.667 239.9 211.7 239.5 214.5C238 216.5 235.5 217.5 233.5 218L228 222.5Z" fill="#FFDBAC"/>
<path d="M92.4013 60.257C89.8937 62.7646 94.1427 65.8294 96.5806 67.0483C96.5806 64.9587 101.805 62.869 105.984 61.8242C109.119 62.5 111.557 64.6104 112.253 66.5259L105.984 67.0483L107.551 69.1379L111.731 67.0483L115.388 75.4069V66.0035C115.388 65.3069 115.283 63.4959 114.865 61.8242C114.447 60.1525 106.681 58.6898 102.85 58.1674C100.412 57.8191 94.9089 57.7494 92.4013 60.257Z" fill="#E0AC69"/>
<path d="M114.865 75.9293L113.82 80.1085C112.427 79.0637 111.208 79.0637 110.163 80.1085C108.945 81.327 109.641 82.7206 109.119 82.7206C105.636 83.7654 99.0731 91.2425 98.148 88.4671C97.1475 85.4655 103.895 80.631 108.596 79.5862C112.269 78.7701 113.82 76.2435 114.865 75.9293Z" fill="#E0AC69"/>
<path d="M130.848 81.1751C130.606 81.1138 130.363 81.0493 130.125 80.9822C129.628 81.5814 129.643 83.0128 129.493 83.7654C129.318 83.7654 128.761 83.6609 127.925 83.243C127.09 82.8251 126.184 80.9792 125.836 80.1085C123.978 81.9665 125.998 83.9996 121.134 84.8102C118 85.3326 116.432 82.7206 115.388 81.6758C114.552 80.84 112.601 82.7206 111.731 83.7654C112.821 85.946 115.646 87.8302 118 88.4671C120.652 88.4671 121.616 88.4671 124.269 88.4671C125.104 88.4671 129.231 88.1633 130.537 85.8551C131.347 84.4236 131.478 82.9296 131.06 81.6758C130.99 81.4655 130.919 81.3012 130.848 81.1751Z" fill="#E0AC69"/>
<path d="M137.851 32.0468C139.767 33.6141 143.493 39.7785 143.075 51.8984C143.142 56.0777 146.934 61.9983 148.822 64.4362V73.8397C148.822 73.4217 149.867 69.8345 150.389 68.0931L148.487 55.0329C147.205 48.764 144.538 36.2261 144.12 36.2261C143.702 36.2261 142.553 35.8778 142.03 35.7037L139.941 33.0917L137.851 31.002V32.0468Z" fill="#E0AC69"/>
<path d="M127.403 62.3467L123.746 63.3915C123.746 79.5862 127.403 78.5414 127.403 79.5862C127.403 80.0685 128.678 80.574 130.125 80.9822C130.297 80.7748 130.569 80.6763 130.848 81.1751C131.686 81.3873 132.521 81.5616 133.149 81.6758C135.936 83.9396 141.613 88.7806 142.03 90.0344C142.553 91.6016 141.508 93.1689 140.463 94.2137C139.418 95.2585 133.149 108.319 133.149 108.841C133.149 109.364 132.417 110.619 135.762 107.274C138.896 104.139 142.03 101.527 145.165 95.7808C146.732 92.6463 148.299 90.0344 148.822 78.0189C147.255 79.5861 145.165 81.6758 143.598 84.8103C141.508 84.8103 130.015 74.3621 129.493 73.8397C128.97 73.3173 130.015 68.6156 131.06 69.6604C131.896 70.4963 135.587 69.6604 137.851 69.6604C140.115 69.6604 143.598 67.5708 143.598 67.5708L127.925 67.0484L132.105 63.3915H138.896C140.986 63.3915 144.294 66.1777 145.687 67.5708C147.08 66.7001 149.031 64.2273 145.687 61.3018C142.344 58.3763 132.105 60.7794 127.403 62.3467Z" fill="#E0AC69"/>
<path d="M111.731 99.9601C114.691 100.831 121.865 102.154 126.881 100.483C125.313 102.05 123.224 104.139 119.567 104.139C116.641 104.139 113.124 101.353 111.731 99.9601Z" fill="#E0AC69"/>
<path d="M99.7152 108.841C103.372 112.15 112.149 118.767 118 118.767C125.313 118.767 131.582 111.976 132.105 111.976C132.523 111.976 138.722 106.751 142.03 102.572L142.553 120.857C141.16 122.075 138.269 126.185 137.851 132.872C136.806 136.006 135.239 137.574 134.194 140.186C131 140.186 125.953 139.281 126 135C127.5 130.5 132.5 120 133.5 116.5C132.928 116.162 125.548 121.952 122.5 125C121.168 126.332 101.805 113.021 99.7152 108.841Z" fill="#E0AC69"/>
<path d="M109.119 119.5C110.671 123.667 114.098 132.4 115.388 134C117 136 111.731 130 110.163 127.5C108.596 125 109.119 123.313 109.119 119.5Z" fill="#E0AC69"/>
<path d="M226.5 217.5L227.5 220L231 217.5C232.5 217.667 235.9 217.7 237.5 216.5C239.5 215 240.5 214.5 240 214C239.6 213.6 227.5 215.5 221.5 216.5L226.5 217.5Z" fill="#E0AC69"/>
<path d="M212 205C213.5 204.5 218 203 219 202C220 201 230 197.5 231 198C232 198.5 232 199 231.5 199C231.1 199 224.667 201.333 221.5 202.5C218.833 203.5 213.2 205.4 212 205Z" fill="#E0AC69"/>
<path d="M210.5 208.5C212.5 208 232.5 202.5 233 202.5C233.5 202.5 235 204 234.5 204C234 204 218.5 209 216.5 209C214.5 209 210.5 209 210.5 208.5Z" fill="#E0AC69"/>
<path d="M215.5 212.5C216 212.5 234.5 209 235.5 209C236.3 209 236.833 210 237 210.5C231.333 211.5 219.8 213.5 219 213.5C218.2 213.5 216.333 212.833 215.5 212.5Z" fill="#E0AC69"/>
<path opacity="0.5" d="M120.089 91.6015C116.745 91.1836 108.596 91.0791 104.939 91.0791C102.675 89.3378 103.371 90.5567 103.372 91.0791C107.551 96.8256 109.529 101.005 120.611 101.005C130.015 101.005 134.02 95.6067 135.239 92.124C132.975 92.2981 128.238 92.5419 127.403 92.124C126.358 91.6015 124.268 92.124 120.089 91.6015Z" fill="#F599B5"/>
<path d="M120.089 98.3929C113.402 98.3929 106.507 93.8653 103.895 91.6015C106.82 92.4374 115.91 92.9946 120.089 93.1688C125.139 92.9946 135.135 92.7508 134.717 93.1688C134.194 93.6912 128.448 98.3929 120.089 98.3929Z" fill="white"/>
<path d="M143.075 67.0483C141 68 132.5 67.5 126.881 67.0483C128.274 66.0035 132 63.8093 135.762 63.3914C140.463 62.869 143.598 67.0483 143.075 67.0483Z" fill="white"/>
<path d="M96.5808 67.0483C99.0884 66.2124 108.422 66.3517 112.776 66.5259C111.905 65.3069 109.328 62.7645 105.984 62.3466C101.805 61.8242 93.4464 68.0931 96.5808 67.0483Z" fill="white"/>
<path d="M108.074 63.3915C107.656 62.1377 104.068 62.4776 102.327 63C101.073 63.8358 101.805 66.0035 102.327 66.5259H105.984C108.074 66.5259 108.596 64.9588 108.074 63.3915Z" fill="#8D5524"/>
<path d="M139.588 64.1428C139.17 62.889 135.583 62.9282 133.842 63.4506C132.588 64.2864 132.5 66.9517 133.842 67.5L138 67.559C140.09 67.559 140.11 65.7101 139.588 64.1428Z" fill="#8D5524"/>
<path d="M144.4 72.3119C145.582 71.1293 147.461 65.3211 147.495 64.6951C147.606 64.1768 146.834 62.017 146.556 63.4082C145.165 71.2337 142.452 72.7293 141.791 73.5292C141.131 74.3292 143.217 73.4945 144.4 72.3119Z" fill="white"/>
<path d="M112.889 62.6007C115.475 65.8926 113.14 69.9009 111.316 71.3597C108.616 73.5205 113.304 68.5934 113.304 66.9475C113.304 64.0344 111.952 61.4084 112.889 62.6007Z" fill="white"/>
<path d="M128.291 62.869L127.247 61.8242C128.918 59.7346 136.998 58.5156 140.829 58.1673C144.834 59.7346 143.441 59.7346 145.531 60.7794C139.68 59.1077 131.6 61.4759 128.291 62.869Z" fill="#8D5524"/>
<path d="M113.664 61.8242L114.709 61.3018C111.574 56.6001 105.305 57.1226 103.738 57.1225C97.4138 57.1224 93.8124 58.8639 92.7676 60.257C93.8124 59.7346 97.4693 58.5853 103.738 58.1673C110.007 57.7494 112.967 60.4311 113.664 61.8242Z" fill="#8D5524"/>
<path d="M98.344 107C98.5181 110.483 98.723 118.976 97.4693 121.901C96.2155 124.827 95.2055 128.344 94.8572 129.737C93.6383 130.608 90.469 132.141 87.5435 131.305C84.4092 132.35 84.9316 132.872 81.797 132.35C79.7073 131.514 80 132.35 79 133.5C76.2138 134.719 70.095 135.171 67.1695 131.827C63.5126 127.648 68.7369 122.946 72.3938 121.379C75.3193 120.125 76.747 119.289 77.0953 118.767C76.9212 117.548 75.5281 114.692 71.3488 113.02C66.7968 111.2 68.6429 105.328 68.6429 104.805C63.9412 107.417 61.5272 108.864 62.4292 114.326C60.525 113.02 58.3274 109.364 59.3722 105.184C60.417 101.005 62.7299 98.6415 67.1697 96.8257C67.1695 95.2584 64.5577 92.6464 64.5577 86.8999C64.035 81.1534 62.9904 73.8396 69.2593 69.1379C75.5283 64.4362 75.5283 66.5259 76.5731 62.869C76.5731 60.257 76.9214 57.1225 76.5731 56.0777C76.0507 57.4708 71.1869 65.1906 62.9558 66.7252C68.3967 62.869 69.1996 60.8644 69.722 59.8196C70.2444 58.7747 72.3938 47.1967 74.4834 42.495C76.5731 37.7933 81.2748 33.0916 87.5437 31.5244C88.0659 27.8676 88.5883 21.5986 94.8574 15.3297C102.694 9.58319 103.216 10.628 103.738 10.628C104.261 10.628 112.596 1.82069 122 6.00001C126.179 2.86551 125.205 2.16448 129.336 2.79188C134 3.5 134.5 4.5 136.65 6.44875C138.74 7.49357 139.785 6.97116 140.829 8.53839C142.397 9.58321 142.919 11.1504 143.442 11.6728C143.442 12.1953 144.486 10.1056 150.755 12.7177C155.457 16.8969 155.457 18.4642 155.979 20.5538C158.069 21.5986 161.203 24.2107 161.203 28.9124C159.636 33.6141 157.547 37.7933 151.8 38.8382C154.412 39.883 160.681 39.3879 163.816 42C168 44.5 168.5 47.5 167 49.2864C165.955 49.8088 163.816 50.5 161.203 49.2864C163.99 51.376 172 59.5 168.5 66C169.022 69.1338 171.129 73.4328 171.129 75C172.174 79.1793 170.109 84.3207 164.675 88.5C165.295 90.4365 166.829 92.5862 171.129 94.736C178.443 97.3481 180.955 105.866 182 109C183.045 113.179 182.687 121.246 176 122.5C171.542 122.005 171.136 121.903 169.098 121.393L169.04 121.379C169.04 126 168.204 127.543 162.771 129.215C161.726 129.737 160.681 129.215 159.636 128.693L147.098 123.991C146.924 126.255 148.143 130.782 151.277 131.827C153.675 132.093 153.89 133.394 158.069 130.26C159.114 128.693 158.591 132.872 157.546 133.394C156.502 133.917 151.8 137.051 146.054 132.35C145.009 133.394 143.964 139.663 141.874 139.663C140.307 141.231 135.605 141.753 134.038 140.708C132.471 139.663 140.829 142.275 142.397 128.693C142.397 126.603 142.396 123.991 141.874 120.857C142.048 113.717 141.561 103.826 142.396 102.572C143.441 101.005 150.233 92.6464 149.188 86.3775C148.776 83.904 149.014 82.024 149.188 81.6758L149.71 76.4517L147.621 78.5413C148.666 75.9293 150.755 70.1828 150.755 68.0931C150.755 66.0035 149.362 59.5604 148.666 56.6001C147.447 49.9829 144.904 36.7485 144.486 36.7485C143.964 36.7485 142.397 36.2261 141.874 35.7037C141.456 35.2858 140.307 33.7882 139.785 33.0917C139.436 32.5692 139.053 31.5244 138.217 31.5244C137.172 31.5244 130.381 32.0468 129.859 31.5244C129.441 31.1065 126.694 31.2272 126.171 31.2272C124.778 31.7497 123.799 32.0468 122.545 32.0468C121.291 32.0468 118.714 31.6986 117.321 31.5244H113.664C113.246 31.5244 111.052 31.8727 110.007 32.0468L106.873 34.1365C105.828 36.5744 102.798 42.0771 99.0367 44.5847C94.335 47.7191 92.2454 48.764 92.2454 49.2864C92.2454 49.8088 91.723 63.9138 89.6333 71.2276C87.5437 78.5413 90.344 93.4552 90.344 94.5C90.344 95.5448 94.344 102.5 98.344 107Z" fill="#8D5524"/>
<path d="M112.846 66.9561C112.739 66.5065 112.531 66.2823 112.211 65.9299C111.68 65.3447 111.15 64.7363 110.559 64.2097C110.304 63.9821 110.046 63.7917 109.767 63.594C109.223 63.2069 108.441 62.7482 107.783 62.6264C106.488 62.3865 105.019 62.2067 103.703 62.426C102.362 62.6495 101.07 63.3885 99.8766 64.0094C99.2093 64.3564 98.6611 64.8756 98.0294 65.2799C97.2606 65.7719 96.6964 66.3201 96.1333 67.0441" stroke="black" stroke-linecap="round" stroke-linejoin="round"/>
<path d="M101.675 63.4376C101.45 63.9816 101.5 64.4298 101.5 65C101.5 65.6389 101.89 66.5 102.5 66.5" stroke="black" stroke-linecap="round" stroke-linejoin="round"/>
<path d="M108.536 63.3496C108.536 63.9683 108.43 64.5193 108.184 65.0893C107.98 65.5629 107.451 66.3307 107 66.5" stroke="black" stroke-linecap="round" stroke-linejoin="round"/>
<circle cx="105" cy="64.5" r="1" fill="black"/>
<circle cx="136.5" cy="65.5" r="1" fill="black"/>
<path d="M104.257 63.9839C104.537 63.7041 104.261 63.4945 104.099 63.5001M104.257 63.9839C103.915 63.6422 103.972 63.5045 104.099 63.5001M104.257 63.9839L104.099 63.5001" stroke="white" stroke-linecap="round" stroke-linejoin="round"/>
<path d="M135.757 64.9839C136.037 64.7041 135.761 64.4945 135.599 64.5001M135.757 64.9839C135.415 64.6422 135.472 64.5045 135.599 64.5001M135.757 64.9839L135.599 64.5001" stroke="white" stroke-linecap="round" stroke-linejoin="round"/>
<path d="M114.605 61.6011C112.835 60.9994 111.434 59.6595 109.64 59.0502C108.748 58.7474 107.814 58.6206 106.908 58.3856C106.115 58.18 105.357 58.2558 104.558 58.151C103.092 57.9589 101.434 58.0258 99.9836 58.2781C99.1236 58.4276 98.2583 58.5008 97.4131 58.7374C96.3817 59.0262 95.4008 59.4457 94.3735 59.7539" stroke="black" stroke-linecap="round" stroke-linejoin="round"/>
<path d="M133.429 63.5363C132.5 64.5 132.27 66.5387 133.5 67" stroke="black" stroke-linecap="round" stroke-linejoin="round"/>
<path d="M139 64C139.712 65.0112 139.5 66.76 138.5 67.26" stroke="black" stroke-linecap="round" stroke-linejoin="round"/>
<path d="M127.359 67.1427C128.746 66.0824 129.735 64.6154 131.406 63.9321C132.939 63.3049 134.434 63.2723 136.063 63.2723C137.443 63.2723 138.794 63.6239 140.026 64.2399C140.91 64.6821 141.71 65.1483 142.42 65.8428C142.779 66.1933 143.196 66.4584 143.525 66.8397C143.818 67.1797 144.106 67.5288 144.424 67.8464" stroke="black" stroke-linecap="round" stroke-linejoin="round"/>
<path d="M125.248 60.6335C124.223 61.85 123.489 63.062 123.489 64.6749C123.489 65.2219 123.366 65.7624 123.406 66.3071C123.446 66.8412 123.489 67.3512 123.489 67.8904C123.489 71.7627 124.543 75.7117 125.424 79.4574" stroke="black" stroke-linecap="round" stroke-linejoin="round"/>
<path d="M103.346 90.6285C104.528 91.5068 111.208 92.7432 115.91 93.0915C123.86 93.6803 123.571 93.0915 131.543 93.0915C132.906 93.0915 134.674 93.061 135.628 91.948" stroke="black" stroke-linecap="round" stroke-linejoin="round"/>
<path d="M104.049 91.2443C106.488 93.0373 108.835 94.987 111.458 96.5024C113.897 97.9121 116.389 98.3692 119.179 98.3692C121.84 98.3692 124.253 98.0859 126.88 97.6655C129.463 97.2522 132.06 94.6596 134.132 93.1794" stroke="black" stroke-linecap="round" stroke-linejoin="round"/>
<path d="M120.089 91.6015C118.685 91.4078 116.948 91.1563 115.529 91.1563C112.287 91.1563 109.049 91.2443 105.809 91.2443C105.241 91.2443 104.471 91.2347 103.962 90.9804" stroke="black" stroke-linecap="round" stroke-linejoin="round"/>
<path d="M120.147 91.6841C121.384 91.6841 122.594 91.5082 123.841 91.5082C125.224 91.5082 126.597 91.8735 127.976 91.948C130.304 92.0738 132.97 92.7988 135.239 91.948" stroke="black" stroke-linecap="round" stroke-linejoin="round"/>
<path d="M111.438 99.1608C113.304 100.626 117.02 101.184 119.316 101.184C121.797 101.184 124.553 101.28 126.92 100.392" stroke="black" stroke-linecap="round" stroke-linejoin="round"/>
<path d="M108.36 94.147C108.864 94.2087 109.112 94.0619 109.112 93.5215C109.112 93.196 109.044 94.2088 109.2 94.494C109.68 95.3666 110.53 95.7282 110.911 94.5868" stroke="black" stroke-linecap="round" stroke-linejoin="round"/>
<path d="M130.174 95.5544C130.206 95.4752 130.56 94.3966 130.438 94.5184C130.21 94.7459 130.239 95.264 130.086 95.5544C129.895 95.9166 129.601 96.06 129.206 95.9503C128.751 95.8237 128.73 95.4376 128.679 95.0267" stroke="black" stroke-linecap="round" stroke-linejoin="round"/>
<path d="M108.272 79.2814C105.97 80.6199 103.57 81.7571 101.279 83.1517C99.4596 84.2591 97.3573 86.0214 97.8924 88.4294" stroke="black" stroke-linecap="round" stroke-linejoin="round"/>
<path d="M133.517 81.7444C136.033 84.2608 139.671 85.8725 141.257 89.2212C141.727 90.2119 141.955 91.5258 141.609 92.5637" stroke="black" stroke-linecap="round" stroke-linejoin="round"/>
<path d="M110.559 79.7213C109.763 80.0706 109.123 81.7302 109.611 82.5556C110.408 83.9043 112.462 83.8555 113.813 83.8555" stroke="black" stroke-linecap="round" stroke-linejoin="round"/>
<path d="M115.836 85.1749C116.616 85.7707 117.205 86.6298 118.172 86.9781C118.96 87.2617 119.95 87.4439 120.782 87.4619C122.733 87.5043 124.944 87.2142 126.128 85.4388" stroke="black" stroke-linecap="round" stroke-linejoin="round"/>
<path d="M128.064 80.249C129.407 80.5049 130.15 81.3951 129.994 82.7999C129.939 83.2908 129.455 83.9501 129.114 84.2904C128.566 84.8391 128.029 85.1863 127.272 84.911" stroke="black" stroke-linecap="round" stroke-linejoin="round"/>
<path d="M122.361 31.6321C125.795 31.5729 129.185 30.5931 131.076 27.9597C133.377 24.7542 134.055 20.47 131.076 17.084" stroke="black" stroke-linecap="round" stroke-linejoin="round"/>
<path d="M125.437 31.3593C134.955 32.6666 137.308 23.8813 132.962 20.4842" stroke="black" stroke-linecap="round" stroke-linejoin="round"/>
<path d="M107.877 30.1674C103.174 33.863 97.7507 36.8895 93.4642 41.1007C87.53 46.9309 85.7108 54.0166 85.2051 62.1083" stroke="black" stroke-linecap="round" stroke-linejoin="round"/>
<path d="M84.679 43.3132C82.308 45.6419 80.5569 47.691 79.0727 50.6594C78.1536 52.4977 77.2833 54.3568 76.9892 56.416C76.7607 58.0153 76.8388 59.7831 76.7636 61.3994C76.5936 65.0538 75.4498 66.4757 71.7266 67.489C67.4324 68.6576 65.0218 73.5318 64.3993 78.4086C63.7767 83.2854 64.3993 89.6139 67.2848 96.1271" stroke="black" stroke-linecap="round" stroke-linejoin="round"/>
<path d="M92.461 49.6908C92.461 58.7568 89.3184 68.5193 89.3184 77.6168C89.3184 83.1091 89.0237 87.8542 90.5 93.1688C93.5106 104.007 106.056 115.6 116.77 118.278C128.999 121.336 144.024 102.222 148.299 93.1688C149.548 90.525 149.801 79.3454 149.866 76.4516" stroke="black" stroke-linecap="round" stroke-linejoin="round"/>
<path d="M150.584 58.532C152.479 67.0483 148.614 77.7741 144.12 83.7654" stroke="black" stroke-linecap="round" stroke-linejoin="round"/>
<path d="M148.938 47.2863C151.822 53.0545 155.677 58.8808 154.211 65.6635C153.578 68.5908 152.58 71.0538 151.407 73.8312C150.779 75.3177 149.643 76.7528 148.512 77.8845C146.437 79.9593 144.905 82.5083 143.178 84.8636" stroke="black" stroke-linecap="round" stroke-linejoin="round"/>
<path d="M107.104 33.8406C104.767 39.6148 102.02 43.175 96.6997 46.3672C92.7752 48.7966 89.3693 52.2611 87.2237 56.3377C83.1029 64.1673 84.8824 73.7151 85.8523 82.1207" stroke="black" stroke-linecap="round" stroke-linejoin="round"/>
<path d="M112.613 31.1444C120.639 32.1462 124.64 24.7279 125.132 20.8559C125.878 14.9779 119.314 6.57015 112.613 10.948" stroke="black" stroke-linecap="round" stroke-linejoin="round"/>
<path d="M110.327 31.7273C117.827 30.7273 117.406 22.6785 114.547 16.4272C110.062 9.11093 105.107 13.1153 102.377 19.4864" stroke="black" stroke-linecap="round" stroke-linejoin="round"/>
<path d="M107.327 33.7272C115.157 30.185 111.229 21.2037 105.601 19.7966C95.7548 17.3351 90.039 32.7193 86.1323 39.3606" stroke="black" stroke-linecap="round" stroke-linejoin="round"/>
<path d="M116.327 31.2272C125.816 34.7937 129.735 24.6199 130.735 19.6199C132.677 9.90907 121.47 1.86241 110.203 6.41742C103.458 9.14409 99.544 16.8813 96.2749 22.8747" stroke="black" stroke-linecap="round" stroke-linejoin="round"/>
<path d="M104.203 10.538C97.9097 12.0016 90.8673 18.1826 88.9913 24.3222C87.7725 28.311 87.6818 32.74 87.2236 36.8633" stroke="black" stroke-linecap="round" stroke-linejoin="round"/>
<path d="M130.666 31.0978C136.314 29.9997 139.922 26.9143 140.498 17.6584C141.073 8.40247 131.182 -2.38778 121.808 5.81476" stroke="black" stroke-linecap="round" stroke-linejoin="round"/>
<path d="M129.827 31.2272C137.712 33.0199 143.516 28.2427 144.8 23.6196C145.935 19.5344 146.262 8.05098 137.374 6.99994" stroke="black" stroke-linecap="round" stroke-linejoin="round"/>
<path d="M138.327 31.2272C140.327 33.7272 143.931 34.3714 145.647 34.0595C151.297 33.0322 157.6 24.6107 155.674 19.0346C154.212 14.8025 150.389 10.628 144.12 11.6728" stroke="black" stroke-linecap="round" stroke-linejoin="round"/>
<path d="M137.967 31.1033C143.119 31.9115 149.556 28.4029 151.386 23.812C152.787 20.2986 150.28 13.7899 145.334 14.701" stroke="black" stroke-linecap="round" stroke-linejoin="round"/>
<path d="M90.5151 57.7091C87.8734 62.7583 85.7544 69.0212 85.7544 82.0815" stroke="black" stroke-linecap="round" stroke-linejoin="round"/>
<path d="M156.658 103.617C155.337 105.238 153.125 108.244 151.834 109.885C149.917 112.32 148.852 116.017 148.939 119.149C149.027 122.332 152.718 124.616 155.643 125.123C158.055 125.54 159.714 124.456 161.419 122.974C162.628 121.923 163.609 120.106 164.085 118.601C164.905 116.012 164.305 114.336 163.201 112.018" stroke="black" stroke-linecap="round" stroke-linejoin="round"/>
<path d="M163.202 112.841C161.323 116.453 157.505 119.279 153.312 118.86C147.606 118.289 154.24 109.461 154.973 107.629" stroke="black" stroke-linecap="round" stroke-linejoin="round"/>
<path d="M104.286 28.1274C93.5482 32.3966 86.7975 40.4015 82.8231 50.922C80.4105 57.3082 84.2815 64.4438 80.0358 70.3407C77.1063 74.4095 71.6924 74.8165 69.5831 79.9727C66.3895 88.5147 75.262 89.263 74.6778 93.083C74.331 95.3503 71.9107 95.9919 69.8145 96.2493C67.1989 96.5705 64.7993 97.7178 62.754 99.7631C60.0142 101.836 55.9966 109.835 63.0327 115.094" stroke="black" stroke-linecap="round" stroke-linejoin="round"/>
<path d="M84.4957 72.7255C80.9542 75.5257 74.6607 79.9931 78.9209 84.7267C85.0695 91.5585 84.4539 98.2279 76.3968 101.854C70.1968 104.644 59.4409 106.393 63.1387 115.021" stroke="black" stroke-linecap="round" stroke-linejoin="round"/>
<path d="M78.5103 100.771C75.561 104.368 80.4087 108.552 80.8568 112.585C81.3895 117.379 78.5939 119.627 74.8277 121.039C71.2528 122.38 66.3779 124.601 66.3779 129.031C66.3779 135.241 77.9643 137.483 77.9643 130.447" stroke="black" stroke-linecap="round" stroke-linejoin="round"/>
<path d="M89.2945 86.3918C88.6277 98.6503 85.6861 97.3058 83.3148 101.392C81.5061 104.508 82.7667 107.241 83.8574 109.422C86.5193 114.746 86.5076 116.205 80.8565 121.365C77.941 124.027 73.6938 124.653 71.6605 127.267C69.6033 129.912 71.6949 132.292 74.0558 132.228C77.11 132.146 79.11 126.546 73.6974 125.52" stroke="black" stroke-linecap="round" stroke-linejoin="round"/>
<path d="M71.296 88.853C69.0405 91.8025 68.3705 92.6463 67.3257 96.8256" stroke="black" stroke-linecap="round" stroke-linejoin="round"/>
<path d="M68.3706 105.184C67.3377 108.948 68.1131 111.324 72.5496 113.543C74.6714 114.604 77.5297 116.602 77.774 119.289" stroke="black" stroke-linecap="round" stroke-linejoin="round"/>
<path d="M84.8989 117.016C84.8989 120.927 82.5648 122.946 77.7686 123.745" stroke="black" stroke-linecap="round" stroke-linejoin="round"/>
<path d="M77.2769 123.848C81.8055 125.298 86.4414 123.036 89.2162 119.389C93.8545 113.293 91.2917 107.156 87.5404 102.333" stroke="black" stroke-linecap="round" stroke-linejoin="round"/>
<path d="M139.827 32.7272C148.327 43.7272 157.511 33.0379 155.091 25.7779" stroke="black" stroke-linecap="round" stroke-linejoin="round"/>
<path d="M144.643 37.2709C145.953 40.0559 147.17 47.8863 147.777 50.8536C148.427 54.0298 150.113 64.3416 150.389 67.5707" stroke="black" stroke-linecap="round" stroke-linejoin="round"/>
<path d="M145.818 37.8832C157.034 42.3202 161.329 38.1014 166.294 43.9259C170.578 48.9522 165.747 51.4341 161.816 49.931" stroke="black" stroke-linecap="round" stroke-linejoin="round"/>
<path d="M146.097 42.0643C150.657 44.6701 160.939 42.1725 164.706 46.809C166.627 49.1724 162.741 49.4685 160.602 48.7169" stroke="black" stroke-linecap="round" stroke-linejoin="round"/>
<path d="M152.072 43.9074C152.366 48.4301 153.722 52.0377 157.743 55.165C162.124 58.573 166.884 63.179 169.062 68.3741C170.877 72.7003 171.791 78.2441 170.01 82.5975C168.978 85.121 165.057 89.6989 159.722 88.6943C165.091 87.4126 168.349 80.0346 165.651 74.2062C162.066 66.4633 159.897 67.0806 154.516 60.6233" stroke="black" stroke-linecap="round" stroke-linejoin="round"/>
<path d="M156.689 71.6105C153.452 79.1192 153.298 92.8572 161.33 97.6766C166.081 100.527 170.947 100.418 174.915 104.882C177.261 107.522 180.003 113.27 178.699 116.461C177.395 119.651 174.116 121.557 171.724 119.963" stroke="black" stroke-linecap="round" stroke-linejoin="round"/>
<path d="M170.536 120.993C180.572 126.812 184.509 114.223 182.056 107.215C176.129 92.9001 167.007 96.3995 164.653 88.1602" stroke="black" stroke-linecap="round" stroke-linejoin="round"/>
<path d="M164.059 85.3859C163.48 80.0554 164.772 77.4135 164.772 72.4467" stroke="black" stroke-linecap="round" stroke-linejoin="round"/>
<path d="M149.5 86.9999C149.145 89.2908 148.822 90.8534 148.822 93.1688C148.822 96.6251 152.882 101.625 155.868 102.969C159.374 104.546 162.842 105.395 166.228 107.351C169.07 108.993 174.629 112.22 173.8 116.363C173.249 119.119 171.606 120.008 169.511 121.505" stroke="black" stroke-linecap="round" stroke-linejoin="round"/>
<path d="M151.434 38.8382C154.936 37.6474 157.47 37.0272 159.414 33.7641C162.351 28.8354 161.882 23.1659 156.658 21.0762" stroke="black" stroke-linecap="round" stroke-linejoin="round"/>
<path d="M155.948 43.8487C160.105 49.2833 165.633 52.3417 168.074 57.0946C169.407 59.6901 169.653 64.581 168.074 66.3629" stroke="black" stroke-linecap="round" stroke-linejoin="round"/>
<path d="M87.2238 31.5245C80.9766 32.649 76.9746 38.524 74.3683 43.7367C70.5728 51.3276 73.1769 62.0531 62.2432 66.8565C70.0783 65.7101 72.6924 61.7553 77.0674 55.9221" stroke="black" stroke-linecap="round" stroke-linejoin="round"/>
<path d="M142.334 102.572C141.006 109.543 142.334 114.097 142.334 121.187" stroke="black" stroke-linecap="round" stroke-linejoin="round"/>
<path d="M127.677 62.4123C129.483 62.3693 130.988 61.4582 132.707 61.0285C134.215 60.6515 135.755 60.5374 137.257 60.2036C140.213 59.5466 143.126 59.5992 145.879 60.9753" stroke="black" stroke-linecap="round" stroke-linejoin="round"/>
<path d="M127.438 61.9333C129.76 59.6664 133.871 59.1562 137.018 58.8066C138.329 58.6609 140.041 58.103 141.329 58.4606C143.069 58.9441 144.384 59.739 145.879 60.7358" stroke="black" stroke-linecap="round" stroke-linejoin="round"/>
<path d="M98.6703 107.274C99.6909 113.217 98.1743 117 97.6255 122.946" stroke="black" stroke-linecap="round" stroke-linejoin="round"/>
<path d="M114.638 61.2644C113.065 58.2403 111.875 58.1325 108.888 57.4687C107.208 57.0954 105.198 56.8674 103.476 56.8674C99.4192 56.8674 96.2873 57.756 92.6528 59.5732" stroke="black" stroke-linecap="round" stroke-linejoin="round"/>
<path d="M115.388 65.3232C118.522 64.4363 123.541 64.5581 125.836 65.3232" stroke="black" stroke-linecap="round" stroke-linejoin="round"/>
<path d="M125.8 65.3232C125.847 67.6614 126.592 72.9221 129.182 73.9293C131.466 74.8173 135.189 74.7937 137.619 74.7937C140.733 74.7937 143.429 75.1771 145.492 72.4261C147.102 70.2795 148.822 67.5707 148.299 63.9138" stroke="black" stroke-linecap="round" stroke-linejoin="round"/>
<path d="M95.0133 61.8242C94.3369 61.937 91.6682 62.7826 90.9917 62.8953" stroke="black" stroke-linecap="round" stroke-linejoin="round"/>
<path d="M114.976 65.3232C114.926 67.4438 113.3 71.1968 111.256 72.2757C108.551 73.7035 100.686 74.1877 97.7266 73.3656C95.6273 72.7824 93.9688 69.6603 92.9915 67.3526C92.6224 65.1383 93.3715 63.7241 94.6826 61.9409C100.076 60.215 108.041 59.3189 113.285 61.9409C113.854 63.0781 114.431 64.0797 114.638 65.3232" stroke="black" stroke-linecap="round" stroke-linejoin="round"/>
<path d="M125.8 64.6467C128.788 62.4492 133.323 61.9409 136.961 61.9409C141.508 61.9409 144.384 61.2583 147.447 62.2791C148.272 63.0316 148.425 64.4169 149.344 64.6467" stroke="black" stroke-linecap="round" stroke-linejoin="round"/>
<path d="M97.3896 105.586C93.6846 110.625 97.5465 115.662 95.7146 121.486C93.8827 127.311 88.2932 133.276 81.7832 131.948" stroke="black" stroke-linecap="round" stroke-linejoin="round"/>
<path d="M151.183 100.206C149.668 102.267 147.973 103.617 145.687 107.274C143.075 111.453 143.543 118.277 143.075 120.334" stroke="black" stroke-linecap="round" stroke-linejoin="round"/>
<path d="M149.003 122.009C146.802 125.127 146.717 127.717 149.367 130.367C151.332 132.332 156.129 133.197 158.048 130.73C158.669 129.931 158.96 126.911 159.158 127.904C159.451 129.371 159.152 131.251 158.451 132.547C157.568 134.182 154.903 134.951 153.162 135.071C150.557 135.25 148.16 133.559 146.096 132.184" stroke="black" stroke-linecap="round" stroke-linejoin="round"/>
<path d="M141.735 121.282C143.488 127.634 143.343 140.178 134.104 140.178C132.187 140.178 131.014 137.715 132.731 139.371C134.08 140.671 135.695 141.269 137.556 141.269C144.037 141.269 145.733 134.601 145.733 129.277" stroke="black" stroke-linecap="round" stroke-linejoin="round"/>
<path d="M147.55 97.6619C145.573 100.162 144.479 102.969 142.826 105.656" stroke="black" stroke-linecap="round" stroke-linejoin="round"/>
<path d="M46.8999 144.779C58.5984 141.035 70.6995 137.34 81.7171 131.831" stroke="black" stroke-linecap="round" stroke-linejoin="round"/>
<path d="M115.553 153.561C115.404 154.229 117.326 159.277 117.839 159.317C119.083 159.412 119.88 159.366 121.182 159.655C122.918 160.041 128.675 165.548 128.822 164.226C129.303 159.895 128.078 157.782 127.403 153.561C127.736 151.558 127.777 147.263 124.991 148.037C122.861 148.629 121.058 146.837 118.897 147.678C117.213 148.332 115.931 151.862 115.553 153.561Z" stroke="black" stroke-linecap="round" stroke-linejoin="round"/>
<path d="M128.039 164.988C132.919 173.529 137.777 185.655 137.942 195.757C138.114 206.223 134.935 219.601 137.752 229.743C138.939 234.018 142.826 236.572 143.656 241.551" stroke="black" stroke-linecap="round" stroke-linejoin="round"/>
<path d="M138.704 182.891C138.618 177.792 135.552 173.6 134.218 168.797C133.645 166.734 132.349 164.787 131.932 162.703C131.608 161.082 133.184 163.176 133.371 163.443C133.972 164.302 134.427 165.194 134.895 166.131" stroke="black" stroke-linecap="round" stroke-linejoin="round"/>
<path d="M128.039 155.084C142.418 159.973 146.721 186.31 148.904 198.593C150.918 209.921 152.762 234.495 142.513 242.694" stroke="black" stroke-linecap="round" stroke-linejoin="round"/>
<path d="M124.991 158.893C124.694 157.408 122.918 153.518 120.886 153.518C120.528 153.518 119.823 156.931 119.659 157.37" stroke="black" stroke-linecap="round" stroke-linejoin="round"/>
<path d="M115.468 155.846C108.573 170.212 107.85 190.598 107.85 206.317C107.85 217.571 108.993 228.79 108.993 240.006C108.993 244.437 113.121 231.209 116.992 228.135C121.604 224.472 117.373 185.159 117.373 178.891C117.373 172.341 119.277 165.806 119.277 159.274" stroke="black" stroke-linecap="round" stroke-linejoin="round"/>
<path d="M97.6255 122.424C102.998 129.449 101.17 128.892 107.029 135.484C108.482 137.119 118.122 146.778 117.754 148.99" stroke="black" stroke-linecap="round" stroke-linejoin="round"/>
<path d="M113.885 149.186C110.59 148.659 110.231 148.279 109.103 145.377C108.364 143.477 107.835 141.545 107.029 139.663" stroke="black" stroke-linecap="round" stroke-linejoin="round"/>
<path d="M114.707 153.18C109.227 152.303 105.335 150.442 102.052 145.942C99.2608 142.117 94.5186 137.333 94.5186 132.23" stroke="black" stroke-linecap="round" stroke-linejoin="round"/>
<path d="M97.3231 121.901C96.5323 123.977 95.9855 126.206 95.5032 128.377C95.0746 130.305 94.1048 132.159 94.6567 134.09" stroke="black" stroke-linecap="round" stroke-linejoin="round"/>
<path d="M127.277 148.228C130.369 146.125 131.745 143.621 133.752 140.61" stroke="black" stroke-linecap="round" stroke-linejoin="round"/>
<path d="M134.194 139.663C138.957 134.494 138.464 125.205 142.133 120.802" stroke="black" stroke-linecap="round" stroke-linejoin="round"/>
<path d="M143.275 121.183C144.567 123.766 146.12 125.448 147.762 127.659C149.212 129.611 147.444 130.91 146.21 132.349" stroke="black" stroke-linecap="round" stroke-linejoin="round"/>
<path d="M145.941 132.23C143.423 139.636 143.207 141.089 139.94 145.932C136.955 150.359 132.656 154.445 130.537 155.858" stroke="black" stroke-linecap="round" stroke-linejoin="round"/>
<path d="M38.9052 155.846C40.6739 154.494 42.3234 152.953 43.8147 151.296C45.4996 149.424 45.3273 150.471 44.2168 152.206C41.026 157.192 38.4476 162.132 36.2388 167.654" stroke="black" stroke-linecap="round" stroke-linejoin="round"/>
<path d="M44.9997 156.989C45.1743 156.814 47.1456 154.787 47.0312 155.359C46.8705 156.163 46.4192 156.979 46.1424 157.751C45.4023 159.815 44.4933 161.724 43.8569 163.845" stroke="black" stroke-linecap="round" stroke-linejoin="round"/>
<path d="M148.227 124.611C160.88 130.938 176.01 131.982 187.461 141.075C191.713 144.452 189.106 167.809 188.223 172.225" stroke="black" stroke-linecap="round" stroke-linejoin="round"/>
<path d="M188.223 141.752C190.456 142.065 193.315 141.13 195.46 141.964C197.81 142.878 199.916 145.243 201.555 147.064C203.35 149.059 210.82 157.841 212.5 160C214.525 162.603 215.026 174.681 215.5 178" stroke="black" stroke-linecap="round" stroke-linejoin="round"/>
<path d="M193.937 147.847C195.917 158.85 198.084 168.152 198.084 179.366" stroke="black" stroke-linecap="round" stroke-linejoin="round"/>
<path d="M199.65 155.846C199.65 162.283 203.078 168.146 203.078 174.511" stroke="black" stroke-linecap="round" stroke-linejoin="round"/>
<path d="M160.837 123.553C162.78 123.915 168.749 121.438 168.796 123.553C168.882 127.403 165.544 128.914 162.321 129.182" stroke="black" stroke-linecap="round" stroke-linejoin="round"/>
<path d="M84.922 123.615C85.983 127.196 85.1662 130.613 80.1919 132.461" stroke="black" stroke-linecap="round" stroke-linejoin="round"/>
<path d="M53.3799 152.418C66.0855 152.169 80.8448 144.209 91.852 138.705" stroke="black" stroke-linecap="round" stroke-linejoin="round"/>
<path d="M148.608 139.467C158.478 145.342 171.377 145.787 182.128 149.371" stroke="black" stroke-linecap="round" stroke-linejoin="round"/>
<path d="M46.5239 145.181C47.7115 148.892 49.0666 152.423 49.8675 156.227C55.1647 181.389 56.0466 211.228 56.0466 236.975C56.0466 238.925 56.6575 241.068 56.0466 242.901" stroke="black" stroke-linecap="round" stroke-linejoin="round"/>
<path d="M46.5235 145.181C40.6743 148.222 36.8629 153.87 34.5248 159.846C30.9265 169.041 29.5794 180.731 28.5995 190.53C26.9198 207.327 26.3354 223.798 26.3354 240.615" stroke="black" stroke-linecap="round" stroke-linejoin="round"/>
<path d="M114.162 170.019C115.053 174.807 114.239 179.466 113.615 184.248" stroke="black" stroke-linecap="round" stroke-linejoin="round"/>
<path d="M186.958 214.89C185.913 212.801 183.301 197.128 182.419 193.994C168.673 195.561 164.392 207.488 166.061 218.547C167.835 230.298 178.509 236.423 191.137 234.742C202.705 233.201 210.988 221.159 208.899 210.711C204.719 211.233 191.137 213.845 186.958 214.89Z" stroke="black" stroke-linecap="round" stroke-linejoin="round"/>
<path d="M197.928 191.904C195.24 197.511 192.182 205.487 189.459 210.581C188.525 207.054 185.391 194.516 184.868 191.904C186.958 189.333 194.966 188.388 197.928 191.904Z" stroke="black" stroke-linecap="round" stroke-linejoin="round"/>
<path d="M214.082 200.5C214.915 195.41 213.613 193.011 206.436 189.815C204.719 191.532 197.406 203.92 194.801 208.598C201.626 206.341 208.006 204.463 212 203.327" stroke="black" stroke-linecap="round" stroke-linejoin="round"/>
<path d="M153.001 187.725C167.106 185.635 211.619 179.045 220.5 178" stroke="black" stroke-linecap="round" stroke-linejoin="round"/>
<path d="M153.001 187.725C155.944 206.12 157.159 226.238 159.792 244.668" stroke="black" stroke-linecap="round" stroke-linejoin="round"/>
<path d="M226.5 217.5C227.5 221.5 229 228.5 230.318 231.607" stroke="black" stroke-linecap="round" stroke-linejoin="round"/>
<path d="M220.5 178C221.5 182 223 191.5 223 195" stroke="black" stroke-linecap="round" stroke-linejoin="round"/>
<path d="M159.792 245.19C183.505 241.006 210.466 236.831 230.318 232.13" stroke="black" stroke-linecap="round" stroke-linejoin="round"/>
<path d="M94.7476 130.079C92.9332 130.953 91.4375 131.594 89.439 131.437C88.7664 131.384 88.1116 131.339 87.436 131.339" stroke="black" stroke-linecap="round" stroke-linejoin="round"/>
<path d="M133.238 116.706C131.342 122.028 129.633 127.483 127.42 132.689C127.079 133.492 126.662 134.204 126.491 135.058" stroke="black" stroke-linecap="round" stroke-linejoin="round"/>
<path d="M109.489 119.945C111.708 123.953 112.225 129.101 115.5 134" stroke="black" stroke-linecap="round" stroke-linejoin="round"/>
<path d="M230 199.5C226.236 201.032 221.927 202.293 218.17 203.83C216.544 204.496 215.001 205.419 213.357 206.017C212.511 206.325 209.459 207.71 211.17 208.613C212.531 209.332 213.728 209.271 215.209 209.152C218.39 208.898 221.528 208.065 224.563 207.11C227.723 206.115 230.85 204.88 234 203.83" stroke="black" stroke-linecap="round" stroke-linejoin="round"/>
<path d="M231.5 199C229.465 199.339 227.544 200.01 225.527 200.414C224.187 200.682 222.401 201.277 221.283 202.084C219.1 203.661 215.437 205.47 212.681 205.47C210.347 205.47 211.918 203.27 212.81 202.327C214.257 200.798 215.256 199.591 217.039 198.432C220.7 196.053 224.963 195.056 229 193.5C229.889 193.198 231.232 193.001 232.079 192.625C232.579 192.402 233.803 192.312 234.265 192.655C235.782 193.782 234.458 196.227 236.042 197.195C236.755 197.631 237.64 197.749 237.886 198.637C238.135 199.531 237.979 200.209 237.955 201.097C237.932 201.929 237.972 202.539 238.365 203.284C238.787 204.084 239.549 204.696 239.936 205.47C240.249 206.096 240.613 206.951 240.339 207.657C240.039 208.427 239.868 209.007 239.868 209.843C239.868 211.654 240.475 213.123 239.291 214.763C237.495 217.249 234.5 218 231.805 217.769C230.377 217.293 228.132 217.086 226.612 217.086C225.042 217.086 223.528 216.949 221.966 216.949C220.191 216.949 218.132 215.313 220.463 214.148C221.9 213.429 223.748 213.036 225.374 212.622M234 204C232.259 204.729 228.477 206.541 226.757 207.315C224.813 208.19 214.877 209.072 214.594 211.901C214.338 214.469 223 213 223 213C223 213 223.955 212.853 225.374 212.622M225.374 212.622C228.62 212.095 234.289 211.132 236.5 210.5M225.374 212.622C225.61 212.562 225.841 212.502 226.066 212.44" stroke="black" stroke-linecap="round" stroke-linejoin="round"/>
<path d="M233.582 218.042C232.416 218.835 231.295 219.761 230.165 220.609C229.343 221.226 228.832 222.222 227.842 222.552" stroke="black" stroke-linecap="round" stroke-linejoin="round"/>
</svg>
