<svg width="250" height="250" viewBox="0 0 250 250" fill="none" xmlns="http://www.w3.org/2000/svg">
<path d="M230.389 239.415L29 238.026C30.6667 236.36 33.3981 217.193 34.5556 208.165V163.721C36.6389 160.249 31.7778 154.693 42.1944 147.749C53.1039 140.476 62.3333 135.48 73.4444 133.165L104.833 116.721L156.778 141.499C154 133.628 156.083 121.776 186.639 137.332C224.833 156.776 221.361 177.61 224.139 182.471C226.51 186.62 229.926 221.591 230.389 239.415Z" fill="white"/>
<path d="M93.8335 126.721C99.4335 126.321 103.5 121.221 104.833 118.721C104.833 125.221 97.8335 139.221 96.3335 137.721C95.1335 136.521 92.8335 137.221 91.8335 137.721C91.3335 139.387 90.6335 143.621 91.8335 147.221C93.3335 151.721 92.3335 166.221 90.3335 175.721C88.3335 185.221 78.3335 212.721 74.3335 218.221C70.3335 223.721 68.8335 221.721 66.8335 221.721C66.3902 221.721 65.775 221.721 65.1676 221.683C65.7751 222.622 66.347 223.491 66.8335 224.221L78.3335 221.721L85.8335 216.221L90.3335 219.721C88.6668 220.721 85.1335 223.021 84.3335 224.221C83.3335 225.721 81.3335 225.721 74.3335 226.721C68.7335 227.521 64.3335 225.387 62.8335 224.221L52.8335 228.721V224.221C51.3335 222.721 47.4335 219.021 43.8335 216.221C39.3335 212.721 38.8335 202.221 35.8335 194.721C33.4335 188.721 34.8335 171.221 35.8335 163.221L46.8335 189.721L57.8335 199.721V174.221C60.0001 166.221 67.1335 149.221 78.3335 145.221C92.3335 140.221 86.8335 127.221 93.8335 126.721Z" fill="#F5F5F5"/>
<path d="M137.333 198.221L122.833 162.221C118 150.221 135.833 147.221 137.333 143.721C138.833 140.221 153.333 141.721 156.333 140.721C158.733 139.921 175.333 139.387 183.333 139.221C191.667 146.387 208.833 161.221 210.833 163.221C213.333 165.721 221.333 179.221 221.333 182.221C221.333 184.621 220 219.554 219.333 236.721L202.333 234.721C201 235.887 197.733 238.421 195.333 239.221C192.934 240.021 187.333 237.887 184.833 236.721V216.221V205.721L183.333 166.221L160.333 151.721C157.5 152.054 150.233 153.721 143.833 157.721C137.433 161.721 141.833 186.387 144.833 198.221H137.333Z" fill="#F5F5F5"/>
<path d="M183.178 216.102C183.653 197.298 178.751 175.233 176.222 166.499C174.602 160.712 178.306 160.943 178.306 157.471C183.861 164.137 185.25 199.137 185.25 215.804C183.385 216.426 183.217 215.229 183.178 216.102C183.174 216.234 183.171 216.366 183.167 216.499C183.17 216.334 183.173 216.204 183.178 216.102Z" fill="#F5F5F5"/>
<path d="M186.639 219.276C181.084 220.387 181.547 228.999 182.473 233.165C184.695 239.276 188.491 234.786 190.111 231.776C191.269 227.147 192.195 218.165 186.639 219.276Z" fill="#F5F5F5"/>
<path d="M78.3058 160.943C67.8892 158.165 67.8892 163.026 63.7225 168.582C65.1114 160.943 69.4116 156.525 77.6114 158.165C81.0836 158.86 85.2503 166.499 83.8614 171.36C81.7781 165.11 79.7619 161.331 78.3058 160.943Z" fill="#F5F5F5"/>
<path d="M72.7503 209.554C75.5281 205.665 81.3151 189.878 83.8614 182.471C84.5557 181.545 84.5553 181.776 85.2498 182.471C84.5553 185.249 80.3886 196.36 80.3886 197.749C80.3886 199.137 72.7503 214.415 65.1109 219.971C64.4141 220.478 63.6896 220.905 62.9474 221.262C66.7051 222.943 71.441 222.654 74.1389 222.054L80.3886 219.276L82.4723 221.36C78.7686 222.98 70.3889 225.943 66.5001 224.832C64.421 224.238 62.6463 223.088 61.3033 221.934C55.9297 223.77 50.0299 222.475 47.0559 221.36C45.6667 219.971 47.0558 219.276 47.0558 219.276C51.9055 220.731 56.4165 220.831 59.6427 220.287C59.31 219.902 59.0473 219.556 58.8612 219.276C56.5464 216.73 52.7501 206.499 56.0834 185.943H57.4723C56.5464 193.35 55.3889 209.832 58.1667 216.499C58.7931 218.002 59.7373 219.157 60.872 220.033C61.7239 219.824 62.4509 219.565 63.0281 219.276C65.8058 217.888 69.2781 214.415 72.7503 209.554Z" fill="#F5F5F5"/>
<path d="M179 226.221C176.778 232.332 181.315 235.249 183.861 235.943C180.528 234.276 181.083 229.693 181.778 227.61C182.009 225.526 183.028 220.943 185.25 219.276C187.472 217.61 188.954 219.045 189.417 219.971V218.582C188.954 218.119 187.472 217.054 185.25 216.499C182.472 215.804 181.778 218.582 179 226.221Z" fill="#9E9E9E"/>
<path d="M84.3332 221.221C83.7776 221.221 81.9906 219.647 80.8332 218.721L84.5556 215.804C84.5556 215.804 86.4306 214.619 87.3332 215.221C88.4838 215.988 88.0278 219.276 88.0278 219.276C87.1019 219.971 84.8887 221.221 84.3332 221.221Z" fill="#9E9E9E"/>
<path d="M45.6667 221.36C45.6667 221.36 47.6886 219.203 47.0556 217.887C46.5298 216.794 45.4906 216.499 44.2778 216.499C43.4202 216.499 41.8332 216.721 41.8332 216.721C41.8332 216.721 40.1203 219.508 41.3332 220.721C42.3333 221.721 45.6667 221.36 45.6667 221.36Z" fill="#9E9E9E"/>
<path d="M58.8332 185.221C59.9443 184.665 59.3241 180.156 58.8611 178.304L58.7743 175.526C59.9607 174.832 62.3334 172.887 62.3334 170.665C62.3334 167.887 66.5 158.165 67.1945 156.082C67.8889 153.999 72.75 149.832 74.8334 149.832C76.9167 149.832 77.6111 149.137 82.4722 153.304C86.3611 156.637 85.0185 166.73 83.8611 171.36L84.8332 172.221L85.8332 174.137L83.1667 180.387L83.8611 181.776H85.25L86.6389 180.387V174.137L86.8919 172.054H88.0278C88.4908 170.434 91.3332 167.721 90.1111 158.86C89.1972 152.233 87.1019 148.212 85.25 147.054L81.0834 146.36C79.463 146.36 74.5235 145.142 69.2778 147.054C63.3332 149.221 57.2443 166.752 56.3332 169.721C55.583 172.165 56.4072 174.563 57.3332 175.721C57.3332 176.721 58.1941 176.679 57.8332 177.221C56.7221 178.887 55.9097 182.702 55.8229 184.554C56.3727 184.786 57.7221 185.776 58.8332 185.221Z" fill="#9E9E9E"/>
<path d="M90.8336 88.7208C94.8336 94.7208 103.134 107.021 104.334 108.221C105.534 109.421 105.5 115.054 105.334 117.721C102.5 120.221 99.8335 124.221 94.3336 126.221C92.5 129.5 88 138 84.8336 140.721C81.3336 141.721 81.8336 144.721 71.8336 146.221C61.8336 147.721 54.8336 145.221 52.3336 147.721C50.3336 149.721 54.1669 143.887 56.3336 140.721C54.5927 141.185 51.7365 141.973 50.4326 142.408C50.179 142.61 49.9867 142.721 49.8335 142.721C49.5905 142.721 49.864 142.598 50.4326 142.408C51.8343 141.291 55.1086 137.387 64 134C69.5 133.5 73 131 75.8335 126.221C78.8335 115.721 79.8335 90.7208 79.3335 84.2208C78.8335 77.7208 79.3335 37.7208 93.3335 19.7208C107.333 1.7208 128.833 5.2208 130.333 9.2208C135.333 8.72083 140.833 6.22083 148.333 11.7208C162.833 15.2208 178.833 61.7208 179.833 72.2208C184.233 99.0208 185 119.387 184.833 126.221C188 130.887 196.233 140.921 203.833 143.721C213.333 148.721 221.833 164.221 222.833 169.721C224.333 170.721 230.833 195.721 228.333 199.721C225.833 192.221 225.333 180.721 222.833 177.221C218.833 174.721 216.929 158.721 193.333 143.721C191.333 140.721 187.833 138.721 184.833 136.221C186.167 156.221 188.233 197.521 185.833 202.721C184.723 188.012 179.955 160.432 177.833 156.721C177.833 159.221 177.208 161.721 176.333 166.721C174 180.054 170.733 197.121 168.333 198.721C171.833 181.721 169.833 167.721 167.833 162.721C166.833 167.221 165.333 179.721 162.833 188.221C164.513 174.721 159.833 150.721 155.833 140.721C148.833 130.721 147.833 117.721 148.833 110.721C149.633 105.121 150.833 102.054 151.333 101.221C153 99.2208 156.533 94.3208 157.333 90.7208C158.333 86.2208 156.833 56.2208 155.833 53.7208C153.333 53.7208 133.833 52.2208 128.833 53.7208C124.833 54.9208 110.833 54.7208 104.333 54.2208L91.8335 56.2208C91.0546 66.3875 89.7643 87.1208 90.8336 88.7208Z" fill="#30271F"/>
<path d="M92.8337 92.7208C89.6337 87.5208 90.8337 66.5542 91.8337 56.7208C94.3339 54.2209 104.333 54.7208 105.333 54.7208C106.333 54.7208 121 56.5 127 54.5C133 52.5 152.5 54 156.333 53.7208C157.833 54.2208 158.333 84.7208 157.333 90.2208C156.333 95.7208 151.333 101.221 150.833 101.721C150.333 102.221 148.833 114.721 148.833 120.721C148.833 125.521 153.5 136.054 155.833 140.721C152.833 141.554 145.333 143.721 139.333 145.721C133.333 147.721 126.5 157.554 123.833 162.221C121.167 156.888 115.733 146.121 115.333 145.721C114.833 145.221 100 144 96.3335 138.721C106.333 128.721 106.5 114.888 105.333 109.221C102.5 105.888 96.0337 97.9208 92.8337 92.7208Z" fill="#F1C27D"/>
<path d="M133.334 63.7208H127.834C122.833 72.2208 131.834 73.7208 131.834 74.2208C131.834 74.7208 144.334 77.2208 145.834 81.7208C147.334 86.2208 139.833 93.2208 142.333 90.2208C144.333 87.8208 137.5 82.3875 133.833 80.2208C134.667 81.8875 135.833 85.8208 135.833 86.2208V90.2208C135.833 91.2208 134.333 99.7208 125.834 102.221C132.834 106.221 122.334 115.721 124.834 116.721C127.334 117.721 141.333 107.721 145.834 104.721C149.188 102.485 153.834 93.7208 155.334 90.2208C156.534 87.4208 155.834 66.0541 155.334 55.7208C154 55.8875 145.633 53.8208 144.833 54.2208C144.033 54.6208 145.5 61.8875 145.333 64.7208C145 66.7208 146.934 72.0208 143.334 73.2208C138.834 74.7208 133.334 73.2208 132.334 73.2208C131.334 73.2208 128.834 70.2208 128.834 68.2208V64.7208C129.667 65.3875 131.434 66.7208 131.834 66.7208H139.334L141.834 62.7208C140.167 63.0541 136.134 63.7208 133.334 63.7208Z" fill="#E0AC69"/>
<path d="M123.333 80.2208C120.133 82.2208 117.667 81.0541 116.833 80.2208C118.033 81.4208 120.667 79.7208 121.833 78.7208C123.667 78.3875 126.533 78.2208 123.333 80.2208Z" fill="#E0AC69"/>
<path d="M111.833 83.2208C111.913 83.2606 111.998 83.3024 112.088 83.3458C112.898 83.4385 115.444 82.9986 116.833 82.7208C117.833 82.8875 120.033 83.3208 120.833 83.7208C121.833 84.2208 124.833 81.7208 125.834 81.7208C130.333 81.2208 129.333 79.7208 129.333 76.2208C132.334 77.2208 132.334 83.2208 131.834 83.2208C131.334 83.2208 130.333 84.7208 125.834 83.7208C119.833 86.7208 117.833 84.2208 116.833 84.7208C116.081 85.0969 113.502 84.0289 112.088 83.3458C111.926 83.3273 111.833 83.2874 111.833 83.2208Z" fill="#E0AC69"/>
<path d="M123.333 61.2208C123.27 61.7932 123.205 62.4383 123.143 63.1285C123.235 67.8075 127.135 72.669 129.333 74.7208L127.834 76.2208C127.334 76.7208 125.834 74.7208 123.833 74.7208C122.437 74.7208 122.716 67.8646 123.143 63.1285C123.13 62.4866 123.189 61.8481 123.333 61.2208Z" fill="#E0AC69"/>
<path d="M112.333 74.2208C115.786 69.0416 115.514 65.7252 116.017 62.6637C115.801 63.2637 115.522 63.801 115.333 64.2208C114.815 65.3744 113.5 68.0541 112.333 69.2208V66.2208C111.333 66.5541 108.834 67.3208 106.834 67.7208C104.334 68.2208 99.8335 64.7208 100.834 64.2208C101.634 63.8208 109.834 64.3875 113.834 64.7208C113.834 61.5208 107.5 57.3875 104.333 55.7208C106.167 55.7208 110.633 56.1208 113.834 57.7208C115.869 58.7385 116.396 60.015 116.334 61.2211C118.333 62.7218 116.333 70.7208 116.333 71.2208C116.333 71.6208 113 77.3875 111.333 80.2208C109.833 78.8875 107.933 75.8208 112.333 74.2208Z" fill="#E0AC69"/>
<path d="M94.3335 72.2208L96.8335 55.7208L91.8335 56.7208C91.5002 65.3875 90.8335 83.2208 90.8335 85.2208C90.8335 87.7208 94.8335 93.7208 94.8335 93.2208C94.8335 92.8208 94.5002 79.0541 94.3335 72.2208Z" fill="#E0AC69"/>
<path d="M105.833 91.2208C105.833 90.4208 107.5 85.5541 108.333 83.2208C107.133 84.4208 105.167 88.3875 104.333 90.2208C104.833 90.8875 105.833 92.0208 105.833 91.2208Z" fill="#E0AC69"/>
<path d="M117.333 58.2208C115.833 58.2208 113.834 55.2208 113.333 55.2208C114.134 55.2208 123.334 54.5541 127.834 54.2208C126.834 55.3875 124.633 57.8208 123.833 58.2208C122.833 58.7208 118.833 58.2208 117.333 58.2208Z" fill="#E0AC69"/>
<path d="M120.833 118.221C115.233 118.621 107.833 112.387 104.833 109.221C105.333 113.221 119.333 125.221 123.333 127.221C127.333 129.221 139.833 115.721 142.333 115.721C144.333 115.721 140.167 135.721 137.833 145.721C142.833 144.221 152.833 141.721 155.334 140.221C150.833 135.221 146.833 115.221 150.334 102.721C143.334 108.721 127.833 117.721 120.833 118.221Z" fill="#E0AC69"/>
<path d="M129.333 142.721C128.933 143.121 129.5 141.221 129.833 140.221C131.033 140.221 138.667 124.554 142.333 116.721C142.497 116.721 142.326 118.021 140.333 123.221C137.843 129.721 129.833 142.221 129.333 142.721Z" fill="#E0AC69"/>
<path d="M120.833 141.721C120.033 141.721 112.5 126.721 108.833 119.221C111.333 130.721 118.833 141.721 119.833 142.721C120.833 143.721 121.833 141.721 120.833 141.721Z" fill="#E0AC69"/>
<path d="M124.333 149.221C121.933 149.621 118 145.387 116.333 143.221C116.833 143.221 120.333 145.721 124.834 146.721C126.833 146.221 132.167 144.299 133.333 143.221C133 143.887 132.233 145.321 131.833 145.721C131.333 146.221 127.333 148.721 124.333 149.221Z" fill="#E0AC69"/>
<path d="M106.333 125.221C105.833 129.221 99.8335 140.221 98.3335 141.221C97.8335 140.221 98.3335 140.721 96.3335 138.721C103.533 132.321 105.667 121.387 105.833 116.721C106.167 118.221 106.733 122.021 106.333 125.221Z" fill="#E0AC69"/>
<path d="M131.834 55.2208C125.034 56.0208 124.334 60.5541 124.833 62.7208L128.834 63.2208L133.833 59.2208C132.667 58.7208 130.634 57.5208 131.834 56.7208C133.034 55.9208 137 55.3875 138.833 55.2208C139.333 54.8875 138.634 54.4208 131.834 55.2208Z" fill="#E0AC69"/>
<path opacity="0.4" d="M109.833 91.7208C115.433 89.7208 119.833 90.2208 121.333 90.7208C123.733 89.5208 133.334 89.5541 137.834 89.7208C137.167 91.0541 135.234 94.5208 132.834 97.7208C129.834 101.721 124.833 102.221 121.333 102.221C117.833 102.221 110.333 98.7208 109.833 91.7208Z" fill="#F599B5"/>
<path d="M103.333 64.2208C102.933 64.2208 100.833 63.5541 99.8335 63.2208C101.333 62.2208 105.133 60.2208 108.333 60.2208C111.533 60.2208 113.167 63.1667 113.5 64.5C111.167 65.2792 103.733 64.2208 103.333 64.2208Z" fill="white"/>
<path d="M136.833 59.2208C133.633 58.4208 130.167 61.5541 128.833 63.2208C128.333 64.2208 134.208 63.6978 136 63.5C138 63.2792 141.5 63 142.333 62.2208C142.699 61.8794 140.833 60.2208 136.833 59.2208Z" fill="white"/>
<path d="M123.333 93.2208C119.333 93.2208 112.833 92.2208 111.333 91.7208C109.833 93.7208 115.833 96.7208 117.333 97.2208C118.833 97.7208 122.833 98.7208 128.333 96.7208C132.733 95.1208 134.833 91.7208 135.333 90.2208H134.833C132.333 91.2208 126.533 93.2208 123.333 93.2208Z" fill="white"/>
<path d="M108.333 64.7208C105.933 64.7208 105.667 61.7208 105.833 60.7208C109.833 58.7208 111.333 61.7208 111.833 61.7208C112.333 61.7208 111.333 64.7208 108.333 64.7208Z" fill="#8D5524"/>
<path d="M134.833 63.7208C132.833 63.7208 132.667 61.3875 132.833 60.2208C133.333 59.7208 136.333 59.2208 137.333 59.2208C138.133 59.2208 137.667 61.5542 137.333 62.7208C137.333 63.0542 136.833 63.7208 134.833 63.7208Z" fill="#8D5524"/>
<path d="M116.5 61L115 58L117 58.5H123.5L127 57C126.333 58.5 125 61.4 125 61C125 60.6 119.333 60.8333 116.5 61Z" fill="black"/>
<path d="M147.833 63.7208C146.833 66.2208 147.833 66.2208 144.833 69.2208C141.833 71.7208 137.833 71.2208 129.833 71.2208C134.333 72.7208 141.833 74.2208 145.833 69.2208C146.717 68.1165 147.833 66.7208 147.833 63.7208Z" fill="white"/>
<path d="M115 67.5C114 70 111 72 105 74.5H105.5C112.5 74.5 114 71.2208 115 67.5Z" fill="white"/>
<circle cx="109" cy="62.5" r="1" fill="black"/>
<circle cx="135.5" cy="61.5" r="1" fill="black"/>
<path d="M108.257 61.4839C108.537 61.2041 108.261 60.9945 108.099 61.0001M108.257 61.4839C107.915 61.1422 107.972 61.0045 108.099 61.0001M108.257 61.4839L108.099 61.0001" stroke="white" stroke-linecap="round" stroke-linejoin="round"/>
<path d="M134.257 60.9839C134.537 60.7041 134.261 60.4945 134.099 60.5001M134.257 60.9839C133.915 60.6422 133.972 60.5045 134.099 60.5001M134.257 60.9839L134.099 60.5001" stroke="white" stroke-linecap="round" stroke-linejoin="round"/>
<path d="M130.5 9.5C129.718 7.36995 127.134 6.5 125 6.5C67.6791 6.5 84.4999 81.5 76.9999 120.5C76.0383 125.5 76.9999 130 67.9999 133.5C64.6578 134.313 59.5 135 55.8832 137.5C55.3228 138.306 47.509 145.059 49.7566 143.373C51.7365 141.888 53.6903 141.345 55.8831 140.248" stroke="black" stroke-linecap="round" stroke-linejoin="round"/>
<path d="M154.516 123.857C154.288 133.544 156.1 142.773 159.035 152.038C163.829 167.167 166.354 186.693 156.436 200.425C155.611 201.567 155.801 202.442 156.776 200.942C157.514 199.806 158.375 198.585 158.917 197.353C163.898 186.032 166.833 174.685 167.528 162.171" stroke="black" stroke-linecap="round" stroke-linejoin="round"/>
<path d="M169.088 59.8036C172.311 83.1665 176.424 106.5 176.69 130.161C176.833 142.935 177.254 155.702 175.465 168.422C174.169 177.637 172.768 186.615 170.059 195.513C169.04 198.862 165.173 208.632 166.28 205.311C167.645 201.216 169.143 196.779 169.489 192.452C169.851 187.927 170.608 183.525 170.608 178.959C170.608 173.471 169.384 168.585 167.568 163.397" stroke="black" stroke-linecap="round" stroke-linejoin="round"/>
<path d="M130.5 9.50004C166.5 -1.5 181.174 76.5014 181.99 85.4802C183.856 106.009 185.432 127.243 185.432 147.877C185.432 156.36 186.208 164.934 186.656 173.405C187.058 180.987 187.535 188.351 186.973 195.936C186.767 198.712 186.317 201.369 185.643 204.065C185.608 204.205 185.231 187.283 184.08 182.021C182.28 173.792 180.889 165.539 178.97 157.315" stroke="black" stroke-linecap="round" stroke-linejoin="round"/>
<path d="M184.671 123C187.457 138.475 209.653 143.358 216.598 156.555C222.003 166.823 226.434 176.214 228.465 187.637C230.594 199.612 228.022 201 228.022 199.23M225.5 184C223.5 177 219.622 171.917 216.387 166.036C209.221 153.006 196.116 147.116 186 137" stroke="black" stroke-linecap="round" stroke-linejoin="round"/>
<path d="M113 142C117.289 142.086 119.353 145.692 123.262 146.561C127.246 147.446 130.486 145.005 133.904 143.14" stroke="black" stroke-linecap="round" stroke-linejoin="round"/>
<path d="M93.5 135C97.2638 143.732 106.85 143.884 115.307 145.723C120 152 134.488 187.812 136.317 194.943C136.497 195.646 137.441 199.705 137.921 198.744" stroke="black" stroke-linecap="round" stroke-linejoin="round"/>
<path d="M124.239 162.256C127.583 157.883 134 146 141.5 145C145.624 143.429 151.836 142.388 156 141" stroke="black" stroke-linecap="round" stroke-linejoin="round"/>
<path d="M69.5 147C64.1744 151.073 62.6673 154.6 60.0003 161.095C58.6508 164.381 56.5001 169.5 56.5001 169.5C56.5001 169.5 55.2961 176.778 58.8652 175.39C62.4667 173.99 64.286 164.493 65.3054 161.095C66.7045 156.431 70.5668 149.19 76.7289 150.009C82.7149 150.806 85.0907 157.457 85.0907 163.016C85.0907 165.586 85.2093 168.519 84.5206 170.998C83.8605 173.374 85.53 172.558 87 172C88.3594 172.17 87.8468 173.468 89.0815 170.998C91.8456 165.47 90.6855 144.856 80 146.5" stroke="black" stroke-linecap="round" stroke-linejoin="round"/>
<path d="M63 169.5C64.2486 166.222 65.1838 162.132 68.367 160.187C70.7121 158.754 73.2726 158.455 75.9686 158.455C81.8209 158.455 84.3304 166.973 84.3304 171.758" stroke="black" stroke-linecap="round" stroke-linejoin="round"/>
<path d="M57.3447 175.939C57.4479 178.003 59.5 178 59.5 175.5" stroke="black" stroke-linecap="round" stroke-linejoin="round"/>
<path d="M57.7246 177.84C56.6463 179.996 55.8242 181.797 55.8242 184.216C55.8242 187.443 56.1818 184.896 58.1047 185.61C60.2571 186.41 59.5652 178.86 58.8649 177.459" stroke="black" stroke-linecap="round" stroke-linejoin="round"/>
<path d="M58.0003 185.5C58.0003 193.169 53.967 213.973 61.5003 220" stroke="black" stroke-linecap="round" stroke-linejoin="round"/>
<path d="M56.5845 185.441C54.9664 195.756 52.5493 212.159 59.5 220.5" stroke="black" stroke-linecap="round" stroke-linejoin="round"/>
<path d="M87.5 172.5C87.2466 173.26 87 173.5 86.6108 174.039" stroke="black" stroke-linecap="round" stroke-linejoin="round"/>
<path d="M85.0904 172.898C86.6339 174.798 87.258 175.245 86.9697 177.839C86.8331 179.069 86.7168 181.927 85.0904 182.02C82.2874 182.181 83.9161 179.954 84.5203 178.41C85.2484 176.549 85.5 176.5 86.3643 174.5" stroke="black" stroke-linecap="round" stroke-linejoin="round"/>
<path d="M47.0825 219.268C52.2271 220.194 56.158 222.34 61.4411 220.408C73.5 216 79.5 194 84 182.5" stroke="black" stroke-linecap="round" stroke-linejoin="round"/>
<path d="M46.5 221.5C52.5576 222.556 56.1349 224.618 61.9057 222.224C74.5 217 85.0222 189.867 87 178" stroke="black" stroke-linecap="round" stroke-linejoin="round"/>
<path d="M47.261 218C46.5 220 47.0255 222.567 44.0418 221.739C41.639 221.071 41.0246 222.287 41.3601 219.268C41.5889 217.209 42.6358 216.211 44.8019 216.692C46.1825 216.999 48 216.692 46.9465 219.268" stroke="black" stroke-linecap="round" stroke-linejoin="round"/>
<path d="M63 222C69.81 224.179 75.2914 222.887 81.2897 218.888" stroke="black" stroke-linecap="round" stroke-linejoin="round"/>
<path d="M61.5 222.5C70 227 75.5 224.5 83 221" stroke="black" stroke-linecap="round" stroke-linejoin="round"/>
<path d="M81.2896 219.268C83.4019 221.381 83.6422 221.626 86.2306 220.62C87.9324 219.958 88.5678 219.789 88.5111 217.748C88.372 212.741 82.5517 217.374 81.2896 218.888" stroke="black" stroke-linecap="round" stroke-linejoin="round"/>
<path d="M56.5 140C49.0672 144.5 36.0601 147.396 36.0601 156.175C36.0601 160.107 36.0595 163.69 37.2003 167.493C40.4059 178.178 46.0517 188.268 49.0672 199.124C50.8371 205.496 51.9137 213.482 53 220" stroke="black" stroke-linecap="round" stroke-linejoin="round"/>
<path d="M53.5 223C54.3404 229.093 55.3227 232.389 54.3042 238.5" stroke="black" stroke-linecap="round" stroke-linejoin="round"/>
<path d="M36 157.5C33.5 174 35.6053 191.095 35.3 204.53C35.0357 216.159 30.9441 226.947 29.5 238.5" stroke="black" stroke-linecap="round" stroke-linejoin="round"/>
<path d="M217 167.5C212.658 174.575 209.817 183.55 207.392 191.48C202.961 205.965 196.5 222.978 196.5 238" stroke="black" stroke-linecap="round" stroke-linejoin="round"/>
<path d="M50.123 201.404C51.9676 201.072 52.7366 200.588 54.5 200" stroke="black" stroke-linecap="round" stroke-linejoin="round"/>
<path d="M57.7246 198.744C64.0779 196.711 72.315 195.703 79.0091 195.703" stroke="black" stroke-linecap="round" stroke-linejoin="round"/>
<path d="M82.4302 195.323C88.3054 194.513 93.2904 194.943 99.1537 194.943C111.988 194.943 124.714 194.914 137.162 198.744C144.318 200.946 153.299 200.558 160.727 201.383C167 202 176 203.5 182 205.5" stroke="black" stroke-linecap="round" stroke-linejoin="round"/>
<path d="M176.31 167.577C181.684 183.702 182.771 200.878 182.771 217.748C182.771 218.568 182.86 217.503 184 217C186.265 216.001 185.5 215.607 185.5 213.5C185.5 200.318 185.5 184.5 182 171.5" stroke="black" stroke-linecap="round" stroke-linejoin="round"/>
<path d="M182.011 231.287C182.011 226.562 183 220 186.192 219.209C189.219 218.459 191.41 221.773 191.112 225.502C190.87 228.517 190.354 233.454 187.712 235.363C184.278 237.843 182.011 234.759 182.011 231.287Z" stroke="black" stroke-linecap="round" stroke-linejoin="round"/>
<path d="M188 217.5C189.024 218.119 189.5 219 190 220" stroke="black" stroke-linecap="round" stroke-linejoin="round"/>
<path d="M225.34 183.921C228.565 201.837 228.827 220.548 230.64 238.673" stroke="black" stroke-linecap="round" stroke-linejoin="round"/>
<path d="M94.5 126.5C98.5 125.5 102.479 121.023 105.502 118" stroke="black" stroke-linecap="round" stroke-linejoin="round"/>
<path d="M151 102C147.704 113.648 147.5 124.5 156 141" stroke="black" stroke-linecap="round" stroke-linejoin="round"/>
<path d="M185.938 206.312C190.955 207.562 196 209 201 210.5" stroke="black" stroke-linecap="round" stroke-linejoin="round"/>
<path d="M183.832 236.222C181.037 234.76 179.351 233.186 179.282 230.116C178.543 226.405 181.306 212.816 188.889 217.904" stroke="black" stroke-linecap="round" stroke-linejoin="round"/>
<path d="M128.327 63.9188C130.352 61.2698 132.575 60.0643 135.812 59.4349C137.985 59.0123 141.022 61.6418 142.972 62.2916" stroke="black" stroke-linecap="round" stroke-linejoin="round"/>
<path d="M132.789 60.4537C132.789 61.5252 132.745 63.1413 134 63.5" stroke="black" stroke-linecap="round" stroke-linejoin="round"/>
<path d="M137.878 60.0175C138.5 62 137.759 62.8928 137 63.5" stroke="black" stroke-linecap="round" stroke-linejoin="round"/>
<path d="M100.365 63.3618C102.908 62.0901 104.692 60.6433 107.635 60.3164C110.343 60.0155 112.435 61.8647 113.451 64.2342" stroke="black" stroke-linecap="round" stroke-linejoin="round"/>
<path d="M106.036 60.5991C105.846 61.7875 105.428 64.2754 107 64.5" stroke="black" stroke-linecap="round" stroke-linejoin="round"/>
<path d="M112 62C111.846 62.9601 111.465 64.1784 110.5 64.5" stroke="black" stroke-linecap="round" stroke-linejoin="round"/>
<path d="M117.086 82.5547C118.353 83.4163 119.292 84.1541 120.866 84.1541C122.302 84.1541 123.115 83.2138 124.065 82.2639" stroke="black" stroke-linecap="round" stroke-linejoin="round"/>
<path d="M125.956 81.9731C127.102 82.1754 127.922 82.802 129.009 83.104C130.112 83.4105 130.846 82.4719 131.263 81.545C132.115 79.6513 131.61 77.8049 130.027 76.4479" stroke="black" stroke-linecap="round" stroke-linejoin="round"/>
<path d="M133.953 80.9553C135.681 84.4129 141.359 86.5723 141.95 90.1156" stroke="black" stroke-linecap="round" stroke-linejoin="round"/>
<path d="M108.508 83.8633C107.22 86.4391 104.873 87.272 104.873 90.4064" stroke="black" stroke-linecap="round" stroke-linejoin="round"/>
<path d="M121.739 90.988C120.542 90.6051 119.348 90.6972 118.104 90.6972C117.159 90.6972 116.113 90.6456 115.196 90.8749C113.204 91.3729 111.177 92.0058 109.089 92.0058" stroke="black" stroke-linecap="round" stroke-linejoin="round"/>
<path d="M122 91C124.5 90.2772 127.728 89.9079 130.35 90.3741C130.967 90.4838 131.654 90.4064 132.281 90.4064C132.653 90.4064 133.006 90.2772 133.371 90.2772C133.737 90.2772 134.02 90.4362 134.389 90.3337C135.56 90.0083 136.837 90.3661 138.024 89.9702" stroke="black" stroke-linecap="round" stroke-linejoin="round"/>
<path d="M110.397 91.8604C114.663 91.8604 118.782 93.169 123.039 93.169C124.82 93.169 127.041 92.8679 128.718 92.2158C130.574 91.4941 132.615 91.2745 134.389 90.261" stroke="black" stroke-linecap="round" stroke-linejoin="round"/>
<path d="M111.125 92.1512C112.383 94.7732 114.302 96.3895 116.5 97C118.698 97.6105 120.728 98 123 98C128.651 98 132.774 95.3731 135.697 90.988" stroke="black" stroke-linecap="round" stroke-linejoin="round"/>
<path d="M116.214 101.457C119.59 102.537 124.5 103 128.5 101.457" stroke="black" stroke-linecap="round" stroke-linejoin="round"/>
<path d="M115.778 71.5042C115.513 73.207 114.7 74.7857 113.895 76.2944C113.272 77.4641 112.406 78.6349 111.924 79.8648C111.451 81.0752 111.665 82.0692 112.724 82.8132C113.761 83.5418 115.444 83.0979 116.505 82.7001" stroke="black" stroke-linecap="round" stroke-linejoin="round"/>
<path d="M92.4996 54C92.4996 61.2655 90.0307 79.4579 90.9999 86.3532C90.9999 92.068 97.4604 100.277 101.358 104.404C104.981 108.239 107.79 112.482 112.428 115.328C116.885 118.063 122.608 119.219 127.508 116.968C135.383 113.35 144.555 109.11 150.5 102.504C154.923 97.5901 157.896 93.0945 157.896 86.3532C157.896 75.3742 158.026 60.4981 156 54" stroke="black" stroke-linecap="round" stroke-linejoin="round"/>
<path d="M126.85 54.9965C126.846 55.2242 126.566 56.4802 126.754 56.6566C127.045 56.9308 129.764 55.5866 130.151 55.4791C134.827 54.1802 142.5 53.5 148 54.5" stroke="black" stroke-linecap="round" stroke-linejoin="round"/>
<path d="M127.198 54.4754C130.494 54.3969 133.622 52.9118 136.927 52.9118C138.275 52.9118 139.591 53.0855 140.922 53.0855C142.343 53.0855 146.575 54.4754 148 54.4754" stroke="black" stroke-linecap="round" stroke-linejoin="round"/>
<path d="M105.5 55.6914C102.5 55.344 95.626 55.9998 93 56.5C97.3684 55.6263 106.686 54.4402 111.205 55.344L111.231 55.3491C112.201 55.5432 114.351 55.9727 113.637 57.3998C113.574 57.5267 106.13 55.8664 105.5 55.6914Z" stroke="black" stroke-linecap="round" stroke-linejoin="round"/>
<path d="M104.602 25C101.138 30.6597 100.066 37.7899 99.0424 44.1873C98.5484 47.2748 98 50.3528 98 53.4914" stroke="black" stroke-linecap="round" stroke-linejoin="round"/>
<path d="M144.223 24.2466C146.049 26.502 152.237 34.376 153.5 37C155.5 41.1538 155.5 47 155.5 52" stroke="black" stroke-linecap="round" stroke-linejoin="round"/>
<path d="M148.392 50.3059C149.048 46.8649 147.859 42.6383 146.308 39.5347" stroke="black" stroke-linecap="round" stroke-linejoin="round"/>
<path d="M103.397 47.8737C104.417 45.2941 104.727 42.5222 105.482 39.8822" stroke="black" stroke-linecap="round" stroke-linejoin="round"/>
<path d="M122.333 51.522C125.448 47.0725 125.517 40.9131 124.939 35.7127" stroke="black" stroke-linecap="round" stroke-linejoin="round"/>
<path d="M127.893 49.2635C128.836 47.5724 129.194 45.533 129.804 43.7042" stroke="black" stroke-linecap="round" stroke-linejoin="round"/>
<path d="M139.359 48.916C139.855 46.1056 140.374 43.3574 140.131 40.4806C139.894 37.6712 139.301 34.7685 138.49 32.0644" stroke="black" stroke-linecap="round" stroke-linejoin="round"/>
<path d="M92 56.5C97.5 54.9542 103.341 54.9542 107.393 54.9542C111.129 54.9542 114 55.0056 118 54.9542C121 54.9156 123.558 54.944 126 54.5C131.106 53.5716 135.5 53.5547 140.5 53C142.949 53 146.667 53.2858 149.088 53.5547C150.525 53.7144 154 54.5 156 54" stroke="black" stroke-linecap="round" stroke-linejoin="round"/>
<path d="M98.8605 27C95.6009 37.1863 93.0642 48.9428 91.5002 59.5C89.8149 70.8761 91.5 107 92.5003 118" stroke="black" stroke-linecap="round" stroke-linejoin="round"/>
<path d="M105.042 108.723C106.996 120.907 104.434 129.479 96.5 139" stroke="black" stroke-linecap="round" stroke-linejoin="round"/>
<path d="M95.1818 121.798C95.1818 124.837 93.9242 127.414 92.288 129.931C90.9461 131.996 89.836 134.166 88.3226 136.112C86.8358 138.023 85.7687 140.291 83.7141 141.721C81.6971 143.124 79.7904 144.726 77.2836 145.162C74.7733 145.599 72.3366 146.322 69.7695 146.615C67.3863 146.887 64.8936 146.877 62.4935 146.877C60.4731 146.877 58.4527 146.877 56.4322 146.877C55.4337 146.877 54.3833 146.681 53.5504 147.306C52.663 147.971 51.631 148.633 50.5972 149.02" stroke="black" stroke-linecap="round" stroke-linejoin="round"/>
<path d="M142.448 115.886C140.355 120.742 138.104 125.556 135.74 130.283C133.968 133.828 132.231 137.701 129.687 140.754" stroke="black" stroke-linecap="round" stroke-linejoin="round"/>
<path d="M109.073 119.812C112.035 127.59 113.464 136.638 119.544 142.717" stroke="black" stroke-linecap="round" stroke-linejoin="round"/>
<path d="M89.1123 58.0136C95.081 55.9843 96.5 54.7167 104.5 54.7167C107.556 55.0562 110.739 54.6444 113.5 56.0246C114.822 56.6855 116.138 58.5973 117.5 58.5973C118.862 58.5973 121.801 58.5973 123.163 58.5973C124.4 58.5973 125.855 56.7777 126.859 56.0246C130.626 53.1998 135.163 52.9547 139.69 52.9547C145.116 52.9547 150.589 55.2896 155.851 55.2896" stroke="black" stroke-linecap="round" stroke-linejoin="round"/>
<path d="M117 60.9321C119.103 60.9321 121.865 60.5 124.5 60.9321" stroke="black" stroke-linecap="round" stroke-linejoin="round"/>
<path d="M150.208 56.6516C151.839 55.5001 153.169 56.4429 154.878 55.8733" stroke="black" stroke-linecap="round" stroke-linejoin="round"/>
<path d="M150.792 54.5113C149.227 56.8582 150.155 62.4857 149.386 65.4074C148.321 69.4543 146.176 72.6162 141.841 73.5794C138.225 74.3831 132.265 74.4955 129 72.5C125.373 70.2835 125 65.4074 125 62C125 59 126.361 57.5993 128.415 55.4841" stroke="black" stroke-linecap="round" stroke-linejoin="round"/>
<path d="M89 58C89.0001 64.5 91.0176 67.8048 92.5 70.5C94.3244 73.8171 99.7096 75.4227 103.5 75.5252C107.387 75.6302 112.151 76.1432 114.309 71.8283C115.936 68.5741 116.5 66.1198 116.5 62.5C116.5 59 115 58 112.85 57.0407" stroke="black" stroke-linecap="round" stroke-linejoin="round"/>
<path d="M128.416 59.9593C130.015 58.3115 131.096 56.8535 133.475 56.457" stroke="black" stroke-linecap="round" stroke-linejoin="round"/>
<path d="M113.433 60.9322C112.748 59.2954 112.005 58.7135 110.32 58.2082" stroke="black" stroke-linecap="round" stroke-linejoin="round"/>
<path d="M134.157 93.0478C133.794 92.5487 133.781 92.2748 133.653 92.9768C133.617 93.1741 133.413 93.2502 133.39 93.4311C133.324 93.9625 132.624 93.5817 132.624 93.1756" stroke="black" stroke-linecap="round" stroke-linejoin="round"/>
<path d="M56.5 140C55.3832 142.463 53.0892 147.705 50.5 149" stroke="black" stroke-linecap="round" stroke-linejoin="round"/>
</svg>
