<svg width="180" height="181" viewBox="0 0 180 181" fill="none" xmlns="http://www.w3.org/2000/svg">
<path d="M166 180.5L21 179.5C22.2 178.3 24.1667 164.5 25 158V126C26.5 123.5 23 119.5 30.5 114.5C38.3548 109.263 45 105.667 53 104L113 110C111 104.333 112.5 95.8 134.5 107C162 121 159.5 136 161.5 139.5C163.207 142.488 165.667 167.667 166 180.5Z" fill="white"/>
<path d="M132.008 163.714C132.35 150.176 128.821 134.289 127 128C125.833 123.833 128.5 124 128.5 121.5C132.5 126.3 133.5 151.5 133.5 163.5C132.157 163.948 132.036 163.086 132.008 163.714C132.005 163.809 132.003 163.905 132 164C132.003 163.881 132.005 163.787 132.008 163.714Z" fill="#F5F5F5"/>
<path d="M134.5 166C130.5 166.8 130.834 173 131.5 176C133.1 180.4 135.834 177.167 137 175C137.834 171.667 138.5 165.2 134.5 166Z" fill="#F5F5F5"/>
<path d="M56.5002 124C49.0002 122 49.0002 125.5 46.0002 129.5C47.0002 124 50.0963 120.819 56.0002 122C58.5002 122.5 61.5002 128 60.5002 131.5C59.0002 127 57.5486 124.28 56.5002 124Z" fill="#F5F5F5"/>
<path d="M52.5002 159C54.5002 156.2 58.6668 144.833 60.5002 139.5C61 138.833 60.9998 139 61.4998 139.5C60.9998 141.5 57.9998 149.5 57.9998 150.5C57.9998 151.5 52.5002 162.5 46.9998 166.5C46.4981 166.865 45.9765 167.172 45.4421 167.43C48.1476 168.64 51.5575 168.432 53.5 168L57.9998 166L59.5 167.5C56.8333 168.667 50.8 170.8 48 170C46.5031 169.572 45.2253 168.744 44.2583 167.914C40.3893 169.235 36.1415 168.303 34.0002 167.5C33 166.5 34.0002 166 34.0002 166C37.4919 167.048 40.7398 167.12 43.0627 166.727C42.8232 166.45 42.634 166.201 42.5 166C40.8333 164.167 38.1 156.8 40.5 142H41.5C40.8333 147.333 40 159.2 42 164C42.451 165.082 43.1308 165.914 43.9478 166.545C44.5612 166.394 45.0846 166.208 45.5002 166C47.5002 165 50.0002 162.5 52.5002 159Z" fill="#F5F5F5"/>
<path d="M129 171C127.4 175.4 130.667 177.5 132.5 178C130.1 176.8 130.5 173.5 131 172C131.167 170.5 131.9 167.2 133.5 166C135.1 164.8 136.167 165.833 136.5 166.5V165.5C136.167 165.167 135.1 164.4 133.5 164C131.5 163.5 131 165.5 129 171Z" fill="#9E9E9E"/>
<path d="M61 167.5C60.6 167.5 58.8333 166.167 58 165.5L61 163.5H63L63.5 166C62.8333 166.5 61.4 167.5 61 167.5Z" fill="#9E9E9E"/>
<path d="M33 167.5L34 165L32 164L30.5 164.5L29.5 167.5H33Z" fill="#9E9E9E"/>
<path d="M42.5 141C43.3 140.6 42.8333 137.833 42.5 136.5L42.4375 134.5C43.2917 134 45 132.6 45 131C45 129 48 122 48.5 120.5C49 119 52.5 116 54 116C55.5 116 56 115.5 59.5 118.5C62.3 120.9 61.3333 128.167 60.5 131.5L62 132L61.5 133.75L60 138L60.5 139H61.5L62.5 138V133.5V131.5L63.5 132C63.8333 130.833 64.6 127.3 65 122.5C65.4 117.7 62.8333 114.833 61.5 114L58.5 113.5C57.3333 113.5 54 113.6 50 114C45 114.5 41.5 128 40.5 130C39.7 131.6 40.8333 133.667 41.5 134.5C41.8333 134.333 42.3 134.3 41.5 135.5C40.7 136.7 40.375 139.667 40.3125 141C40.7083 141.167 41.7 141.4 42.5 141Z" fill="#9E9E9E"/>
<path d="M75.5998 78.1199L73.0798 75.9599C73.0798 73.7999 70.9198 62.6399 74.5198 41.7599C78.1198 20.8799 92.5198 19.0799 97.9198 19.4399C103.32 19.7999 105.12 23.7599 107.64 29.8799C110.466 36.7425 111.24 43.9199 113.04 52.1999C114.415 58.5242 114 68.6399 113.04 73.0799C113.16 73.5599 112.752 75.0239 110.16 77.0399C107.568 79.0559 107.4 90.1199 107.64 95.3999L99.3598 113.04H97.9198C97.9198 113.04 92.5198 120.6 88.9198 125.28C87.1198 120.6 87.8398 122.76 83.1598 113.04C71.3518 111.6 67.6798 107.4 67.3198 105.48L69.4798 98.6399L75.5998 93.5999V78.1199Z" fill="#FFDBAC"/>
<path d="M111.24 96.8399L102.6 111.96C105.96 111.36 112.608 110.016 112.32 109.44C112.032 108.864 111.48 100.8 111.24 96.8399Z" fill="#F1C27D"/>
<path d="M93.6 59.7599C91.6482 56.9716 94.9379 47.4347 97.0006 42.5831C97.0599 42.4043 97.1262 42.249 97.2 42.1199C97.5599 42.1199 106.2 38.8799 110.52 41.3999C113.976 43.4159 109.8 43.9199 107.28 43.9199C104.76 43.5599 99.2879 43.6319 97.5599 46.7999C97.2229 46.7999 96.5543 46.6559 96.5754 46.0799C96.4913 49.4454 96.8866 53.9343 97.2 56.5199L98.6399 60.8399C97.7999 61.6799 95.616 62.6399 93.6 59.7599Z" fill="#F1C27D"/>
<path d="M101.52 52.9199C100.656 52.9199 98.5199 50.7599 97.5599 49.6799C99.8 50.5439 105.933 50.2799 108.72 50.0399C106.68 50.9999 102.384 52.9199 101.52 52.9199Z" fill="#F1C27D"/>
<path d="M81.7199 52.9199C83.0399 52.0799 85.6799 50.3279 85.6799 50.0399C85.6799 49.7519 84.4799 47.2799 83.8799 46.0799L77.5642 43.9747C77.842 49.0957 77.3999 47.8799 77.3999 47.8799L74.5199 49.6799L78.1199 50.7599C77.5412 59.671 76.7394 77.3768 77.9747 79.4011C78.4483 79.7494 78.5865 79.8399 78.1199 79.5599C78.0686 79.5292 78.0203 79.4758 77.9747 79.4011C76.9868 78.6746 74.5399 76.8266 73.0799 74.8799C72.9599 61.9199 74.0159 34.8479 79.1999 30.2399C85.6799 24.4799 83.1601 20.1599 97.2 19.4399C90.3599 23.3999 76.8239 33.3359 77.3999 41.3999C77.4372 41.9226 77.4697 42.4047 77.4978 42.8494C80.2623 42.5026 83.9282 42.3241 85.6799 43.1999C88.5599 44.6399 88.9199 51.8399 87.8399 52.9199C86.7599 53.9999 87.8399 57.9599 87.1199 57.9599C86.5439 57.9599 85.9199 54.5999 85.6799 52.9199H81.7199Z" fill="#F1C27D"/>
<path d="M89.2799 56.8799C88.7039 57.7439 89.5199 59.8799 89.9999 60.8399C87.9839 60.2639 87.7199 59.3999 87.8399 59.0399L89.2799 56.8799Z" fill="#F1C27D"/>
<path d="M92.5199 64.0799C91.9439 64.0799 90.5999 63.3599 89.9999 62.9999C90.5759 62.9999 94.0799 62.5199 95.7599 62.2799C94.9199 62.8799 93.0959 64.0799 92.5199 64.0799Z" fill="#F1C27D"/>
<path d="M79.9199 70.1999C79.9199 69.0479 81.5999 65.6399 82.4399 64.0799C82.4399 62.9999 83.1599 61.9199 81.7199 63.3599C78.8175 66.2624 79.9199 71.6399 79.9199 70.1999Z" fill="#F1C27D"/>
<path d="M75.9599 78.4799C76.0185 78.5386 76.277 78.8071 76.6729 79.2198C80.4584 82.6014 91.178 86.0399 92.5199 86.0399C93.9599 86.0399 103.68 81.7199 110.52 76.6799C107.352 81.8639 107.52 91.0799 108 95.0399L105.48 99.7199L102.6 86.0399C101.76 89.0399 99.7919 95.2559 98.6399 96.1199C97.4879 96.9839 88.3199 90.2399 83.8799 86.7599C81.8729 84.6574 78.2218 80.8346 76.6729 79.2198C76.396 78.9724 76.1562 78.7253 75.9599 78.4799Z" fill="#F1C27D"/>
<path d="M101.52 111.96L110.52 97.5599C111.24 96.7199 112.392 95.4719 111.24 97.1999C110.088 98.9279 111.72 106.08 112.68 109.44L101.52 111.96Z" fill="#F1C27D"/>
<path d="M91.0798 112.68C89.3519 113.256 88.4398 109.08 88.1999 106.92C88.7999 107.76 90.2159 109.512 91.0798 109.8C91.9438 110.088 94.0798 108 95.0398 106.92C94.4398 108.6 92.8078 112.104 91.0798 112.68Z" fill="#F1C27D"/>
<path d="M71.2799 101.16C74.1599 100.008 73.4399 102.84 72.7199 104.4C74.4479 103.824 75.5999 96.7199 75.9599 93.2399H75.2399L68.7599 98.9999L67.3198 105.12L68.7599 108C68.3999 106.2 68.3999 102.312 71.2799 101.16Z" fill="#F1C27D"/>
<path d="M84.9598 113.4L83.1598 112.68L89.2799 124.92L89.9999 123.84L84.9598 113.4Z" fill="#F1C27D"/>
<path d="M94.6799 71.28C89.7839 72.144 85.6799 70.2 84.2399 69.12C91.4399 69.984 100.2 68.28 103.68 67.32C102.72 68.28 99.5759 70.416 94.6799 71.28Z" fill="white"/>
<path d="M74.8799 49.68L78.8399 47.88C78.2639 48.456 79.0799 49.8 79.5599 50.4L74.8799 49.68Z" fill="white"/>
<path d="M82.4399 50.4C83.0159 49.248 82.6799 48.24 82.4399 47.88C83.0159 47.88 84.8399 49.08 85.6799 49.68C84.3599 50.4 84.2399 49.68 82.4399 50.4Z" fill="white"/>
<path d="M101.16 46.44L97.9199 48.6H101.88C101.304 48.6 101.16 47.16 101.16 46.44Z" fill="white"/>
<path d="M104.76 48.6L105.48 46.08L108.36 47.16L104.76 48.6Z" fill="white"/>
<path d="M80.2799 50.3999C78.8399 50.3999 78.7199 48.4799 78.8399 47.5199C79.5599 47.5199 82.7998 46.7999 82.7998 47.8799C82.7998 48.9599 82.0799 50.3999 80.2799 50.3999Z" fill="#CCF0F5"/>
<path d="M102.96 48.5999C101.808 48.5999 101.28 47.1599 101.16 46.4399C102.36 45.8399 104.832 44.9279 105.12 46.0799C105.48 47.5199 104.4 48.5999 102.96 48.5999Z" fill="#CCF0F5"/>
<path d="M84.2402 68.4C91.1522 66.096 92.8802 66.48 92.8802 66.96C96.9121 65.232 101.28 66.24 102.96 66.96L93.6002 69.12C87.6002 69.84 88.2002 69.12 84.2402 68.4L83.1602 69.12C85.2002 69.84 90.1442 71.352 93.6002 71.64C97.9202 72 102.96 66.96 102.96 67.68C102.96 68.4 101.16 72 99.3602 72.72C97.5602 73.44 92.1602 74.52 88.2002 73.08C85.0322 71.928 83.5202 69.96 83.1602 69.12L84.2402 68.4Z" fill="#E0AC69"/>
<path d="M98.64 42.1199L96.84 41.3999C97.92 41.3999 105.48 37.7999 107.64 39.9599C103.68 39.96 100.8 40.9199 98.64 42.1199Z" fill="#F29733"/>
<path d="M75.96 42.1199C83.16 39.8157 85.68 41.88 86.04 43.2C84.3121 42.336 78.3601 42.6 75.6 42.84C75.4044 43.2311 74.8637 43.1973 74.7711 42.9694C72.3876 54.2743 72.5537 67.0969 72.7199 75.24L75.2399 77.76L75.9599 93.24L69.1199 99C67.6799 104.4 65.5199 108.72 63.3599 110.88C51.2639 116.928 43.4399 111.96 41.0399 108.72L34.9199 111.24C34.9199 109.92 35.9279 107.208 39.9599 106.92C44.9999 106.56 46.4399 103.32 48.9599 101.52C51.4799 99.72 53.6399 23.76 75.96 11.52C89.4961 3.45595 95.5201 6.23998 96.84 8.63999C99.48 6.71999 106.92 5.75999 115.56 17.28C124.2 28.8 132.84 71.28 132.84 90.72C132.84 95.64 131.04 100.44 143.28 109.44C149.31 112.455 152.106 114.759 155.16 119.52C156.482 121.581 157.631 124.395 159.48 127.44C164.376 135.504 166.32 152.28 163.8 151.56C163.882 150.84 163.8 149.4 162.36 140.04C160.586 134.221 158.04 131.76 153.72 123.84C146.16 115.92 138.247 109.976 133.92 106.56C133.68 112.8 133.416 126.432 134.28 131.04C135.36 136.8 135 151.56 133.92 152.28C134.28 145.44 131.04 130.44 128.88 121.32C127.92 123 126.072 126.864 126.36 128.88C126.72 131.4 119.52 162.36 122.04 148.68C124.56 135 122.04 128.16 120.6 125.28C121.176 131.616 118.2 139.68 116.64 142.92C117.48 140.28 118.656 133.272 116.64 126.36C114.12 117.72 111.96 105.48 110.88 97.2C106.92 102.6 101.16 114.12 98.64 117.36C98.64 113.4 102.24 107.64 107.64 95.04C106.92 88.2 109.034 82.7402 110.16 76.68C111.96 73.8 112.595 75.5656 113.4 72.72C114.574 68.5691 114.598 59.7484 114.12 56.52C113.76 51.84 112.68 53.28 110.16 35.28C105.264 20.016 99.72 18.36 97.56 19.44C83.8828 18.6694 77.6274 29.6499 74.8223 42.7288C74.9507 42.5517 75.2855 42.3358 75.96 42.1199Z" fill="#F29733"/>
<path d="M74.3218 49.7503C76.2264 48.798 78.3348 47.1438 80.5374 47.1438C82.7901 47.1438 84.3191 48.2332 85.7504 49.9508" stroke="black" stroke-linecap="round" stroke-linejoin="round"/>
<path d="M82.7431 47.7454C82.7431 48.7918 82.807 49.3529 82.1416 50.1514" stroke="black" stroke-linecap="round" stroke-linejoin="round"/>
<path d="M78.7326 47.5448C78.5478 48.8649 78.7126 49.7403 79.9356 50.3518" stroke="black" stroke-linecap="round" stroke-linejoin="round"/>
<path d="M85.951 47.3442C84.4448 46.2368 83.0599 45.3926 81.1389 45.3392C79.6056 45.2966 77.7239 45.5451 76.5273 46.5422" stroke="black" stroke-linecap="round" stroke-linejoin="round"/>
<path d="M80.8252 48.5884C81.0268 48.387 80.8279 48.2361 80.7114 48.2401M80.8252 48.5884C80.5792 48.3424 80.6197 48.2432 80.7114 48.2401M80.8252 48.5884L80.7114 48.2401" stroke="black" stroke-linecap="round" stroke-linejoin="round"/>
<path d="M103.146 47.1485C103.347 46.947 103.148 46.7961 103.032 46.8001M103.146 47.1485C102.899 46.9024 102.94 46.8033 103.032 46.8001M103.146 47.1485L103.032 46.8001" stroke="black" stroke-linecap="round" stroke-linejoin="round"/>
<path d="M97.3794 48.5473C99.5256 47.4313 100.814 45.9835 103.394 45.7403C104.409 45.6447 105.187 45.6145 106.001 45.8405C107.019 46.1234 107.666 46.83 108.608 47.1438" stroke="black" stroke-linecap="round" stroke-linejoin="round"/>
<path d="M100.989 46.3418C101.188 47.2469 100.989 48 102 48.5" stroke="black" stroke-linecap="round" stroke-linejoin="round"/>
<path d="M105.199 45.9408C105.183 46.7621 105.5 47.5 104.4 48.24" stroke="black" stroke-linecap="round" stroke-linejoin="round"/>
<path d="M97.5801 46.5423C99.106 45.4203 100.757 44.3454 102.593 43.8355C104.202 43.3886 105.607 43.9358 107.204 43.9358" stroke="black" stroke-linecap="round" stroke-linejoin="round"/>
<path d="M96.9785 41.5297C98.2314 42.6721 99.45 41.7606 100.788 41.1287C101.725 40.6863 102.983 40.3959 103.996 40.1708C106.177 39.6862 108.409 39.9267 110.412 40.9282" stroke="black" stroke-linecap="round" stroke-linejoin="round"/>
<path d="M96.7778 41.3293C99.2325 40.102 101.364 39.5528 103.996 38.9678C106.561 38.3978 108.404 40.1002 110.613 40.9283" stroke="black" stroke-linecap="round" stroke-linejoin="round"/>
<path d="M74.8804 43.2001C76.9891 42.4972 78.7195 42.3318 80.9383 42.3318C81.8791 42.3318 83.0354 42.556 83.9459 42.7774C84.4125 42.8909 87.0231 43.6225 85.7281 42.1425C84.5603 40.8078 81.729 41.1288 80.1363 41.1288C77.9245 41.1288 76.7999 41.3832 74.8804 42.4801" stroke="black" stroke-linecap="round" stroke-linejoin="round"/>
<path d="M86.9531 45.3394C88.5572 47.5209 88.9734 50.522 87.7551 52.9585" stroke="black" stroke-linecap="round" stroke-linejoin="round"/>
<path d="M96.3772 43.3344C94.5001 48 93 52 94.0004 57" stroke="black" stroke-linecap="round" stroke-linejoin="round"/>
<path d="M91.7656 62.5825C92.6254 62.5825 93.2069 62.5637 93.9712 62.1815" stroke="black" stroke-linecap="round" stroke-linejoin="round"/>
<path d="M97.5801 61.3796C100.133 60.0251 98.8613 58.8597 97.7806 56.9685" stroke="black" stroke-linecap="round" stroke-linejoin="round"/>
<path d="M86.5523 57.9709C85.3382 59.2219 84.6557 61.2332 86.5523 62.1815" stroke="black" stroke-linecap="round" stroke-linejoin="round"/>
<path d="M82.4404 68.76C86.0512 68.76 90.1687 69.5471 93.7596 69.188C94.5038 69.1136 95.2468 68.8043 95.9763 68.6422C96.8179 68.4551 97.7309 68.5419 98.5828 68.3525C100.155 68.0031 102.162 67.4663 103.68 66.96" stroke="black" stroke-linecap="round" stroke-linejoin="round"/>
<path d="M92.8804 66.6C91.0255 66.3032 88.9046 66.6025 87.1541 67.2832C85.7776 67.8185 83.9793 68.76 82.4404 68.76" stroke="black" stroke-linecap="round" stroke-linejoin="round"/>
<path d="M92.9683 66.7931C94.7925 66.0067 96.8003 65.6514 98.7828 66.147C100.447 66.5631 101.873 66.9936 103.595 66.9936" stroke="black" stroke-linecap="round" stroke-linejoin="round"/>
<path d="M82.9434 68.7982C84.8158 69.4348 86.5741 70.3192 88.4572 70.8923C90.1336 71.4025 91.8335 71.4047 93.57 71.4047C97.1106 71.4047 100.684 69.9045 103.194 67.3947" stroke="black" stroke-linecap="round" stroke-linejoin="round"/>
<path d="M73.0801 75.24C75.2739 78.0244 81.3069 82.3661 84.5919 83.6353C87.4864 84.7536 90.9991 86.1061 94.1269 85.3953C99.2348 84.2344 104.462 81.2454 108.608 78.0212C109.942 76.9838 112.469 74.1166 113.4 72.72" stroke="black" stroke-linecap="round" stroke-linejoin="round"/>
<path d="M97.5601 19.363C92.0544 19.232 87.2168 20.708 83.233 25.0105C79.9848 28.5186 77.0274 33.6685 75.7698 38.3217C73.3377 47.3206 73.1187 56.8601 73.1187 66.147C73.1187 71.5359 72.5933 76.773 72.1274 82.1316C71.7225 86.7873 70.8322 91.718 69.7548 96.267C68.6562 100.905 67.4679 105.804 64.4971 109.6C61.2616 113.735 55.9569 113.711 51.2639 113.711C47.2723 113.711 43.4561 111.475 41.0383 108.453C40.5961 107.9 40.1259 107.362 39.7684 106.749C39.5711 106.411 40.3209 107.309 40.6373 107.54C44.5797 110.417 49.9838 110.243 54.071 107.907C59.1701 104.994 62.6447 98.5893 64.6531 93.2595C68.4494 83.1845 67.9057 72.3544 67.9057 61.7805" stroke="black" stroke-linecap="round" stroke-linejoin="round"/>
<path d="M95.976 8.2463C95.4126 6.71266 94.5052 6.44177 92.9684 6.44177C51.6974 6.44177 57.0827 71.8475 49.1474 100.188C48.4486 102.684 45.8327 105.618 43.2437 106.248C40.8374 106.833 37.8703 106.451 36.2373 108.798C35.8338 109.378 34.2068 112.363 35.8251 111.149C37.2506 110.08 38.6574 109.688 40.2362 108.899" stroke="black" stroke-linecap="round" stroke-linejoin="round"/>
<path d="M97.7808 19.0734C99.8278 18.7459 101.493 19.6674 102.894 21.1898C107.121 25.7848 109.212 31.6386 110.513 37.6199C111.253 41.0266 111.35 44.4815 111.972 47.9013C112.625 51.4931 114.032 55.3595 114.222 58.9735C114.873 71.3462 111.968 79.9327 109.165 91.4549C107.836 96.9198 97.7808 114.12 98.4157 118.467C97.6854 118.954 103.245 109.689 110.011 98.5728" stroke="black" stroke-linecap="round" stroke-linejoin="round"/>
<path d="M111.252 97.0973C111.088 104.072 112.392 110.717 114.506 117.388C117.957 128.281 119.775 142.339 112.634 152.226C112.04 153.048 112.177 153.678 112.879 152.598C113.41 151.78 114.03 150.902 114.421 150.014C118.007 141.863 120.12 133.693 120.62 124.683" stroke="black" stroke-linecap="round" stroke-linejoin="round"/>
<path d="M121.744 50.9786C124.064 67.7999 127.025 84.6001 127.217 101.636C127.32 110.833 127.623 120.025 126.335 129.184C125.402 135.819 124.393 142.283 122.443 148.69C121.709 151.101 118.925 158.135 119.722 155.744C120.704 152.795 121.783 149.601 122.032 146.485C122.293 143.227 122.838 140.058 122.838 136.77C122.838 132.819 121.956 129.301 120.649 125.566" stroke="black" stroke-linecap="round" stroke-linejoin="round"/>
<path d="M96.8408 8.98746C119.16 -3.23993 130.445 63.001 131.033 69.4658C132.377 84.2468 133.511 99.5348 133.511 114.391C133.511 120.499 134.07 126.672 134.393 132.772C134.682 138.23 135.025 143.532 134.621 148.994C134.473 150.993 134.148 152.906 133.663 154.847C133.638 154.948 133.367 142.764 132.538 138.975C131.242 133.05 130.24 127.108 128.859 121.187" stroke="black" stroke-linecap="round" stroke-linejoin="round"/>
<path d="M132.964 96.48C134.969 107.622 150.95 111.138 155.951 120.64C159.842 128.033 163.033 134.794 164.495 143.019C166.028 151.641 164.176 152.64 164.176 151.365M162.245 140.069C160.273 135.66 158.128 131.7 155.799 127.466C150.639 118.085 141.204 113.844 133.92 106.56" stroke="black" stroke-linecap="round" stroke-linejoin="round"/>
<path d="M102.862 85.8851C100.875 90.1063 99.6769 94.8571 97.9966 99.2335C96.3697 103.471 94.9986 107.65 92.7363 111.609" stroke="black" stroke-linecap="round" stroke-linejoin="round"/>
<path d="M83.7056 86.1588C83.8945 94.474 87.5747 102.221 89.1787 110.241" stroke="black" stroke-linecap="round" stroke-linejoin="round"/>
<path d="M82.6108 111.335C85.6992 111.397 87.1849 113.994 89.9996 114.619C92.8678 115.257 95.2007 113.499 97.662 112.156" stroke="black" stroke-linecap="round" stroke-linejoin="round"/>
<path d="M67.3203 105.12C70.0302 111.407 76.9324 111.517 83.0212 112.84C86.4003 117.36 96.8318 143.144 98.1483 148.279C98.2782 148.785 98.9577 151.708 99.3038 151.016" stroke="black" stroke-linecap="round" stroke-linejoin="round"/>
<path d="M89.4521 124.745C91.8602 121.596 96.0431 113.11 100.125 112.43" stroke="black" stroke-linecap="round" stroke-linejoin="round"/>
<path d="M102.314 112.156C105.283 111.025 109.322 110.439 112.32 109.44" stroke="black" stroke-linecap="round" stroke-linejoin="round"/>
<path d="M50.0402 113.4C46.2057 116.332 45.1206 119.232 43.2004 123.908C42.2287 126.275 40.6803 129.96 40.6803 129.96C40.6803 129.96 39.8133 135.2 42.3831 134.201C44.9762 133.192 46.2861 126.355 47.0201 123.908C48.0274 120.551 50.8083 115.336 55.245 115.927C59.5549 116.5 61.2655 121.289 61.2655 125.292C61.2655 127.142 61.3509 129.253 60.855 131.039C60.3797 132.75 61.5818 132.162 62.6402 131.76C63.619 131.882 63.2499 132.817 64.1389 131.039C66.129 127.058 66.014 112.216 58.3204 113.4" stroke="black" stroke-linecap="round" stroke-linejoin="round"/>
<path d="M45.7202 129.24C46.6192 126.88 46.9326 124.655 49.2245 123.255C50.9129 122.223 52.7565 122.008 54.6976 122.008C58.9113 122.008 60.7181 128.14 60.7181 131.586" stroke="black" stroke-linecap="round" stroke-linejoin="round"/>
<path d="M41.2886 134.596C41.3629 136.082 41.797 136.042 42.3832 134.87" stroke="black" stroke-linecap="round" stroke-linejoin="round"/>
<path d="M41.5621 135.964C40.7858 137.517 40.1938 138.814 40.1938 140.556C40.1938 142.879 40.4513 141.045 41.8358 141.559C43.3855 142.135 42.8874 136.699 42.3831 135.691" stroke="black" stroke-linecap="round" stroke-linejoin="round"/>
<path d="M41.7604 141.48C41.7604 147.002 38.8564 161.981 44.2804 166.32" stroke="black" stroke-linecap="round" stroke-linejoin="round"/>
<path d="M40.7411 141.438C39.576 148.865 37.8357 160.675 42.8403 166.68" stroke="black" stroke-linecap="round" stroke-linejoin="round"/>
<path d="M62.9072 131.586C62.7247 132.133 62.5423 132.681 62.3599 133.228" stroke="black" stroke-linecap="round" stroke-linejoin="round"/>
<path d="M61.2654 132.407C62.3768 133.775 62.8261 134.096 62.6185 135.964C62.5202 136.85 62.4364 138.908 61.2654 138.975C59.2473 139.09 60.42 137.487 60.855 136.375C61.3792 135.035 61.8361 133.877 62.6337 132.681" stroke="black" stroke-linecap="round" stroke-linejoin="round"/>
<path d="M33.8994 165.793C37.6035 166.46 40.4338 168.005 44.2376 166.614C52.92 163.44 57.24 147.6 60.48 139.32" stroke="black" stroke-linecap="round" stroke-linejoin="round"/>
<path d="M33.0786 167.161C37.4401 167.922 40.4172 169.645 44.5722 167.922C53.6401 164.16 60.4961 147.144 61.9201 138.6" stroke="black" stroke-linecap="round" stroke-linejoin="round"/>
<path d="M34.1735 164.698C33.4382 166.23 33.8588 168.169 31.7105 167.572C29.9806 167.091 29.5382 167.967 29.7797 165.793C29.9445 164.31 30.6982 163.592 32.2579 163.938C33.2519 164.159 35.6322 164.608 34.4471 165.793" stroke="black" stroke-linecap="round" stroke-linejoin="round"/>
<path d="M45.3604 167.76C50.2636 169.329 54.2102 168.399 58.529 165.52" stroke="black" stroke-linecap="round" stroke-linejoin="round"/>
<path d="M44.2803 168.12C50.4003 171.36 54.3603 169.56 59.7603 167.04" stroke="black" stroke-linecap="round" stroke-linejoin="round"/>
<path d="M58.5288 165.793C60.0497 167.314 60.2227 167.491 62.0864 166.766C63.3116 166.29 63.7691 166.168 63.7283 164.698C63.6282 161.093 59.4375 164.429 58.5288 165.519" stroke="black" stroke-linecap="round" stroke-linejoin="round"/>
<path d="M40.6801 108.72C35.3285 111.96 25.9634 114.045 25.9634 120.366C25.9634 123.197 25.963 125.777 26.7844 128.515C29.0924 136.208 33.1573 143.473 35.3285 151.289C36.6029 155.877 37.378 161.627 38.1601 166.32" stroke="black" stroke-linecap="round" stroke-linejoin="round"/>
<path d="M39.0991 169.351C39.7042 173.737 39.8325 175.24 39.0991 179.64" stroke="black" stroke-linecap="round" stroke-linejoin="round"/>
<path d="M25.9202 121.32C24.1202 133.2 25.6361 145.509 25.4163 155.181C25.226 163.554 22.28 171.322 21.2402 179.64" stroke="black" stroke-linecap="round" stroke-linejoin="round"/>
<path d="M155.951 129.123C152.825 134.217 151.069 140.076 149.322 145.786C146.132 156.215 141.48 168.464 141.48 179.28" stroke="black" stroke-linecap="round" stroke-linejoin="round"/>
<path d="M36.0889 152.931C37.417 152.692 37.9707 152.343 39.2403 151.92" stroke="black" stroke-linecap="round" stroke-linejoin="round"/>
<path d="M41.562 151.016C46.1364 149.552 52.0671 148.826 56.8868 148.826" stroke="black" stroke-linecap="round" stroke-linejoin="round"/>
<path d="M59.3501 148.553C63.5802 147.969 67.1695 148.279 71.391 148.279C80.632 148.279 89.7947 148.258 98.7568 151.016C103.909 152.601 110.376 152.322 115.724 152.916C120.24 153.36 126.72 154.44 131.04 155.88" stroke="black" stroke-linecap="round" stroke-linejoin="round"/>
<path d="M126.943 128.576C130.813 140.186 131.596 152.552 131.596 164.698C131.596 165.289 131.66 164.522 132.48 164.16C134.111 163.441 133.56 163.157 133.56 161.64C133.56 152.149 134.214 141.254 131.04 132.12" stroke="black" stroke-linecap="round" stroke-linejoin="round"/>
<path d="M131.048 174.447C131.048 171.045 131.76 166.32 134.058 165.751C136.238 165.211 137.815 167.597 137.6 170.281C137.427 172.452 137.055 176.007 135.153 177.381C132.68 179.167 131.048 176.947 131.048 174.447Z" stroke="black" stroke-linecap="round" stroke-linejoin="round"/>
<path d="M135.36 164.52C136.098 164.966 136.44 165.6 136.8 166.32" stroke="black" stroke-linecap="round" stroke-linejoin="round"/>
<path d="M162.245 140.343C164.567 153.243 164.756 166.715 166.061 179.765" stroke="black" stroke-linecap="round" stroke-linejoin="round"/>
<path d="M75.4348 78.12C75.819 80.5212 76.043 83.8696 76.043 86.2956C76.043 90.3361 76.2949 94.769 75.4348 98.747C74.986 100.823 74.3998 102.58 73.0327 104.22" stroke="black" stroke-linecap="round" stroke-linejoin="round"/>
<path d="M69.1201 99C71.5894 97.1117 73.785 95.0566 75.9616 92.88" stroke="black" stroke-linecap="round" stroke-linejoin="round"/>
<path d="M110.52 76.3201C108.147 82.5502 107.64 87.4801 107.64 95.0401" stroke="black" stroke-linecap="round" stroke-linejoin="round"/>
<path d="M133.875 156.465C137.488 157.364 141.12 158.4 144.72 159.48" stroke="black" stroke-linecap="round" stroke-linejoin="round"/>
<path d="M97.5 73.5C95 74.3125 92.4375 74.3125 90 73.5" stroke="black" stroke-linecap="round" stroke-linejoin="round"/>
<path d="M132.359 178C130.347 176.947 129.133 175.814 129.083 173.604C128.551 170.931 130.54 161.147 136 164.811" stroke="black" stroke-linecap="round" stroke-linejoin="round"/>
</svg>
