<svg width="80" height="81" viewBox="0 0 80 81" fill="none" xmlns="http://www.w3.org/2000/svg">
<path d="M11.84 73.3384C11.84 71.0008 11.7041 64.9486 18.9548 61.7502C22.1047 60.3607 28.6815 57.6689 30.8039 56.8585C33.0907 55.9853 38.0798 58.0949 49.5157 56.8585C51.6382 57.6689 58.215 60.3607 61.3649 61.7502C68.6156 64.9486 68.4797 71.0008 68.4797 73.3384L68.4796 80H11.9998L11.84 73.3384Z" fill="white"/>
<path d="M39.8401 62.24C38.9441 62.24 35.3068 61.1733 33.6001 60.64L37.4401 79.8399H42.7201L46.8801 60.64C45.1201 61.1733 40.7361 62.24 39.8401 62.24Z" fill="#F5F5F5"/>
<path d="M32.3198 55.1977L33.1198 48.1577C37.9198 49.5977 40.7998 49.2777 46.5598 48.6377C46.5598 53.8857 47.9432 53.413 47.8398 56C47.7585 58.0336 47.0398 60 47.0398 60C47.0398 60 43.1491 62.098 40.4798 62.08C37.8705 62.0625 32.9598 60 32.9598 60L32.3198 55.1977Z" fill="#F5F5F5"/>
<path d="M55.3594 27.6777C55.3594 26.5289 56.2906 25.5977 57.4394 25.5977C58.5881 25.5977 59.5194 26.5289 59.5194 27.6777V31.3576C59.5194 33.6552 57.6569 35.5177 55.3594 35.5177V27.6777Z" fill="#F5F5F5"/>
<path d="M24.3198 27.6777C24.3198 26.5289 23.3886 25.5977 22.2398 25.5977C21.0911 25.5977 20.1598 26.5289 20.1598 27.6777V31.3577C20.1598 33.6552 22.0223 35.5177 24.3198 35.5177V27.6777Z" fill="#F5F5F5"/>
<path d="M37 12.5C42 10 45 10.5 50.5 13.5C55.3598 17 54.7335 21.1492 55.3598 26.4C55.3598 26.8365 55.3598 30.6027 55.3598 35.0368C55.3598 43.6082 48.4113 50.56 39.8398 50.56C31.2684 50.56 24.3198 43.6108 24.3198 35.0394C24.3198 31.659 24.3198 28.4764 24.3198 26.4C24.8824 24.0644 25.5 19.5 27 14.5C29.3928 12.7054 34.4076 10.5599 36.5 10.5C37.5 11 36.8949 12.1846 37 12.5Z" fill="#F5F5F5"/>
<path d="M24.5 27L22.4998 26C22.9998 25 20.9998 13 24.9998 9C28.9998 5 36.4998 5.5 38.9998 5C41.4998 4.5 48.9998 5 54.4998 9.5C58.8998 13.1 58.6665 21.3333 57.9998 25L55.4998 26.5C54.9998 24.1667 54.5 19.5 53.9998 17C53.9998 14.5 45.9998 11.5 43.4998 10.5C41.5 10.5 38.9998 12 36.9998 12.5V11C34.4998 10 30.5 12.5 27 14.5C26 19.5 24.9998 25.5 24.5 27Z" fill="#9E9E9E"/>
<path d="M38 35C37 35 33 37 32.5 38C36.5 36.5 42.5 36.5 47 38C46.5 37 43.2071 35 42.5 35L38 35Z" fill="#E0E0E0"/>
<path d="M42 41.5C40.8 41.9 38.6667 41.6667 38 41.5C38 42.5 39.5 43 40 43C40.5 43 42 42.5 42 41.5Z" fill="#E0E0E0"/>
<path d="M31.5 39C30.3496 38.6165 26.3563 36.1667 24.5 35C24 43 31.5 48 32 48.5C32.5 49 38 50.5 40 50.5C43.5 50.5 45 49.5 48 48C55.6158 44.1921 55 36 55 35.5C55 35 49 39 47 39.5C46.0298 39.7425 46 44.5 45 46.5C44 48.5 41 48.5 40 48.5C38.9993 48.5 36 48.5 34.5 46.5C33 44.5 33 39.5 31.5 39Z" fill="#E0E0E0"/>
<path d="M55.5015 26.6917C55.5015 28.7682 55.5015 31.9507 55.5015 35.3311C55.5015 43.9026 48.5529 50.8517 39.9815 50.8517V50.8517C31.41 50.8517 24.4615 43.9 24.4615 35.3285C24.4615 30.8944 24.4615 27.1282 24.4615 26.6917" stroke="black" stroke-linecap="round" stroke-linejoin="round"/>
<path d="M46.7973 49.5717C47.3279 55.1099 46.9864 55.8886 49.2732 56.7177C51.3956 57.4873 57.9725 60.0433 61.1224 61.3626C68.3731 64.3997 68.2372 70.1465 68.2371 72.3662C68.2371 74.5859 68.2371 79.5199 68.2371 79.5199" stroke="black" stroke-linecap="round" stroke-linejoin="round"/>
<path d="M32.96 49.6C32.4295 55.1381 32.7709 55.9168 30.4841 56.746C28.3617 57.5156 21.7848 60.0715 18.635 61.3909C11.3843 64.428 11.5202 70.1748 11.5202 72.3945C11.5202 74.6142 11.5202 79.5199 11.5202 79.5199" stroke="black" stroke-linecap="round" stroke-linejoin="round"/>
<path d="M55.4375 27.9717C55.4375 26.823 56.3687 25.8917 57.5175 25.8917V25.8917C58.6663 25.8917 59.5975 26.823 59.5975 27.9717V31.6517C59.5975 33.9492 57.735 35.8117 55.4375 35.8117V35.8117V27.9717Z" stroke="black" stroke-linecap="round" stroke-linejoin="round"/>
<path d="M24.3979 27.9717C24.3979 26.823 23.4667 25.8917 22.3179 25.8917V25.8917C21.1692 25.8917 20.2379 26.823 20.2379 27.9717V31.6517C20.2379 33.9492 22.1004 35.8117 24.3979 35.8117V35.8117V27.9717Z" stroke="black" stroke-linecap="round" stroke-linejoin="round"/>
<path d="M36.9601 79.6799L32.0368 55.9999L25.6001 61.1199L29.6001 66.5599L26.4001 67.5199L36.9601 79.6799Z" stroke="black" stroke-linecap="round" stroke-linejoin="round"/>
<path d="M43.2001 79.6799L48.1233 55.9999L54.5601 61.1199L50.5601 66.5599L53.7601 67.5199L43.2001 79.6799Z" stroke="black" stroke-linecap="round" stroke-linejoin="round"/>
<path d="M55.6618 26.8516C54.5004 19.5 55.0007 16.7033 51.5007 14C49.8162 12.6989 46.1181 10.5099 43 10.5C41.2056 10.4943 38.4376 12.5177 37 12.5L37.5 10.5C34.1757 10.5724 29.0296 12.9079 27.5007 14C24.8077 15.9236 26.2218 26.5316 23.9818 26.6916C23.0218 25.5716 22.5007 25.92 22.5007 25.92C22.5007 25.92 22.5007 13 23.9818 10.5C25.4628 8 28.2161 6.6145 31.0007 6C34.5117 5.22518 40.3276 5.00001 42.0007 5C45.0007 4.99998 49.5009 6 52.0004 7.5C54.5 9 56.6684 12.4715 57.7412 16.5C58.6528 19.9234 57.7418 25.5716 57.7418 25.5716C56.7565 25.5716 56.5004 25.5716 55.6618 26.8516Z" stroke="black" stroke-linecap="round" stroke-linejoin="round"/>
<path d="M33.2803 60.64C33.2803 60.64 37.6841 62.4652 40.3203 62.4C42.7144 62.3407 46.7203 60.64 46.7203 60.64" stroke="black" stroke-linecap="round" stroke-linejoin="round"/>
<circle cx="56.9602" cy="72.64" r="2.24" stroke="black" stroke-linecap="round" stroke-linejoin="round"/>
<path d="M27.5198 57.6126C25.9198 57.2926 21.8878 63.1486 21.7598 65.4526" stroke="black" stroke-linecap="round" stroke-linejoin="round"/>
<path d="M56.9599 70.4C56.9599 66.6666 57.0879 58.912 54.3999 58.4" stroke="black" stroke-linecap="round" stroke-linejoin="round"/>
<path d="M19.0399 77.7599H17.9199C17.9199 77.7599 18.2399 72.96 18.5599 68.4426C18.6748 66.8213 19.9746 65.6 21.5999 65.6C23.2253 65.6 24.5062 66.8229 24.6399 68.4427C24.9599 72.32 25.2799 76.9286 25.2799 77.76L24.1601 77.7599" stroke="black" stroke-linecap="round" stroke-linejoin="round"/>
<path d="M35.6553 38.7227C35.6553 38.7227 36.7567 40.1502 39.9385 40.1502C43.1204 40.1502 44.2201 38.7227 44.2201 38.7227" stroke="black" stroke-linecap="round" stroke-linejoin="round"/>
<path d="M34.5845 29.4442V32.1206M45.2905 29.4442V32.1206" stroke="black" stroke-linecap="round" stroke-linejoin="round"/>
</svg>
