<svg width="150" height="150" viewBox="0 0 150 150" fill="none" xmlns="http://www.w3.org/2000/svg">
<path d="M106.667 28.8111C109.121 33.7533 110.736 39.9682 109.35 45.4028C109.35 45.4028 89.0854 52.5433 75.0001 52.5002C60.9528 52.4572 40.8003 45.2528 40.8003 45.2528C39.5369 38.9359 38.1 33.2528 43.2002 25.7528C51.2999 16.4528 55.2003 14.2028 66.0004 12.7028C65.1734 11.6503 63.9003 8.69922 63.9003 7.45284C63.9003 6.49071 64.6831 8.4234 68.8254 10.7695C72.6585 12.9405 76.8856 14.6937 81.1837 15.6695C85.6261 16.678 90.0108 17.3986 94.3504 18.8528C99.8843 20.3746 104.054 23.5501 106.667 28.8111Z" fill="black"/>
<path d="M45.6 41.4004C45.6 34.773 50.9726 29.4004 57.6 29.4004H91.8001C98.4275 29.4004 103.8 34.773 103.8 41.4004V63.9004C103.8 79.9719 90.7715 93.0004 74.7001 93.0004C58.6286 93.0004 45.6 79.9719 45.6 63.9004V41.4004Z" fill="#E6E6E6"/>
<path d="M60.6 101.7L62.1 88.5004C71.1001 91.2004 76.5001 90.6004 87.3001 89.4004C87.3001 99.2404 89.9001 103.3 91.2001 104.1C89.3001 105.7 83.2801 108.96 74.4001 109.2C65.52 109.44 59.7 105.9 57.9 104.1L58.8 103.2L60.6 101.7Z" fill="#E6E6E6"/>
<path d="M103.8 50.7004C103.8 48.5465 105.546 46.8004 107.7 46.8004C109.854 46.8004 111.6 48.5465 111.6 50.7004V57.6004C111.6 61.9082 108.108 65.4004 103.8 65.4004V50.7004Z" fill="#E6E6E6"/>
<path d="M45.6 50.1004C45.6 47.9465 43.854 46.2004 41.7 46.2004C39.5461 46.2004 37.8 47.9465 37.8 50.1004V57.0004C37.8 61.3082 41.2922 64.8004 45.6 64.8004V50.1004Z" fill="#E6E6E6"/>
<path d="M86.4001 56.9306C86.4001 59.2388 81.2961 58.759 75.0001 58.759C68.7041 58.759 63.6001 59.2388 63.6001 56.9306C63.6001 54.6224 68.7041 50.4004 75.0001 50.4004C81.2961 50.4004 86.4001 54.6224 86.4001 56.9306Z" fill="#E0E0E0"/>
<path d="M22.8004 134.341C22.8003 130.179 22.5455 119.404 36.1406 113.709C42.0466 111.235 48.9754 107.032 57.9001 105C69.3 110.801 78.9001 113.709 91.2001 105C104.7 109.301 119.7 113.709 125.7 123.401C129.229 130.552 127.44 144.225 127.5 145.601H22.8004L22.8004 134.341Z" fill="#E0E0E0"/>
<path d="M45.6001 39.3994C45.6001 33.8766 50.0772 29.3994 55.6001 29.3994H93.8001C99.3229 29.3994 103.8 33.8766 103.8 39.3994V63.8994C103.8 79.9709 90.7716 92.9994 74.7001 92.9994V92.9994C58.6286 92.9994 45.6001 79.9709 45.6001 63.8994V39.3994Z" stroke="black" stroke-width="2" stroke-linecap="round" stroke-linejoin="round"/>
<path d="M61.8001 90.5996C60.8053 100.984 61.4455 102.444 57.1578 103.998C53.1782 105.441 40.8466 110.234 34.9406 112.708C21.3456 118.402 21.6004 129.177 21.6004 133.339C21.6005 137.501 21.6005 145.2 21.6005 145.2" stroke="black" stroke-width="2" stroke-linecap="round" stroke-linejoin="round"/>
<path d="M87.6 90.5996C88.5948 100.984 87.9547 102.444 92.2424 103.998C96.2219 105.441 108.554 110.234 114.46 112.708C128.055 118.402 127.8 129.177 127.8 133.339C127.8 137.501 127.8 145.2 127.8 145.2" stroke="black" stroke-width="2" stroke-linecap="round" stroke-linejoin="round"/>
<path d="M103.8 50.0992C103.8 47.9453 105.546 46.1992 107.7 46.1992V46.1992C109.854 46.1992 111.6 47.9453 111.6 50.0992V56.9992C111.6 61.307 108.108 64.7992 103.8 64.7992V64.7992V50.0992Z" stroke="black" stroke-width="2" stroke-linecap="round" stroke-linejoin="round"/>
<path d="M45.6001 50.0992C45.6001 47.9453 43.854 46.1992 41.7001 46.1992V46.1992C39.5462 46.1992 37.8001 47.9453 37.8001 50.0992V56.9992C37.8001 61.307 41.2923 64.7992 45.6001 64.7992V64.7992V50.0992Z" stroke="black" stroke-width="2" stroke-linecap="round" stroke-linejoin="round"/>
<path d="M58.8 104.399C58.8 104.399 62.9666 109.199 75.0034 109.199C87.0401 109.199 91.2 104.399 91.2 104.399" stroke="black" stroke-width="2" stroke-linecap="round" stroke-linejoin="round"/>
<path d="M52.2002 106.8C52.2002 106.8 57.9871 115.8 74.7048 115.8C91.4225 115.8 97.2002 106.8 97.2002 106.8" stroke="black" stroke-width="2" stroke-linecap="round" stroke-linejoin="round"/>
<path d="M109.35 45.4497C110.736 40.0151 109.121 33.8002 106.667 28.858C104.054 23.597 99.2842 20.2715 93.7503 18.7497M94.3503 18.8997C90.0108 17.4455 85.6261 16.7249 81.1837 15.7164C76.8856 14.7406 72.6585 12.9873 68.8253 10.8164C64.6831 8.47028 63.9003 6.53759 63.9003 7.49972C63.9003 8.74609 65.1734 11.6972 66.0003 12.7497M66.0003 12.8997C55.2002 14.3997 51.2999 16.4997 43.2001 25.7997C38.1 33.2997 39.5369 38.9827 40.8003 45.2997" stroke="black" stroke-width="2" stroke-linecap="round" stroke-linejoin="round"/>
<path d="M74.4001 109.5V115.5" stroke="black" stroke-width="2" stroke-linecap="round"/>
<path d="M87.6001 106.8L90.6001 111.996" stroke="black" stroke-width="2" stroke-linecap="round"/>
<path d="M61.2002 106.8L58.2002 111.996" stroke="black" stroke-width="2" stroke-linecap="round"/>
<path d="M81.7236 108.9L83.2765 114.696" stroke="black" stroke-width="2" stroke-linecap="round"/>
<path d="M67.0764 108.9L65.5235 114.696" stroke="black" stroke-width="2" stroke-linecap="round"/>
<path d="M114 27.2994L117.6 23.3994L120.9 26.3994L124.5 22.1994M109.8 22.1994L114 15.8994L119.4 17.9994L123 11.3994" stroke="black" stroke-width="2" stroke-linecap="round" stroke-linejoin="round"/>
<path d="M66.7078 72.9336C66.7078 72.9336 68.7729 70.2571 74.7389 70.2571C80.7049 70.2571 82.7667 72.9336 82.7667 72.9336" stroke="black" stroke-width="2" stroke-linecap="round" stroke-linejoin="round"/>
<path d="M66.9001 56.3994L61.7002 57.8786M83.6002 56.3994L88.8001 57.8786" stroke="black" stroke-width="2" stroke-linecap="round" stroke-linejoin="round"/>
</svg>
