<svg width="48" height="72" viewBox="0 0 48 72" fill="none" xmlns="http://www.w3.org/2000/svg">
<path d="M48 63.0965V70.0266C48 70.6745 47.4729 71.1998 46.8227 71.1998C46.1726 71.1998 45.6454 70.6745 45.6454 70.0266V63.0965C45.6454 57.7006 41.2637 53.3339 35.8485 53.334C33.2863 53.334 30.9616 52.0333 29.6296 49.8544C29.2914 49.3011 29.4673 48.5791 30.0227 48.2421C30.5779 47.905 31.3022 48.0804 31.6406 48.6338C32.5415 50.1078 34.1145 50.9877 35.8485 50.9877C42.5645 50.9874 48 56.4034 48 63.0965ZM27.4555 51.3364C27.5939 51.9695 27.1912 52.5945 26.5559 52.7325C23.4575 53.4052 20.3064 52.7318 17.7974 51.0252C15.3136 53.6776 12.0323 53.334 12.4715 53.334C7.05674 53.3339 2.67458 57.7002 2.67458 63.0965V70.0266C2.67458 70.6745 2.14745 71.1998 1.49729 71.1998C0.847138 71.1998 0.320007 70.6745 0.320007 70.0266V63.0965C0.320007 56.4041 5.75452 50.9877 12.4712 50.9877C15.1881 50.9877 17.3907 48.8063 17.3907 46.0982V45.7892C12.252 43.3406 8.64505 38.1952 8.42519 32.2033C6.31049 31.6966 4.73484 29.8105 4.73484 27.5663V21.4844C4.67053 18.5075 5.11407 11.0515 10.5695 5.81117C17.3058 -0.659791 28.1086 -0.24874 36.052 3.56189C36.8262 3.93365 36.9438 4.97602 36.3009 5.51583C40.325 6.49396 43.795 8.95911 46.0244 12.4872C46.1394 12.6688 46.3502 12.9541 46.2951 13.4091C46.261 13.6923 46.1764 13.9319 45.9574 14.1534C44.5226 15.6034 43.7325 17.5249 43.7325 19.5641V27.5666C43.7325 28.2145 43.2054 28.7398 42.5552 28.7398C41.905 28.7398 41.3779 28.2145 41.3779 27.5666V19.5641C41.3779 17.2123 42.1842 14.98 43.6651 13.1868C41.4079 9.96995 37.8864 7.90105 33.9036 7.47606L31.8344 7.25521C30.6244 7.12616 30.387 5.46508 31.5115 5.00388L32.4526 4.61776C20.1962 0.359848 7.08926 5.09084 7.08926 21.4717V27.5663C7.08926 28.4972 7.62728 29.3063 8.41371 29.7127V22.1071C8.41371 17.5789 12.1107 13.8948 16.6547 13.8948H31.6651C36.2092 13.8948 39.9062 17.5786 39.9062 22.1066V31.7125C39.9062 41.9153 29.901 49.6651 19.7201 46.6783C19.6539 47.5154 19.4447 48.3231 19.1041 49.0739C21.0846 50.4292 23.5856 50.9759 26.0545 50.4398C26.6898 50.302 27.317 50.7033 27.4555 51.3364ZM24.1599 44.9682C31.5442 44.9682 37.5516 38.9818 37.5516 31.6233V22.1066C37.5516 18.8725 34.9109 16.2412 31.6651 16.2412H16.6547C13.4089 16.2412 10.7683 18.8726 10.7683 22.1071V31.6233C10.7683 38.9818 16.7757 44.9682 24.1599 44.9682ZM36.08 65.1873H32.5481C31.898 65.1873 31.3708 65.7125 31.3708 66.3604C31.3708 67.0083 31.898 67.5336 32.5481 67.5336H36.08C36.7301 67.5336 37.2573 67.0083 37.2573 66.3604C37.2573 65.7125 36.7301 65.1873 36.08 65.1873Z" fill="black"/>
</svg>
