<svg width="56" height="56" viewBox="0 0 56 56" fill="none" xmlns="http://www.w3.org/2000/svg">
<path d="M37.3334 9.33317C37.3334 6.74317 39.4101 4.6665 42.0001 4.6665C44.5901 4.6665 46.6668 6.74317 46.6668 9.33317C46.6668 11.9232 44.5901 13.9998 42.0001 13.9998C39.4101 13.9998 37.3334 11.9232 37.3334 9.33317ZM46.6668 48.9998V37.3332H49.2568C50.8434 37.3332 51.9634 35.7698 51.4734 34.2532L46.5734 19.5298C45.9201 17.6165 44.1468 16.3332 42.1401 16.3332H41.8601C39.8534 16.3332 38.0568 17.6165 37.4268 19.5298L35.4201 25.5498C37.9401 26.9498 39.6668 29.5865 39.6668 32.6665V51.3332H44.3334C45.6168 51.3332 46.6668 50.2832 46.6668 48.9998ZM29.1667 26.8332C31.1034 26.8332 32.6667 25.2698 32.6667 23.3332C32.6667 21.3965 31.1034 19.8332 29.1667 19.8332C27.2301 19.8332 25.6667 21.3965 25.6667 23.3332C25.6667 25.2698 27.2301 26.8332 29.1667 26.8332ZM12.8334 13.9998C15.4234 13.9998 17.5001 11.9232 17.5001 9.33317C17.5001 6.74317 15.4234 4.6665 12.8334 4.6665C10.2434 4.6665 8.16675 6.74317 8.16675 9.33317C8.16675 11.9232 10.2434 13.9998 12.8334 13.9998ZM17.5001 48.9998V34.9998H18.6667C19.9501 34.9998 21.0001 33.9498 21.0001 32.6665V20.9998C21.0001 18.4332 18.9001 16.3332 16.3334 16.3332H9.33342C6.76675 16.3332 4.66675 18.4332 4.66675 20.9998V32.6665C4.66675 33.9498 5.71675 34.9998 7.00008 34.9998H8.16675V48.9998C8.16675 50.2832 9.21675 51.3332 10.5001 51.3332H15.1667C16.4501 51.3332 17.5001 50.2832 17.5001 48.9998ZM23.3334 32.6665V39.6665C23.3334 40.9498 24.3834 41.9998 25.6667 41.9998V48.9998C25.6667 50.2832 26.7167 51.3332 28.0001 51.3332H30.3334C31.6168 51.3332 32.6667 50.2832 32.6667 48.9998V41.9998C33.9501 41.9998 35.0001 40.9498 35.0001 39.6665V32.6665C35.0001 30.7532 33.4134 29.1665 31.5001 29.1665H26.8334C24.9201 29.1665 23.3334 30.7532 23.3334 32.6665Z" fill="white"/>
</svg>
