<svg width="254" height="351" viewBox="0 0 254 351" fill="none" xmlns="http://www.w3.org/2000/svg">
<path d="M98.9259 118.975L95.0582 115.66C95.0582 112.345 91.743 95.2161 97.2683 63.1694C102.794 31.1226 124.895 28.36 133.183 28.9125C141.471 29.465 144.998 35.8062 148.866 45.1992C153.203 55.7319 153.626 66.4846 156.389 79.1927C158.499 88.8993 157.862 104.425 156.389 111.239C156.573 111.976 154.5 114 152.5 116.5C151 123.5 149.131 136.396 149.5 144.5C149.868 152.604 151.969 162 162 166C166 171.5 156.562 178.862 151.969 186.5C142.137 202.85 125.025 215.817 119.5 223C111 217 101.5 207.5 91.9998 193.5C79.4463 175 82.5523 170.447 81.9998 167.5L89.5329 150.469L98.9259 142.734V118.975Z" fill="#FFDBAC"/>
<path d="M75.197 172.123L81.4689 168.286C82.6505 192.849 112.427 217.5 119.186 223.28C143.89 198.012 166.943 172.276 162.368 165.512L158.346 164.015L154.558 159.947L166.484 164.67L171.065 169.464C171.065 169.464 177.454 198.003 168.463 256.127C159.472 314.25 164 326.5 160.684 349.416H75.197C76.6092 327.963 73.9632 275.475 73.2792 267.224C71.876 250.298 73.9135 219.394 75.197 208.485C76.2238 199.758 75.6248 180.608 75.197 172.123Z" fill="#9E9E9E"/>
<path d="M253.476 349.58H160.976C161.976 328.913 163 297.5 164.976 286.08C165.829 281.153 171.476 229.08 173.476 211.08C175.076 196.68 172.392 177.181 171.058 169.014C169.558 168.348 167.149 165.821 167.609 165.208C169.109 163.208 177.241 167.753 178.052 168.338C178.988 169.014 183.476 171.58 188.476 173.08C194.476 173.08 200.133 176.209 201.838 177.255C203.806 178.461 209.4 183.082 210.9 184.582C212.4 186.082 224.976 235.08 227.976 281.08C230.376 317.88 245.976 342.08 253.476 349.58Z" fill="#DFD4E5"/>
<path d="M1.00008 349.08H75.9762C76.1428 331.413 74.9762 298.5 74.9762 293.58C74.4762 290.08 72.5001 248 72.5001 243.5C72.5001 239.9 75.3095 216.08 75.9762 204.08C77.4762 194.08 76.9762 182.58 75.4762 172.08C62.9762 175.08 52.9762 171.58 46.9762 166.58C45.4762 167.413 41.9762 168.58 36.9762 170.08C33.4762 172.58 32.9762 173.08 30.9762 175.58C21.9762 179.08 22.4762 190.58 19.4762 198.08C15.0001 206 10.9761 268.08 10.4761 273.58C11.4761 280.08 -0.5 321 1.00008 349.08Z" fill="#DFD4E5"/>
<path d="M34.9999 199.5C30.5999 191.5 32.1666 181.5 33.4999 177.5C32.2999 188.7 42.3333 190.833 47.5 190.5L38 219C38.8333 215.833 39.3999 207.5 34.9999 199.5Z" fill="#BFAACB"/>
<path d="M31.5 228C31.5 220.8 27.8333 212.667 25 207L38 221.5L36 239.5C34.5 239 31.5 235.2 31.5 228Z" fill="#BFAACB"/>
<path d="M41.2487 294.181C40.7182 289.233 40.2825 284.011 40 280C41.1214 282.579 41.4569 287.721 41.2487 294.181C42.2832 303.83 43.678 312.437 45 309C46.8464 304.199 48.42 291.217 48.7138 283.951C48.4406 280.508 48.2996 278.599 48.5 279C48.7614 279.523 48.8178 281.379 48.7138 283.951C49.8036 297.682 52.9956 335.807 45 349H33C36.5983 336.046 40.7144 310.767 41.2487 294.181Z" fill="#BFAACB"/>
<path d="M171 169L168 165C171.148 163.855 176 166.5 181.5 170.5C185.512 172.608 190.008 173.87 194 174.5C197 181 194.9 190 198.5 194C203 199 204.5 174.5 211 184.5C211 201.3 209 206 197.5 221.5L194 207.5C194.333 206.667 193.8 202.6 189 193C184.2 183.4 175.333 214.667 171.5 231.5C172.667 218.5 174.8 191.8 174 189C173.2 186.2 171.5 174.667 171 169Z" fill="#BFAACB"/>
<path d="M199.5 227C203.333 224.833 211 220.7 211 221.5C211 222.3 209.333 224.5 208.5 225.5L205.5 231C204.083 232.417 201.534 235.182 201.048 236.471C201.097 236.96 201.09 237.179 201 237C200.94 236.88 200.962 236.699 201.048 236.471C200.876 234.778 200.017 229.845 199.5 227Z" fill="#BFAACB"/>
<path d="M186.5 276.5C187.833 286.667 191.2 302.8 194 286C197.24 266.562 202.193 259.976 202.912 255.931C202.968 254.88 203 254.505 203 255C203 255.298 202.97 255.606 202.912 255.931C202.604 261.677 201.564 287.628 201 302L198 349.5H186.5C184.833 331.667 182.5 291.7 186.5 276.5Z" fill="#BFAACB"/>
<path d="M212.5 337.5C212.1 345.1 210 334.333 209 328L208.5 335.5L210 349.5H219C220.2 347.1 213.167 315.667 209 301C209 310.5 212.9 329.9 212.5 337.5Z" fill="#BFAACB"/>
<path d="M126.553 90.7959C123.557 86.5165 128.606 71.8791 131.772 64.4329C131.863 64.1585 131.965 63.9201 132.078 63.722C132.63 63.722 145.891 58.7492 152.522 62.6169C157.826 65.7111 151.416 66.4846 147.549 66.4846C143.681 65.9321 135.283 66.0426 132.63 70.9049C132.113 70.9049 131.087 70.6838 131.119 69.7998C130.99 74.9652 131.597 81.8547 132.078 85.8232L135 89L134.288 92.4535C132.999 93.7428 129.647 95.2162 126.553 90.7959Z" fill="#F1C27D"/>
<path d="M138.708 80.2979C137.382 80.2979 134.104 76.9827 132.63 75.3251C136.069 76.6512 145.482 76.246 149.759 75.8776C146.628 77.3511 140.034 80.2979 138.708 80.2979Z" fill="#F1C27D"/>
<path d="M108.319 80.2979C110.345 79.0086 114.397 76.3197 114.397 75.8776C114.397 75.4356 112.555 71.6416 111.634 69.7998L101.941 66.5687C102.367 74.4284 101.689 72.5625 101.689 72.5625L97.2686 75.3251L102.794 76.9827C101.906 90.6595 100.675 117.834 102.571 120.941C103.298 121.476 103.51 121.615 102.794 121.185C102.715 121.138 102.641 121.056 102.571 120.941C101.055 119.826 97.2993 116.99 95.0584 114.002C94.8743 94.1111 96.495 52.5609 104.451 45.4885C114.397 36.648 110.53 30.0177 132.078 28.9126C121.58 34.9904 100.805 50.2402 101.689 62.6169C101.746 63.4191 101.796 64.1591 101.839 64.8415C106.082 64.3092 111.709 64.0354 114.397 65.3796C118.817 67.5897 119.37 78.6403 117.712 80.2979C116.055 81.9555 117.712 88.0333 116.607 88.0333C115.723 88.0333 114.765 82.8764 114.397 80.2979H108.319Z" fill="#F1C27D"/>
<path d="M119.922 86.3757C119.038 87.7018 120.291 90.9801 121.027 92.4535C117.933 91.5695 117.528 90.2434 117.712 89.6909L119.922 86.3757Z" fill="#F1C27D"/>
<path d="M124.895 97.4263C124.011 97.4263 121.948 96.3213 121.027 95.7687C121.911 95.7687 127.289 95.032 129.868 94.6637C128.579 95.5845 125.779 97.4263 124.895 97.4263Z" fill="#F1C27D"/>
<path d="M105.557 106.819C105.557 105.051 108.135 99.8206 109.424 97.4263C109.424 95.7687 110.529 94.1111 108.319 96.3213C103.865 100.776 105.557 109.029 105.557 106.819Z" fill="#F1C27D"/>
<path d="M99.4786 119.528C99.5686 119.617 99.9654 120.03 100.573 120.663C106.383 125.853 122.836 131.131 124.895 131.131C127.105 131.131 142.023 124.5 152.522 116.765C147.659 124.721 147.917 138.866 148.654 144.944L144.786 152.127L140.366 131.131C139.077 135.735 136.056 145.275 134.288 146.601C132.52 147.928 118.449 137.577 111.634 132.236C108.554 129.009 102.95 123.141 100.573 120.663C100.148 120.283 99.78 119.904 99.4786 119.528Z" fill="#F1C27D"/>
<path d="M125.187 172.601L139 150.5C140.105 149.211 141.873 147.295 140.105 149.947C138.337 152.6 140.842 163.577 142.315 168.733L125.187 172.601Z" fill="#F1C27D"/>
<path d="M122.685 172.018C120.033 172.902 118.633 166.493 118.265 163.177C119.186 164.467 121.359 167.156 122.685 167.598C124.011 168.04 127.289 164.835 128.763 163.177C127.842 165.756 125.337 171.134 122.685 172.018Z" fill="#F1C27D"/>
<path d="M92.2957 154.337C96.716 152.569 95.6109 156.915 94.5059 159.31C97.158 158.426 98.9261 147.522 99.4786 142.181H98.3736L88.428 151.022L86.2179 160.415L88.428 164.835C87.8755 162.072 87.8755 156.105 92.2957 154.337Z" fill="#F1C27D"/>
<path d="M132.63 109C128.662 111.956 123.267 111.157 120.54 110.23C122.124 111.081 125.653 114.002 126.553 114.002C127.605 114.002 129.868 112.5 132.63 109Z" fill="#F1C27D"/>
<path d="M82.0001 168L84.5001 164C84.6668 167.333 92.3001 183.3 121.5 220.5C121 221.5 120 222.5 119 223C106.333 212.352 81.2001 186.445 82.0001 168Z" fill="#F1C27D"/>
<path d="M97.8208 75.3251L103.899 72.5625C103.015 73.4465 104.267 75.5093 105.004 76.4302L97.8208 75.3251Z" fill="white"/>
<path d="M109.424 76.4302C110.308 74.6621 109.792 73.115 109.424 72.5625C110.308 72.5625 113.107 74.4042 114.397 75.3251C112.371 76.4302 112.187 75.3251 109.424 76.4302Z" fill="white"/>
<path d="M138.155 70.3523L133.183 73.6675H139.261C138.376 73.6675 138.155 71.4574 138.155 70.3523Z" fill="white"/>
<path d="M143.681 73.6675L144.786 69.7998L149.206 71.4574L143.681 73.6675Z" fill="white"/>
<path d="M106.109 76.4301C103.899 76.4301 103.715 73.4832 103.899 72.0098C105.004 72.0098 109.977 70.9048 109.977 72.5624C109.977 74.22 108.871 76.4301 106.109 76.4301Z" fill="#CCF0F5"/>
<path d="M140.918 73.6674C139.15 73.6674 138.34 71.4573 138.156 70.3523C139.997 69.4314 143.791 68.0316 144.233 69.7997C144.786 72.0098 143.128 73.6674 140.918 73.6674Z" fill="#CCF0F5"/>
<path d="M112.5 104.5C118.5 100.5 125.918 100.728 125.918 101.464C132.107 98.8123 138.111 102 141.5 102L135 104L126.5 105C117.291 106.105 118 105 112.5 104.5Z" fill="#E0AC69"/>
<path d="M134.807 64.0764L131.902 62.9401C133.56 62.9401 143.132 56.3562 149.387 60.9819C143.309 60.982 138.123 62.2347 134.807 64.0764Z" fill="#F29733"/>
<path d="M99.3133 63.8068C110.364 60.2702 114.703 63.2878 115.256 65.3138C113.023 64.7486 106.506 63.5182 99.3133 65.3138C99.1031 65.7342 98.5532 65.7766 98.1425 65.6069C94.8077 82.8021 95.2027 102.145 95.4553 114.519L95.4598 114.739L99.1353 118.697L100.036 141.526L90.4387 150.505C88.2286 158.793 83.5269 165.973 80.2118 169.288C66.6311 177.56 51.7425 172.947 48.0589 167.974C46.9461 167.974 41.7701 161.441 44.5201 162.615C53.5203 166.458 54.3337 163.165 56.6532 157.56C70.6717 102.948 65.106 41.35 99.9987 17.024C117.665 6.04018 130.133 8.76512 130.776 13.5608C147.579 2.55218 158.276 19.4042 165.104 36.423C180.829 75.6153 180.242 145.306 187.977 173.121C179.002 172.261 175.079 163.662 167.482 165.535C161.594 161.439 162.668 163.47 154.645 160.252C150.714 155.423 150.161 146.602 150.161 140.762C150.161 133.205 152.345 123.355 152.345 117.58C155.108 113.16 156.681 112.765 157.318 111.502C159.121 105.132 158.749 92.583 158.014 87.628C157.462 80.4451 156.213 81.6658 152.345 54.0393C144.831 30.612 136.097 27.0662 132.782 28.7238C111.969 27.5512 102.579 44.2144 98.4329 64.161C98.6642 64.0409 98.9545 63.9217 99.3133 63.8068Z" fill="#F29733"/>
<path d="M96.9636 75.4331C99.8868 73.9716 103.123 71.4326 106.503 71.4326C109.961 71.4326 112.308 73.1047 114.504 75.7409" stroke="black" stroke-linecap="round" stroke-linejoin="round"/>
<path d="M109.889 72.3558C109.889 73.962 109.987 74.8231 108.965 76.0486" stroke="black" stroke-linecap="round" stroke-linejoin="round"/>
<path d="M103.734 72.0482C103.45 74.0742 103.703 75.4179 105.58 76.3565" stroke="black" stroke-linecap="round" stroke-linejoin="round"/>
<path d="M114.812 71.7404C112.501 70.0407 110.375 68.7449 107.427 68.663C105.073 68.5977 102.185 68.979 100.349 70.5094" stroke="black" stroke-linecap="round" stroke-linejoin="round"/>
<path d="M106.945 73.6497C107.255 73.3406 106.95 73.1089 106.771 73.1151M106.945 73.6497C106.568 73.2721 106.63 73.12 106.771 73.1151M106.945 73.6497L106.771 73.1151" stroke="black" stroke-linecap="round" stroke-linejoin="round"/>
<path d="M141.202 71.4397C141.512 71.1305 141.206 70.8989 141.028 70.905M141.202 71.4397C140.825 71.0621 140.887 70.9099 141.028 70.905M141.202 71.4397L141.028 70.905" stroke="black" stroke-linecap="round" stroke-linejoin="round"/>
<path d="M132.353 73.5867C135.647 71.8738 137.624 69.6518 141.585 69.2784C143.142 69.1317 144.336 69.0853 145.586 69.4323C147.148 69.8663 148.141 70.9508 149.586 71.4325" stroke="black" stroke-linecap="round" stroke-linejoin="round"/>
<path d="M137.892 70.2017C138.198 71.5908 137.892 72.7467 139.444 73.5141" stroke="black" stroke-linecap="round" stroke-linejoin="round"/>
<path d="M144.355 69.5863C144.33 70.8469 144.816 71.9794 143.128 73.1151" stroke="black" stroke-linecap="round" stroke-linejoin="round"/>
<path d="M132.661 70.5095C135.003 68.7874 137.537 67.1377 140.354 66.3551C142.824 65.6691 144.98 66.509 147.432 66.509" stroke="black" stroke-linecap="round" stroke-linejoin="round"/>
<path d="M131.737 62.8161C133.66 64.5694 135.531 63.1704 137.584 62.2007C139.022 61.5216 140.953 61.076 142.508 60.7304C145.855 59.9866 149.281 60.3559 152.355 61.8929" stroke="black" stroke-linecap="round" stroke-linejoin="round"/>
<path d="M131.43 62.5084C135.197 60.6247 138.468 59.7818 142.508 58.884C146.445 58.0091 149.274 60.622 152.663 61.893" stroke="black" stroke-linecap="round" stroke-linejoin="round"/>
<path d="M97.8208 65.3797C101.057 64.3009 103.713 64.0472 107.119 64.0472C108.563 64.0472 110.337 64.3911 111.735 64.731C112.451 64.9052 116.458 66.0281 114.47 63.7565C112.678 61.7081 108.332 62.2008 105.888 62.2008C102.493 62.2008 100.767 62.5912 97.8208 64.2747" stroke="black" stroke-linecap="round" stroke-linejoin="round"/>
<path d="M116.351 68.6631C118.813 72.0114 119.451 76.6174 117.582 80.3569" stroke="black" stroke-linecap="round" stroke-linejoin="round"/>
<path d="M130.814 65.5857C127.933 72.7466 125.631 78.8858 127.166 86.5598" stroke="black" stroke-linecap="round" stroke-linejoin="round"/>
<path d="M123.736 95.1282C125.056 95.1282 125.948 95.0992 127.121 94.5127" stroke="black" stroke-linecap="round" stroke-linejoin="round"/>
<path d="M132.661 93.2817C136.578 91.2029 134.627 89.4142 132.968 86.5116" stroke="black" stroke-linecap="round" stroke-linejoin="round"/>
<path d="M115.736 88.0502C113.872 89.9701 112.825 93.0571 115.736 94.5126" stroke="black" stroke-linecap="round" stroke-linejoin="round"/>
<path d="M109.424 104.609C114.966 104.609 121.285 105.817 126.797 105.266C127.939 105.152 129.079 104.677 130.199 104.428C131.491 104.141 132.892 104.274 134.2 103.984C136.613 103.448 139.692 102.624 142.023 101.847" stroke="black" stroke-linecap="round" stroke-linejoin="round"/>
<path d="M125.447 101.294C122.601 100.839 119.345 101.298 116.659 102.343C114.546 103.164 111.786 104.609 109.424 104.609" stroke="black" stroke-linecap="round" stroke-linejoin="round"/>
<path d="M125.583 101.59C128.383 100.384 131.464 99.8382 134.507 100.599C137.062 101.238 139.25 101.898 141.893 101.898" stroke="black" stroke-linecap="round" stroke-linejoin="round"/>
<path d="M95.0583 114.555C98.4255 118.828 107.685 125.492 112.727 127.44C117.169 129.156 122.561 131.232 127.361 130.141C135.201 128.36 143.224 123.772 149.586 118.824C151.634 117.231 155.513 112.831 156.942 110.687" stroke="black" stroke-linecap="round" stroke-linejoin="round"/>
<path d="M81.3761 57.8924C74.9022 96.55 76.3672 127.224 74.9022 139.875C73.4373 152.527 70.1618 161.052 58.5543 164.352C46.9468 167.652 41.783 159.344 44.0064 163.155C47.4286 169.022 54.8235 173.6 61.5746 173.6H61.6985C68.8706 173.6 76.9475 173.6 81.885 167.291C86.4446 161.465 88.5352 155.898 90.2213 148.779C91.8749 141.797 93.4628 131.68 94.0842 124.534C94.7993 116.31 95.1175 108.87 95.1175 100.599C95.1175 86.3451 95.4535 71.7039 99.1864 57.8924C101.117 50.7507 105.656 42.8465 110.641 37.4623C116.755 30.8588 124.18 28.5933 132.63 28.7945C133.581 28.8171 136.781 28.2407 140.816 31.5983C147.304 38.6508 150.514 47.6353 152.51 56.8153C153.646 62.0439 153.795 67.3466 154.749 72.5952C155.752 78.108 157.911 84.0422 158.203 89.5889C159.202 108.579 154.743 121.757 150.441 139.442" stroke="black" stroke-linecap="round" stroke-linejoin="round"/>
<path d="M50.6008 164.805C54.5745 163.838 56.9374 157.186 58.01 153.356C70.1891 109.859 61.9237 9.47339 125.267 9.47339C127.625 9.47339 129.792 11.0459 130.657 13.3998C164.653 -7.3093 176.117 76.433 177.812 95.0763C179.874 117.762 184.35 161.453 188.059 172.836" stroke="black" stroke-linecap="round" stroke-linejoin="round"/>
<path d="M140.766 130.893C137.718 137.372 135.878 144.663 133.3 151.38C130.803 157.884 128.698 164.298 125.226 170.374" stroke="black" stroke-linecap="round" stroke-linejoin="round"/>
<path d="M111.366 131.313C111.656 144.075 117.304 155.965 119.766 168.274" stroke="black" stroke-linecap="round" stroke-linejoin="round"/>
<path d="M98.6721 118.975C99.2618 122.66 99.6055 127.8 99.6055 131.523C99.6055 137.724 99.9922 144.528 98.6721 150.634C97.9833 153.819 97.0835 156.516 94.9854 159.034" stroke="black" stroke-linecap="round" stroke-linejoin="round"/>
<path d="M90.3513 149.793C93.7105 147.155 96.6973 144.282 99.6583 141.241" stroke="black" stroke-linecap="round" stroke-linejoin="round"/>
<path d="M152.521 116.212C150.698 133.139 144.001 158.001 162.142 165.813" stroke="black" stroke-linecap="round" stroke-linejoin="round"/>
<path d="M132.626 108.5C128.626 111.5 123.867 111.247 120.126 110" stroke="black" stroke-linecap="round" stroke-linejoin="round"/>
<path d="M130.323 175.613C130.323 181.258 141.796 178.162 159.097 177.07" stroke="black" stroke-linecap="round" stroke-linejoin="round"/>
<path d="M116.361 174.636C111.124 182.252 106.21 177.518 82.8567 174.636" stroke="black" stroke-linecap="round" stroke-linejoin="round"/>
<path d="M75.3793 172.342C77.5422 186.131 75.9637 200.404 75.0182 214.232C73.9402 229.997 71.8953 242.271 72.8511 258.042C73.623 270.777 74.6335 287.719 74.915 300.387C74.915 310.457 76.0771 335.876 76.0771 349.042" stroke="black" stroke-linecap="round" stroke-linejoin="round"/>
<path d="M171.026 165.377C171.026 171.683 172.292 178.252 173.09 184.517C173.971 191.443 173.396 198.805 173.347 205.772C173.283 215.072 171.783 224.177 170.82 233.398C169.021 250.617 166.227 269.236 164.887 285.168C163.897 296.933 162.102 304.315 162.102 315.983C162.102 320.322 161.335 345.062 160.388 349.32" stroke="black" stroke-linecap="round" stroke-linejoin="round"/>
<path d="M46.1281 167.234C42.6856 168.382 39.3288 169.725 35.9134 170.949C32.7264 172.091 31.0861 175.151 28.2524 176.753C22.2824 180.127 22.0916 187.965 20.3592 193.932C15.8025 209.627 14.1565 226.342 12.6982 242.555C11.5386 255.447 11.4312 267.62 10 280.5C9.18074 287.873 4.5 307.5 3 318" stroke="black" stroke-linecap="round" stroke-linejoin="round"/>
<path d="M154.684 159.876C161.941 162.722 169.714 164.561 171.302 170.732" stroke="black" stroke-linecap="round" stroke-linejoin="round"/>
<path d="M167.263 165.151C170.005 164.774 173.489 164.493 177.71 168.075C185.743 174.891 191.995 171.813 200.399 176.743C208.803 181.672 211.06 183.514 212.349 188.025C213.286 191.304 213.926 194.648 214.903 197.904C217.862 207.77 219.002 218.202 220.939 228.316C224.307 245.908 224.912 263.747 227.568 281.453C229.284 292.892 230.697 304.417 233.939 315.554C235.986 322.584 246.412 342.424 251.345 347.974" stroke="black" stroke-linecap="round" stroke-linejoin="round"/>
<path d="M76.5107 182.354C79.9662 198.66 83.8537 212.59 91.6288 227.816" stroke="black" stroke-linecap="round" stroke-linejoin="round"/>
<path d="M76.4026 190.885C76.4026 203.195 79.8582 213.454 79.8582 231.488" stroke="black" stroke-linecap="round" stroke-linejoin="round"/>
<path d="M172.415 180.529C166.596 195.933 164.453 203.088 160.472 210.607C156.492 218.127 145.43 231.414 143.138 234.851" stroke="black" stroke-linecap="round" stroke-linejoin="round"/>
<path d="M173.506 190.706C171.253 196.62 170.598 203.131 169.14 209.272C167.63 215.627 165.567 221.714 162.79 227.617" stroke="black" stroke-linecap="round" stroke-linejoin="round"/>
<path d="M43.726 201.63C40.4317 209.962 37.3975 224.967 36.1288 233.593C35.0263 241.09 38.1185 265.569 38.8433 271.277C41.9301 295.585 39.9632 321.701 33.6484 349.351" stroke="black" stroke-linecap="round" stroke-linejoin="round"/>
<path d="M30.9452 174.768C27.9327 178.985 27.8553 187.659 28.6005 192.354C30.4176 203.801 35.283 206.54 38.5659 219.671" stroke="black" stroke-linecap="round" stroke-linejoin="round"/>
<path d="M26.2556 206.305C29.5209 212.584 34.3304 215.875 38.2141 221.312" stroke="black" stroke-linecap="round" stroke-linejoin="round"/>
<path d="M162.189 165.395C164.459 171.005 159.782 176.322 156.632 180.697C150.785 188.819 142.562 198.913 137.184 204.29C133.771 207.704 125.464 217.715 119.258 223.381C114.778 221.073 99.7198 205.028 93.6132 196.68C87.5066 188.332 81.6197 178.891 81.6197 168.173M169.273 167.482C169.013 182.546 157.224 192.85 148.903 204.077C144.87 209.518 135.444 218.86 132.049 222.253C130.122 224.179 120.243 234.472 119.299 234.503C118.355 234.533 94.0943 211.988 88.3902 203.437C84.1663 197.105 77.6227 181.284 75.3601 172.842" stroke="black" stroke-linecap="round" stroke-linejoin="round"/>
<path d="M194.199 205.282C196.32 215.636 199.593 225.412 200.91 235.953C201.722 242.451 202.693 249.226 202.693 255.771C202.693 264.406 202.295 273.006 202.221 281.619C202.102 295.531 199.098 335.467 198.174 349.323" stroke="black" stroke-linecap="round" stroke-linejoin="round"/>
<path d="M107.376 275.627C123.488 274.48 138.593 276.209 152.898 280.977" stroke="black" stroke-linecap="round" stroke-linejoin="round"/>
<path d="M74.6633 286.632C86.3386 283.885 101.611 281.479 113.51 280.346" stroke="black" stroke-linecap="round" stroke-linejoin="round"/>
<path d="M210.74 184.227C211.732 200.493 208.658 208.625 198.446 220.765" stroke="black" stroke-linecap="round" stroke-linejoin="round"/>
<path d="M199.549 226.848C202.981 224.852 206.608 222.273 210.377 220.877C211.305 220.533 211.076 221.041 210.877 221.555C210.592 222.292 209.969 222.818 209.425 223.362" stroke="black" stroke-linecap="round" stroke-linejoin="round"/>
<path d="M48.684 278.704C52.1277 310.819 51.4006 322.453 46.311 349.174" stroke="black" stroke-linecap="round" stroke-linejoin="round"/>
<path d="M209.423 300.669C212.511 314.169 216.106 327.697 218.345 341.39C218.688 343.487 219.345 347.679 219.345 349.807" stroke="black" stroke-linecap="round" stroke-linejoin="round"/>
<path d="M209.04 327.83C207.737 334.669 209.788 342.785 209.788 349.565" stroke="black" stroke-linecap="round" stroke-linejoin="round"/>
<path d="M186.741 275.887C184.147 283.821 184.042 342.761 186.229 349.323" stroke="black" stroke-linecap="round" stroke-linejoin="round"/>
<path d="M193.726 295.234C190.854 315.479 189.275 333.858 193.008 349.365" stroke="black" stroke-linecap="round" stroke-linejoin="round"/>
</svg>
