<svg width="450" height="450" viewBox="0 0 450 450" fill="none" xmlns="http://www.w3.org/2000/svg">
<path d="M275 105H230L210.5 124.5" stroke="black" stroke-linecap="round" stroke-linejoin="round"/>
<path d="M327 68L336 59" stroke="black" stroke-linecap="round" stroke-linejoin="round"/>
<path d="M295 81L304 72" stroke="black" stroke-linecap="round" stroke-linejoin="round"/>
<path d="M360 144L369 135" stroke="black" stroke-linecap="round" stroke-linejoin="round"/>
<path d="M336.5 149C361.629 149 382 128.629 382 103.5C382 89.9781 376.102 77.8339 366.737 69.5L336.5 99.5V58C311.371 58 291 78.371 291 103.5C291 128.629 311.371 149 336.5 149Z" stroke="black" stroke-linecap="round" stroke-linejoin="round"/>
<path d="M326.5 159C351.629 159 372 138.629 372 113.5C372 99.9781 366.102 87.8339 356.737 79.5L326.5 109.5V68C301.371 68 281 88.371 281 113.5C281 138.629 301.371 159 326.5 159Z" fill="#CCF0F5" stroke="black" stroke-linecap="round" stroke-linejoin="round"/>
<path d="M292.061 196.336L286.5 201.5L313 335L318.402 329.984C319.421 329.038 320 327.71 320 326.32V200C320 197.239 317.761 195 315 195H295.463C294.201 195 292.986 195.477 292.061 196.336Z" fill="#CCEAD9" stroke="black" stroke-linecap="round" stroke-linejoin="round"/>
<rect x="285" y="200" width="30" height="136" rx="5" fill="#33AB66" stroke="black" stroke-linecap="round" stroke-linejoin="round"/>
<path d="M312 200L316 195.5" stroke="black" stroke-linecap="round" stroke-linejoin="round"/>
<path d="M315 208L320 202" stroke="black" stroke-linecap="round" stroke-linejoin="round"/>
<path d="M378.061 236.336L372.5 241.5L399 375L404.402 369.984C405.421 369.038 406 367.71 406 366.32V240C406 237.239 403.761 235 401 235H381.463C380.201 235 378.986 235.477 378.061 236.336Z" fill="#CCEAD9" stroke="black" stroke-linecap="round" stroke-linejoin="round"/>
<rect x="371" y="240" width="30" height="136" rx="5" fill="#99D5B3" stroke="black" stroke-linecap="round" stroke-linejoin="round"/>
<path d="M398 240L402 235.5" stroke="black" stroke-linecap="round" stroke-linejoin="round"/>
<path d="M401 248L406 242" stroke="black" stroke-linecap="round" stroke-linejoin="round"/>
<path d="M335.036 275.964L329.5 281.5L356 353L361.402 347.984C362.421 347.038 363 345.71 363 344.32V279.5C363 276.739 360.761 274.5 358 274.5H338.571C337.245 274.5 335.973 275.027 335.036 275.964Z" fill="#CCEAD9" stroke="black" stroke-linecap="round" stroke-linejoin="round"/>
<rect x="328" y="280" width="30" height="74" rx="5" fill="#66C08C" stroke="black" stroke-linecap="round" stroke-linejoin="round"/>
<path d="M354.5 280L359 275" stroke="black" stroke-linecap="round" stroke-linejoin="round"/>
<path d="M358 286L363 280" stroke="black" stroke-linecap="round" stroke-linejoin="round"/>
<path d="M278 253H243L226.5 236.5" stroke="black" stroke-linecap="round" stroke-linejoin="round"/>
<path d="M150 362.659L114.5 371.159V395.159L122.5 393.244L150 386.659V362.659Z" fill="#E0E0E0"/>
<path d="M186.682 349.159L188 350.159L188.957 372.659L211.5 359.159L211 338.159C203.667 341.826 188.536 349.159 186.682 349.159Z" fill="#E0E0E0"/>
<path d="M87.0004 272.006C85.299 271.223 83.6282 270.455 82.0004 269.707L81.8789 312.659C82.4194 313.826 84.3004 316.159 87.5004 316.159C90.4433 316.159 104.325 311.367 112.5 308.393C113.214 308.133 113.885 307.887 114.5 307.659C115.5 307 115.5 307.559 115.5 305.159V292.659V285.168C106.433 280.969 96.2636 276.269 87.0004 272.006Z" fill="#E0E0E0"/>
<path d="M212.5 256.159L135 280.659C135 280.659 131.5 281.659 129.501 280.659C127.21 279.514 81.0005 258.659 58.0004 248.659C57.4209 248.466 56.7071 248.094 56.6763 247.659V257.159C56.6763 257.717 56.6763 257.964 56.8191 258.159C56.9324 258.315 57.1357 258.438 57.5004 258.659C57.9823 258.78 62.5896 260.839 69.4309 263.954C69.7777 264.112 70.1303 264.273 70.4883 264.436C70.4922 264.438 70.4961 264.439 70.5 264.441C71.7684 265.019 73.1056 265.63 74.5008 266.268C76.8535 267.345 79.3708 268.499 82.0004 269.707C83.6282 270.455 85.299 271.223 87.0004 272.006C96.2636 276.269 106.433 280.969 115.5 285.168C120.644 287.55 125.432 289.771 129.5 291.659C132 292.159 133.456 291.426 135.5 290.659C139.451 289.177 139.499 289.16 144.805 287.203L145 287.132C146.823 286.553 148.839 285.923 151 285.256C152.129 284.907 153.299 284.548 154.501 284.18C154.68 284.125 154.859 284.07 155.04 284.015C162.655 281.688 171.533 279.034 180 276.514C181.176 276.164 182.345 275.817 183.5 275.473C199.135 270.824 212.5 266.871 212.5 266.659V256.159Z" fill="#E0E0E0"/>
<path d="M108.001 170.49L74.0008 192.326C74.4008 192.069 91.8339 188.441 100 186.659L112.3 177.659C110.508 175.395 109.094 172.935 108.001 170.49Z" fill="#E0E0E0"/>
<path d="M110.5 228.659L84.1401 236.521C87.757 235.795 89.2174 237.527 89.5004 238.659C90.0401 238.659 100.406 235.928 110.5 233.23V228.659Z" fill="#E0E0E0"/>
<path d="M29.5 273.867C34.6705 275.807 37.5708 279.663 38 285.168C38.2776 288.728 37.9142 293.049 35.5 293.963C37.3724 293.556 38.8065 293.228 40 292.953C42.3927 292.402 43.5 292.159 46.5 291.659C53 282.159 42.8333 270.024 38 269.707C36.9407 270.231 35.4441 270.97 34 271.68C31.812 272.756 31.6979 272.812 29.5 273.867Z" fill="#E0E0E0"/>
<path d="M133 325.659C117.159 326.028 112.826 320.205 112.5 316.548V328.659V331.159C112.5 333.993 116.7 339.859 133.5 340.659C150.3 341.459 154.501 333.659 154.501 329.659V327.159V316.159C154.501 319.159 150.201 325.259 133 325.659Z" fill="#E0E0E0"/>
<path d="M173.001 185.159L114 199.659L113.001 201.159V203.159L114.001 203.659C132.668 199.326 171.001 190.259 175.001 188.659V187.659L174.001 185.21L173.001 185.159Z" fill="#E0E0E0"/>
<path d="M135 147.659L106.116 137.699C107.12 138.369 108.709 147.235 114 149.159C118.4 150.759 129.834 148.826 135 147.659Z" fill="#E0E0E0"/>
<path d="M163.001 137.659C161.801 136.859 149.167 125.659 142.5 120.159C139.829 120.395 135.521 120.92 131 121.744C126.596 122.546 121.99 123.633 118.5 125.014C118.357 125.07 118.216 125.128 118.077 125.185C117.011 125.703 116.03 126.895 118.5 128.659C122 131.159 134 144.659 135.5 145.159C137 145.659 155.001 148.159 163.001 137.659Z" fill="#E0E0E0"/>
<path d="M105 153.659V159.659C116.5 165.159 144.4 172.659 164 158.659L163.5 153.159C154.617 158.588 131.234 166.659 106 154.165C105.667 154 105.334 153.831 105 153.659Z" fill="#E0E0E0"/>
<path d="M76.5004 77.6595C80.5004 62.0595 93.5004 62.4928 99.5004 64.6595C94.8339 55.9928 85.4008 38.5595 85.0008 38.1595L83.0008 36.1595C73.5008 34.6595 63.0004 44.1595 61.5004 47.1595C60.3004 49.5595 60.3338 50.8261 60.5004 51.1595L76.5004 77.6595Z" fill="#E0E0E0"/>
<path d="M74.0008 192.326L74.5008 231.159C68.6675 229.159 56.9008 225.159 56.5008 225.159C56.0008 225.159 54.5008 225.659 55.5008 226.659C56.3008 227.459 67.5005 230.993 73.0004 232.659C73.8007 233.06 91.3339 227.826 100 225.159V186.659C91.8339 188.441 74.4008 192.069 74.0008 192.326Z" fill="#E0E0E0"/>
<path d="M163 338.159C154.2 336.326 156 331.159 158 329.659L154.501 332.159L153.794 336.258L152 346.659C152.333 348.993 154.7 353.759 161.5 354.159C168.3 354.559 171 350.993 171.5 349.159L173.5 339.159L174 336.659C173.333 335.493 171.9 333.159 171.5 333.159C173.45 335.889 171.8 339.993 163 338.159Z" fill="#E0E0E0"/>
<path d="M153 363.659L152 387.659L189 373.659L188.957 372.659L188 350.159L153 363.659Z" fill="#E0E0E0"/>
<path d="M135 349.159C133.001 347.659 48 305.159 48 304.159V307.659L150 362.659L153 363.659C147.667 359.326 136.6 350.359 135 349.159Z" fill="#E0E0E0"/>
<path d="M152 387.659L153 363.659L150 362.659V386.659L152 387.659Z" fill="#E0E0E0"/>
<path d="M73.0004 232.659L72.0004 234.159V237.659L74.0008 238.659C76.0007 238.048 80.2004 237.192 81.0004 238.659C81.4626 239.507 81.7245 239.246 81.8633 238.659C81.9647 238.231 82.0004 237.629 82.0004 237.159L73.0004 232.659Z" fill="#E0E0E0"/>
<path d="M54.0004 299.159L72.0004 294.659C72.5452 294.432 73.2385 293.951 73.9589 293.159C74.5314 292.531 75.121 291.706 75.6669 290.659L55.1759 294.659C54.1395 297.064 52.2922 298.44 49 298.659L54.0004 299.159Z" fill="#E0E0E0"/>
<path d="M75.6669 290.659C76.1094 289.811 76.5232 288.816 76.8758 287.659L56.0012 291.717C55.8093 292.823 55.5436 293.806 55.1759 294.659L75.6669 290.659Z" fill="#E0E0E0"/>
<path d="M77.4823 285.168C77.6289 284.388 77.7489 283.552 77.8364 282.659C77.928 281.724 77.9839 280.725 77.9973 279.659L56.4945 283.659C56.481 285.682 56.4394 287.519 56.3098 289.159L77.4823 285.168Z" fill="#E0E0E0"/>
<path d="M77.9973 279.659C77.9993 279.494 78.0004 279.328 78.0004 279.159C78.0004 278.262 77.9818 277.431 77.9471 276.659L56.5008 280.659C56.5008 281.7 56.5008 282.701 56.4945 283.659L77.9973 279.659Z" fill="#E0E0E0"/>
<path fill-rule="evenodd" clip-rule="evenodd" d="M55.3738 273.817L55.3735 273.816C55.3588 273.774 55.344 273.732 55.329 273.69C55.3441 273.732 55.359 273.775 55.3738 273.817Z" fill="#E0E0E0"/>
<path d="M77.6351 273.159C76.9806 268.582 75.5991 267.224 74.7688 266.501C74.7327 266.47 74.6977 266.44 74.6639 266.411C74.606 266.361 74.5515 266.314 74.5008 266.268L54.2258 271.159C54.6444 271.961 55.0149 272.804 55.329 273.69C55.344 273.732 55.3588 273.774 55.3735 273.816L55.3738 273.817L55.3908 273.866L55.3911 273.867C55.7637 274.95 56.0522 276.094 56.2415 277.296L77.6351 273.159Z" fill="#E0E0E0"/>
<path d="M57.5004 258.659C57.1357 258.438 56.9324 258.315 56.8191 258.159L56.5008 258.253L54.0004 257.159C50.1493 258.504 42.9442 260.32 39.9613 261.052C40.4384 261.01 40.9506 261.042 41.5 261.159C46.1879 262.164 51.3246 265.635 54.2065 271.123C54.213 271.135 54.2194 271.147 54.2258 271.159L74.5008 266.268C73.1056 265.63 71.7684 265.019 70.5 264.441L70.4883 264.436L69.4309 263.954C67.7977 263.21 66.2919 262.527 64.9391 261.916C63.1827 261.122 61.6842 260.45 60.5 259.926C58.7757 259.163 57.7179 258.714 57.5004 258.659Z" fill="#E0E0E0"/>
<path d="M77.6351 273.159L56.2415 277.296C56.4108 278.371 56.5008 279.493 56.5008 280.659L77.9471 276.659C77.887 275.32 77.7785 274.163 77.6351 273.159Z" fill="#E0E0E0"/>
<path d="M76.8758 287.659C77.1074 286.9 77.3127 286.071 77.4823 285.168L56.3098 289.159C56.2377 290.074 56.1382 290.927 56.0012 291.717L76.8758 287.659Z" fill="#E0E0E0"/>
<path d="M105 159.659V153.659C105.334 153.831 105.667 154 106 154.165M105 159.659C116.5 165.159 144.4 172.659 164 158.659M105 159.659C105.314 162.64 106.238 166.546 108.001 170.49M105 159.659L53.5004 179.159C53.1671 179.348 52.5004 180.012 52.5004 181.159C52.5004 182.307 53.5004 232.637 54.0004 257.159M164 158.659L163.5 153.159M164 158.659C164 170.49 159.111 176.172 150.015 182.593M163.5 153.159C163.5 147.659 163.567 145.159 163.001 137.659M163.5 153.159C154.617 158.588 131.234 166.659 106 154.165M163.001 137.659C161.801 136.859 149.167 125.659 142.5 120.159C139.829 120.395 135.521 120.92 131 121.744M163.001 137.659C155.001 148.159 137 145.659 135.5 145.159C134 144.659 122 131.159 118.5 128.659C116.03 126.895 117.011 125.703 118.077 125.185M106 137.659V154.165M106 137.659C106.305 136.685 106.948 135.248 107.973 133.659M106 137.659C106.038 137.659 106.077 137.673 106.116 137.699M106 137.659L106.116 137.699M118.5 125.014C121.99 123.633 126.596 122.546 131 121.744M118.5 125.014C118.357 125.07 118.216 125.128 118.077 125.185M118.5 125.014C118.363 125.059 118.219 125.116 118.077 125.185M131 121.744L99.5004 64.6595M99.5004 64.6595C93.5004 62.4928 80.5004 62.0595 76.5004 77.6595M99.5004 64.6595C94.8339 55.9928 85.4008 38.5595 85.0008 38.1595M76.5004 77.6595C90 101.659 99.0004 121.159 107.973 133.659M76.5004 77.6595L60.5004 51.1595C60.3338 50.8261 60.3004 49.5595 61.5004 47.1595C63.0004 44.1595 73.5008 34.6595 83.0008 36.1595M107.973 133.659C109.753 130.902 112.685 127.69 117 125.659C117.344 125.498 117.704 125.34 118.077 125.185M83.0008 36.1595C84.0008 37.1595 84.5008 37.6595 85.0008 38.1595M83.0008 36.1595L85.0008 38.1595M114 199.659V194.159C114.208 194.056 116.861 193.367 121.001 192.326M114 199.659L173.001 185.159M114 199.659L113.001 201.159V203.159L114.001 203.659M173.001 185.159L170.501 180.159C164.883 181.526 157.54 183.317 150.015 185.159M173.001 185.159L174.001 185.21L175.001 187.659M127.001 190.828C124.782 191.379 122.758 191.884 121.001 192.326M127.001 190.828C125.641 190.646 123.039 189.983 121.692 188.659M127.001 190.828C133.597 189.188 141.912 187.144 150.015 185.159M121.001 192.326L119.501 190.828V186.659C119.668 186.159 120.201 185.659 121.001 187.659C121.148 188.028 121.388 188.361 121.692 188.659M121.692 188.659V185.21M121.692 185.21C125.133 186.818 129.205 187.752 134 187.659C140.557 187.533 145.828 185.549 150.015 182.593M121.692 185.21C117.794 183.389 114.707 180.701 112.3 177.659M150.015 185.159C149.599 184.615 149.017 183.34 150.015 182.593M114.001 203.659C132.668 199.326 171.001 190.259 175.001 188.659M114.001 203.659C116.801 205.659 125.001 206.326 128.751 206.409M175.001 188.659C175.001 188.159 175.001 188.159 175.001 187.659M175.001 188.659C174.602 189.192 173.875 189.874 172.908 190.659M175.001 188.659V187.659M151.501 206.159C147.168 204.159 136.501 201.959 128.501 209.159M151.501 206.159C152.001 208.159 152.001 208.659 152.001 211.159M151.501 206.159V204.409M128.501 209.159L128.751 206.409M128.501 209.159V211.159M128.501 214.159C132.334 211.326 142.401 206.759 152.001 211.159M128.501 214.159L129.501 216.159M128.501 214.159V211.159M152.001 211.159C152.001 212.659 152.001 212.659 152.001 214.159M129.501 216.159C132.834 213.326 145.001 210.159 152.001 214.159M129.501 216.159L130.001 218.659M152.001 214.159C152.001 215.159 151.906 215.159 152.001 216.159M130.001 218.659C132.168 216.159 139.601 212.159 152.001 216.159M130.001 218.659L130.215 220.159M152.001 216.159C153.477 231.659 152.001 216.659 153.5 233.159M132.501 236.159C135.334 233.326 143.701 228.959 154.501 234.159M132.501 236.159L132.358 235.159M132.501 236.159L133.501 240.494M154.501 234.159L154.001 240.659C154.001 241.659 154.001 241.659 154.001 242.159C147.201 239.359 138.501 241.326 135 242.659H134L133.501 240.494M154.501 234.159C154.431 233.627 153.564 233.628 153.5 233.159M135.001 241.659C138.168 239.993 146.201 237.459 153.001 240.659M151.501 204.409V202.659C142.701 196.259 129.001 203.659 129.001 203.659L128.751 206.409M151.501 204.409C157.198 201.144 168.062 194.6 172.908 190.659M155.001 203.159L157.501 207.659M157.501 207.659V208.659L160.001 212.659L161.5 212.36M157.501 207.659C157.763 207.502 158.04 207.335 158.332 207.159M172.908 190.659C174.5 192.659 174.501 192.659 176 194.659M176 194.659C176 195.159 175.698 194.99 175.5 195.159C172.847 197.434 163.6 203.98 158.332 207.159M176 194.659L179.001 199.159C178.781 199.933 179.001 200.284 178.501 200.659C178.379 200.751 178.211 200.875 178.001 201.029M163.001 211.802C162.829 211.925 162.662 212.045 162.501 212.159L161.5 212.36M163.001 211.802C167.449 208.624 175.546 202.828 178.001 201.029M163.001 211.802L163.567 212.659M178.001 201.029C178.301 201.434 178.638 201.89 179.001 202.379M163.567 212.659L170.501 223.159C170.834 223.326 171.701 223.559 172.501 223.159C173.301 222.759 181.501 216.993 185.501 214.159C185.834 213.588 186.401 212.317 186.001 211.802C185.649 211.35 181.657 205.966 179.001 202.379M163.567 212.659C165.878 211.973 172.201 208.955 179.001 202.379M157.001 204.409C162.001 201.659 172.501 195.559 174.501 193.159M130.001 205.659C130.001 205.659 140.027 200.059 150.015 203.659M136.001 242.659L136.501 245.159L137.501 245.659C140.168 244.159 146.601 241.959 151.001 245.159C151.501 244.659 151.501 244.659 152.001 244.159L151.813 241.659M138.501 245.659C140.677 246.493 146.027 247.559 150.015 245.159M122.501 206.159V208.659C123.001 209.659 124.901 211.559 128.501 211.159M121.692 208.659V213.659C122.602 215.159 125.337 217.959 129.001 217.159M124.001 216.159V218.659M124.001 218.659C124.811 219.493 127.187 220.959 130.215 220.159M124.001 218.659C123.899 221.623 123.771 226.404 123.78 229.659M130.215 220.159L132.358 235.159M124.001 233.159C124.501 233.159 128.215 236.159 132.358 235.159M124.001 233.159V238.659C125.334 240.049 129.101 242.362 133.501 240.494M124.001 233.159C123.846 233.159 123.786 231.713 123.78 229.659M108.001 170.49L74.0008 192.326M108.001 170.49C109.094 172.935 110.508 175.395 112.3 177.659M74.0008 192.326L74.5008 231.159C68.6675 229.159 56.9008 225.159 56.5008 225.159C56.0008 225.159 54.5008 225.659 55.5008 226.659C56.3008 227.459 67.5005 230.993 73.0004 232.659M74.0008 192.326C74.4008 192.069 91.8339 188.441 100 186.659M73.0004 232.659L72.0004 234.159V237.659L74.0008 238.659M73.0004 232.659L82.0004 237.159M73.0004 232.659C73.8007 233.06 91.3339 227.826 100 225.159M74.0008 238.659C76.0007 238.048 80.2004 237.192 81.0004 238.659C81.4626 239.507 81.7245 239.246 81.8633 238.659M74.0008 238.659C73.6008 239.859 74.1675 241.826 74.5008 242.659M82.0004 237.159C82.0004 237.629 81.9647 238.231 81.8633 238.659M82.0004 237.159C82.7855 236.858 83.4969 236.651 84.1401 236.521M82.0004 237.159L84.1401 236.521M100 186.659L112.3 177.659M100 186.659V225.159M100 225.159L110.5 228.659M110.5 228.659V233.23M110.5 228.659L84.1401 236.521M54.0004 257.159L56.5008 258.253M54.0004 257.159C50.1493 258.504 42.9442 260.32 39.9613 261.052M89.5004 238.659C90.0401 238.659 100.406 235.928 110.5 233.23M89.5004 238.659C85.5004 239.459 82.7423 238.993 81.8633 238.659M89.5004 238.659C89.2174 237.527 87.757 235.795 84.1401 236.521M123.78 229.659C120.172 230.635 115.368 231.929 110.5 233.23M153.5 233.159L212.5 256.159M212.5 256.159L135 280.659C135 280.659 131.5 281.659 129.501 280.659C127.21 279.514 81.0005 258.659 58.0004 248.659C57.4209 248.466 56.7071 248.094 56.6763 247.659M212.5 256.159C212.5 259.493 212.5 266.259 212.5 266.659M212.5 256.159V266.659M74.5008 242.659C70.0007 243.659 60.4004 245.859 58.0004 246.659C56.9911 246.996 56.6539 247.344 56.6763 247.659M74.5008 242.659L82.0004 243.659M56.6763 247.659V257.159M56.6763 257.159C56.6763 258.159 56.6763 258.159 57.5004 258.659M56.6763 257.159C56.6763 257.717 56.6763 257.964 56.8191 258.159M57.5004 258.659C57.1357 258.438 56.9324 258.315 56.8191 258.159M57.5004 258.659C57.8673 258.751 60.625 259.966 64.9391 261.916M57.5004 258.659C57.9823 258.78 62.5896 260.839 69.4309 263.954M57.5004 258.659C57.7179 258.714 58.7757 259.163 60.5 259.926M212.5 266.659C212.5 266.871 199.135 270.824 183.5 275.473M89.0004 244.659H89.7504M89.0004 244.659L89.1254 243.659M89.0004 244.659C90.1671 245.326 89.0004 246.659 89.0004 248.659C86.2004 250.259 83.1671 249.326 82.0004 248.659L81.8633 244.159M95.0004 251.659L90.5004 244.659H89.7504M95.0004 251.659L123.78 260.159C124.687 259.826 126.601 259.059 127.001 258.659C127.4 258.259 126.834 257.826 126.5 257.659L100 249.659M95.0004 251.659L100 249.659M100 249.659L95.0004 241.659M95.0004 241.659L89.5004 240.659L89.1254 243.659M95.0004 241.659C93.5004 242.659 90.3504 244.659 89.7504 244.659M82.0004 243.659L81.8633 238.659M82.0004 243.659C82.9308 243.993 85.6583 244.459 89.1254 243.659M154.501 284.18C162.234 281.813 171.332 279.094 180 276.514M154.501 284.18C150.999 285.251 147.776 286.251 145 287.132M154.501 284.18C154.907 284.056 157.711 283.981 161.5 283.442M154.501 284.18C153.299 284.548 152.129 284.907 151 285.256M154.501 284.18C154.68 284.125 154.859 284.07 155.04 284.015M180 276.514C181.176 276.164 182.345 275.817 183.5 275.473M180 276.514C174.66 280.878 167.03 282.655 161.5 283.442M180 276.514C171.533 279.034 162.655 281.688 155.04 284.015M183.5 275.473C182.728 278.984 177.117 284.974 161.5 286.786M145 287.132C151.453 287.49 156.909 287.318 161.5 286.786M145 287.132L144.805 287.203M145 287.132C146.823 286.553 148.839 285.923 151 285.256M145 287.132C144.935 287.156 144.87 287.18 144.805 287.203M82.0004 269.707C79.3708 268.499 76.8535 267.345 74.5008 266.268M82.0004 269.707C83.6282 270.455 85.299 271.223 87.0004 272.006M82.0004 269.707L81.8789 312.659M54.0004 299.159L72.0004 294.659M54.0004 299.159L49 298.659M54.0004 299.159V302.159M72.0004 294.659C74.0004 293.826 78.0004 289.559 78.0004 279.159M72.0004 294.659C72.5452 294.432 73.2385 293.951 73.9589 293.159M78.0004 279.159C78.0004 279.328 77.9993 279.494 77.9973 279.659M78.0004 279.159C78.0004 278.262 77.9818 277.431 77.9471 276.659M78.0004 279.159C78.0004 269.595 75.8858 267.474 74.7688 266.501M74.5008 266.268L54.2258 271.159M74.5008 266.268C73.1056 265.63 71.7684 265.019 70.5 264.441M74.5008 266.268C74.5515 266.314 74.606 266.361 74.6639 266.411C74.6977 266.44 74.7327 266.47 74.7688 266.501M74.5008 266.268C73.1014 265.628 71.7602 265.016 70.4883 264.436M87.0004 272.006L87.5004 312.659M87.0004 272.006C96.2636 276.269 106.433 280.969 115.5 285.168M81.8789 312.659L81.8633 318.159L54.0004 305.159V302.159M81.8789 312.659C82.4194 313.826 84.3004 316.159 87.5004 316.159C90.4433 316.159 104.325 311.367 112.5 308.393M115.5 305.159C115.5 307.559 115.5 307 114.5 307.659C113.885 307.887 113.214 308.133 112.5 308.393M115.5 305.159C115.5 303.592 115.5 297.957 115.5 292.659M115.5 305.159V292.659M115.5 285.168C120.644 287.55 125.432 289.771 129.5 291.659C132 292.159 133.456 291.426 135.5 290.659C139.451 289.177 139.499 289.16 144.805 287.203M115.5 285.168C115.5 287.132 115.5 289.848 115.5 292.659M115.5 285.168V292.659M84.0004 318.659L93.0004 323.659M89.7504 317.159L98.7504 322.159M95.5004 315.659L104.5 320.659M100.5 313.659L109.5 318.659M105.5 312.159L111.5 315.659M110 310.659L113.5 312.659M29.5 273.867C34.6705 275.807 37.5708 279.663 38 285.168C38.2776 288.728 37.9142 293.049 35.5 293.963M29.5 273.867C28.3577 274.782 27.1342 276.87 26.5 279.159C24.9318 284.82 26.4004 289.559 32.0004 293.159C33.4857 294.114 34.6286 294.293 35.5 293.963M29.5 273.867C31.6979 272.812 31.812 272.756 34 271.68M35.5 293.963C37.3724 293.556 38.8065 293.228 40 292.953M34 271.68C35.4441 270.97 36.9407 270.231 38 269.707C42.8333 270.024 53 282.159 46.5 291.659C43.5 292.159 42.3927 292.402 40 292.953M34 271.68C34.1349 268.436 35.2968 262.762 38.7061 261.356M56.5008 280.659C56.5008 291.659 56.5 298.159 49 298.659M56.5008 280.659L77.9471 276.659M56.5008 280.659C56.5008 281.7 56.5008 282.701 56.4945 283.659M56.5008 280.659C56.5008 278.187 56.0968 275.917 55.3908 273.866M56.5008 280.659C56.5008 279.493 56.4108 278.371 56.2415 277.296M49 298.659C43 299.059 40.5 295.022 40 292.953M49 298.659C52.2922 298.44 54.1395 297.064 55.1759 294.659M38.7061 261.356C38.8871 261.313 39.3295 261.207 39.9613 261.052M38.7061 261.356C39.0947 261.196 39.5125 261.091 39.9613 261.052M54.0004 302.159C52.0003 302.493 48 303.359 48 304.159M48 304.159C48 305.159 133.001 347.659 135 349.159C136.6 350.359 147.667 359.326 153 363.659M48 304.159V307.659M153 363.659L152 387.659M153 363.659L188 350.159M153 363.659L150 362.659M152 387.659L189 373.659L188.957 372.659M152 387.659L150 386.659M188 350.159L186.682 349.159M188 350.159L188.957 372.659M48 307.659L150 362.659M48 307.659L22.5 320.659M150 362.659L114.5 371.159M150 362.659V386.659M114.5 371.159L22.5 320.659M114.5 371.159V395.159M22.5 320.659L22 342.159L35.9623 350.159M114.5 395.159L111.07 393.194M114.5 395.159L122.5 393.244M150 386.659L122.5 393.244M111.07 393.194C111.047 394.516 112.4 396.959 118 396.159C123.6 395.359 123.333 393.883 122.5 393.244M111.07 393.194L40 352.473M35.9623 350.159V352.159C36.1415 352.368 37.2 352.724 40 352.473M35.9623 350.159L40 352.473M112.5 308.393L116.5 310.659M116.5 310.659C128 305.159 142.5 307.159 145 308.393C146.14 308.955 149.771 310.514 151.399 312.659M116.5 310.659C115.793 311.366 114.688 312.672 114.382 313.659M114.382 313.659C114.255 314.07 114.413 314.339 114.5 314.659C115 316.5 114.5 324.341 138 323C147.136 322.479 153.343 315.222 151.399 312.659M114.382 313.659L112.5 315.659M112.5 315.659V316.548M112.5 315.659C112.474 315.936 112.472 316.234 112.5 316.548M154.501 316.159C154.501 319.159 150.201 325.259 133 325.659C117.159 326.028 112.826 320.205 112.5 316.548M154.501 316.159C154.208 315.659 153.178 314.259 151.399 312.659M154.501 316.159V327.159M112.5 328.659V331.159C112.5 333.993 116.7 339.859 133.5 340.659C150.3 341.459 154.501 333.659 154.501 329.659V327.159M112.5 328.659C111.167 330.358 110.189 334.096 113.5 336.258C120 340.5 126.551 343.364 141 342.159C143.139 341.981 150.294 340.758 153.794 336.258M112.5 328.659V316.548M153.794 336.258L154.501 332.159M153.794 336.258L152 346.659M158 329.659C156 331.159 154.2 336.326 163 338.159C171.8 339.993 173.45 335.889 171.5 333.159M158 329.659C160 328.159 169 329.659 171.5 333.159M158 329.659L154.501 332.159M158 329.659L154.501 327.159M171.5 333.159C171.9 333.159 173.333 335.493 174 336.659L173.5 339.159M154.501 332.159L152 346.659M152 346.659C152.333 348.993 154.7 353.759 161.5 354.159C168.3 354.559 171 350.993 171.5 349.159L173.5 339.159M173.5 339.159L186.682 349.159M186.682 349.159C188.536 349.159 203.667 341.826 211 338.159M211 338.159L115.5 292.659M211 338.159L211.5 359.159L188.957 372.659M56.2415 277.296L77.6351 273.159M56.2415 277.296C56.0522 276.094 55.7637 274.95 55.3911 273.867M77.6351 273.159C76.9806 268.582 75.5991 267.224 74.7688 266.501M77.6351 273.159C77.7785 274.163 77.887 275.32 77.9471 276.659M56.4945 283.659L77.9973 279.659M56.4945 283.659C56.481 285.682 56.4394 287.519 56.3098 289.159M77.9973 279.659C77.9839 280.725 77.928 281.724 77.8364 282.659M55.3911 273.867L76.5 269.707M55.3911 273.867L55.3908 273.866M54.2258 271.159C54.6444 271.961 55.0149 272.804 55.329 273.69M54.2258 271.159C54.2194 271.147 54.213 271.135 54.2065 271.123M56.8191 286.659L77.8364 282.659M77.8364 282.659C77.7489 283.552 77.6289 284.388 77.4823 285.168M56.3098 289.159L77.4823 285.168M56.3098 289.159C56.2377 290.074 56.1382 290.927 56.0012 291.717M77.4823 285.168C77.3127 286.071 77.1074 286.9 76.8758 287.659M56.0012 291.717L76.8758 287.659M56.0012 291.717C55.8093 292.823 55.5436 293.806 55.1759 294.659M76.8758 287.659C76.5232 288.816 76.1094 289.811 75.6669 290.659M55.1759 294.659L75.6669 290.659M75.6669 290.659C75.121 291.706 74.5314 292.531 73.9589 293.159M53 268.659L70.5 264.441M70.5 264.441L70.4883 264.436M70.5 264.441C70.4961 264.439 70.4922 264.438 70.4883 264.436M50.5 266.153L64.9391 261.916M64.9391 261.916C66.2919 262.527 67.7977 263.21 69.4309 263.954M64.9391 261.916C63.1827 261.122 61.6842 260.45 60.5 259.926M47.386 263.659L60.5 259.926M44 261.916L56.5008 258.253M56.8191 258.159L56.5008 258.253M53.4678 297.159L73.9589 293.159M130.215 212.426V207.784M132.358 211.802V207.159M134.5 211.017V206.374M136.501 209.802V205.159M138.501 209.105V204.462M140.5 208.89V204.247M142.5 208.852V204.21M144.5 208.982V204.339M146.5 209.273V204.63M148.752 209.802V205.159M150.5 210.382V205.74M158.332 207.159L161.5 212.36M160.001 206.147L163.169 211.347M161.819 205.182L164.987 210.382M163.369 204.073L166.538 209.273M164.841 203.159L168 208.226M166.538 202.093L169.489 207.159M167.95 201.081L170.902 206.147M169.549 199.933L172.501 204.999M171.413 198.593L174.365 203.659M173.189 197.313L176.141 202.379M174.549 196.328L177.5 201.081M123 209.802C123 210.574 123 213.555 123 214.659M125 210.749C125 211.521 125 215.055 125 216.159M127.001 211.347C127.001 212.119 127.001 215.555 127.001 216.659M161.5 283.442V286.786M160 283.6V286.944M158.5 283.727V287.071M156.919 283.951V286.786M163 283.251V286.595M164.5 283.024V286.368M166 282.635V285.979M167.5 282.283V285.627M169 282.094V285.438M170.5 281.684V285.028M172 280.906V284.25M173.5 280.671V284.015M174.884 280.098V283.442M176.554 279.291V282.635M178.198 278.34V281.684M179.5 276.91V280.254M181.197 276.514V279.291M155.04 284.015V286.85M153 285.028V286.786M151 285.256V287.014M149 285.876V287.29M156 338.159C157.667 339.826 162.9 342.659 170.5 340.659M106.116 137.699L135 147.659C129.834 148.826 118.4 150.759 114 149.159C108.709 147.235 107.12 138.369 106.116 137.699ZM55.3738 273.817L55.3735 273.816C55.3588 273.774 55.344 273.732 55.329 273.69M55.3738 273.817C55.359 273.775 55.3441 273.732 55.329 273.69M55.3738 273.817L55.3908 273.866M55.3738 273.817C55.3795 273.834 55.3851 273.85 55.3908 273.866M55.329 273.69C55.0101 272.791 54.633 271.935 54.2065 271.123M39.9613 261.052C40.4384 261.01 40.9506 261.042 41.5 261.159C46.1879 262.164 51.3246 265.635 54.2065 271.123M69.4309 263.954L70.4883 264.436M69.4309 263.954C69.7777 264.112 70.1303 264.273 70.4883 264.436M133.501 249.659C132.001 249.659 128.9 249.859 128.5 250.659C128 251.659 128.476 253.659 133.501 253.659C137.501 253.659 139 253.159 140 252.159C140.5 250.659 139.101 249.659 133.501 249.659ZM125.5 251.659C125.667 252.993 128.285 255.159 133.5 255.159C138.001 255.159 140.212 254.803 141.5 254.159C143 253.409 146.787 249.659 138.501 248.659C131.872 247.859 128.072 248.993 127.001 249.659C126.388 249.993 125.23 250.859 125.5 251.659Z" stroke="black" stroke-linecap="round" stroke-linejoin="round"/>
</svg>
