<svg width="250" height="350" viewBox="0 0 250 350" fill="none" xmlns="http://www.w3.org/2000/svg">
<path d="M164.5 134.5C162.833 134.5 159 133.9 157 131.5C155 129.1 158.5 128.5 160.5 128.5C163.833 129.167 170.6 131.3 171 134.5C171.4 137.7 171.5 137.833 171.5 137.5C172.333 139.167 174.6 142.8 177 144C180 145.5 207.5 161 209 161.5C210.5 162 222.5 171 223.5 175.5C224.3 179.1 224.167 179.667 224 179.5C227.5 184 234.7 193.3 235.5 194.5C236.5 196 245.5 210.5 245 225.5C244.6 237.5 243.833 263.167 243.5 274.5C242.833 287.667 242.2 314.6 245 317C248.5 320 245 320.5 245 322.5C245 324.5 244 325.5 244.5 326C245 326.5 240 331 227 332.5C214 334 204.5 332 204 331C203.6 330.2 204.833 327 205.5 325.5C204.667 316.667 203.1 298.8 203.5 298C203.9 297.2 202.333 287.333 201.5 282.5C201.426 287.5 201.522 298.2 202.5 301C203.477 303.8 202.907 322.167 202.5 331V346.5L49.4998 345.5V318.5C48.3332 315.5 45.8998 309.5 45.4998 309.5C45.0922 309.5 42.0254 305.179 43.6168 300.06C42.5827 301.049 41.4997 301.887 41.4997 304.5C42.4997 306 39.9999 310.5 37.9999 311C37.9999 314 37.9999 315 36.4999 316C34.9999 317 39.9999 316.5 38.9999 317.5C38.1999 318.3 36.3334 319.167 35.5001 319.5C36.1666 319.667 37.2997 321.2 36.4999 326C35.5001 332 15.5001 332.5 9.50011 326C4.70011 320.8 4.83344 318.833 5.50011 318.5C4.66667 314.167 3.0998 305 3.4998 303C3.9998 300.5 1.50011 301 5.50011 293.5C9.50011 286 8.5 262 10 260C9.5 257 11.5 246.333 11.5 240.5C11.3333 229.833 12.7 205.2 19.5 192C26.3 178.8 37 171.833 41.5 170C41.6667 169.333 43.3 167.2 48.5 164C55 160 68 149.5 69 149.5C70 149.5 88 139 89 138C90 137 98.5 130 98 133C97.5 136 95.4704 135.445 95 142.5C94.5 150 100.5 167.5 107.5 176.5C114.446 185.431 122.5 190.5 123 191.5C123.4 192.3 125.167 194.833 126 196C130.5 193.333 140.3 187 143.5 183C147.5 178 160.5 161 163 149.5C165 140.3 164.833 135.667 164.5 134.5Z" fill="#E6E6E6"/>
<path d="M204.5 234C200.9 240.8 201 226.5 201.5 218.5C198.167 241.167 192.8 281.7 200 264.5C207.2 247.3 213.667 216.667 216 203.5C213.667 210.833 208.1 227.2 204.5 234Z" fill="#9E9E9E"/>
<path d="M188.5 299C185.7 303.4 182 284.5 180.5 274.5C178.5 280.5 184 323.5 190.5 334.5C197 345.5 201.5 336 202 337.5C202.5 339 201.5 326.5 202 324.5C202.5 322.5 203.5 306.5 202 299.5C200.8 293.9 201.167 285.5 201.5 282L200 268.5L198 280C196 284.5 191.3 294.6 188.5 299Z" fill="#9E9E9E"/>
<path d="M219.5 321.5C220.7 321.9 230 318.667 234.5 317C219 318.5 212 317 211 317C210 317 212.5 295.5 215 292.5C217 290.1 210 267 203.5 267C205.334 273.833 207.5 286.5 207.5 289.5V322.5C207.5 323.7 209.167 324.333 210 324.5C212.667 323.333 218.3 321.1 219.5 321.5Z" fill="#9E9E9E"/>
<path d="M217.5 327.5C213.5 328.3 208.167 327.167 206 326.5C206.334 327.333 207.8 329.2 211 330C215 331 223.5 329 226 328.5C228 328.1 230.834 324.667 232 323C228.834 324.167 221.5 326.7 217.5 327.5Z" fill="#9E9E9E"/>
<path d="M68.0002 299C74.4002 308.6 88.3335 288.667 94.5002 277.5C89.6669 292.167 77.6002 322.7 68.0002 327.5C58.4002 332.3 57.6669 294.167 58.5002 274.5C59.0002 278.667 61.6002 289.4 68.0002 299Z" fill="#9E9E9E"/>
<path d="M45.0001 261C44.6001 271.8 51.8333 259.667 56.5 252.5C52 294.5 45.6666 304.667 43.5 304L45.0001 295.5L41.0003 279.5C41.0003 274.5 41.5004 275.5 40.0004 262C37.0003 249 39.3336 217.333 42.5003 201.5C43.5002 216.833 45.4001 250.2 45.0001 261Z" fill="#9E9E9E"/>
<path d="M8 325C6.4 323.8 5.66667 318.167 5.5 315.5C5.5 316.3 17.1667 320.167 23 322C21.1667 320.167 17.7 316.5 18.5 316.5C19.3 316.5 34.5 318.5 36.5 320.5V326C36.5 327 32.5 329 26 330C19.5 331 10 326.5 8 325Z" fill="#9E9E9E"/>
<path d="M34.5 319C33.7 319 23.5 312 18.5 308.5C22.0709 310.881 30.6795 314.521 35.3312 315.922C35.3489 315.833 35.4026 315.695 35.5 315.5C36.3 313.9 26.8333 304.833 22 300.5C36 311 36.5 306 38 313C38.076 313.355 36.1982 315.565 35.5448 315.986C36.6523 316.312 37.5146 316.5 38 316.5C40 316.5 38.8333 318.167 38 319H34.5Z" fill="#9E9E9E"/>
<path d="M165.5 162.5C154.7 186.5 135.333 201.167 127 205.5C157 211.5 172.5 164.188 181 161C189.5 157.812 223.5 178 223 175C222.5 172 208.5 160 201.5 157.5C197.5 155.5 179.5 147.5 171 138C172 142.5 171 147 165.5 162.5Z" fill="#9E9E9E"/>
<path d="M236.5 196C244.9 207.2 245 224.667 244.5 232C244.5 227 238 213 231 205.5C224 198 213 223.5 213 221.5C213 219.5 215.971 203.2 217 202C220 198.5 222.167 186.5 224 179.5C224.333 180.333 228.1 184.8 236.5 196Z" fill="#9E9E9E"/>
<path d="M98.9998 50.4998C93.7998 56.4998 94.1664 57.9998 94.9998 57.9998C95.1665 58.9998 94.433 60.933 91.9999 58.4999C89.9999 56.4999 87.5001 56.4999 87 61.9999C86.2686 70.0444 88.5 76.9999 89.5 79.4999C90.3 81.4999 92.1667 83.3332 93 83.9999C93.6667 83.4999 93.5 86.9999 93.5 92.9999C92.5 103.5 98.5002 109.5 99.0002 110.5C99.5002 111.5 102.5 129.5 97.4999 134.5C92.4999 139.5 94.9999 144 95.4999 149.5C95.9999 155 103 163 109.5 168.5C116 174 126 175 138.5 172C148.5 169.6 157.667 160 161 155.5C163 148.833 165 137 164 134.5C161 133.5 158.5 132.5 157 131C155.8 129.8 157.833 114.833 159 107.5C159.833 105.167 161.6 100.3 162 99.4999C162.5 98.4999 162.5 88.9999 163 87.4999C164.5 87.9999 165.5 88.9999 169.5 83.9999C174.5 76.9999 173.5 66.4999 172.5 62.4999C171.5 58.4999 168 60.4999 167.5 60.9999C167.1 61.3999 163.667 62.8332 162 63.4999C161.833 62.6665 161.4 60.8999 161 60.4999C160.5 59.9999 159 56.9999 157.5 52.9999C156 48.9999 162 35.9999 149.5 30.4998C134 24.4999 122 25.9998 112 28.4998C102 30.9998 99.9999 38.9998 99.9999 39.4998C99.9999 39.9998 99.9999 44.9999 98.9998 50.4998Z" fill="#8D5524"/>
<path d="M199.5 346.5C200.3 345.7 203.167 336.5 204.5 332C214 334 230.5 333 241.5 329.5C240.7 333.9 233.833 343.667 230.5 348C219.833 347.833 198.7 347.3 199.5 346.5Z" fill="#8D5524"/>
<path d="M11.5 346C9.5 344.8 7 330.167 6 323C10 329.4 20 330.333 24.5 330C25.8333 335.167 28.2 345.5 27 345.5C25.5 345.5 15.5 346 11.5 346Z" fill="#8D5524"/>
<path d="M141 62.5001C136.5 63.5001 133.667 66.1667 132.5 68.0001C132.5 68.8001 136.5 68.6667 138.5 68.5001C140.667 67.8334 144 66.5001 145.5 66.5001C146.207 66.5001 152 68.5001 152 69.5001C152 71.0001 149.5 72.0001 146 73.0001C142.5 73.0001 137.5 72.0001 135 71.0001C135.667 71.6667 136.9 73.3001 136.5 74.5001C136 76.0001 145.5 76.5001 143 78.0001C141 79.2001 135.833 77.5001 133.5 76.5001C134 78.5001 132.6 77.9001 141 83.5001C149.4 89.1001 156.5 87.8334 159 86.5001L163.5 79.0001C162.667 78.0001 161 75.7001 161 74.5001C161 73.3001 162 71.6667 162.5 71.0001L161 64.0001C160.333 63.5001 160 62.5001 159 61.0001C159 59.5001 157 55.5001 156 54.0001C155 52.5001 156.5 43.5001 155.5 38.5001C154.5 33.5001 146 30.5001 147 31.5001C148 32.5001 147.5 48.5001 147 52.0001C146.6 54.8001 148.5 57.8334 149.5 59.0001L154.5 61.0001H150.5C148 61.0001 145.5 61.5001 141 62.5001Z" fill="#774417"/>
<path d="M172 70.5001C171.5 72.0001 169.5 73.5001 168.5 74.5001C169 78.0001 166.333 79.6668 165 80.5001C165.5 79.8334 166.1 78.4001 164.5 78.0001C162.9 77.6 164.167 76.8334 165 76.5001C164.833 75.8334 164.4 74.4001 164 74.0001C163.5 73.5002 163 69.0001 167.5 64.5001C172 60.0001 172.5 69.0001 172 70.5001Z" fill="#774417"/>
<path d="M152 94.5001C152.8 93.7001 156.167 92.0001 157.5 91.0001C157.5 91.0001 159.375 90.25 160 91.0001C162.5 94.0001 159.8 100.7 159 103.5C158 107 150 115 146 118C142.312 120.766 141.24 124.134 139 126L138.884 126.097C135.973 128.524 134.903 129.416 127.5 129.5C125.264 129.526 125.5 128.5 125.5 127C125.5 125.5 125.5 123.5 128 123.5C130 123.5 132 127 134 126.5C135.5 125 136.5 121.5 136.5 118.5C136.5 115.5 130 114.5 126.5 115C123 115.5 118 111 120.5 111.5C123 112 127.5 111.5 128 111C128.5 110.5 135 115 136.5 109.5C137.7 105.1 142 102.667 144 102H148.5C149.5 100 151.2 95.3001 152 94.5001Z" fill="#774417"/>
<path d="M116 91.0001C114.8 90.2001 116.5 89.0001 117.5 88.5001L120.5 89.5001C120.667 90.0001 122 91.0001 123.5 92.0001C125.292 93.195 128.333 92.3334 129.5 92.0001L133 89.0001C133.167 88.3334 132.9 87.5001 130.5 89.5001C127.5 92.0001 126.5 91.0001 124.5 90.5001C121.501 89.7505 121.056 87.6527 121.042 86.4982C120.958 86.349 120.939 86.1831 121 86.0001C121.192 85.4228 121.033 85.7759 121.042 86.4982C121.506 87.3277 123.946 87.6414 125.5 87.5001L126.5 84.5001V69.5001C126.833 69.3334 127.9 69.1001 129.5 69.5001C131.1 69.9001 131.5 75.3334 131.5 78.0001C131.333 79.8334 131.1 83.7001 131.5 84.5001C132 85.5002 134 83.5001 135 83.5001C136 83.5 136.5 84.5001 138 86.0001C139.5 87.5001 140.5 89.5001 141 91.0001C141.5 92.4997 140.001 93.9992 138.501 95.4988L138.5 95.5001C137 97.0001 135 94.0001 132.5 93.5001C130 93.0001 129.5 94.0001 128.5 94.0001C127.5 94.0001 129.5 94.5001 128 97.0001C126.8 99.0001 125.5 97.8334 125 97.0001C125.167 96.0001 125.4 94.0001 125 94.0001C124.5 94.0001 121.5 93.5001 119.5 94.0001C117.5 94.5001 117.5 92.0001 116 91.0001Z" fill="#774417"/>
<path d="M112.5 65.5001C112.005 64.8409 110.924 63.5298 110.514 63.5006C110.478 63.5001 110.472 63.5001 110.5 63.5001C110.504 63.5001 110.509 63.5003 110.514 63.5006C111.124 63.5091 120.582 63.6646 122 66.5001C123.5 69.5001 120.5 78.0001 119.5 78.0001C118.5 78.0001 117.5 76.0001 118 75.5001C118.5 75.0001 107.5 79 105 76.5001C102.5 74.0001 111.5 75.0001 112 74.5001C112.5 74.0001 109.5 73.5 110.5 73.0001C111.3 72.6001 112.167 67.8334 112.5 65.5001Z" fill="#774417"/>
<path d="M109 56.5001C108.6 56.1001 104.833 58.3334 103 59.5001C94.9996 63.0002 96.4998 61.0001 95.9998 58.5C95.5998 56.5 99.1665 52.3333 101 50.5C101.167 48.1667 101.6 42.5001 102 38.5001C102.5 33.5001 112 29.5001 109 31.5001C106 33.5 109.5 57.0001 109 56.5001Z" fill="#774417"/>
<path d="M98.0001 95C96.8001 93 97.8334 91.5001 98.5001 91.0001C99.1302 90.2001 101.096 91.3334 102 92.0001C102.333 94.1667 103 98.9 103 100.5C103 102.5 105 108 104.5 109C104 110 103.5 109 102 109.5C100.5 110 99.5001 97.5 98.0001 95Z" fill="#774417"/>
<path d="M115.5 135.5C113.1 134.3 104 123.5 102 115C104 116 107.667 118.833 109 121C110.833 123 114.2 127.2 115 128C116 129 124.964 131 128.5 131C132 131 139.7 127.6 140.5 127C142.5 125.5 145 121.5 145.5 120.5C146 119.5 154 112.5 155 111.5C156 110.5 159 105.716 159 108C159 110.5 157.833 121.241 156.5 127C156.667 126 156.4 123.7 154 122.5C151 121 148.5 140 146 142.5C143.5 145 156.5 151.5 153 150.5C149.796 149.585 139.051 154.954 138.023 155.485C138.015 155.491 138.007 155.496 138 155.5C137.915 155.542 137.928 155.535 138.023 155.485C138.977 154.728 142.399 135.43 142.931 133.181C142.144 134.319 134.918 137 133.5 137C132 137 126.5 135.5 124.5 137C122.5 138.5 118.5 137 115.5 135.5Z" fill="#774417"/>
<path d="M91.5001 63.5001C88.7001 58.7001 88.6667 63.1667 89.0001 66.0001C88.0003 68.5 89.0001 72.5 89.9999 74C90.9997 75.5 90.4999 73.0001 90.4999 72.5V71.0001C90.8333 70.0001 91.5001 67.9 91.5001 67.5C91.5001 66.9999 93.8333 67.5 91.5001 63.5001Z" fill="#774417"/>
<path d="M131.5 141.5C132 139.5 128 137 127.5 137C127.833 137.667 128.5 139.2 128.5 140C128.5 141 127.5 142.5 126.5 142.5C125.5 142.5 126.5 145 128 145.5C129.5 146 131 143.5 131.5 141.5Z" fill="#774417"/>
<path d="M118 155.5C110.501 148.5 101 147 100 147.5C100.5 149.5 115 156.5 115.5 156.5C116.001 156.5 120 158.5 118 155.5Z" fill="#774417"/>
<path d="M146 154C138.418 157.5 138 159.5 137.5 159.5C141.5 159.5 149 155 149.5 154.5C150 154 154 152 154 151.5C154 151 153.581 150.5 146 154Z" fill="#774417"/>
<path d="M100.031 129.574C100.02 129.549 100.01 129.525 100 129.5C100.012 129.524 100.022 129.549 100.031 129.574C100.869 131.605 102.29 135.815 101.5 137C100.5 138.5 98.5 141.5 98 141.5C97.5 141.5 97 150 101.5 156.5C106 163 109.5 167.5 109 167.5C108.5 167.5 97.5 157.5 96.5 153C95.5 148.5 93.5 140 96.5 135.5C98.0315 133.203 100.385 130.626 100.031 129.574Z" fill="#774417"/>
<path d="M26.5 345.5C26.1 345.1 24.3333 335.333 23.5 330.5C28.5 330.5 36 326.5 36 327C36 327.4 37.3333 339.5 38 345.5C34.3333 345.667 26.9 345.9 26.5 345.5Z" fill="#774417"/>
<path d="M218.5 346.5C220.9 345.3 224.5 337 226 333C230.5 332 231 332 239.5 330.5C238.7 333.7 232.5 343.167 229.5 347.5C224.833 347.667 216.1 347.7 218.5 346.5Z" fill="#774417"/>
<path d="M145 66.4998C140 65.9998 137 70.4998 136.5 70.4998C137 70.4998 140.5 72.9999 145 72.9999C148.6 72.9999 151.167 70.6665 152 69.4999C151.333 68.6665 149 66.8998 145 66.4998Z" fill="white"/>
<path d="M113 65.4999C115 65.4999 118.833 68.8332 120.5 70.4998C119 71.3332 115.2 72.8999 112 72.4999C108.8 72.0999 105.667 69.3332 104.5 67.9999C106.5 67.1665 111 65.4999 113 65.4999Z" fill="white"/>
<path d="M126 99.4999C122 97.9999 114.833 99.4999 110 101C112 102 119 104 119 104C119 104 121.833 104.833 123.5 104.5C124 105 128.5 105.5 128.5 105.5C128.5 105.5 132.127 104.5 133 104.5C138 104.5 144 101.5 144 101.5C144 101.5 134 99.9999 131.5 98.9999C129 97.9999 127.93 100.224 126 99.4999Z" fill="#774417"/>
<path d="M110 67.4999C110 65.9999 112 65 113 65.9999C115 65.9999 115.484 67.3333 116 67.9999C115.834 68.9999 115 70.9999 113 70.9999C110.5 70.9999 110 69.5615 110 67.4999Z" fill="#E0AC69"/>
<path d="M148 67C147.6 65.4 143.833 66.3333 142 67C141.667 67.8333 141.2 69.7999 142 70.9999C143 72.4999 145.5 71.9999 146.5 71.9999C147.5 71.9999 148.5 69 148 67Z" fill="#E0AC69"/>
<path d="M156.5 62.4999C156.263 62.3224 155.982 62.131 155.662 61.9313C153.732 60.9999 150.206 60.9999 148.5 60.9999C146.439 60.9999 140.5 62.9999 138.5 63.4999C136.5 63.9999 132.596 62.9038 134.5 60.9999C137 58.4999 141.5 58.4999 144.5 58.4999H144.5C148.747 58.4999 153.279 60.4433 155.662 61.9313C155.995 62.0916 156.28 62.2796 156.5 62.4999Z" fill="#30271F"/>
<path d="M112 57.4999C106.123 56.5956 102.333 58.9999 101 60.9999L114 62.4999L122.5 63.9999C122.667 63.8332 122.9 63.2999 122.5 62.4999C122 61.4999 118.5 58.5 112 57.4999Z" fill="#30271F"/>
<path d="M165.5 60.9999C165.1 60.5998 163 62.1666 162 62.9999C160.667 60.1666 157.9 54.4999 157.5 54.4999C157 54.4999 158.5 49.4999 157.5 39.9999C156.5 30.4999 148.5 30.4999 144.5 28.4999C140.5 26.4999 126.5 24.9999 115 27.4999C103.5 29.9999 101 36.9999 100 38.9999C99 40.9999 102.5 47.4999 98 52.4999C94.4 56.4999 94.5 57.8332 95 57.9999L93.5 57.4999C93.1667 55.6666 92.5 51.8999 92.5 51.4999C92.5 50.9999 93 46 93.5 45C94 44 94 34 95.5 27.4999C96 21.9999 102.5 17.9999 103 17.4999C103.5 16.9999 112.5 12 113 12C113.5 12 120 4.99994 135 7.49994C150 9.99994 158.5 21.4999 160.5 23.4999C167 28.4999 168 41.4999 168.5 42.9999C169 44.4999 167 54.9999 167 57.4999C167 59.9999 166 61.4999 165.5 60.9999Z" fill="#30271F"/>
<path fill-rule="evenodd" clip-rule="evenodd" d="M94 58C93.2 57.6 93 59.1667 93 60L96 64.5C95.8333 65.3333 95.6 67.5 96 69.5C96.5 72 99 77.5 102 79C105 80.5 116 80.5 119 79C121.4 77.8 122.333 74.8333 122.5 73.5C122.667 71.8333 123.896 67.7239 127 68.5C130.373 69.3433 130.546 70.542 131.117 74.4948L131.117 74.4951C131.223 75.2298 131.343 76.0596 131.5 77C132.333 82 139.5 83 145 83.5C150.5 84 154 83.5 157 79.5C159.4 76.3 160 71.5 160 69.5L163.5 66C164.167 65.1667 165.6 63.4 166 63C166.4 62.6 165.5 61.5 165 61C164.175 62.0994 163.2 62.7456 162.156 63.4368C161.301 64.003 160.401 64.5994 159.5 65.5C153.998 63.2074 139.666 63.8581 136.94 63.9819C136.693 63.9931 136.541 64 136.5 64C136.25 64 133 64.125 129.75 64.25C126.5 64.375 123.25 64.5 123 64.5C122.5 64.5 113.5 62.5 112.5 62C111.7 61.6 105.167 61.5 102 61.5C100.5 61.3333 97.4 61 97 61C96.7605 61 96.2914 60.4263 95.7578 59.7735C95.1776 59.0637 94.5209 58.2605 94 58ZM156.409 67.8007C150.651 63.9619 137.652 63.6267 132.327 67.5418C131.011 70.2832 131.895 76.1062 134.025 78.5398C136.248 81.081 139.629 81.246 143.428 81.4313C144.001 81.4593 144.584 81.4878 145.174 81.5249C145.782 81.5632 146.399 81.6235 147.01 81.683C149.387 81.9149 151.655 82.1361 152.784 81.007C155.457 78.3339 158.919 71.566 156.409 67.8007ZM122.54 68.6089C122.076 71.1643 121.586 73.866 120.257 76.1158C118.995 78.2518 115.277 79 113 79C109.831 79 105.51 78.5643 102.418 77.7055C99.2496 76.8253 97.2781 65.8143 99.9996 64C104.211 63.242 123.64 62.5569 122.587 68.3474C122.572 68.4344 122.556 68.5216 122.54 68.6089Z" fill="black"/>
<path d="M113.5 183C107.5 178.6 100.5 163 98 155.5C107 170.5 116 173.5 126 174.5C138 172 155.315 167.5 160.5 156.5C157 171.5 134 192.5 126 196C123.5 190 121 188.5 113.5 183Z" fill="white"/>
<path d="M158 132.5C158.5 132.5 163 131 163.5 134C162 133.5 160.5 133.5 158 132.5Z" fill="white"/>
<path d="M135.708 70.8015C137.469 69.9211 138.538 68.4483 140.296 67.5694C142.571 66.4318 145.894 66.216 148.324 66.9554C149.815 67.4093 151.415 68.7725 152.598 69.7588" stroke="black" stroke-linecap="round" stroke-linejoin="round"/>
<path d="M142.193 67.0428C141.813 68.0879 141.538 69.6302 142.035 70.6827C142.187 71.0051 142.221 71.1952 142.549 71.3949C142.793 71.5431 143.067 71.6457 143.301 71.8081C143.712 72.0932 144.599 72.1971 145.103 72.1862C146.461 72.1566 147.586 71.0719 148.049 69.8739C148.451 68.8329 148.434 67.443 147.574 66.7263" stroke="black" stroke-linecap="round" stroke-linejoin="round"/>
<path d="M144.883 69.1002C144.281 69.7623 145.445 69.1818 144.725 68.9419" stroke="black" stroke-linecap="round" stroke-linejoin="round"/>
<path d="M104.619 67.9303C107.218 66.6306 109.689 64.8849 112.776 65.571C115.845 66.2529 117.779 68.7193 120.285 70.3903" stroke="black" stroke-linecap="round" stroke-linejoin="round"/>
<path d="M111.222 65.5997C110.353 66.4958 110.049 67.6202 110.345 68.8366C110.645 70.0724 111.501 70.7612 112.647 71.0088C113.824 71.2633 114.958 70.8933 115.653 69.8436C116.164 69.0723 116.266 68.3862 116 67.5" stroke="black" stroke-linecap="round" stroke-linejoin="round"/>
<path d="M113.294 67.9303C112.628 68.8993 113.996 68.1519 113.294 67.8008" stroke="black" stroke-linecap="round" stroke-linejoin="round"/>
<path d="M99.5 61C105.079 61.8926 110.464 61.6287 116.142 62.593C118.685 63.0247 119.99 63.7911 122.5 64.3337C125.769 65.0404 129.165 64.4238 132.5 64.3337C134.827 64.2708 140.109 63.3901 145 63.5C150.92 63.633 154.28 64.0733 160.034 65.4702" stroke="black" stroke-linecap="round" stroke-linejoin="round"/>
<path d="M96.2038 62.2334C95.9875 63.8016 96.1773 65.488 95.7506 67.0239C95.3902 68.3216 98.6143 76.6719 99.6996 77.54C103.34 80.4525 110.476 80.2222 114.848 80.1007C116.689 80.0496 119.315 79.3741 120.667 78.022C122.807 75.8818 122.385 70.9601 124.429 69.3832C125.839 68.2952 128.85 68.3753 129.932 69.8723C131.939 72.6513 130.802 77.5257 133.118 79.8418C134.406 81.1293 137.218 82.6291 139.052 82.8125C142.693 83.1766 146.249 83.8346 149.928 83.5893C158.274 83.5893 159.905 71.9629 159.905 65.5997" stroke="black" stroke-linecap="round" stroke-linejoin="round"/>
<path d="M156.409 67.8007C150.651 63.9619 137.652 63.6267 132.327 67.5418C131.011 70.2832 131.895 76.1062 134.025 78.5398C136.584 81.4645 140.675 81.2416 145.174 81.5249C148.147 81.7121 151.365 82.4262 152.784 81.007C155.457 78.3339 158.919 71.566 156.409 67.8007Z" stroke="black" stroke-linecap="round" stroke-linejoin="round"/>
<path d="M120.257 76.1158C121.632 73.7891 122.109 70.9791 122.587 68.3474C123.64 62.5569 104.211 63.242 99.9996 64C97.2781 65.8143 99.2496 76.8253 102.418 77.7055C105.51 78.5643 109.831 79 113 79C115.277 79 118.995 78.2518 120.257 76.1158Z" stroke="black" stroke-linecap="round" stroke-linejoin="round"/>
<path d="M95.8151 65.3408C95.4177 64.5613 94.9866 63.7962 94.5491 63.039C94.2026 62.4393 94.0463 61.7534 93.614 61.1976C93.3543 60.8637 92.8516 59.9328 92.8516 59.5217C92.8516 58.9875 93.2881 58.2201 93.4558 57.7018C93.6899 56.9783 95.8796 59.5114 96.1388 59.9101C96.8953 61.074 98.1453 61.2532 99.4403 61.0682" stroke="black" stroke-linecap="round" stroke-linejoin="round"/>
<path d="M159.904 65.3407C161.526 64.1005 162.91 62.5514 164.565 61.3558C165.656 60.5684 165.587 62.1935 165.587 63.0102C165.587 64.4608 160.709 68.2929 159.904 69.5" stroke="black" stroke-linecap="round" stroke-linejoin="round"/>
<path d="M142.915 62.2046C140.768 62.634 138.973 63.9165 136.722 63.9165C133.754 63.9165 133.758 60.5736 136.341 59.6439C139.607 58.2359 143.38 57.8431 146.886 58.4498C150.272 59.0359 154.035 59.9884 156.539 62.4923C154.585 61.5154 151.948 60.8091 149.741 60.8091C147.443 60.8091 145.155 61.7566 142.915 62.2046Z" stroke="black" stroke-linecap="round" stroke-linejoin="round"/>
<path d="M100.605 60.6798C102.495 59.591 104.924 57.509 107.05 57.0257C111.22 56.0782 119.679 58.9701 122.35 61.9745C122.983 62.6871 123.552 64 122.35 64" stroke="black" stroke-linecap="round" stroke-linejoin="round"/>
<path d="M103 61.1975C105.263 61.1523 108.775 61.6821 111 62" stroke="black" stroke-linecap="round" stroke-linejoin="round"/>
<path d="M117.437 89.5523C117.285 88.6005 117.167 86.5965 118.732 87.5527C121.303 89.1241 122.903 92.5 126.5 92.5C130 92.5 132.171 89.5553 134.269 88.1569C134.657 87.8978 135.579 88.0289 135.168 88.646C134.821 89.1661 134.484 89.4302 133.88 89.5811C133.618 89.6466 132.482 89.9364 133.103 89.4876C133.638 89.1014 134.214 88.8439 134.787 88.5166" stroke="black" stroke-linecap="round" stroke-linejoin="round"/>
<path d="M117.437 89.4229C118.1 89.6484 118.926 90.0702 119.638 90.0702C120.212 90.0702 120.776 90.0179 121.321 90.1997" stroke="black" stroke-linecap="round" stroke-linejoin="round"/>
<path d="M118.214 87.9986C119.07 88.2897 119.779 88.7538 120.545 89.2214C120.954 89.4715 117.501 89.1881 117.459 88.8906C117.41 88.5516 118.38 87.3918 118.214 88.387" stroke="black" stroke-linecap="round" stroke-linejoin="round"/>
<path d="M122.228 77.8997C122.405 79.3919 122.006 80.7389 120.933 81.7839C119.762 82.9239 117.883 83.4131 116.66 85.1502C115.803 86.3682 114.846 87.3422 115.135 88.646C115.397 89.8215 116.498 90.8471 117.696 90.8471" stroke="black" stroke-linecap="round" stroke-linejoin="round"/>
<path d="M132.456 91.4944C133.937 91.524 136.203 92.2015 137.347 90.7175C138.577 89.1237 138.285 86.7074 137.247 85.1501" stroke="black" stroke-linecap="round" stroke-linejoin="round"/>
<path d="M109.487 100.737C113.545 100.737 117.687 98.5291 122.086 98.5291C123.647 98.5291 125.059 99.0773 126.502 99.5682C127.832 99.1161 129.091 98.4102 130.529 98.76C134.869 99.8156 139.506 101.646 144.037 101.646" stroke="black" stroke-linecap="round" stroke-linejoin="round"/>
<path d="M109.487 100.867C111.107 101.153 112.579 102.024 114.033 102.75C116.688 104.078 119.871 103.853 122.735 104.374C124.093 104.621 125.351 105.413 126.769 105.413C128.205 105.413 129.304 105.168 130.658 104.792C131.967 104.429 133.219 104.374 134.583 104.374C137.563 104.374 140.771 103.433 143.257 101.776" stroke="black" stroke-linecap="round" stroke-linejoin="round"/>
<path d="M117.28 109.569C119.423 112.657 124.434 110.998 127.534 110.998C130.771 110.998 134.406 113.369 136.503 109.699" stroke="black" stroke-linecap="round" stroke-linejoin="round"/>
<path d="M157.132 90.7704C156.368 92.0046 155.683 92.4336 154.384 92.9013C153.349 93.2738 152.524 94.0374 152.044 94.9974C150.914 97.2574 149.495 99.394 148.521 101.729" stroke="black" stroke-linecap="round" stroke-linejoin="round"/>
<path d="M171.481 70.4245C171.822 68.0954 172.446 65.6512 170.999 63.5718C168.857 60.4918 162.631 70.7703 164.173 74.1966C164.812 75.6169 165.421 77.098 163.919 78.2663C162.507 79.3646 162.538 80.9068 162.501 82.5897C162.373 88.4666 163.352 96.623 161.241 102.212C158.606 109.187 151.085 114.893 146 119.978C143.2 122.778 142.149 126.403 138.5 128C130.5 131.5 125 131 116.5 128.5C111.907 127.149 111.164 122.875 107.688 119.978C101.792 115.065 96.2161 107.978 94.4109 100.356C92.9668 94.259 93.9733 86.7116 93.9733 80.428C93.9733 78.8836 93.9965 77.4396 93.5795 75.9383C93.1565 74.4156 91.8229 73.2563 93.6232 72.1924C95.5273 71.0673 94.1914 64.0564 93.6582 62.3903" stroke="black" stroke-linecap="round" stroke-linejoin="round"/>
<path d="M92.3982 59.0819C91.6755 58.099 90.2831 56.036 88.7749 57.209C87.7577 58.0001 87.2203 60.3203 87.042 61.5237C86.2146 67.1089 87.2638 73.7098 89.1688 79.0014C89.6016 80.2036 90.7098 81.2257 91.2955 82.3971C91.6185 83.0432 91.734 83.6366 92.3982 84.0425C93.2581 84.568 93.6365 83.9925 93.816 83.1848" stroke="black" stroke-linecap="round" stroke-linejoin="round"/>
<path d="M88.7747 65.541C88.5004 64.5294 88.2251 61.7601 89.8775 61.7601C91.3696 61.7601 91.9338 63.7519 92.3105 64.9896C92.8387 66.7251 91.6584 67.583 90.7439 68.8492C89.791 70.1686 90.0197 71.3238 90.5076 72.7876" stroke="black" stroke-linecap="round" stroke-linejoin="round"/>
<path d="M165.494 63.0204C166.492 61.7158 167.773 60.4311 169.433 60.0622C174.455 58.946 173.352 70.3984 173.056 72.5425C172.661 75.4083 168.381 91.6298 162.974 87.1232" stroke="black" stroke-linecap="round" stroke-linejoin="round"/>
<path d="M166.755 70.582C166.802 72.9386 170.093 75.6949 168.173 78.1087C167.47 78.9917 166.423 79.573 165.495 80.1917" stroke="black" stroke-linecap="round" stroke-linejoin="round"/>
<path d="M94.8979 57.6297C94.9778 53.5583 98.7459 52.7174 99.4396 49.4226C100.416 44.7824 98.7783 38.2405 102.3 34.6177C109.282 27.4367 118.194 26.0887 127.744 26.0887C136.667 26.0887 154.695 28.7005 157.14 38.4798C158.209 42.7562 157.658 47.6122 157.658 51.9974C157.658 55.833 161.059 59.2092 161.681 62.9402" stroke="black" stroke-linecap="round" stroke-linejoin="round"/>
<path d="M93.4494 57.1469C93.113 54.7079 92.289 51.9088 92.8415 49.4226C95.2307 38.671 91.7965 23.9997 103.427 17.3988C112.108 12.4715 118.656 6.56542 129.666 7.01926C137.805 7.35475 144.742 10.9904 149.29 14.091C157.607 19.7617 165.5 26.0427 167.313 36.4683C168.335 42.3442 168.176 49.1546 166.911 54.9745C166.473 56.9905 167.173 60.6734 165.221 61.9746" stroke="black" stroke-linecap="round" stroke-linejoin="round"/>
<path d="M126.625 142.389C129.275 141.806 128.978 139.019 127.42 137.462" stroke="black" stroke-linecap="round" stroke-linejoin="round"/>
<path d="M99.2854 110.757C100.152 116.392 101.108 129.527 97.9995 134.5" stroke="black" stroke-linecap="round" stroke-linejoin="round"/>
<path d="M98.5 132.5C97.5921 133.687 96.348 134.903 95.8677 136.237C94.2542 140.719 94.4412 147.14 96.1999 151.662C100.087 161.656 104.289 173.156 111.364 181.461C115.073 185.815 126.331 192.227 126.331 197.406C126.331 199.989 126.492 207.738 126.492 205.154" stroke="black" stroke-linecap="round" stroke-linejoin="round"/>
<path d="M89.5001 138C88.8146 141.599 87.7708 145.206 88.4331 148.914C92.6932 172.771 106.089 192.468 126.33 205.962" stroke="black" stroke-linecap="round" stroke-linejoin="round"/>
<path d="M88.999 138.087C91.1544 135.268 94.7908 132.5 98.5 132.5" stroke="black" stroke-linecap="round" stroke-linejoin="round"/>
<path d="M157.521 131.299C158.278 131.119 160.116 130.088 160.915 130.177C164.545 130.58 164.22 137.181 164.147 139.864C163.594 160.32 145.278 186.611 126.5 196" stroke="black" stroke-linecap="round" stroke-linejoin="round"/>
<path d="M157.521 130.814C158.105 130.248 160.111 128.105 161 128.5C164.5 129.5 171.419 131.068 171.419 136.309C171.419 142.778 169.931 149.132 167.864 155.217C161 175.427 145.79 196.071 126.331 205.801" stroke="black" stroke-linecap="round" stroke-linejoin="round"/>
<path d="M98.6956 134.531C97.8068 135.211 97.076 135.503 96.1099 135.986" stroke="black" stroke-linecap="round" stroke-linejoin="round"/>
<path d="M158.576 106.942C158.576 114.595 157 121.5 157 131C158 133 161.615 133.867 163.662 134.208" stroke="black" stroke-linecap="round" stroke-linejoin="round"/>
<path d="M158 132.154C159.798 131.866 162.017 131.941 163.5 133" stroke="black" stroke-linecap="round" stroke-linejoin="round"/>
<path d="M95.7866 150.046C100.3 161.893 111.391 174.125 124.876 174.125C137.829 174.125 154.314 167.201 161 155.5" stroke="black" stroke-linecap="round" stroke-linejoin="round"/>
<path d="M89.2382 137.756C83.6286 141.155 78.0046 145.194 72.0277 147.984C62.8203 152.28 55.7474 160.281 46.7056 165.053C44.1183 166.419 40.6748 169.192 40.6748 172.354" stroke="black" stroke-linecap="round" stroke-linejoin="round"/>
<path d="M40.4815 171.205C39.7691 173.788 39.4318 175.448 40.067 177.989C47.391 207.285 31.6537 245.07 43.1951 272" stroke="black" stroke-linecap="round" stroke-linejoin="round"/>
<path d="M139.241 154.992C143.672 153.61 148.32 151.205 152.886 150.444" stroke="black" stroke-linecap="round" stroke-linejoin="round"/>
<path d="M119.027 153.982C113.241 149.642 107.757 147.279 100.835 145.391" stroke="black" stroke-linecap="round" stroke-linejoin="round"/>
<path d="M192.808 265.158C193.629 265.979 198.446 273.158 198.844 269.172C200.533 252.28 199.36 235.15 201.399 218.161" stroke="black" stroke-linecap="round" stroke-linejoin="round"/>
<path d="M171.5 137.5C174.745 142.952 177.637 144.095 182.982 147.412C197.341 156.325 215 161.5 223.634 175.206C224.563 188 218.654 196.267 215.801 206.538C213.001 220.391 210.544 233.87 205.442 247.078C202.891 253.678 200.675 260.707 199.377 267.685" stroke="black" stroke-linecap="round" stroke-linejoin="round"/>
<path d="M199.5 267.5C200.626 273.902 202.465 284.284 202.943 290.734C203.702 300.981 202.943 315.5 205.5 325.5" stroke="black" stroke-linecap="round" stroke-linejoin="round"/>
<path d="M207.463 322.262C208.882 325.337 209.803 323.859 212.32 323.02C219.694 320.562 227.011 321.343 234.246 317.208" stroke="black" stroke-linecap="round" stroke-linejoin="round"/>
<path d="M204.936 325.294C213.462 330.166 224.104 326.151 232.225 322.767" stroke="black" stroke-linecap="round" stroke-linejoin="round"/>
<path d="M224 179C230.597 187.626 241.397 200.658 243.342 211.844C244.249 217.06 245.457 221.365 244.858 226.752C244.858 235.5 244.353 242.923 244.353 252.243C244.353 270.232 241 294.5 244.606 316.398C245.404 317.995 246.191 319.196 245.364 320.947C244.459 322.862 243.999 323.872 244.353 326" stroke="black" stroke-linecap="round" stroke-linejoin="round"/>
<path d="M180.68 273.749C180.68 284.12 181.697 294 183.712 304.182C184.997 310.678 187.755 317.096 187.755 323.778" stroke="black" stroke-linecap="round" stroke-linejoin="round"/>
<path d="M197.862 281.329C195.905 291.459 193.791 301.763 193.342 312.099C193.144 316.633 194.254 321.966 192.808 326.305" stroke="black" stroke-linecap="round" stroke-linejoin="round"/>
<path d="M196.043 281C194.39 284.153 193.256 287.29 192 290.602" stroke="black" stroke-linecap="round" stroke-linejoin="round"/>
<path d="M201.399 281.834C201.399 286.909 201.227 291.956 201.904 296.995C202.461 301.138 203.373 305.512 203.42 309.684C203.503 316.928 201.399 330 202.5 337" stroke="black" stroke-linecap="round" stroke-linejoin="round"/>
<path d="M204.936 324.789C204.633 326.681 203.981 328.902 203.981 330.825C203.981 335.113 241 334.5 244.5 326" stroke="black" stroke-linecap="round" stroke-linejoin="round"/>
<path d="M241.827 328.831C239.115 335.121 235.128 342.732 230.709 348.035" stroke="black" stroke-linecap="round" stroke-linejoin="round"/>
<path d="M204.5 332C204.037 334.571 201.5 342.5 199.5 346.5" stroke="black" stroke-linecap="round" stroke-linejoin="round"/>
<path d="M94.2655 277.792C90.5359 289.097 85.2911 300.212 80.3404 311.032C78.0024 316.142 74.9198 320.983 72.0303 325.799" stroke="black" stroke-linecap="round" stroke-linejoin="round"/>
<path d="M56.87 252.524C55.2716 263.777 53.8223 274.982 51.1428 286.045C49.7746 291.695 48.6868 297.523 45.7524 302.553" stroke="black" stroke-linecap="round" stroke-linejoin="round"/>
<path d="M40.5 264C40.5 269.5 40.8922 277.419 41.8217 281.834C42.843 286.685 44.9113 291.402 45.7522 296.237C39 305.5 49.2896 311.87 49.2896 318.977C49.2896 323.913 49.2896 340.004 49.2896 345" stroke="black" stroke-linecap="round" stroke-linejoin="round"/>
<path d="M36.1509 319.735C32.3344 318.156 29.5449 318.045 25.5948 317.686C22.7792 317.43 19.7974 316.167 16.9478 315.692" stroke="black" stroke-linecap="round" stroke-linejoin="round"/>
<path d="M36 319.5C37.625 318.948 41 317.227 37.1612 316.086C35.2129 315.506 33.4734 314.515 31.4901 314.064C26.9229 313.026 22.3368 310.695 18.4634 308.112" stroke="black" stroke-linecap="round" stroke-linejoin="round"/>
<path d="M36.5 315.5C41.5 310.5 33.6346 308.063 30.5919 306.091C27.8404 304.308 25.1282 302.499 22.5063 300.532" stroke="black" stroke-linecap="round" stroke-linejoin="round"/>
<path d="M38.1719 310.639C41.8165 308.817 42 306.064 42 302.5C42 298.815 44.6834 299.141 45 295.5" stroke="black" stroke-linecap="round" stroke-linejoin="round"/>
<path d="M36 326.5C36.1261 331.924 38.1723 339.62 38.1723 345.002" stroke="black" stroke-linecap="round" stroke-linejoin="round"/>
<path d="M6 323C6.12614 328.424 8.5 340.5 11.5 345.5" stroke="black" stroke-linecap="round" stroke-linejoin="round"/>
<path d="M13.9153 326.81C13.2928 323.2 11.4262 321.327 9.87256 318.219" stroke="black" stroke-linecap="round" stroke-linejoin="round"/>
<path d="M36.5002 320C38.0002 326.5 35.2716 326.915 33.0065 327.821C26.0983 330.584 20.514 331.168 13.4103 328.326C10.5 327 8.05622 325.965 6.56009 323.245C5.12067 320.627 5.76178 318.479 5.07213 315.721C3.99231 311.401 4.33649 306.04 3.83684 301.543C3.34089 297.079 5.40807 293.573 6.44779 289.415C8.33005 281.885 8.09259 273.706 9.36757 266.056C9.36757 261.605 10.5 246 12.0001 240C12.0001 205.935 14.0001 188.5 41.7097 169.142" stroke="black" stroke-linecap="round" stroke-linejoin="round"/>
</svg>
