<svg width="927" height="450" viewBox="0 0 927 450" fill="none" xmlns="http://www.w3.org/2000/svg">
<path d="M470.89 286.36L262.45 166L255 170.3L463.44 290.66L470.89 286.36Z" fill="#F5F5F5" stroke="#1D1D1B" stroke-linecap="round" stroke-linejoin="round"/>
<path d="M463.3 290.74L255 170.3V316.45L463.44 436.8L463.3 290.74Z" fill="white" stroke="#1D1D1B" stroke-linecap="round" stroke-linejoin="round"/>
<path d="M255 319.5V317L463 437L470 433V435.5L463 439.5L255 319.5Z" fill="black"/>
<path d="M470.89 432.5V286.36L463.3 290.74L463.44 436.8L470.89 432.5Z" fill="#E6E6E6" stroke="#1D1D1B" stroke-linecap="round" stroke-linejoin="round"/>
<path d="M262.45 312.15V183.2L456 294.95V423.9L262.45 312.15Z" fill="#9E7FB2" stroke="#1D1D1B" stroke-linecap="round" stroke-linejoin="round"/>
<path d="M295.95 327.19V271.21L429.94 348.58V404.56L295.95 327.19Z" fill="white" stroke="#1D1D1B" stroke-linecap="round" stroke-linejoin="round"/>
<path d="M266.17 198.24V185.35L456 294.95V309.37L266.17 198.24Z" fill="#DFD4E5" stroke="#1D1D1B" stroke-linecap="round" stroke-linejoin="round"/>
<path d="M266.17 262.46L295.95 279.66V327.19L266.17 310V262.46Z" fill="#F5F5F5" stroke="#1D1D1B" stroke-linecap="round" stroke-linejoin="round"/>
<path d="M429.94 357.34L456 372.38V419.61L429.94 404.56V357.34Z" fill="#F5F5F5" stroke="#1D1D1B" stroke-linecap="round" stroke-linejoin="round"/>
<path d="M262.45 183.2L266.17 185.35V310L262.45 312.15V183.2Z" fill="#E6E6E6" stroke="#1D1D1B" stroke-linecap="round" stroke-linejoin="round"/>
<path d="M262.45 312.15L266.17 310L456 419.61V423.9L262.45 312.15Z" fill="#F5F5F5" stroke="#1D1D1B" stroke-linecap="round" stroke-linejoin="round"/>
<path d="M266.17 202.54L284.78 239.08L266.17 250.4V202.54Z" fill="white" stroke="#1D1D1B" stroke-linecap="round" stroke-linejoin="round"/>
<path d="M456 363.73L441.11 346.53L456 337.94V363.73Z" fill="white" stroke="#1D1D1B" stroke-linecap="round" stroke-linejoin="round"/>
<path d="M655 223.027C672.673 223.027 687 219.155 687 214.378V148.649L623 149.081V214.378C623 219.155 637.327 223.027 655 223.027Z" fill="white"/>
<path d="M623 214.378C623 219.155 637.327 223.027 655 223.027C672.673 223.027 687 219.155 687 214.378V148.649L623 149.081V214.811" stroke="black" stroke-linecap="round" stroke-linejoin="round"/>
<path d="M677.054 220.865V155.568L683.973 154.27L683.108 218.703L677.054 220.865Z" fill="#F5F5F5"/>
<path d="M634.676 220.432V155.568L651.541 158.162L668.838 157.297V222.595L651.541 223.027L634.676 220.432Z" fill="#F5F5F5"/>
<path d="M670.567 221.297V157.297L677.486 155.568V220L670.567 221.297Z" fill="#E0E0E0"/>
<path d="M655 182.378C672.673 182.378 687 178.506 687 173.73V172C687 176.777 672.673 180.649 655 180.649C637.327 180.649 623 176.777 623 172V173.73C623 178.506 637.327 182.378 655 182.378Z" fill="#9E9E9E" stroke="black" stroke-linecap="round" stroke-linejoin="round"/>
<path d="M655 224.757C672.673 224.757 687 220.885 687 216.108V213.514C687 218.29 672.673 222.162 655 222.162C637.327 222.162 623 218.29 623 213.514V216.108C623 220.885 637.327 224.757 655 224.757Z" fill="black"/>
<path d="M655 159.027C672.673 159.027 687 155.155 687 150.378V148.649C687 153.425 672.673 157.297 655 157.297C637.327 157.297 623 153.425 623 148.649V150.378C623 155.155 637.327 159.027 655 159.027Z" fill="#9E9E9E" stroke="black" stroke-linecap="round" stroke-linejoin="round"/>
<path d="M655 203.135C672.673 203.135 687 199.263 687 194.486V192.757C687 197.533 672.673 201.405 655 201.405C637.327 201.405 623 197.533 623 192.757V194.486C623 199.263 637.327 203.135 655 203.135Z" fill="#9E9E9E" stroke="black" stroke-linecap="round" stroke-linejoin="round"/>
<ellipse cx="655" cy="148.649" rx="32" ry="8.64865" fill="#9E9E9E" stroke="black"/>
<path d="M603 92.027C620.673 92.027 635 88.1549 635 83.3784V17.6486L571 18.0811V83.3784C571 88.1549 585.327 92.027 603 92.027Z" fill="white"/>
<path d="M571 83.3784C571 88.1549 585.327 92.027 603 92.027C620.673 92.027 635 88.1549 635 83.3784V17.6486L571 18.0811V83.8108" stroke="black" stroke-linecap="round" stroke-linejoin="round"/>
<path d="M625.054 89.8649V24.5676L631.973 23.2703L631.108 87.7027L625.054 89.8649Z" fill="#F5F5F5"/>
<path d="M582.676 89.4324V24.5676L599.541 27.1622L616.838 26.2973V91.5946L599.541 92.027L582.676 89.4324Z" fill="#F5F5F5"/>
<path d="M618.567 90.2973V26.2973L625.486 24.5676V89L618.567 90.2973Z" fill="#E0E0E0"/>
<path d="M603 51.3784C620.673 51.3784 635 47.5062 635 42.7297V41C635 45.7765 620.673 49.6486 603 49.6486C585.327 49.6486 571 45.7765 571 41V42.7297C571 47.5062 585.327 51.3784 603 51.3784Z" fill="#9E9E9E" stroke="black" stroke-linecap="round" stroke-linejoin="round"/>
<path d="M603 93.7568C620.673 93.7568 635 89.8846 635 85.1081V82.5135C635 87.29 620.673 91.1622 603 91.1622C585.327 91.1622 571 87.29 571 82.5135V85.1081C571 89.8846 585.327 93.7568 603 93.7568Z" fill="black"/>
<path d="M603 28.027C620.673 28.027 635 24.1549 635 19.3784V17.6486C635 22.4252 620.673 26.2973 603 26.2973C585.327 26.2973 571 22.4252 571 17.6486V19.3784C571 24.1549 585.327 28.027 603 28.027Z" fill="#9E9E9E" stroke="black" stroke-linecap="round" stroke-linejoin="round"/>
<path d="M603 72.1351C620.673 72.1351 635 68.263 635 63.4865V61.7568C635 66.5333 620.673 70.4054 603 70.4054C585.327 70.4054 571 66.5333 571 61.7568V63.4865C571 68.263 585.327 72.1351 603 72.1351Z" fill="#9E9E9E" stroke="black" stroke-linecap="round" stroke-linejoin="round"/>
<ellipse cx="603" cy="17.6486" rx="32" ry="8.64865" fill="#9E9E9E" stroke="black"/>
<path d="M369 125.027C386.673 125.027 401 121.155 401 116.378V50.6486L337 51.0811V116.378C337 121.155 351.327 125.027 369 125.027Z" fill="white"/>
<path d="M337 116.378C337 121.155 351.327 125.027 369 125.027C386.673 125.027 401 121.155 401 116.378V50.6486L337 51.0811V116.811" stroke="black" stroke-linecap="round" stroke-linejoin="round"/>
<path d="M391.054 122.865V57.5676L397.973 56.2703L397.108 120.703L391.054 122.865Z" fill="#F5F5F5"/>
<path d="M348.676 122.432V57.5676L365.541 60.1622L382.838 59.2973V124.595L365.541 125.027L348.676 122.432Z" fill="#F5F5F5"/>
<path d="M384.567 123.297V59.2973L391.486 57.5676V122L384.567 123.297Z" fill="#E0E0E0"/>
<path d="M369 84.3784C386.673 84.3784 401 80.5062 401 75.7297V74C401 78.7765 386.673 82.6486 369 82.6486C351.327 82.6486 337 78.7765 337 74V75.7297C337 80.5062 351.327 84.3784 369 84.3784Z" fill="#9E9E9E" stroke="black" stroke-linecap="round" stroke-linejoin="round"/>
<path d="M369 126.757C386.673 126.757 401 122.885 401 118.108V115.514C401 120.29 386.673 124.162 369 124.162C351.327 124.162 337 120.29 337 115.514V118.108C337 122.885 351.327 126.757 369 126.757Z" fill="black"/>
<path d="M369 61.027C386.673 61.027 401 57.1549 401 52.3784V50.6486C401 55.4252 386.673 59.2973 369 59.2973C351.327 59.2973 337 55.4252 337 50.6486V52.3784C337 57.1549 351.327 61.027 369 61.027Z" fill="#9E9E9E" stroke="black" stroke-linecap="round" stroke-linejoin="round"/>
<path d="M369 105.135C386.673 105.135 401 101.263 401 96.4865V94.7568C401 99.5333 386.673 103.405 369 103.405C351.327 103.405 337 99.5333 337 94.7568V96.4865C337 101.263 351.327 105.135 369 105.135Z" fill="#9E9E9E" stroke="black" stroke-linecap="round" stroke-linejoin="round"/>
<ellipse cx="369" cy="50.6486" rx="32" ry="8.64865" fill="#9E9E9E" stroke="black"/>
<path d="M491 254.865C525.242 254.865 553 247.363 553 238.108V110.757L429 111.595V238.108C429 247.363 456.758 254.865 491 254.865Z" fill="white"/>
<path d="M429 238.108C429 247.363 456.758 254.865 491 254.865C525.242 254.865 553 247.363 553 238.108V110.757L429 111.595V238.946" stroke="black" stroke-linecap="round" stroke-linejoin="round"/>
<path d="M533.729 250.676V124.162L547.135 121.649L545.459 246.486L533.729 250.676Z" fill="#F5F5F5"/>
<path d="M451.622 249.838V124.162L484.297 129.189L517.811 127.514V254.027L484.297 254.865L451.622 249.838Z" fill="#F5F5F5"/>
<path d="M521.162 251.514V127.514L534.568 124.162V249L521.162 251.514Z" fill="#E0E0E0"/>
<path d="M491 176.108C525.242 176.108 553 168.606 553 159.351V156C553 165.255 525.242 172.757 491 172.757C456.758 172.757 429 165.255 429 156V159.351C429 168.606 456.758 176.108 491 176.108Z" fill="#9E9E9E" stroke="black" stroke-linecap="round" stroke-linejoin="round"/>
<path d="M491 256.541C525.242 256.541 553 249.038 553 239.784V236.432C553 245.687 525.242 253.189 491 253.189C456.758 253.189 429 245.687 429 236.432V239.784C429 249.038 456.758 256.541 491 256.541Z" fill="black"/>
<path d="M491 130.865C525.242 130.865 553 123.363 553 114.108V110.757C553 120.011 525.242 127.514 491 127.514C456.758 127.514 429 120.011 429 110.757V114.108C429 123.363 456.758 130.865 491 130.865Z" fill="#9E9E9E" stroke="black" stroke-linecap="round" stroke-linejoin="round"/>
<path d="M491 216.324C525.242 216.324 553 208.822 553 199.568V196.216C553 205.471 525.242 212.973 491 212.973C456.758 212.973 429 205.471 429 196.216V199.568C429 208.822 456.758 216.324 491 216.324Z" fill="#9E9E9E" stroke="black" stroke-linecap="round" stroke-linejoin="round"/>
<ellipse cx="491" cy="110.757" rx="62" ry="16.7568" fill="#9E9E9E" stroke="black"/>
<path d="M435 245L416.5 254.5L424 259L443 248.5L435 245Z" fill="white" stroke="black"/>
<path d="M426.5 260.5L447 249" stroke="black"/>
<path d="M388.5 162.5L418 145" stroke="black" stroke-linecap="round" stroke-linejoin="round"/>
<path d="M553 166.5L654.5 108" stroke="black" stroke-linecap="round" stroke-linejoin="round"/>
<path d="M654 223L569 272L533 251.5" stroke="black" stroke-linecap="round" stroke-linejoin="round"/>
<path d="M429 196L373 164" stroke="black" stroke-linecap="round" stroke-linejoin="round"/>
<path d="M403 143L373.5 126" stroke="black" stroke-linecap="round" stroke-linejoin="round"/>
<path d="M639.5 106L616 92" stroke="black" stroke-linecap="round" stroke-linejoin="round"/>
<path d="M650 223L569 269L534 249.5L542.5 247L569 261.5L639 222L650 223Z" fill="white" stroke="black" stroke-linecap="round" stroke-linejoin="round"/>
<path d="M373 160.64L428.5 192.5V185L385 160.64L418 141.5L386.5 124L377 125.5L405.5 141.5L373 160.64Z" fill="white" stroke="black" stroke-linecap="round" stroke-linejoin="round"/>
<path d="M569 272V269" stroke="black" stroke-linecap="round" stroke-linejoin="round"/>
<path d="M373 164V161" stroke="black" stroke-linecap="round" stroke-linejoin="round"/>
<path d="M418 145V141.5" stroke="black" stroke-linecap="round" stroke-linejoin="round"/>
<path d="M654.5 108V104.5" stroke="black" stroke-linecap="round" stroke-linejoin="round"/>
<path d="M553 156L642.5 104.5L619.5 91.5L627.5 89.5L654.5 104.5L553 163V156Z" fill="white" stroke="black" stroke-linecap="round" stroke-linejoin="round"/>
<rect width="31.1255" height="83.0014" rx="15.5628" transform="matrix(0.707116 -0.707097 0.707116 0.707097 443.297 65.3037)" fill="white"/>
<path d="M454.301 76.307C448.224 70.2296 448.224 60.3762 454.301 54.2988V54.2988C460.379 48.2214 470.233 48.2214 476.31 54.2988L495.137 73.1251C495.137 73.1251 486.479 76.8488 482.203 80.9062C477.423 85.4426 473.128 95.1334 473.128 95.1334L454.301 76.307Z" fill="#F5B166"/>
<ellipse rx="4.01701" ry="3.65883" transform="matrix(0.70714 -0.707074 0.70714 0.707074 464.287 56.5054)" fill="white"/>
<path d="M451.079 65.3445L501.656 115.923C498.414 115.923 495.166 114.385 493.226 112.68C492.489 112.032 454.807 74.4226 454.321 73.7742C450.92 69.2351 451.079 65.3445 451.079 65.3445Z" fill="#E0E0E0"/>
<rect width="31.1257" height="83.0019" rx="15.5629" transform="matrix(0.707104 -0.707109 0.707104 0.707109 443.297 65.3051)" stroke="black" stroke-linecap="round" stroke-linejoin="round"/>
<path d="M473.195 95.0695C473.195 95.0695 477.921 85.4341 482.852 80.9066C486.88 77.2086 494.746 73.5195 494.746 73.5195" stroke="black" stroke-linecap="round" stroke-linejoin="round"/>
<path d="M50.8217 177.352C62.5943 166.121 60.0034 155.345 60.0034 155.345L56.4981 141.969L6.72266 170.06L13.0322 180.761C22.6146 189.903 39.049 188.584 50.8217 177.352Z" fill="#E6E6E6"/>
<ellipse rx="28.6963" ry="23.3574" transform="matrix(0.723545 -0.690277 0.723545 0.690277 31.1085 154.108)" fill="white"/>
<path d="M13.334 141.667L47.967 166.868" stroke="#E6E6E6" stroke-width="1.33333" stroke-linecap="round" stroke-linejoin="round"/>
<path d="M50.2224 136.333C41.635 128.21 26.2224 128.778 15.1113 139.84L49.3336 164.778C56.5691 155.176 57.7295 143.435 50.2224 136.333Z" fill="#E0E0E0"/>
<path d="M47.9647 167.971C48.2554 167.745 48.3077 167.326 48.0817 167.035C47.8556 166.745 47.4368 166.692 47.1462 166.918L47.9647 167.971ZM12.3629 171.444L11.9059 171.93L11.9426 171.964L11.9842 171.993L12.3629 171.444ZM12.8748 144.316C13.1106 144.033 13.0725 143.613 12.7897 143.377C12.5069 143.141 12.0865 143.179 11.8507 143.462L12.8748 144.316ZM47.1462 166.918C35.2915 176.138 22.7284 177.788 12.7415 170.896L11.9842 171.993C22.6047 179.323 35.819 177.417 47.9647 167.971L47.1462 166.918ZM12.8199 170.959C9.07689 167.435 7.15831 163.121 7.12321 158.541C7.08806 153.953 8.94324 149.031 12.8748 144.316L11.8507 143.462C7.76097 148.367 5.75187 153.585 5.78992 158.551C5.82803 163.524 7.92015 168.177 11.9059 171.93L12.8199 170.959Z" fill="#E0E0E0"/>
<path d="M51.5443 134.213C59.7448 142.037 59.4481 155.377 51.5443 165.955C51.1262 166.514 50.6823 168.489 50.2218 169.032C49.8132 169.514 49.3923 168.565 48.9505 169.032C48.5356 169.47 48.106 169.902 47.662 170.325C36.1372 181.32 19.19 182.979 9.80936 174.029C0.428725 165.08 2.1669 148.912 13.6917 137.917C25.2165 126.922 42.1636 125.264 51.5443 134.213Z" stroke="black"/>
<path d="M49.4356 135.829L49.0888 136.189L49.4356 135.829ZM14.764 138.858C14.5651 139.05 14.5591 139.366 14.7507 139.565C14.9422 139.764 15.2587 139.77 15.4576 139.579L14.764 138.858ZM49.4282 164.036C49.2639 164.258 49.3106 164.571 49.5326 164.735C49.7545 164.9 50.0676 164.853 50.2319 164.631L49.4282 164.036ZM15.4576 139.579C25.7836 129.636 40.8382 128.245 49.0888 136.189L49.7824 135.469C41.0202 127.032 25.3395 128.676 14.764 138.858L15.4576 139.579ZM49.0888 136.189C56.3007 143.133 56.4847 154.504 49.4282 164.036L50.2319 164.631C57.5099 154.8 57.4428 142.845 49.7824 135.469L49.0888 136.189Z" fill="black"/>
<path d="M47.4533 168.092C47.6544 167.903 47.6639 167.587 47.4746 167.386C47.2853 167.185 46.9689 167.175 46.7678 167.364L47.4533 168.092ZM11.8985 171.985L11.5558 172.349L11.8985 171.985ZM12.7462 143.32C12.923 143.108 12.8944 142.793 12.6823 142.616C12.4702 142.439 12.1549 142.468 11.9781 142.68L12.7462 143.32ZM46.7678 167.364C41.6218 172.209 35.0412 175.228 28.7115 176.05C22.3782 176.872 16.3522 175.491 12.2413 171.621L11.5558 172.349C15.9457 176.482 22.3038 177.89 28.8403 177.041C35.3804 176.192 42.1554 173.081 47.4533 168.092L46.7678 167.364ZM12.2413 171.621C4.75353 164.571 4.84804 152.793 12.7462 143.32L11.9781 142.68C3.83357 152.449 3.58618 164.845 11.5558 172.349L12.2413 171.621Z" fill="black"/>
<line x1="13.0025" y1="140.371" x2="48.777" y2="166.302" stroke="black" stroke-linecap="round" stroke-linejoin="round"/>
<path d="M6.66602 170.111L13.0311 180.761C22.6135 189.902 39.0479 188.583 50.8206 177.352C62.5932 166.12 60.0023 155.345 60.0023 155.345L56.8882 143.444" stroke="black" stroke-linecap="round" stroke-linejoin="round"/>
<path d="M155.312 259.938C156.25 262.75 156.25 265.875 156.25 265.875C156.25 266.911 151.213 269.5 145 269.5C138.787 269.5 133.75 266.911 133.75 265.875C133.75 265.875 133.75 262.75 134.687 259.938C137.187 260.25 142.75 261.5 145 261.5C147.25 261.5 152.812 260.25 155.312 259.938Z" fill="#E0E0E0"/>
<path d="M130 268.375V281.917C130 284.793 136.716 288 145 288C153.284 288 160 284.793 160 281.917V268.375C158.125 270.25 151.038 272.125 145 272.125C138.962 272.125 131.562 269.938 130 268.375Z" fill="#F5F5F5"/>
<path d="M133.75 253.375V258.792C133.75 259.942 138.787 262 145 262C151.213 262 156.25 259.942 156.25 258.792V253.375H133.75Z" fill="#F5F5F5"/>
<path d="M145 273C153.284 273 160 270.026 160 267.438C159.997 266.5 158.117 265.562 156.242 265.562C156.242 266.5 153.993 269.5 145 269.5C136.007 269.5 133.747 266.5 133.742 265.562C130.742 265.562 129.997 266.812 130 267.438C130 270.026 136.716 273 145 273Z" fill="#E6E6E6"/>
<path d="M145.008 333.062C153.292 333.062 160.008 330.964 160.008 328.375V291.737C160.008 285.4 154.5 287 154.5 287C154.5 287 148.917 288.079 145.008 288C142.299 287.945 138.313 287.938 135.5 287C132.687 286.062 129.717 289.757 130.029 291.737V328.375C130.029 330.964 136.723 333.062 145.008 333.062Z" fill="#F29733"/>
<path d="M132.812 294.625C132.812 291.813 132.812 289.938 134.688 289L138.438 289.937C138.75 302.75 138.438 326.5 138.438 329.313C134.688 329.313 133.75 328.375 132.813 327.438L132.812 327.437V294.625Z" fill="white"/>
<path d="M137.5 249.625H152.5L148.849 216.765C148.793 216.258 148.365 215.875 147.855 215.875H142.145C141.635 215.875 141.207 216.258 141.151 216.765L137.5 249.625Z" fill="white"/>
<path d="M145 324.625C153.284 324.625 160 322.526 160 319.938V293.688C160 296.276 153.284 298.375 145 298.375C136.716 298.375 130 296.276 130 293.688V319.938C130 322.526 136.716 324.625 145 324.625Z" fill="#F5F5F5"/>
<path d="M155.312 259.938C156.25 262.75 156.25 265.875 156.25 265.875C156.25 266.911 151.213 269.312 145 269.312C138.787 269.312 133.75 266.911 133.75 265.875C133.75 265.875 133.75 262.75 134.687 259.938" stroke="black" stroke-linecap="round" stroke-linejoin="round"/>
<path d="M130 267.5V281.917C130 284.793 136.716 288.062 145 288.062C153.284 288.062 160 284.793 160 281.917V267.5" stroke="black" stroke-linecap="round" stroke-linejoin="round"/>
<path d="M133.75 253.375V258.792C133.75 259.942 138.787 261.812 145 261.812C151.213 261.812 156.25 259.942 156.25 258.792V253.375" stroke="black" stroke-linecap="round" stroke-linejoin="round"/>
<path d="M156.242 265.562C158.117 265.562 159.997 266.5 160 267.438C160 270.026 153.284 273.062 145 273.062C136.716 273.062 130 270.026 130 267.438C129.997 266.812 130.742 265.562 133.742 265.562" stroke="black" stroke-linecap="round" stroke-linejoin="round"/>
<path d="M160.5 319.937C160.5 319.661 160.276 319.437 160 319.437C159.724 319.437 159.5 319.661 159.5 319.937H160.5ZM130.529 319.937C130.529 319.661 130.305 319.437 130.029 319.437C129.753 319.437 129.529 319.661 129.529 319.937H130.529ZM160.5 293.687C160.5 293.411 160.276 293.187 160 293.187C159.724 293.187 159.5 293.411 159.5 293.687H160.5ZM130.529 293.687C130.529 293.411 130.305 293.187 130.029 293.187C129.753 293.187 129.529 293.411 129.529 293.687H130.529ZM130.029 291.737H130.529V291.737L130.029 291.737ZM154.375 287.125L154.467 287.617L154.494 287.612L154.522 287.603L154.375 287.125ZM145 288.063L145.01 287.563L145 288.063ZM159.5 319.937C159.5 320.352 159.231 320.838 158.524 321.36C157.828 321.875 156.788 322.359 155.458 322.775C152.804 323.604 149.106 324.125 145 324.125V325.125C149.179 325.125 152.981 324.596 155.756 323.729C157.14 323.297 158.297 322.771 159.119 322.164C159.93 321.565 160.5 320.818 160.5 319.937H159.5ZM145 324.125C140.911 324.125 137.223 323.43 134.572 322.512C133.244 322.052 132.195 321.543 131.49 321.051C131.136 320.805 130.886 320.574 130.728 320.371C130.568 320.165 130.529 320.022 130.529 319.937H129.529C129.529 320.322 129.7 320.677 129.938 320.984C130.178 321.293 130.514 321.59 130.918 321.871C131.725 322.434 132.866 322.979 134.245 323.457C137.007 324.414 140.806 325.125 145 325.125V324.125ZM159.5 293.687C159.5 294.102 159.231 294.588 158.524 295.11C157.828 295.625 156.788 296.109 155.458 296.525C152.804 297.354 149.106 297.875 145 297.875V298.875C149.179 298.875 152.981 298.346 155.756 297.479C157.14 297.047 158.297 296.521 159.119 295.914C159.93 295.315 160.5 294.568 160.5 293.687H159.5ZM145 297.875C140.894 297.875 137.204 297.354 134.558 296.525C133.231 296.109 132.195 295.625 131.501 295.11C130.798 294.589 130.529 294.102 130.529 293.687H129.529C129.529 294.567 130.096 295.314 130.906 295.914C131.725 296.521 132.878 297.046 134.259 297.479C137.026 298.346 140.822 298.875 145 298.875V297.875ZM159.508 328.375C159.508 328.789 159.238 329.276 158.532 329.798C157.835 330.312 156.795 330.797 155.465 331.212C152.811 332.042 149.114 332.563 145.008 332.563V333.563C149.186 333.563 152.989 333.034 155.764 332.167C157.148 331.734 158.305 331.209 159.126 330.602C159.938 330.002 160.508 329.256 160.508 328.375H159.508ZM145.008 332.563C140.902 332.563 137.21 332.042 134.561 331.213C133.234 330.797 132.197 330.313 131.502 329.798C130.798 329.277 130.529 328.79 130.529 328.375H129.529C129.529 329.255 130.097 330.002 130.907 330.602C131.727 331.209 132.881 331.734 134.263 332.167C137.032 333.034 140.83 333.563 145.008 333.563V332.563ZM130.529 328.375V291.737H129.529V328.375H130.529ZM130.529 291.737C130.529 291.401 130.665 290.913 130.962 290.364C131.255 289.823 131.685 289.261 132.224 288.777C133.301 287.81 134.77 287.192 136.442 287.61L136.684 286.64C134.606 286.12 132.807 286.909 131.556 288.033C130.93 288.594 130.429 289.248 130.083 289.887C129.741 290.518 129.529 291.174 129.529 291.737L130.529 291.737ZM154.375 287.125C154.522 287.603 154.521 287.603 154.521 287.603C154.521 287.603 154.521 287.603 154.521 287.603C154.521 287.604 154.521 287.604 154.521 287.604C154.521 287.604 154.521 287.603 154.522 287.603C154.523 287.603 154.526 287.602 154.53 287.601C154.538 287.599 154.551 287.595 154.568 287.59C154.603 287.581 154.657 287.567 154.727 287.551C154.868 287.519 155.07 287.48 155.314 287.451C155.807 287.393 156.444 287.379 157.067 287.539C157.683 287.697 158.277 288.02 158.723 288.636C159.172 289.257 159.508 290.225 159.508 291.737H160.508C160.508 290.081 160.14 288.888 159.533 288.05C158.923 287.207 158.108 286.773 157.316 286.57C156.531 286.369 155.76 286.391 155.196 286.458C154.912 286.492 154.675 286.538 154.507 286.576C154.423 286.595 154.356 286.612 154.309 286.624C154.285 286.631 154.266 286.636 154.253 286.64C154.246 286.642 154.241 286.643 154.237 286.645C154.235 286.645 154.233 286.646 154.232 286.646C154.231 286.646 154.23 286.647 154.23 286.647C154.23 286.647 154.229 286.647 154.229 286.647C154.229 286.647 154.229 286.647 154.375 287.125ZM159.508 291.737V328.375H160.508V291.737H159.508ZM136.442 287.61C140.253 288.563 142.283 288.508 144.99 288.563L145.01 287.563C142.301 287.508 140.373 287.562 136.684 286.64L136.442 287.61ZM144.99 288.563C146.983 288.603 149.357 288.364 151.219 288.119C152.153 287.996 152.963 287.871 153.541 287.776C153.83 287.729 154.06 287.689 154.219 287.661C154.299 287.647 154.36 287.636 154.402 287.629C154.423 287.625 154.439 287.622 154.45 287.62C154.455 287.619 154.459 287.618 154.462 287.618C154.463 287.617 154.465 287.617 154.465 287.617C154.466 287.617 154.466 287.617 154.466 287.617C154.466 287.617 154.466 287.617 154.466 287.617C154.466 287.617 154.467 287.617 154.375 287.125C154.284 286.634 154.284 286.634 154.284 286.634C154.284 286.634 154.284 286.634 154.284 286.634C154.284 286.634 154.283 286.634 154.283 286.634C154.282 286.634 154.282 286.634 154.28 286.634C154.278 286.635 154.274 286.635 154.269 286.636C154.259 286.638 154.244 286.641 154.224 286.645C154.183 286.652 154.124 286.663 154.046 286.676C153.891 286.704 153.664 286.743 153.379 286.789C152.81 286.883 152.01 287.006 151.088 287.128C149.24 287.371 146.926 287.601 145.01 287.563L144.99 288.563Z" fill="black"/>
<path d="M156.81 253.375V253.875C156.871 253.875 156.931 253.864 156.988 253.842L156.81 253.375ZM156.81 244L156.988 243.533C156.931 243.511 156.871 243.5 156.81 243.5V244ZM133.19 244V243.5C133.129 243.5 133.069 243.511 133.012 243.533L133.19 244ZM133.19 253.375L133.012 253.842C133.069 253.864 133.129 253.875 133.19 253.875V253.375ZM161.375 248.688C161.375 249.416 160.992 250.166 160.179 250.903C159.365 251.64 158.161 252.325 156.632 252.908L156.988 253.842C158.585 253.234 159.913 252.493 160.85 251.644C161.788 250.794 162.375 249.795 162.375 248.688H161.375ZM156.632 244.467C158.161 245.05 159.365 245.735 160.179 246.472C160.992 247.209 161.375 247.959 161.375 248.688H162.375C162.375 247.58 161.788 246.581 160.85 245.731C159.913 244.882 158.585 244.141 156.988 243.533L156.632 244.467ZM156.81 243.5H133.19V244.5H156.81V243.5ZM128.625 248.688C128.625 247.959 129.008 247.209 129.821 246.472C130.635 245.735 131.839 245.05 133.368 244.467L133.012 243.533C131.415 244.141 130.087 244.882 129.15 245.731C128.212 246.581 127.625 247.58 127.625 248.688H128.625ZM133.368 252.908C131.839 252.325 130.635 251.64 129.821 250.903C129.008 250.166 128.625 249.416 128.625 248.688H127.625C127.625 249.795 128.212 250.794 129.15 251.644C130.087 252.493 131.415 253.234 133.012 253.842L133.368 252.908ZM133.19 253.875H156.81V252.875H133.19V253.875Z" fill="black"/>
<path fill-rule="evenodd" clip-rule="evenodd" d="M156.81 253.375C159.936 252.184 161.875 250.524 161.875 248.688C161.875 246.851 159.936 245.191 156.81 244H133.19C130.064 245.191 128.125 246.851 128.125 248.688C128.125 250.524 130.064 252.184 133.19 253.375H156.81Z" fill="#E0E0E0"/>
<path d="M156.81 253.375V253.875C156.871 253.875 156.931 253.864 156.988 253.842L156.81 253.375ZM156.81 244L156.988 243.533C156.931 243.511 156.871 243.5 156.81 243.5V244ZM133.19 244V243.5C133.129 243.5 133.069 243.511 133.012 243.533L133.19 244ZM133.19 253.375L133.012 253.842C133.069 253.864 133.129 253.875 133.19 253.875V253.375ZM161.375 248.688C161.375 249.416 160.992 250.166 160.179 250.903C159.365 251.64 158.161 252.325 156.632 252.908L156.988 253.842C158.585 253.234 159.913 252.493 160.85 251.644C161.788 250.794 162.375 249.795 162.375 248.688H161.375ZM156.632 244.467C158.161 245.05 159.365 245.735 160.179 246.472C160.992 247.209 161.375 247.959 161.375 248.688H162.375C162.375 247.58 161.788 246.581 160.85 245.731C159.913 244.882 158.585 244.141 156.988 243.533L156.632 244.467ZM156.81 243.5H133.19V244.5H156.81V243.5ZM128.625 248.688C128.625 247.959 129.008 247.209 129.821 246.472C130.635 245.735 131.839 245.05 133.368 244.467L133.012 243.533C131.415 244.141 130.087 244.882 129.15 245.731C128.212 246.581 127.625 247.58 127.625 248.688H128.625ZM133.368 252.908C131.839 252.325 130.635 251.64 129.821 250.903C129.008 250.166 128.625 249.416 128.625 248.688H127.625C127.625 249.795 128.212 250.794 129.15 251.644C130.087 252.493 131.415 253.234 133.012 253.842L133.368 252.908ZM133.19 253.875H156.81V252.875H133.19V253.875Z" fill="black"/>
<path d="M141.091 217.575L137.5 245.816C137.5 247.855 140.858 249.508 145 249.508C149.142 249.508 152.5 247.855 152.5 245.816L148.914 217.569C148.821 216.608 148.013 215.875 147.048 215.875H142.957C141.99 215.875 141.181 216.611 141.091 217.575Z" fill="#F5F5F5" stroke="black" stroke-linecap="round" stroke-linejoin="round"/>
<path d="M139.375 275.875V283.375" stroke="black" stroke-linecap="round" stroke-linejoin="round"/>
<path d="M133.75 274V281.5" stroke="black" stroke-linecap="round" stroke-linejoin="round"/>
<path d="M145 275.875V283.375" stroke="black" stroke-linecap="round" stroke-linejoin="round"/>
<path d="M150.625 275.875V283.375" stroke="black" stroke-linecap="round" stroke-linejoin="round"/>
<path d="M156.25 274V281.5" stroke="black" stroke-linecap="round" stroke-linejoin="round"/>
<ellipse cx="145" cy="216.812" rx="3.75" ry="1.64062" fill="#E0E0E0" stroke="black" stroke-linecap="round" stroke-linejoin="round"/>
<path d="M135.746 44.5243C134.996 43.7623 132.936 44.2068 132 44.5243C134.185 42.302 138.821 38.1983 139.491 37.8575C141.364 36.9049 146.982 35 178.82 35C210.658 35 215.685 35.2342 218.149 36.9049C220.958 38.8097 215.964 41.9845 215.34 44.5243V132.148C215.34 142.624 197.548 143.577 197.548 143.577C197.548 143.577 171.329 144.529 160.092 143.577C147.919 142.545 143.237 138.5 143.237 132.148V54.0487C143.237 53.0963 136.682 45.4767 135.746 44.5243Z" fill="white"/>
<path d="M146.938 126.595C146.938 104.473 146.937 88.7905 146.938 85.43C154.498 85.4296 199.864 85.43 211.625 85.43V126.595C211.625 135.836 202.214 135.993 195.663 136.676C185.375 137.75 172.14 137.516 162.059 136.676C151.138 135.766 146.937 133.062 146.938 126.595Z" fill="#CCF0F5"/>
<path d="M211.625 71.1874V89.9374C211.625 89.9374 204.155 94.1016 196.625 94.6249C183.868 95.5115 175.301 88.6165 164.75 87.1251C153.387 85.5188 146.938 89.9374 146.938 89.9374V71.1874C146.938 71.1874 153.387 66.7688 164.75 68.3751C175.301 69.8665 184.438 68.3748 196.625 66.5002C204.085 65.3528 211.625 71.1874 211.625 71.1874Z" fill="#CCEAD9"/>
<circle cx="159.125" cy="117.125" r="1.875" fill="white"/>
<circle cx="174.125" cy="109.625" r="1.875" fill="white"/>
<circle cx="198.5" cy="119" r="1.875" fill="white"/>
<circle cx="153.5" cy="98.375" r="1.875" fill="white"/>
<circle cx="196.625" cy="105.875" r="3.75" fill="#CCEAD9"/>
<circle cx="179.75" cy="124.625" r="3.75" fill="#CCEAD9"/>
<circle cx="166.625" cy="98.375" r="3.75" fill="#CCEAD9"/>
<path d="M200.375 131.188V42.125H205.062C205.375 70.875 205.812 125.188 205.062 127.438C204.312 129.688 201.625 130.875 200.375 131.188Z" fill="#F5F5F5"/>
<path d="M147.875 42.1249L144.125 52.4374C141.625 50.2499 134.75 44.3749 134.75 42.1249C139.438 43.0626 144.125 41.4999 147.875 42.1249Z" fill="#E6E6E6"/>
<path d="M135.688 44.0001C134.938 43.2501 132.875 43.6876 131.938 44.0001C134.125 41.8126 138.767 37.7732 139.438 37.4377C141.313 36.5001 146.938 34.6251 178.813 34.6251C210.688 34.6251 215.721 34.8556 218.188 36.5001C221 38.3751 216 41.5001 215.375 44.0001V130.719C215.375 141.031 207.875 141.969 204.125 142.906C200.375 143.844 188.451 144.313 179.281 144.313C170.112 144.313 160.063 144.313 154.438 142.906C150.688 141.969 143.188 141.5 143.188 130.719V53.3752C143.188 52.4377 136.625 44.9376 135.688 44.0001Z" stroke="black" stroke-linecap="round" stroke-linejoin="round"/>
<path d="M135.688 42.1251C135.688 42.1251 141.858 38.7948 146 39.3126C161 41.1876 205.062 40.2501 216.312 38.3751" stroke="black" stroke-linecap="round" stroke-linejoin="round"/>
<path d="M146.938 71.1876V127.027C146.938 133.063 150.309 136.434 161.511 137.367C171.851 138.229 190.062 137.75 195.979 137.367C203.288 136.895 211.625 136.506 211.625 127.027V71.1876M146.938 71.1876V89.936C146.938 89.936 156.171 85.5887 166.337 87.169C175.775 88.6364 183.439 95.4203 194.852 94.548C201.587 94.0331 211.625 89.936 211.625 89.936V71.1876M146.938 71.1876C146.938 71.1876 156.171 67.1407 166.337 68.721M211.625 71.1876C211.625 71.1876 201.587 75.5852 194.852 76.1001C183.439 76.9724 175.775 70.1884 166.337 68.721M211.625 71.1876C209.125 69.525 202.25 66.5001 194.75 66.5001C185.375 66.5001 187.611 70.0045 166.337 68.721" stroke="black" stroke-linecap="round" stroke-linejoin="round"/>
<circle cx="153.5" cy="98.3751" r="3.25" stroke="black"/>
<circle cx="174.125" cy="109.625" r="3.25" stroke="black"/>
<circle cx="159.125" cy="117.125" r="3.25" stroke="black"/>
<circle cx="198.5" cy="119" r="3.25" stroke="black"/>
<path d="M171.75 98.3751C171.75 101.206 169.455 103.5 166.625 103.5C163.795 103.5 161.5 101.206 161.5 98.3751C161.5 95.5446 163.795 93.2501 166.625 93.2501C169.455 93.2501 171.75 95.5446 171.75 98.3751Z" stroke="black"/>
<circle cx="179.75" cy="124.625" r="5.125" stroke="black"/>
<circle cx="196.625" cy="105.875" r="5.125" stroke="black"/>
<path d="M837 237.625C836.147 237.833 834.613 238.5 835.295 239.5" stroke="white" stroke-width="2"/>
<path d="M868.875 301.375C870.492 303.678 880.676 314.204 878.249 323.875" stroke="white" stroke-width="2" stroke-linecap="round" stroke-linejoin="round"/>
<path d="M898.875 290.125C897.937 293.875 898.875 306.625 898.875 310.75" stroke="white" stroke-width="2" stroke-linecap="round" stroke-linejoin="round"/>
<path d="M848.25 329.5C849.292 319.764 860.611 309.091 865.125 305.125C869.812 300.437 870.583 297.781 882 295.75C891.134 294.125 911.342 285.75 921.375 281.687" stroke="white" stroke-width="2" stroke-linecap="round" stroke-linejoin="round"/>
<path d="M863.25 305.125C859.083 303.145 850.333 301.217 838.875 304.187" stroke="white" stroke-width="2" stroke-linecap="round" stroke-linejoin="round"/>
<path d="M878.25 295.75C873.875 292 860.942 285.352 853.875 286.375" stroke="white" stroke-width="2" stroke-linecap="round" stroke-linejoin="round"/>
<path d="M908.25 286.375C903.849 282.389 892.859 272.163 885.75 273.25" stroke="white" stroke-width="2" stroke-linecap="round" stroke-linejoin="round"/>
<path d="M853.875 277C824.812 279.5 812 261 812.625 249.812C811.687 247 820 241 826.5 239.5L825.5 242.5C822.688 243.75 816.938 247.562 819.188 249.812C822 252.625 833.25 256.375 853.875 255.437C870.375 254.687 880.375 249.5 883.5 247L881.063 243.25L880.5 239.5C883 239.812 889.5 241.375 889.5 245.125C889.5 249.812 888.5 274.022 853.875 277Z" fill="#F5F5F5"/>
<path d="M826.837 237.417L825.75 239.5V242.312C824.187 242.937 820.687 244.937 819.187 247.937C817.312 251.687 835.537 256.375 852.937 255.437C870.337 254.5 885.375 247.437 883.5 246.5C882 245.75 880.437 240.993 880.125 238.458L877.95 237.417L874.687 234.292L871.425 233.25L869.25 231.167L866.667 227H863.812L862.725 224.917L858.375 221.792L852.937 220.75H847.5H842.062L838.8 222.833L835.537 225.958L833.362 227L831.187 230.125L827.925 231.167L826.837 234.292V237.417Z" fill="#DFEA9D"/>
<path d="M867.602 315.362C865.518 310.511 870.642 310.106 872.813 310.511C875.419 305.659 879.164 306.872 880.63 308.085C892.356 317.788 880.63 326.278 878.025 327.491C875.419 328.704 870.208 321.427 867.602 315.362Z" fill="#DFEA9D"/>
<path d="M904.138 306.284C905.992 295.792 900.275 295.792 897.185 297.103C897.185 295.792 892.55 290.546 890.232 297.103C888.378 302.35 890.232 310.031 893.708 312.842C896.412 315.028 902.284 316.776 904.138 306.284Z" fill="#DFEA9D"/>
<path d="M852.994 316.756C854.043 315.719 855.75 314.608 855.75 317.009C855.75 320.257 848.75 333.25 845.75 333.25C842.75 333.25 840.75 327.836 840.75 324.588C840.75 321.34 844.75 312.678 849.75 314.843C852.18 315.895 852.888 316.468 852.994 316.756Z" fill="#DFEA9D"/>
<path d="M835.872 306.088C844.987 308.267 854.517 306.088 857.625 304.272C852.446 300.639 849.338 298.823 842.087 299.731C838.31 300.204 828.621 304.354 835.872 306.088Z" fill="#DFEA9D"/>
<path d="M850.473 288.191C852.084 289.958 863.563 294.818 872.625 293.713C872.625 292.609 871.619 284.877 863.563 281.564C855.507 278.25 848.459 285.982 850.473 288.191Z" fill="#DFEA9D"/>
<path d="M882.3 274.439C883.846 276.058 893.893 283.543 902.586 282.531C902.586 281.52 903.553 271.405 895.824 268.37C888.096 265.336 880.368 272.416 882.3 274.439Z" fill="#DFEA9D"/>
<path d="M865.125 247C865.542 245.295 866.875 242.226 868.875 243.59" stroke="black" stroke-linecap="round"/>
<path d="M853.875 245.125C854.813 244.008 857.25 242.221 859.5 244.008" stroke="black" stroke-linecap="round"/>
<path d="M863.25 233.875C864.834 233.875 867.765 234.625 866.814 237.625" stroke="black" stroke-linecap="round"/>
<path d="M852 230.125C850.594 228.71 847.5 226.729 846.375 230.125" stroke="black" stroke-linecap="round"/>
<path d="M812.625 248.875C812.625 267.99 831.858 277.461 850.664 276.984C869.871 276.497 889.5 267.426 889.5 245.125" stroke="black" stroke-linecap="round" stroke-linejoin="round"/>
<path d="M820.935 250.633C815.857 248.204 821.641 244.223 825.167 242.536L827.283 239.5C820.935 241.524 809.298 246.585 813.53 250.633C818.82 255.694 833.631 259.742 857.964 257.718C874.892 256.31 883.355 251.645 888.645 246.585C892.135 243.246 884.061 239.837 880.181 239.5L881.239 242.536C881.592 243.548 882.509 245.775 883.355 246.585C884.413 247.597 875.95 252.657 857.964 254.681C839.979 256.706 827.283 253.669 820.935 250.633Z" stroke="black" stroke-linecap="round" stroke-linejoin="round"/>
<path d="M825.75 239.5L826.837 237.417V234.292L827.925 231.167L831.188 230.125L833.362 227L835.537 225.958L838.8 222.833L842.062 220.75H847.5H852.938L858.375 221.792L862.725 224.917L863.812 227H866.667L869.25 231.167L871.425 233.25L874.688 234.292L877.95 237.417L881 239.5" stroke="black" stroke-linecap="round" stroke-linejoin="round"/>
<path d="M835.125 237.625C834.272 237.833 832.738 238.5 833.42 239.5" stroke="black" stroke-linecap="round" stroke-linejoin="round"/>
<path d="M867 301.375C868.618 303.678 880.348 317.954 877.921 327.625" stroke="black" stroke-linecap="round" stroke-linejoin="round"/>
<path d="M867.602 315.362C865.518 310.511 870.642 310.107 872.813 310.511C875.419 305.659 879.164 306.872 880.63 308.085C892.356 317.788 880.63 326.278 878.025 327.491C875.419 328.704 870.208 321.427 867.602 315.362Z" stroke="black" stroke-linecap="round" stroke-linejoin="round"/>
<path d="M897.17 290.125C896.318 294.188 896.488 309.625 897.17 314.5" stroke="black" stroke-linecap="round" stroke-linejoin="round"/>
<path d="M904.138 306.284C905.992 295.792 900.275 295.792 897.185 297.104C897.185 295.792 892.55 290.546 890.232 297.104C888.378 302.35 890.232 310.031 893.708 312.842C896.412 315.028 902.284 316.777 904.138 306.284Z" stroke="black" stroke-linecap="round" stroke-linejoin="round"/>
<path d="M863.25 305.125C858.736 309.091 845.542 323.514 844.5 333.25" stroke="black" stroke-linecap="round" stroke-linejoin="round"/>
<path d="M855.75 317.009C855.75 314.41 852.75 315.71 852.75 317.009C852.75 315.5 851.5 314.5 849.5 314.5C844.051 314.5 840.75 321.34 840.75 324.588C840.75 327.836 842.75 333.25 845.75 333.25C848.75 333.25 855.75 320.257 855.75 317.009Z" stroke="black" stroke-linecap="round" stroke-linejoin="round"/>
<path d="M921.375 280.75C911.342 284.813 888.991 293.344 879.857 294.969C868.44 297 867.402 302.078 863.25 305.125" stroke="black" stroke-linecap="round" stroke-linejoin="round"/>
<path d="M862.5 305.5C857 302 844.708 302.154 833.25 305.125" stroke="black" stroke-linecap="round" stroke-linejoin="round"/>
<path d="M835.872 306.088C844.987 308.267 854.517 306.088 857.625 304.272C852.446 300.639 849.338 298.823 842.087 299.731C838.31 300.205 828.621 304.354 835.872 306.088Z" stroke="black" stroke-linecap="round" stroke-linejoin="round"/>
<path d="M876.375 295.75C872 292 857.192 285.46 850.125 286.482" stroke="black" stroke-linecap="round" stroke-linejoin="round"/>
<path d="M906.375 286.375C901.974 282.389 889.109 272.244 882 273.331" stroke="black" stroke-linecap="round" stroke-linejoin="round"/>
<path d="M850.473 288.191C852.084 289.958 863.563 294.818 872.625 293.714C872.625 292.609 871.619 284.877 863.563 281.564C855.507 278.25 848.459 285.982 850.473 288.191Z" stroke="black" stroke-linecap="round" stroke-linejoin="round"/>
<path d="M882.3 274.44C883.846 276.058 893.893 283.543 902.586 282.531C902.586 281.52 903.553 271.405 895.824 268.37C888.096 265.336 880.368 272.417 882.3 274.44Z" stroke="black" stroke-linecap="round" stroke-linejoin="round"/>
<path d="M723.617 280.883C719.712 276.978 717.337 273.02 718.313 272.044C719.169 271.189 722.311 272.905 725.703 275.969L728.531 278.797C731.595 282.188 733.311 285.331 732.456 286.186C731.479 287.163 727.522 284.788 723.617 280.883Z" fill="#F5F5F5"/>
<ellipse rx="5" ry="1.25" transform="matrix(-0.707107 -0.707107 -0.707107 0.707107 732.632 271.867)" fill="#F5F5F5"/>
<path d="M680.483 324.016C679.702 323.235 679.581 322.09 679.776 321.895L684.372 317.299C684.726 318.124 685.786 319.844 687.201 320.127L682.604 324.723C682.409 324.919 681.264 324.797 680.483 324.016Z" fill="#E0E0E0"/>
<path d="M725.384 279.115C726.166 279.896 726.957 280.371 727.152 280.176L732.809 274.519L729.981 271.69L724.324 277.347C724.129 277.543 724.603 278.334 725.384 279.115Z" fill="#E0E0E0"/>
<path d="M684.371 317.298C684.673 318.045 684.863 318.497 685.433 319.067C686.002 319.636 686.454 319.826 687.201 320.127C689.663 321.122 692.221 320.764 693.918 319.067L727.859 285.126L719.374 276.64L685.433 310.581C683.736 312.278 683.377 314.836 684.371 317.298Z" fill="#F5F5F5"/>
<path d="M693.565 319.42L696.04 316.945C695.097 316.474 692.787 315.107 691.09 313.41C689.393 311.713 688.026 309.403 687.554 308.46L685.079 310.935C685.197 311.76 685.999 313.975 688.261 316.238C690.524 318.501 692.74 319.302 693.565 319.42Z" fill="#00B3CC"/>
<path d="M688.969 309.167C689.534 310.298 690.147 311.053 690.383 311.288C692.504 309.167 718.314 283.358 721.142 280.529C720.576 279.963 720.081 278.997 719.728 278.408L688.969 309.167Z" fill="#E0E0E0"/>
<path d="M726.799 283.358L726.092 279.822L723.971 277.701L725.738 275.933L721.496 273.105C720.081 271.69 717.607 271.337 718.667 273.812C720.29 277.597 724.56 281.826 726.799 283.358Z" fill="#E0E0E0"/>
<path d="M687.908 308.106C687.322 308.692 688.747 311.067 691.09 313.41C693.433 315.753 695.807 317.178 696.393 316.592" stroke="black" stroke-linecap="round" stroke-linejoin="round"/>
<path d="M693.565 302.45C692.979 303.035 694.404 305.41 696.747 307.753" stroke="black" stroke-linecap="round" stroke-linejoin="round"/>
<path d="M697.454 298.561C696.868 299.146 698.292 301.521 700.636 303.864" stroke="black" stroke-linecap="round" stroke-linejoin="round"/>
<path d="M701.343 294.671C700.757 295.257 702.182 297.632 704.525 299.975" stroke="black" stroke-linecap="round" stroke-linejoin="round"/>
<path d="M705.232 290.782C704.646 291.368 706.071 293.743 708.414 296.086" stroke="black" stroke-linecap="round" stroke-linejoin="round"/>
<path d="M709.121 286.893C708.535 287.479 709.96 289.853 712.303 292.197" stroke="black" stroke-linecap="round" stroke-linejoin="round"/>
<path d="M713.01 283.004C712.425 283.59 713.849 285.964 716.192 288.307" stroke="black" stroke-linecap="round" stroke-linejoin="round"/>
<path d="M716.899 279.115C716.314 279.701 717.738 282.075 720.081 284.418" stroke="black" stroke-linecap="round" stroke-linejoin="round"/>
<path d="M728.531 278.797C731.595 282.188 733.311 285.331 732.456 286.186C731.479 287.163 727.522 284.788 723.617 280.883C719.712 276.978 717.337 273.02 718.313 272.044C719.169 271.189 722.311 272.905 725.703 275.969" stroke="black" stroke-linecap="round" stroke-linejoin="round"/>
<ellipse rx="5" ry="1.25" transform="matrix(-0.707107 -0.707107 -0.707107 0.707107 732.632 271.867)" stroke="black" stroke-linecap="round" stroke-linejoin="round"/>
<path d="M687.201 320.127L682.604 324.723C682.409 324.919 681.264 324.797 680.483 324.016C679.702 323.235 679.581 322.09 679.776 321.895L684.372 317.299" stroke="black" stroke-linecap="round" stroke-linejoin="round"/>
<path d="M732.809 274.519L727.152 280.176C726.957 280.371 726.166 279.896 725.384 279.115C724.603 278.334 724.129 277.543 724.324 277.347L729.981 271.69" stroke="black" stroke-linecap="round" stroke-linejoin="round"/>
<path d="M685.433 310.581L685.079 310.228L685.079 310.228L685.433 310.581ZM693.918 319.067L693.565 318.713L693.565 318.713L693.918 319.067ZM684.371 317.298L683.908 317.485L683.908 317.485L684.371 317.298ZM685.433 319.067L685.079 319.42L685.079 319.42L685.433 319.067ZM687.201 320.127L687.014 320.591L687.014 320.591L687.201 320.127ZM719.021 276.287C719.216 276.091 719.532 276.091 719.728 276.287C719.923 276.482 719.923 276.799 719.728 276.994L719.021 276.287ZM727.506 284.772C727.701 284.577 728.018 284.577 728.213 284.772C728.408 284.967 728.408 285.284 728.213 285.479L727.506 284.772ZM685.787 310.935C685.81 310.911 685.795 310.908 685.784 310.977C685.772 311.046 685.77 311.155 685.793 311.311C685.838 311.621 685.971 312.042 686.202 312.54C686.663 313.532 687.482 314.752 688.615 315.885L687.908 316.592C686.698 315.382 685.809 314.066 685.295 312.962C685.04 312.412 684.868 311.894 684.804 311.455C684.772 311.236 684.764 311.017 684.797 310.816C684.83 310.615 684.909 310.398 685.079 310.228L685.787 310.935ZM688.615 315.885C689.748 317.018 690.968 317.836 691.96 318.297C692.458 318.529 692.878 318.661 693.189 318.707C693.344 318.729 693.453 318.727 693.522 318.716C693.592 318.705 693.589 318.689 693.565 318.713L694.272 319.42C694.101 319.59 693.885 319.67 693.684 319.703C693.482 319.736 693.264 319.728 693.045 319.696C692.606 319.632 692.088 319.46 691.538 319.204C690.433 318.69 689.118 317.802 687.908 316.592L688.615 315.885ZM684.835 317.111C685.133 317.848 685.293 318.219 685.786 318.713L685.079 319.42C684.434 318.775 684.213 318.242 683.908 317.485L684.835 317.111ZM685.786 318.713C686.28 319.206 686.651 319.366 687.388 319.664L687.014 320.591C686.258 320.286 685.725 320.065 685.079 319.42L685.786 318.713ZM719.728 276.994L685.787 310.935L685.079 310.228L719.021 276.287L719.728 276.994ZM728.213 285.479L694.272 319.42L693.565 318.713L727.506 284.772L728.213 285.479ZM687.388 319.664C689.702 320.598 692.036 320.242 693.565 318.713L694.272 319.42C692.406 321.286 689.624 321.645 687.014 320.591L687.388 319.664ZM683.908 317.485C682.853 314.874 683.214 312.093 685.079 310.228L685.787 310.935C684.258 312.464 683.901 314.797 684.835 317.111L683.908 317.485Z" fill="black"/>
<path d="M816.062 142.25C831.675 142.25 838.57 136.591 839.499 133.813V82.9526C839.499 79.2479 836 73.0001 832.065 71.8386V63.4999C832.065 56.9376 823 57.7679 823 56.9376C823 53.1715 822.624 49.5001 822.624 49.5001C822.624 47.6251 823.562 41.0001 822.624 40.0625C821.687 33.5 820.749 30.6875 818.874 28.8125C817.937 27.8752 814 27.0001 811.374 28.8124C808.562 33.5001 808.562 37.2502 807.624 40.0625L806.687 51.3126C806.687 51.3126 807.624 56.9376 805.749 56.9376C801.772 56.9376 798.249 60.6876 798.249 60.6876V63.4999V71.8386C793.045 74.8023 791.687 78.5 790.749 82.9525C790.44 99.6235 790.006 132.331 790.749 133.813C791.679 135.665 796.547 142.25 816.062 142.25Z" fill="white"/>
<path d="M739.188 104.75L742.938 101C743.25 98.8127 745.75 93.7499 754 92.9999C756.812 92.7442 759 89.9999 762 88.9999C765.75 86.1874 773.933 82.1984 782.312 91.6252C789.812 100.062 788.5 117.5 779.5 124C771.852 129.523 767.438 126.437 764 125.5H757C753.25 125.812 746.688 124.438 742.938 119.75C741.389 117.814 740.262 116.028 739.649 115.707C739.493 115.811 739.339 115.909 739.188 116C739.271 115.667 739.426 115.59 739.649 115.707C742.708 113.654 746.324 109.032 739.188 104.75Z" fill="white"/>
<path d="M766.375 108.5C766.375 98 758.875 94.125 755.125 93.5L766.375 87.875C772.625 87.875 784.188 93.5 784.188 104.75C784.188 119.75 774.5 124.125 770.125 125.375H756.062C759.5 124.125 766.375 119 766.375 108.5Z" fill="#E0E0E0"/>
<path d="M746.688 119.75L739.188 116L740.125 103.812C741.688 102.562 745.254 100.625 745.75 100.062C746.688 99 755.5 97.5 757 109.437C758 117.396 749.812 120.062 746.688 119.75Z" fill="#E6E6E6"/>
<path d="M820.75 67.25L813.5 63.5C816.5 63.5 821.688 62.5625 823.563 61.625L829.188 64.4375C830.125 68.1875 830.125 70.0625 830.125 73.8125V73.8125C834.625 74.5625 835.75 83.5 835.75 87.875C837.313 102.562 836.688 128.188 835.75 134.75C832 137 827.938 137.562 826.375 137.562V99.125V90.6875C826.375 81.6875 822.625 77.5625 820.75 76.625V67.25Z" fill="#E0E0E0"/>
<path d="M802 99.125C824.5 102.125 836.375 96.625 839.5 93.5V126.313C825.25 136.063 808.563 133.5 802 131L802 130.06C802 123.373 802 104.472 802 99.125Z" fill="#D9ADD0"/>
<path d="M839.5 83.1875C839.5 87.8474 828.587 91.625 815.125 91.625C801.663 91.625 790.75 87.8474 790.75 83.1875" stroke="black" stroke-linecap="round" stroke-linejoin="round"/>
<path d="M832 71C832 74.2261 824.445 77.0579 815.125 77.0579C805.805 77.0579 798.25 74.2261 798.25 71" stroke="black" stroke-linecap="round" stroke-linejoin="round"/>
<ellipse cx="815.125" cy="61.8413" rx="16.875" ry="5.84135" stroke="black" stroke-linecap="round" stroke-linejoin="round"/>
<path d="M839.5 91.625C839.5 96.2849 828.587 100.062 815.125 100.062C810.293 100.062 805.789 99.5757 802 98.7361V131.549C805.789 132.388 810.293 132.875 815.125 132.875C828.587 132.875 839.5 129.097 839.5 124.438" stroke="black" stroke-linecap="round" stroke-linejoin="round"/>
<path d="M798.25 71L798.25 61.625" stroke="black" stroke-linecap="round" stroke-linejoin="round"/>
<path d="M832 71L832 61.625" stroke="black" stroke-linecap="round" stroke-linejoin="round"/>
<path d="M798.25 71.9375C793.563 72.875 790.75 79.4375 790.75 83.1875V132.875C790.75 137.535 801.663 142.25 815.125 142.25C828.587 142.25 839.5 137.535 839.5 132.875V84.125C839.5 80.375 836.688 72.875 832 71.9375" stroke="black" stroke-linecap="round" stroke-linejoin="round"/>
<rect x="807" y="43" width="16" height="17" fill="#C4C4C4" stroke="black" stroke-linecap="round" stroke-linejoin="round"/>
<path fill-rule="evenodd" clip-rule="evenodd" d="M823.104 41.0001C821.452 42.0172 818.496 42.6948 815.125 42.6948C811.754 42.6948 808.798 42.0172 807.146 41.0001C806.261 41.545 805.75 42.1873 805.75 42.8751C805.75 44.8466 809.947 46.4448 815.125 46.4448C820.303 46.4448 824.5 44.8466 824.5 42.8751C824.5 42.1873 823.989 41.545 823.104 41.0001Z" fill="#C4C4C4"/>
<path d="M823.104 41.0001L823.366 40.5743C823.206 40.4753 823.003 40.4753 822.842 40.5743L823.104 41.0001ZM807.146 41.0001L807.408 40.5743C807.247 40.4753 807.044 40.4753 806.884 40.5743L807.146 41.0001ZM822.842 40.5743C821.302 41.5227 818.452 42.1948 815.125 42.1948V43.1948C818.541 43.1948 821.603 42.5116 823.366 41.4258L822.842 40.5743ZM815.125 42.1948C811.798 42.1948 808.948 41.5227 807.408 40.5743L806.884 41.4258C808.647 42.5116 811.709 43.1948 815.125 43.1948V42.1948ZM806.25 42.8751C806.25 42.4534 806.57 41.942 807.408 41.4258L806.884 40.5743C805.952 41.1479 805.25 41.9212 805.25 42.8751H806.25ZM815.125 45.9448C812.581 45.9448 810.3 45.5513 808.674 44.932C807.859 44.6216 807.234 44.2643 806.821 43.893C806.409 43.5215 806.25 43.1766 806.25 42.8751H805.25C805.25 43.5593 805.616 44.1535 806.152 44.6362C806.689 45.119 807.436 45.5308 808.318 45.8665C810.085 46.5392 812.491 46.9448 815.125 46.9448V45.9448ZM824 42.8751C824 43.1766 823.841 43.5215 823.429 43.893C823.016 44.2643 822.391 44.6216 821.576 44.932C819.95 45.5513 817.669 45.9448 815.125 45.9448V46.9448C817.759 46.9448 820.165 46.5392 821.932 45.8665C822.814 45.5308 823.561 45.119 824.098 44.6362C824.634 44.1535 825 43.5593 825 42.8751H824ZM822.842 41.4258C823.68 41.942 824 42.4534 824 42.8751H825C825 41.9212 824.298 41.1479 823.366 40.5743L822.842 41.4258Z" fill="black"/>
<path fill-rule="evenodd" clip-rule="evenodd" d="M823.104 50.3751C821.452 51.3922 818.496 52.0698 815.125 52.0698C811.754 52.0698 808.798 51.3922 807.146 50.3751C806.261 50.92 805.75 51.5623 805.75 52.2501C805.75 54.2216 809.947 55.8198 815.125 55.8198C820.303 55.8198 824.5 54.2216 824.5 52.2501C824.5 51.5623 823.989 50.92 823.104 50.3751Z" fill="#C4C4C4"/>
<path d="M823.104 50.3751L823.366 49.9493C823.206 49.8503 823.003 49.8503 822.842 49.9493L823.104 50.3751ZM807.146 50.3751L807.408 49.9493C807.247 49.8503 807.044 49.8503 806.884 49.9493L807.146 50.3751ZM822.842 49.9493C821.302 50.8977 818.452 51.5698 815.125 51.5698V52.5698C818.541 52.5698 821.603 51.8866 823.366 50.8008L822.842 49.9493ZM815.125 51.5698C811.798 51.5698 808.948 50.8977 807.408 49.9493L806.884 50.8008C808.647 51.8866 811.709 52.5698 815.125 52.5698V51.5698ZM806.25 52.2501C806.25 51.8284 806.57 51.317 807.408 50.8008L806.884 49.9493C805.952 50.5229 805.25 51.2962 805.25 52.2501H806.25ZM815.125 55.3198C812.581 55.3198 810.3 54.9263 808.674 54.307C807.859 53.9966 807.234 53.6393 806.821 53.268C806.409 52.8965 806.25 52.5516 806.25 52.2501H805.25C805.25 52.9343 805.616 53.5285 806.152 54.0112C806.689 54.494 807.436 54.9058 808.318 55.2415C810.085 55.9142 812.491 56.3198 815.125 56.3198V55.3198ZM824 52.2501C824 52.5516 823.841 52.8965 823.429 53.268C823.016 53.6393 822.391 53.9966 821.576 54.307C819.95 54.9263 817.669 55.3198 815.125 55.3198V56.3198C817.759 56.3198 820.165 55.9142 821.932 55.2415C822.814 54.9058 823.561 54.494 824.098 54.0112C824.634 53.5285 825 52.9343 825 52.2501H824ZM822.842 50.8008C823.68 51.317 824 51.8284 824 52.2501H825C825 51.2962 824.298 50.5229 823.366 49.9493L822.842 50.8008Z" fill="black"/>
<path fill-rule="evenodd" clip-rule="evenodd" d="M823.104 57.8751C821.452 58.8922 818.496 59.5698 815.125 59.5698C811.754 59.5698 808.798 58.8922 807.146 57.8751C806.261 58.42 805.75 59.0623 805.75 59.7501C805.75 61.7216 809.947 63.3198 815.125 63.3198C820.303 63.3198 824.5 61.7216 824.5 59.7501C824.5 59.0623 823.989 58.42 823.104 57.8751Z" fill="#C4C4C4"/>
<path d="M823.104 57.8751L823.366 57.4493C823.206 57.3503 823.003 57.3503 822.842 57.4493L823.104 57.8751ZM807.146 57.8751L807.408 57.4493C807.247 57.3503 807.044 57.3503 806.884 57.4493L807.146 57.8751ZM822.842 57.4493C821.302 58.3977 818.452 59.0698 815.125 59.0698V60.0698C818.541 60.0698 821.603 59.3866 823.366 58.3008L822.842 57.4493ZM815.125 59.0698C811.798 59.0698 808.948 58.3977 807.408 57.4493L806.884 58.3008C808.647 59.3866 811.709 60.0698 815.125 60.0698V59.0698ZM806.25 59.7501C806.25 59.3284 806.57 58.817 807.408 58.3008L806.884 57.4493C805.952 58.0229 805.25 58.7962 805.25 59.7501H806.25ZM815.125 62.8198C812.581 62.8198 810.3 62.4263 808.674 61.807C807.859 61.4966 807.234 61.1393 806.821 60.768C806.409 60.3965 806.25 60.0516 806.25 59.7501H805.25C805.25 60.4343 805.616 61.0285 806.152 61.5112C806.689 61.994 807.436 62.4058 808.318 62.7415C810.085 63.4142 812.491 63.8198 815.125 63.8198V62.8198ZM824 59.7501C824 60.0516 823.841 60.3965 823.429 60.768C823.016 61.1393 822.391 61.4966 821.576 61.807C819.95 62.4263 817.669 62.8198 815.125 62.8198V63.8198C817.759 63.8198 820.165 63.4142 821.932 62.7415C822.814 62.4058 823.561 61.994 824.098 61.5112C824.634 61.0285 825 60.4343 825 59.7501H824ZM822.842 58.3008C823.68 58.817 824 59.3284 824 59.7501H825C825 58.7962 824.298 58.0229 823.366 57.4493L822.842 58.3008Z" fill="black"/>
<path d="M818.458 28.9459C818.458 29.5374 816.966 30.0168 815.125 30.0168C813.284 30.0168 811.792 29.5374 811.792 28.9459M818.458 28.9459C818.458 28.3545 816.966 27.875 815.125 27.875C813.284 27.875 811.792 28.3545 811.792 28.9459M818.458 28.9459C819.847 29.2584 822.625 35 822.625 41M811.792 28.9459C810.403 29.2584 807.625 35 807.625 41" stroke="black" stroke-linecap="round" stroke-linejoin="round"/>
<path d="M741.666 101.938C743.875 96.9165 748.234 93.5 753.25 93.5C760.499 93.5 766.375 100.635 766.375 109.438C766.375 118.24 760.499 125.375 753.25 125.375C748.652 125.375 744.607 122.505 742.263 118.159" stroke="black" stroke-linecap="round" stroke-linejoin="round"/>
<ellipse cx="739.132" cy="110.375" rx="4.63235" ry="5.625" fill="#C4C4C4" stroke="black" stroke-linecap="round" stroke-linejoin="round"/>
<path d="M759.812 90.3385C762.69 87.6194 766.307 86 770.235 86C779.616 86 787.221 95.2341 787.221 106.625C787.221 118.016 779.616 127.25 770.235 127.25C767.706 127.25 765.306 126.579 763.149 125.375" stroke="black" stroke-linecap="round" stroke-linejoin="round"/>
<path d="M738.25 104.75L745.172 99.9914C746.21 99.4343 747.356 99.125 748.562 99.125C753.222 99.125 757 103.742 757 109.437C757 113.922 754.555 117.53 750.863 119.025C749.867 119.429 748.919 119.678 747.625 119.75C744.025 119.95 739.188 116 739.188 116" stroke="black" stroke-linecap="round" stroke-linejoin="round"/>
<path d="M753.25 93.4995L765.438 87.8745C778.562 87.8745 784.132 96.2692 784.132 106.625C784.132 116.98 777.219 125.375 768.691 125.375H753.25" stroke="black" stroke-linecap="round" stroke-linejoin="round"/>
<path d="M769.188 108.5L781.375 107.562" stroke="black" stroke-linecap="round" stroke-linejoin="round"/>
<path d="M769.188 114.125H779.5" stroke="black" stroke-linecap="round" stroke-linejoin="round"/>
<path d="M768.25 103.812L780.438 101.938" stroke="black" stroke-linecap="round" stroke-linejoin="round"/>
<path d="M767.312 99.125L776.688 96.3125" stroke="black" stroke-linecap="round" stroke-linejoin="round"/>
<path d="M767.312 119.75H775.75" stroke="black" stroke-linecap="round" stroke-linejoin="round"/>
<path d="M762.625 94.4375C765.438 93.5 768.25 92.5625 771.062 91.625" stroke="black" stroke-linecap="round" stroke-linejoin="round"/>
</svg>
