<svg width="887" height="450" viewBox="0 0 887 450" fill="none" xmlns="http://www.w3.org/2000/svg">
<path d="M340.14 391.92C347.59 396.22 355.03 391.92 355.03 391.92L377.36 379L362.48 370.41L340.14 383.3C340.14 383.3 332.7 387.6 325.25 383.3L340.14 391.92Z" fill="#F5F5F5" stroke="#1D1D1B" stroke-linecap="round" stroke-linejoin="round"/>
<path d="M541.14 78.14V155.51L608.14 116.83V39.46L541.14 78.14ZM578 105C574 107.32 570.73 104.86 570.73 99.5C570.73 94.14 574 88 578 85.64C582 83.28 585.27 85.78 585.27 91.14C585.27 96.5 582 102.71 578 105Z" fill="#9E9E9E" stroke="#1D1D1B" stroke-linecap="round" stroke-linejoin="round"/>
<path d="M578 81.37C572.22 84.71 567.53 93.67 567.53 101.37C567.53 109.07 572.22 112.63 578 109.29C583.78 105.95 588.47 96.99 588.47 89.29C588.47 81.59 583.75 78 578 81.37ZM578 105C574 107.32 570.73 104.86 570.73 99.5C570.73 94.14 574 88 578 85.64C582 83.28 585.27 85.78 585.27 91.14C585.27 96.5 582 102.71 578 105Z" fill="white" stroke="#1D1D1B" stroke-linecap="round" stroke-linejoin="round"/>
<path d="M541.14 78.14L533.69 73.84V151.21L541.14 155.51V78.14Z" fill="white" stroke="#1D1D1B" stroke-linecap="round" stroke-linejoin="round"/>
<path d="M548.47 82.43L563.36 73.84V91.04L548.47 99.63V82.43Z" fill="white" stroke="#1D1D1B" stroke-linecap="round" stroke-linejoin="round"/>
<path d="M570.92 69.53L600.69 52.35V60.95L570.92 78.14V69.53Z" fill="white" stroke="#1D1D1B" stroke-linecap="round" stroke-linejoin="round"/>
<path d="M533.69 73.84L600.69 35.16L608.14 39.46L541.14 78.14L533.69 73.84Z" fill="white" stroke="#1D1D1B" stroke-linecap="round" stroke-linejoin="round"/>
<path d="M580.47 113.87C580.47 112.31 579.53 111.6 578.36 112.27C577.723 112.728 577.2 113.328 576.834 114.022C576.468 114.716 576.268 115.485 576.25 116.27V127.27V127.34C576.25 128.9 577.19 129.62 578.36 128.94C579.001 128.486 579.526 127.887 579.893 127.192C580.26 126.497 580.457 125.726 580.47 124.94V124.87V113.87Z" fill="white" stroke="#1D1D1B" stroke-linecap="round" stroke-linejoin="round"/>
<path d="M556 86.74V164.11L623 125.42V48.05L556 86.74ZM592.82 113.63C588.82 115.95 585.55 113.48 585.55 108.13C585.55 102.78 588.8 96.55 592.82 94.24C596.84 91.93 600.09 94.38 600.09 99.73C600.09 105.08 596.87 111.31 592.85 113.63H592.82Z" fill="#9E9E9E" stroke="#1D1D1B" stroke-linecap="round" stroke-linejoin="round"/>
<path d="M592.85 90C587.07 93.34 582.38 102.3 582.38 110C582.38 117.7 587.07 121.25 592.85 117.91C598.63 114.57 603.32 105.62 603.32 97.91C603.32 90.2 598.63 86.63 592.85 90ZM592.85 113.66C588.85 115.98 585.58 113.51 585.58 108.16C585.58 102.81 588.83 96.58 592.85 94.27C596.87 91.96 600.12 94.41 600.12 99.76C600.12 105.11 596.87 111.31 592.85 113.63V113.66Z" fill="white" stroke="#1D1D1B" stroke-linecap="round" stroke-linejoin="round"/>
<path d="M556.03 86.74L548.58 82.44V159.81L556.03 164.11V86.74Z" fill="white" stroke="#1D1D1B" stroke-linecap="round" stroke-linejoin="round"/>
<path d="M563.36 91.02L578.25 82.44V99.63L563.36 108.23V91.02Z" fill="white" stroke="#1D1D1B" stroke-linecap="round" stroke-linejoin="round"/>
<path d="M585.8 78.12L615.58 60.95V69.55L585.8 86.74V78.12Z" fill="white" stroke="#1D1D1B" stroke-linecap="round" stroke-linejoin="round"/>
<path d="M548.58 82.44L615.58 43.76L623.03 48.05L556.03 86.74L548.58 82.44Z" fill="white" stroke="#1D1D1B" stroke-linecap="round" stroke-linejoin="round"/>
<path d="M595.36 122.47C595.36 120.91 594.42 120.2 593.25 120.87C592.61 121.326 592.085 121.925 591.717 122.619C591.349 123.314 591.148 124.084 591.13 124.87V135.87C591.13 135.87 591.13 135.92 591.13 135.94C591.13 137.5 592.08 138.21 593.25 137.54C593.888 137.083 594.41 136.483 594.777 135.789C595.143 135.095 595.342 134.325 595.36 133.54V133.47V122.47Z" fill="white" stroke="#1D1D1B" stroke-linecap="round" stroke-linejoin="round"/>
<path d="M570.92 95.33V172.7L637.92 134.02V56.65L570.92 95.33ZM607.74 122.22C603.74 124.54 600.47 122.08 600.47 116.73C600.47 111.38 603.72 105.15 607.74 102.83C611.76 100.51 615.01 102.97 615.01 108.33C615.01 113.69 611.75 119.9 607.74 122.22Z" fill="#9E9E9E" stroke="#1D1D1B" stroke-linecap="round" stroke-linejoin="round"/>
<path d="M607.74 98.56C601.95 101.9 597.27 110.86 597.27 118.56C597.27 126.26 601.95 129.82 607.74 126.48C613.53 123.14 618.21 114.18 618.21 106.48C618.21 98.78 613.52 95.23 607.74 98.56ZM607.74 122.22C603.74 124.54 600.47 122.08 600.47 116.73C600.47 111.38 603.72 105.15 607.74 102.83C611.76 100.51 615.01 102.97 615.01 108.33C615.01 113.69 611.75 119.9 607.74 122.22Z" fill="white" stroke="#1D1D1B" stroke-linecap="round" stroke-linejoin="round"/>
<path d="M570.92 95.33L563.47 91.04V168.41L570.92 172.71V95.33Z" fill="white" stroke="#1D1D1B" stroke-linecap="round" stroke-linejoin="round"/>
<path d="M578.25 99.62L593.13 91.04V108.23L578.25 116.83V99.62Z" fill="white" stroke="#1D1D1B" stroke-linecap="round" stroke-linejoin="round"/>
<path d="M600.69 86.72L630.47 69.55V78.14L600.69 95.33V86.72Z" fill="white" stroke="#1D1D1B" stroke-linecap="round" stroke-linejoin="round"/>
<path d="M563.47 91.04L630.47 52.35L637.91 56.65L570.92 95.33L563.47 91.04Z" fill="white" stroke="#1D1D1B" stroke-linecap="round" stroke-linejoin="round"/>
<path d="M610.25 131.06C610.25 129.51 609.3 128.79 608.14 129.47C607.5 129.926 606.975 130.525 606.607 131.219C606.239 131.914 606.038 132.684 606.02 133.47V144.47C606.02 144.47 606.02 144.52 606.02 144.55C606.02 146.1 607.02 146.82 608.14 146.15C608.776 145.69 609.297 145.09 609.663 144.397C610.029 143.703 610.23 142.934 610.25 142.15V142.08V131.06Z" fill="white" stroke="#1D1D1B" stroke-linecap="round" stroke-linejoin="round"/>
<path d="M600.69 112.53V189.9L667.69 151.21V73.84L600.69 112.53ZM637.52 139.42C633.52 141.74 630.24 139.27 630.24 133.92C630.24 128.57 633.5 122.34 637.52 120.03C641.54 117.72 644.79 120.17 644.79 125.52C644.79 130.87 641.53 137.1 637.52 139.42Z" fill="#9E9E9E" stroke="#1D1D1B" stroke-linecap="round" stroke-linejoin="round"/>
<path d="M637.52 115.76C631.73 119.1 627.04 128.06 627.04 135.76C627.04 143.46 631.73 147.01 637.52 143.67C643.31 140.33 647.99 131.38 647.99 123.67C647.99 115.96 643.3 112.42 637.52 115.76ZM637.52 139.42C633.52 141.74 630.24 139.27 630.24 133.92C630.24 128.57 633.5 122.34 637.52 120.03C641.54 117.72 644.79 120.17 644.79 125.52C644.79 130.87 641.53 137.1 637.52 139.42Z" fill="white" stroke="#1D1D1B" stroke-linecap="round" stroke-linejoin="round"/>
<path d="M600.69 112.53L593.25 108.23V185.6L600.69 189.9V112.53Z" fill="white" stroke="#1D1D1B" stroke-linecap="round" stroke-linejoin="round"/>
<path d="M608.02 116.81L622.91 108.23V125.42L608.02 134.02V116.81Z" fill="white" stroke="#1D1D1B" stroke-linecap="round" stroke-linejoin="round"/>
<path d="M630.47 103.91L660.25 86.74V95.33L630.47 112.53V103.91Z" fill="white" stroke="#1D1D1B" stroke-linecap="round" stroke-linejoin="round"/>
<path d="M593.25 108.23L660.25 69.55L667.69 73.84L600.69 112.53L593.25 108.23Z" fill="white" stroke="#1D1D1B" stroke-linecap="round" stroke-linejoin="round"/>
<path d="M640 148.26C640 146.7 639.05 145.99 637.88 146.66C637.243 147.118 636.72 147.718 636.354 148.412C635.988 149.106 635.788 149.875 635.77 150.66V161.66V161.73C635.77 163.29 636.72 164 637.88 163.33C638.519 162.873 639.043 162.274 639.411 161.58C639.779 160.886 639.981 160.115 640 159.33V159.26V148.26Z" fill="white" stroke="#1D1D1B" stroke-linecap="round" stroke-linejoin="round"/>
<path d="M488.88 151.21L503.77 142.62L570.77 181.3L555.88 189.9L488.88 151.21Z" fill="#9E9E9E" stroke="#1D1D1B" stroke-linecap="round" stroke-linejoin="round"/>
<path d="M555.88 189.9L570.77 181.3L571.06 189.73L563.33 194.2L555.88 189.9Z" fill="white" stroke="#1D1D1B" stroke-linecap="round" stroke-linejoin="round"/>
<path d="M474 142.62L570.77 198.5L481.44 250.07L384.66 194.2L474 142.62Z" fill="#FCE5CC" stroke="#1D1D1B" stroke-linecap="round" stroke-linejoin="round"/>
<path d="M571.06 198.5L570.77 224.28L481.44 275.86V250.07L571.06 198.5Z" fill="#F5B166" stroke="#1D1D1B" stroke-linecap="round" stroke-linejoin="round"/>
<path d="M481.53 249.97L481.44 275.86L384.66 219.99V194.2L481.53 249.97Z" fill="#F9CB99" stroke="#1D1D1B" stroke-linecap="round" stroke-linejoin="round"/>
<path d="M533.29 164.6C532.191 164.1 530.991 163.866 529.785 163.917C528.579 163.967 527.403 164.301 526.35 164.89L519.68 168.94L526.12 172.66L532.8 168.66C534.85 167.42 535.07 165.63 533.29 164.6Z" fill="white" stroke="#1D1D1B" stroke-linecap="round" stroke-linejoin="round"/>
<path d="M485.15 235.04L496.32 241.49V254.38L492.6 252.23V243.64L485.15 239.34V235.04Z" fill="#F9CB99" stroke="#1D1D1B" stroke-linecap="round" stroke-linejoin="round"/>
<path d="M477.71 239.34L481.43 241.49L485.15 239.34V235.04L477.71 239.34Z" fill="#F5B166" stroke="#1D1D1B" stroke-linecap="round" stroke-linejoin="round"/>
<path d="M488.88 254.38V245.79L481.43 241.49L485.15 239.34L492.6 243.64V252.23L488.88 254.38Z" fill="#99D5B3" stroke="#1D1D1B" stroke-linecap="round" stroke-linejoin="round"/>
<path d="M488.88 258.68L496.32 254.38L492.6 252.23L488.88 254.38V258.68Z" fill="#FCE5CC" stroke="#1D1D1B" stroke-linecap="round" stroke-linejoin="round"/>
<path d="M496.33 228.58L507.49 235.03V247.93L503.77 245.78V237.18L496.33 232.88V228.58Z" fill="#F9CB99" stroke="#1D1D1B" stroke-linecap="round" stroke-linejoin="round"/>
<path d="M488.88 232.88L492.61 235.03L496.33 232.88V228.58L488.88 232.88Z" fill="#F5B166" stroke="#1D1D1B" stroke-linecap="round" stroke-linejoin="round"/>
<path d="M500.05 247.93V239.33L492.61 235.03L496.33 232.88L503.77 237.18V245.78L500.05 247.93Z" fill="#99D5B3" stroke="#1D1D1B" stroke-linecap="round" stroke-linejoin="round"/>
<path d="M500.05 252.22L507.49 247.93L503.77 245.78L500.05 247.93V252.22Z" fill="#FCE5CC" stroke="#1D1D1B" stroke-linecap="round" stroke-linejoin="round"/>
<path d="M507.49 222.13L518.66 228.58V241.48L514.94 239.33V230.73L507.49 226.43V222.13Z" fill="#F9CB99" stroke="#1D1D1B" stroke-linecap="round" stroke-linejoin="round"/>
<path d="M500.05 226.43L503.77 228.58L507.49 226.43V222.13L500.05 226.43Z" fill="#F5B166" stroke="#1D1D1B" stroke-linecap="round" stroke-linejoin="round"/>
<path d="M511.22 241.48V232.88L503.77 228.58L507.49 226.43L514.94 230.73V239.33L511.22 241.48Z" fill="#99D5B3" stroke="#1D1D1B" stroke-linecap="round" stroke-linejoin="round"/>
<path d="M511.22 245.78L518.66 241.48L514.94 239.33L511.22 241.48V245.78Z" fill="#FCE5CC" stroke="#1D1D1B" stroke-linecap="round" stroke-linejoin="round"/>
<path d="M451.81 267.27L243.37 146.91L235.92 151.21L444.36 271.57L451.81 267.27Z" fill="#F5F5F5" stroke="#1D1D1B" stroke-linecap="round" stroke-linejoin="round"/>
<path d="M444.22 271.65L235.92 151.21V297.36L444.36 417.71L444.22 271.65Z" fill="white" stroke="#1D1D1B" stroke-linecap="round" stroke-linejoin="round"/>
<path d="M451.81 413.41V267.27L444.22 271.65L444.36 417.71L451.81 413.41Z" fill="#E6E6E6" stroke="#1D1D1B" stroke-linecap="round" stroke-linejoin="round"/>
<path d="M243.37 293.06V164.11L436.92 275.86V404.81L243.37 293.06Z" fill="#9E7FB2" stroke="#1D1D1B" stroke-linecap="round" stroke-linejoin="round"/>
<path d="M276.87 308.1V252.12L410.86 329.49V385.47L276.87 308.1Z" fill="white" stroke="#1D1D1B" stroke-linecap="round" stroke-linejoin="round"/>
<path d="M247.09 179.15V166.26L436.92 275.86V290.28L247.09 179.15Z" fill="#DFD4E5" stroke="#1D1D1B" stroke-linecap="round" stroke-linejoin="round"/>
<path d="M247.09 243.37L276.87 260.57V308.1L247.09 290.91V243.37Z" fill="#F5F5F5" stroke="#1D1D1B" stroke-linecap="round" stroke-linejoin="round"/>
<path d="M410.86 338.25L436.92 353.29V400.52L410.86 385.47V338.25Z" fill="#F5F5F5" stroke="#1D1D1B" stroke-linecap="round" stroke-linejoin="round"/>
<path d="M243.37 164.11L247.09 166.26V290.91L243.37 293.06V164.11Z" fill="#E6E6E6" stroke="#1D1D1B" stroke-linecap="round" stroke-linejoin="round"/>
<path d="M243.37 293.06L247.09 290.91L436.92 400.52V404.81L243.37 293.06Z" fill="#F5F5F5" stroke="#1D1D1B" stroke-linecap="round" stroke-linejoin="round"/>
<path d="M317.81 344.64V370.43C317.81 370.43 317.81 379.02 325.25 383.32L340.14 391.92C332.7 387.62 332.7 379.02 332.7 379.02V353.23L317.81 344.64Z" fill="#F5F5F5" stroke="#1D1D1B" stroke-linecap="round" stroke-linejoin="round"/>
<path d="M511.36 293.06C504.24 288.95 491.8 289.46 483.58 294.21C478.58 297.11 476.28 300.91 476.88 304.37L451.81 318.85V336L491.81 312.93C497.923 313.313 504.021 311.972 509.41 309.06C517.59 304.35 518.48 297.17 511.36 293.06Z" fill="#F5F5F5" stroke="#1D1D1B" stroke-linecap="round" stroke-linejoin="round"/>
<path d="M506.66 299.07V261.36L487 272.7V300.93C486.87 302.35 487.65 303.72 489.39 304.72C492.95 306.78 499.17 306.52 503.28 304.15C505.82 302.7 507 300.8 506.66 299.07Z" fill="#E0E0E0" stroke="#1D1D1B" stroke-linecap="round" stroke-linejoin="round"/>
<path d="M247.09 183.45L265.7 219.99L247.09 231.31V183.45Z" fill="white" stroke="#1D1D1B" stroke-linecap="round" stroke-linejoin="round"/>
<path d="M436.92 344.64L422.03 327.44L436.92 318.85V344.64Z" fill="white" stroke="#1D1D1B" stroke-linecap="round" stroke-linejoin="round"/>
<path d="M50.8217 208.352C62.5943 197.121 60.0034 186.345 60.0034 186.345L56.4981 172.969L6.72266 201.06L13.0322 211.761C22.6146 220.903 39.049 219.584 50.8217 208.352Z" fill="#E6E6E6"/>
<ellipse rx="28.6963" ry="23.3574" transform="matrix(0.723545 -0.690277 0.723545 0.690277 31.1085 185.108)" fill="white"/>
<path d="M13.334 172.667L47.967 197.868" stroke="#E6E6E6" stroke-width="1.33333" stroke-linecap="round" stroke-linejoin="round"/>
<path d="M50.2224 167.333C41.635 159.21 26.2224 159.778 15.1113 170.84L49.3336 195.778C56.5691 186.176 57.7295 174.435 50.2224 167.333Z" fill="#E0E0E0"/>
<path d="M47.9647 198.971C48.2554 198.745 48.3077 198.326 48.0817 198.035C47.8556 197.745 47.4368 197.692 47.1462 197.918L47.9647 198.971ZM12.3629 202.444L11.9059 202.93L11.9426 202.964L11.9842 202.993L12.3629 202.444ZM12.8748 175.316C13.1106 175.033 13.0725 174.613 12.7897 174.377C12.5069 174.141 12.0865 174.179 11.8507 174.462L12.8748 175.316ZM47.1462 197.918C35.2915 207.138 22.7284 208.788 12.7415 201.896L11.9842 202.993C22.6047 210.323 35.819 208.417 47.9647 198.971L47.1462 197.918ZM12.8199 201.959C9.07689 198.435 7.15831 194.121 7.12321 189.541C7.08806 184.953 8.94324 180.031 12.8748 175.316L11.8507 174.462C7.76097 179.367 5.75187 184.585 5.78992 189.551C5.82803 194.524 7.92015 199.177 11.9059 202.93L12.8199 201.959Z" fill="#E0E0E0"/>
<path d="M51.5443 165.213C59.7448 173.037 59.4481 186.377 51.5443 196.955C51.1262 197.514 50.6823 199.489 50.2218 200.032C49.8132 200.514 49.3923 199.565 48.9505 200.032C48.5356 200.47 48.106 200.902 47.662 201.325C36.1372 212.32 19.19 213.979 9.80936 205.029C0.428725 196.08 2.1669 179.912 13.6917 168.917C25.2165 157.922 42.1636 156.264 51.5443 165.213Z" stroke="black"/>
<path d="M49.4356 166.829L49.0888 167.189L49.4356 166.829ZM14.764 169.858C14.5651 170.05 14.5591 170.366 14.7507 170.565C14.9422 170.764 15.2587 170.77 15.4576 170.579L14.764 169.858ZM49.4282 195.036C49.2639 195.258 49.3106 195.571 49.5326 195.735C49.7545 195.9 50.0676 195.853 50.2319 195.631L49.4282 195.036ZM15.4576 170.579C25.7836 160.636 40.8382 159.245 49.0888 167.189L49.7824 166.469C41.0202 158.032 25.3395 159.676 14.764 169.858L15.4576 170.579ZM49.0888 167.189C56.3007 174.133 56.4847 185.504 49.4282 195.036L50.2319 195.631C57.5099 185.8 57.4428 173.845 49.7824 166.469L49.0888 167.189Z" fill="black"/>
<path d="M47.4533 199.092C47.6544 198.903 47.6639 198.587 47.4746 198.386C47.2853 198.185 46.9689 198.175 46.7678 198.364L47.4533 199.092ZM11.8985 202.985L11.5558 203.349L11.8985 202.985ZM12.7462 174.32C12.923 174.108 12.8944 173.793 12.6823 173.616C12.4702 173.439 12.1549 173.468 11.9781 173.68L12.7462 174.32ZM46.7678 198.364C41.6218 203.209 35.0412 206.228 28.7115 207.05C22.3782 207.872 16.3522 206.491 12.2413 202.621L11.5558 203.349C15.9457 207.482 22.3038 208.89 28.8403 208.041C35.3804 207.192 42.1554 204.081 47.4533 199.092L46.7678 198.364ZM12.2413 202.621C4.75353 195.571 4.84804 183.793 12.7462 174.32L11.9781 173.68C3.83357 183.449 3.58618 195.845 11.5558 203.349L12.2413 202.621Z" fill="black"/>
<line x1="13.0025" y1="171.371" x2="48.777" y2="197.302" stroke="black" stroke-linecap="round" stroke-linejoin="round"/>
<path d="M6.66602 201.111L13.0311 211.761C22.6135 220.902 39.0479 219.583 50.8206 208.352C62.5932 197.12 60.0023 186.345 60.0023 186.345L56.8882 174.444" stroke="black" stroke-linecap="round" stroke-linejoin="round"/>
<path d="M826.062 310.375V291.625C828 286 837.5 284.375 842.5 285L853.5 286.5L863.562 289.75V306.625C856.812 314.875 848.875 313.812 845.75 312.25L826.062 310.375Z" fill="#9E9E9E"/>
<path d="M807.312 309.437L826.063 310.375C826.376 304.437 826.063 292.375 826.063 291.625C826.063 290.687 828.5 286.707 831.688 286C828.875 286 821.375 289.75 817.625 290.687C818.375 286.937 807.812 239.813 802.5 217C800.937 217.938 797 220.25 794 222.5C791 224.75 792 225.5 791.375 227.875C793.5 237.5 806.375 287.875 807.312 291.625C805.062 293.125 804.5 298.5 804.5 301L807.312 302.875V309.437Z" fill="#E0E0E0"/>
<path d="M818 291C818 286.5 807.937 239.438 802.625 216.625C807.312 215.375 817.625 212.688 821.375 211.938C825.125 211.188 826.687 214.75 827 216.625C830.906 240.062 841.062 283.187 841.062 285.063C838.25 284.125 825.5 286.5 818 291Z" fill="#F5F5F5"/>
<path d="M789.499 206.312L793.249 223.187L802.625 216.625L820.437 211.937L818.562 202.562C817.625 197.875 817.5 197.875 813.5 197.875C810.688 197.875 806.886 197.229 803.563 197.875C798.209 198.915 792.531 202.562 791.375 202.562C789.5 202.562 788.562 205.375 789.499 206.312Z" fill="white"/>
<path d="M800.75 218.5L793.25 223.187C792 217.25 789 206 789 204.5C789 203 793.812 200.625 796 200L800.75 218.5Z" fill="#E0E0E0"/>
<path d="M793.25 223.187L788.92 205.001C788.709 204.116 789.12 203.204 789.933 202.796C792.561 201.479 798.42 198.7 802.625 197.875C807.019 197.013 813.378 197.459 816.193 197.724C817.051 197.805 817.739 198.445 817.908 199.291L820.438 211.937" stroke="black" stroke-linecap="round" stroke-linejoin="round"/>
<path d="M802.625 216.625L821.375 211.938C822.937 211.313 826.25 211.563 827 217.563C827.75 223.563 836.688 265.063 841.062 285.062" stroke="black"/>
<path d="M826 310C820.688 308.125 807.5 303.25 804.5 301C804.5 298.188 805.125 293.812 807.313 291.625M807.313 291.625C810.125 292.25 816.125 293.125 817.625 291.625C819.125 290.125 808.25 241 802.625 216.625L793.25 223.188C792.313 224.125 790.813 224.875 792.313 231.625C793.813 238.375 802.938 274.438 807.313 291.625Z" stroke="black" stroke-linecap="round" stroke-linejoin="round"/>
<path d="M845.75 294.437C845.75 302.875 845.75 306.625 845.75 312.25M845.75 294.437L826.062 291.625M845.75 294.437C847.85 291.638 852.563 287.479 857.938 287.736M845.75 312.25C855.5 315.25 861.688 309.75 863.563 306.625C863.563 301 863.563 298.188 863.563 289.75C861.662 288.42 859.762 287.824 857.938 287.736M845.75 312.25L826.062 310.375V291.625M826.062 291.625C826.688 289.125 830.375 284.313 840.125 285.063C849.875 285.813 856.063 287.158 857.938 287.736" stroke="black" stroke-linecap="round" stroke-linejoin="round"/>
<path d="M826.062 310.375L807.312 309.437V302.5M826.062 291.625H817.625C820.438 289.75 827.938 284.125 840.125 285.062" stroke="black" stroke-linecap="round" stroke-linejoin="round"/>
<path d="M197.312 83.9375C198.25 86.75 198.25 89.875 198.25 89.875C198.25 90.9105 193.213 93.5 187 93.5C180.787 93.5 175.75 90.9105 175.75 89.875C175.75 89.875 175.75 86.75 176.687 83.9375C179.187 84.25 184.75 85.5 187 85.5C189.25 85.5 194.812 84.25 197.312 83.9375Z" fill="#E0E0E0"/>
<path d="M172 92.375V105.917C172 108.793 178.716 112 187 112C195.284 112 202 108.793 202 105.917V92.375C200.125 94.25 193.038 96.125 187 96.125C180.962 96.125 173.562 93.9375 172 92.375Z" fill="#F5F5F5"/>
<path d="M175.75 77.375V82.7917C175.75 83.9423 180.787 86 187 86C193.213 86 198.25 83.9423 198.25 82.7917V77.375H175.75Z" fill="#F5F5F5"/>
<path d="M187 97C195.284 97 202 94.0263 202 91.4375C201.997 90.5 200.117 89.5625 198.242 89.5625C198.242 90.5 195.993 93.5 187 93.5C178.007 93.5 175.747 90.5 175.742 89.5625C172.742 89.5625 171.997 90.8125 172 91.4375C172 94.0263 178.716 97 187 97Z" fill="#E6E6E6"/>
<path d="M187.008 157.062C195.292 157.062 202.008 154.964 202.008 152.375V115.737C202.008 109.4 196.5 111 196.5 111C196.5 111 190.917 112.079 187.008 112C184.299 111.945 180.313 111.938 177.5 111C174.687 110.062 171.717 113.757 172.029 115.737V152.375C172.029 154.964 178.723 157.062 187.008 157.062Z" fill="#9E9E9E"/>
<path d="M174.812 118.625C174.812 115.813 174.812 113.938 176.688 113L180.438 113.937C180.75 126.75 180.438 150.5 180.438 153.313C176.688 153.313 175.75 152.375 174.813 151.438L174.812 151.437V118.625Z" fill="white"/>
<path d="M179.5 73.625H194.5L190.849 40.7646C190.793 40.2581 190.365 39.875 189.855 39.875H184.145C183.635 39.875 183.207 40.2581 183.151 40.7646L179.5 73.625Z" fill="white"/>
<path d="M187 148.625C195.284 148.625 202 146.526 202 143.938V117.688C202 120.276 195.284 122.375 187 122.375C178.716 122.375 172 120.276 172 117.688V143.938C172 146.526 178.716 148.625 187 148.625Z" fill="#F5F5F5"/>
<path d="M197.312 83.9375C198.25 86.75 198.25 89.875 198.25 89.875C198.25 90.9105 193.213 93.3125 187 93.3125C180.787 93.3125 175.75 90.9105 175.75 89.875C175.75 89.875 175.75 86.75 176.687 83.9375" stroke="black" stroke-linecap="round" stroke-linejoin="round"/>
<path d="M172 91.5V105.917C172 108.793 178.716 112.062 187 112.062C195.284 112.062 202 108.793 202 105.917V91.5" stroke="black" stroke-linecap="round" stroke-linejoin="round"/>
<path d="M175.75 77.375V82.7917C175.75 83.9423 180.787 85.8125 187 85.8125C193.213 85.8125 198.25 83.9423 198.25 82.7917V77.375" stroke="black" stroke-linecap="round" stroke-linejoin="round"/>
<path d="M198.242 89.5625C200.117 89.5625 201.997 90.5 202 91.4375C202 94.0263 195.284 97.0625 187 97.0625C178.716 97.0625 172 94.0263 172 91.4375C171.997 90.8125 172.742 89.5625 175.742 89.5625" stroke="black" stroke-linecap="round" stroke-linejoin="round"/>
<path d="M202.5 143.937C202.5 143.661 202.276 143.437 202 143.437C201.724 143.437 201.5 143.661 201.5 143.937H202.5ZM172.529 143.937C172.529 143.661 172.305 143.437 172.029 143.437C171.753 143.437 171.529 143.661 171.529 143.937H172.529ZM202.5 117.687C202.5 117.411 202.276 117.187 202 117.187C201.724 117.187 201.5 117.411 201.5 117.687H202.5ZM172.529 117.687C172.529 117.411 172.305 117.187 172.029 117.187C171.753 117.187 171.529 117.411 171.529 117.687H172.529ZM172.029 115.737H172.529V115.737L172.029 115.737ZM196.375 111.125L196.467 111.617L196.494 111.612L196.522 111.603L196.375 111.125ZM187 112.063L187.01 111.563L187 112.063ZM201.5 143.937C201.5 144.352 201.231 144.838 200.524 145.36C199.828 145.875 198.788 146.359 197.458 146.775C194.804 147.604 191.106 148.125 187 148.125V149.125C191.179 149.125 194.981 148.596 197.756 147.729C199.14 147.297 200.297 146.771 201.119 146.164C201.93 145.565 202.5 144.818 202.5 143.937H201.5ZM187 148.125C182.911 148.125 179.223 147.43 176.572 146.512C175.244 146.052 174.195 145.543 173.49 145.051C173.136 144.805 172.886 144.574 172.728 144.371C172.568 144.165 172.529 144.022 172.529 143.937H171.529C171.529 144.322 171.7 144.677 171.938 144.984C172.178 145.293 172.514 145.59 172.918 145.871C173.725 146.434 174.866 146.979 176.245 147.457C179.007 148.414 182.806 149.125 187 149.125V148.125ZM201.5 117.687C201.5 118.102 201.231 118.588 200.524 119.11C199.828 119.625 198.788 120.109 197.458 120.525C194.804 121.354 191.106 121.875 187 121.875V122.875C191.179 122.875 194.981 122.346 197.756 121.479C199.14 121.047 200.297 120.521 201.119 119.914C201.93 119.315 202.5 118.568 202.5 117.687H201.5ZM187 121.875C182.894 121.875 179.204 121.354 176.558 120.525C175.231 120.109 174.195 119.625 173.501 119.11C172.798 118.589 172.529 118.102 172.529 117.687H171.529C171.529 118.567 172.096 119.314 172.906 119.914C173.725 120.521 174.878 121.046 176.259 121.479C179.026 122.346 182.822 122.875 187 122.875V121.875ZM201.508 152.375C201.508 152.789 201.238 153.276 200.532 153.798C199.835 154.312 198.795 154.797 197.465 155.212C194.811 156.042 191.114 156.563 187.008 156.563V157.563C191.186 157.563 194.989 157.034 197.764 156.167C199.148 155.734 200.305 155.209 201.126 154.602C201.938 154.002 202.508 153.256 202.508 152.375H201.508ZM187.008 156.563C182.902 156.563 179.21 156.042 176.561 155.213C175.234 154.797 174.197 154.313 173.502 153.798C172.798 153.277 172.529 152.79 172.529 152.375H171.529C171.529 153.255 172.097 154.002 172.907 154.602C173.727 155.209 174.881 155.734 176.263 156.167C179.032 157.034 182.83 157.563 187.008 157.563V156.563ZM172.529 152.375V115.737H171.529V152.375H172.529ZM172.529 115.737C172.529 115.401 172.665 114.913 172.962 114.364C173.255 113.823 173.685 113.261 174.224 112.777C175.301 111.81 176.77 111.192 178.442 111.61L178.684 110.64C176.606 110.12 174.807 110.909 173.556 112.033C172.93 112.594 172.429 113.248 172.083 113.887C171.741 114.518 171.529 115.174 171.529 115.737L172.529 115.737ZM196.375 111.125C196.522 111.603 196.521 111.603 196.521 111.603C196.521 111.603 196.521 111.603 196.521 111.603C196.521 111.604 196.521 111.604 196.521 111.604C196.521 111.604 196.521 111.603 196.522 111.603C196.523 111.603 196.526 111.602 196.53 111.601C196.538 111.599 196.551 111.595 196.568 111.59C196.603 111.581 196.657 111.567 196.727 111.551C196.868 111.519 197.07 111.48 197.314 111.451C197.807 111.393 198.444 111.379 199.067 111.539C199.683 111.697 200.277 112.02 200.723 112.636C201.172 113.257 201.508 114.225 201.508 115.737H202.508C202.508 114.081 202.14 112.888 201.533 112.05C200.923 111.207 200.108 110.773 199.316 110.57C198.531 110.369 197.76 110.391 197.196 110.458C196.912 110.492 196.675 110.538 196.507 110.576C196.423 110.595 196.356 110.612 196.309 110.624C196.285 110.631 196.266 110.636 196.253 110.64C196.246 110.642 196.241 110.643 196.237 110.645C196.235 110.645 196.233 110.646 196.232 110.646C196.231 110.646 196.23 110.647 196.23 110.647C196.23 110.647 196.229 110.647 196.229 110.647C196.229 110.647 196.229 110.647 196.375 111.125ZM201.508 115.737V152.375H202.508V115.737H201.508ZM178.442 111.61C182.253 112.563 184.283 112.508 186.99 112.563L187.01 111.563C184.301 111.508 182.373 111.562 178.684 110.64L178.442 111.61ZM186.99 112.563C188.983 112.603 191.357 112.364 193.219 112.119C194.153 111.996 194.963 111.871 195.541 111.776C195.83 111.729 196.06 111.689 196.219 111.661C196.299 111.647 196.36 111.636 196.402 111.629C196.423 111.625 196.439 111.622 196.45 111.62C196.455 111.619 196.459 111.618 196.462 111.618C196.463 111.617 196.465 111.617 196.465 111.617C196.466 111.617 196.466 111.617 196.466 111.617C196.466 111.617 196.466 111.617 196.466 111.617C196.466 111.617 196.467 111.617 196.375 111.125C196.284 110.634 196.284 110.634 196.284 110.634C196.284 110.634 196.284 110.634 196.284 110.634C196.284 110.634 196.283 110.634 196.283 110.634C196.282 110.634 196.282 110.634 196.28 110.634C196.278 110.635 196.274 110.635 196.269 110.636C196.259 110.638 196.244 110.641 196.224 110.645C196.183 110.652 196.124 110.663 196.046 110.676C195.891 110.704 195.664 110.743 195.379 110.789C194.81 110.883 194.01 111.006 193.088 111.128C191.24 111.371 188.926 111.601 187.01 111.563L186.99 112.563Z" fill="black"/>
<path d="M198.81 77.375V77.875C198.871 77.875 198.931 77.8639 198.988 77.8422L198.81 77.375ZM198.81 68L198.988 67.5328C198.931 67.5111 198.871 67.5 198.81 67.5V68ZM175.19 68V67.5C175.129 67.5 175.069 67.5111 175.012 67.5328L175.19 68ZM175.19 77.375L175.012 77.8422C175.069 77.8639 175.129 77.875 175.19 77.875V77.375ZM203.375 72.6875C203.375 73.4159 202.992 74.1655 202.179 74.9027C201.365 75.6399 200.161 76.3251 198.632 76.9078L198.988 77.8422C200.585 77.2337 201.913 76.4933 202.85 75.6437C203.788 74.7939 204.375 73.7954 204.375 72.6875H203.375ZM198.632 68.4672C200.161 69.0499 201.365 69.7351 202.179 70.4723C202.992 71.2095 203.375 71.9591 203.375 72.6875H204.375C204.375 71.5796 203.788 70.5811 202.85 69.7313C201.913 68.8817 200.585 68.1413 198.988 67.5328L198.632 68.4672ZM198.81 67.5H175.19V68.5H198.81V67.5ZM170.625 72.6875C170.625 71.9591 171.008 71.2095 171.821 70.4723C172.635 69.7351 173.839 69.0499 175.368 68.4672L175.012 67.5328C173.415 68.1413 172.087 68.8817 171.15 69.7313C170.212 70.5811 169.625 71.5796 169.625 72.6875H170.625ZM175.368 76.9078C173.839 76.3251 172.635 75.6399 171.821 74.9027C171.008 74.1655 170.625 73.4159 170.625 72.6875H169.625C169.625 73.7954 170.212 74.7939 171.15 75.6437C172.087 76.4933 173.415 77.2337 175.012 77.8422L175.368 76.9078ZM175.19 77.875H198.81V76.875H175.19V77.875Z" fill="black"/>
<path fill-rule="evenodd" clip-rule="evenodd" d="M198.81 77.375C201.936 76.1839 203.875 74.5238 203.875 72.6875C203.875 70.8512 201.936 69.1911 198.81 68H175.19C172.064 69.1911 170.125 70.8512 170.125 72.6875C170.125 74.5238 172.064 76.1839 175.19 77.375H198.81Z" fill="#E0E0E0"/>
<path d="M198.81 77.375V77.875C198.871 77.875 198.931 77.8639 198.988 77.8422L198.81 77.375ZM198.81 68L198.988 67.5328C198.931 67.5111 198.871 67.5 198.81 67.5V68ZM175.19 68V67.5C175.129 67.5 175.069 67.5111 175.012 67.5328L175.19 68ZM175.19 77.375L175.012 77.8422C175.069 77.8639 175.129 77.875 175.19 77.875V77.375ZM203.375 72.6875C203.375 73.4159 202.992 74.1655 202.179 74.9027C201.365 75.6399 200.161 76.3251 198.632 76.9078L198.988 77.8422C200.585 77.2337 201.913 76.4933 202.85 75.6437C203.788 74.7939 204.375 73.7954 204.375 72.6875H203.375ZM198.632 68.4672C200.161 69.0499 201.365 69.7351 202.179 70.4723C202.992 71.2095 203.375 71.9591 203.375 72.6875H204.375C204.375 71.5796 203.788 70.5811 202.85 69.7313C201.913 68.8817 200.585 68.1413 198.988 67.5328L198.632 68.4672ZM198.81 67.5H175.19V68.5H198.81V67.5ZM170.625 72.6875C170.625 71.9591 171.008 71.2095 171.821 70.4723C172.635 69.7351 173.839 69.0499 175.368 68.4672L175.012 67.5328C173.415 68.1413 172.087 68.8817 171.15 69.7313C170.212 70.5811 169.625 71.5796 169.625 72.6875H170.625ZM175.368 76.9078C173.839 76.3251 172.635 75.6399 171.821 74.9027C171.008 74.1655 170.625 73.4159 170.625 72.6875H169.625C169.625 73.7954 170.212 74.7939 171.15 75.6437C172.087 76.4933 173.415 77.2337 175.012 77.8422L175.368 76.9078ZM175.19 77.875H198.81V76.875H175.19V77.875Z" fill="black"/>
<path d="M183.091 41.575L179.5 69.8164C179.5 71.8551 182.858 73.5078 187 73.5078C191.142 73.5078 194.5 71.8551 194.5 69.8164L190.914 41.5694C190.821 40.6083 190.013 39.875 189.048 39.875H184.957C183.99 39.875 183.181 40.6115 183.091 41.575Z" fill="#F5F5F5" stroke="black" stroke-linecap="round" stroke-linejoin="round"/>
<path d="M181.375 99.875V107.375" stroke="black" stroke-linecap="round" stroke-linejoin="round"/>
<path d="M175.75 98V105.5" stroke="black" stroke-linecap="round" stroke-linejoin="round"/>
<path d="M187 99.875V107.375" stroke="black" stroke-linecap="round" stroke-linejoin="round"/>
<path d="M192.625 99.875V107.375" stroke="black" stroke-linecap="round" stroke-linejoin="round"/>
<path d="M198.25 98V105.5" stroke="black" stroke-linecap="round" stroke-linejoin="round"/>
<ellipse cx="187" cy="40.8125" rx="3.75" ry="1.64062" fill="#E0E0E0" stroke="black" stroke-linecap="round" stroke-linejoin="round"/>
<path d="M634.746 255.524C633.996 254.762 631.936 255.207 631 255.524C633.185 253.302 637.821 249.198 638.491 248.857C640.364 247.905 645.982 246 677.82 246C709.658 246 714.685 246.234 717.149 247.905C719.958 249.81 714.964 252.985 714.34 255.524V343.148C714.34 353.624 696.548 354.577 696.548 354.577C696.548 354.577 670.329 355.529 659.092 354.577C646.919 353.545 642.237 349.5 642.237 343.148V265.049C642.237 264.096 635.682 256.477 634.746 255.524Z" fill="white"/>
<path d="M645.938 337.595C645.938 315.473 645.937 299.791 645.938 296.43C653.498 296.43 698.864 296.43 710.625 296.43V337.595C710.625 346.836 701.214 346.993 694.663 347.676C684.375 348.75 671.14 348.516 661.059 347.676C650.138 346.766 645.937 344.062 645.938 337.595Z" fill="#E0E0E0"/>
<path d="M710.625 282.187V300.937C710.625 300.937 703.155 305.102 695.625 305.625C682.868 306.512 674.301 299.616 663.75 298.125C652.387 296.519 645.938 300.937 645.938 300.937V282.187C645.938 282.187 652.387 277.769 663.75 279.375C674.301 280.866 683.438 279.375 695.625 277.5C703.085 276.353 710.625 282.187 710.625 282.187Z" fill="#9E9E9E"/>
<circle cx="658.125" cy="328.125" r="1.875" fill="white"/>
<circle cx="673.125" cy="320.625" r="1.875" fill="white"/>
<circle cx="697.5" cy="330" r="1.875" fill="white"/>
<circle cx="652.5" cy="309.375" r="1.875" fill="white"/>
<circle cx="695.625" cy="316.875" r="3.75" fill="#9E9E9E"/>
<circle cx="678.75" cy="335.625" r="3.75" fill="#9E9E9E"/>
<circle cx="665.625" cy="309.375" r="3.75" fill="#9E9E9E"/>
<path d="M699.375 342.188V253.125H704.062C704.375 281.875 704.812 336.188 704.062 338.438C703.312 340.688 700.625 341.875 699.375 342.188Z" fill="#F5F5F5"/>
<path d="M646.875 253.125L643.125 263.437C640.625 261.25 633.75 255.375 633.75 253.125C638.438 254.063 643.125 252.5 646.875 253.125Z" fill="#E6E6E6"/>
<path d="M634.688 255C633.938 254.25 631.875 254.688 630.938 255C633.125 252.813 637.767 248.773 638.438 248.438C640.313 247.5 645.938 245.625 677.813 245.625C709.688 245.625 714.721 245.856 717.188 247.5C720 249.375 715 252.5 714.375 255V341.719C714.375 352.031 706.875 352.969 703.125 353.906C699.375 354.844 687.451 355.313 678.281 355.313C669.112 355.313 659.063 355.313 653.438 353.906C649.688 352.969 642.188 352.5 642.188 341.719V264.375C642.188 263.438 635.625 255.938 634.688 255Z" stroke="black" stroke-linecap="round" stroke-linejoin="round"/>
<path d="M634.688 253.125C634.688 253.125 640.858 249.795 645 250.313C660 252.188 704.062 251.25 715.312 249.375" stroke="black" stroke-linecap="round" stroke-linejoin="round"/>
<path d="M645.938 282.188V338.027C645.938 344.063 649.309 347.434 660.511 348.367C670.851 349.229 689.062 348.75 694.979 348.367C702.288 347.895 710.625 347.506 710.625 338.027V282.188M645.938 282.188V300.936C645.938 300.936 655.171 296.589 665.337 298.169C674.775 299.636 682.439 306.42 693.852 305.548C700.587 305.033 710.625 300.936 710.625 300.936V282.188M645.938 282.188C645.938 282.188 655.171 278.141 665.337 279.721M710.625 282.188C710.625 282.188 700.587 286.585 693.852 287.1C682.439 287.972 674.775 281.188 665.337 279.721M710.625 282.188C708.125 280.525 701.25 277.5 693.75 277.5C684.375 277.5 686.611 281.004 665.337 279.721" stroke="black" stroke-linecap="round" stroke-linejoin="round"/>
<circle cx="652.5" cy="309.375" r="3.25" stroke="black"/>
<circle cx="673.125" cy="320.625" r="3.25" stroke="black"/>
<circle cx="658.125" cy="328.125" r="3.25" stroke="black"/>
<circle cx="697.5" cy="330" r="3.25" stroke="black"/>
<path d="M670.75 309.375C670.75 312.206 668.455 314.5 665.625 314.5C662.795 314.5 660.5 312.206 660.5 309.375C660.5 306.545 662.795 304.25 665.625 304.25C668.455 304.25 670.75 306.545 670.75 309.375Z" stroke="black"/>
<circle cx="678.75" cy="335.625" r="5.125" stroke="black"/>
<circle cx="695.625" cy="316.875" r="5.125" stroke="black"/>
<path d="M117 242.625C116.147 242.833 114.612 243.5 115.294 244.5" stroke="white" stroke-width="2"/>
<path d="M148.875 306.375C150.493 308.678 160.677 319.204 158.25 328.875" stroke="white" stroke-width="2" stroke-linecap="round" stroke-linejoin="round"/>
<path d="M178.875 295.125C177.937 298.875 178.875 311.625 178.875 315.75" stroke="white" stroke-width="2" stroke-linecap="round" stroke-linejoin="round"/>
<path d="M128.25 334.5C129.291 324.764 140.611 314.091 145.125 310.125C149.812 305.437 150.582 302.781 162 300.75C171.133 299.125 191.341 290.75 201.375 286.687" stroke="white" stroke-width="2" stroke-linecap="round" stroke-linejoin="round"/>
<path d="M143.25 310.125C139.083 308.145 130.333 306.217 118.875 309.187" stroke="white" stroke-width="2" stroke-linecap="round" stroke-linejoin="round"/>
<path d="M158.25 300.75C153.875 297 140.942 290.352 133.875 291.375" stroke="white" stroke-width="2" stroke-linecap="round" stroke-linejoin="round"/>
<path d="M188.25 291.375C183.848 287.389 172.859 277.163 165.75 278.25" stroke="white" stroke-width="2" stroke-linecap="round" stroke-linejoin="round"/>
<path d="M133.875 282C104.812 284.5 92 266 92.6251 254.812C91.6872 252 99.9998 246 106.5 244.5L105.5 247.5C102.688 248.75 96.9378 252.562 99.1878 254.812C102 257.625 113.25 261.375 133.875 260.437C150.375 259.687 160.375 254.5 163.5 252L161.063 248.25L160.5 244.5C163 244.812 169.5 246.375 169.5 250.125C169.5 254.812 168.5 279.022 133.875 282Z" fill="#F5F5F5"/>
<path d="M106.837 242.417L105.75 244.5V247.312C104.187 247.937 100.687 249.937 99.1871 252.937C97.3121 256.687 115.537 261.375 132.937 260.437C150.337 259.5 165.375 252.437 163.5 251.5C162 250.75 160.437 245.993 160.125 243.458L157.95 242.417L154.687 239.292L151.425 238.25L149.25 236.167L146.667 232H143.812L142.725 229.917L138.375 226.792L132.937 225.75H127.5H122.062L118.8 227.833L115.537 230.958L113.362 232L111.187 235.125L107.925 236.167L106.837 239.292V242.417Z" fill="#E6E6E6"/>
<path d="M147.602 320.362C145.517 315.511 150.642 315.106 152.813 315.511C155.419 310.659 159.164 311.872 160.63 313.085C172.355 322.788 160.63 331.278 158.024 332.491C155.418 333.704 150.207 326.427 147.602 320.362Z" fill="#E6E6E6"/>
<path d="M184.137 311.284C185.992 300.792 180.275 300.792 177.184 302.103C177.184 300.792 172.549 295.546 170.232 302.103C168.377 307.35 170.231 315.031 173.708 317.842C176.412 320.028 182.283 321.776 184.137 311.284Z" fill="#E6E6E6"/>
<path d="M132.994 321.756C134.042 320.719 135.75 319.608 135.75 322.009C135.75 325.257 128.75 338.25 125.75 338.25C122.75 338.25 120.75 332.836 120.75 329.588C120.75 326.34 124.75 317.678 129.75 319.843C132.179 320.896 132.887 321.468 132.994 321.756Z" fill="#E6E6E6"/>
<path d="M115.872 311.088C124.987 313.267 134.517 311.088 137.625 309.272C132.445 305.639 129.338 303.823 122.087 304.731C118.309 305.204 108.621 309.354 115.872 311.088Z" fill="#E6E6E6"/>
<path d="M130.472 293.191C132.083 294.958 143.562 299.818 152.625 298.714C152.625 297.609 151.618 289.877 143.562 286.564C135.507 283.25 128.458 290.982 130.472 293.191Z" fill="#E6E6E6"/>
<path d="M162.3 279.439C163.845 281.058 173.892 288.543 182.586 287.531C182.586 286.52 183.552 276.405 175.824 273.37C168.096 270.336 160.368 277.416 162.3 279.439Z" fill="#E6E6E6"/>
<path d="M145.125 252C145.542 250.295 146.875 247.226 148.875 248.59" stroke="black" stroke-linecap="round"/>
<path d="M133.875 250.125C134.813 249.008 137.25 247.221 139.5 249.008" stroke="black" stroke-linecap="round"/>
<path d="M143.25 238.875C144.834 238.875 147.765 239.625 146.814 242.625" stroke="black" stroke-linecap="round"/>
<path d="M132 235.125C130.594 233.71 127.5 231.729 126.375 235.125" stroke="black" stroke-linecap="round"/>
<path d="M92.625 253.875C92.625 272.99 111.858 282.461 130.664 281.984C149.871 281.497 169.5 272.426 169.5 250.125" stroke="black" stroke-linecap="round" stroke-linejoin="round"/>
<path d="M100.935 255.633C95.8571 253.204 101.641 249.223 105.167 247.536L107.283 244.5C100.935 246.524 89.2979 251.585 93.5297 255.633C98.8195 260.694 113.631 264.742 137.964 262.718C154.892 261.31 163.355 256.645 168.645 251.585C172.135 248.246 164.061 244.837 160.181 244.5L161.239 247.536C161.592 248.548 162.509 250.775 163.355 251.585C164.413 252.597 155.95 257.657 137.964 259.681C119.979 261.706 107.283 258.669 100.935 255.633Z" stroke="black" stroke-linecap="round" stroke-linejoin="round"/>
<path d="M105.75 244.5L106.837 242.417V239.292L107.925 236.167L111.188 235.125L113.362 232L115.537 230.958L118.8 227.833L122.062 225.75H127.5H132.938L138.375 226.792L142.725 229.917L143.812 232H146.667L149.25 236.167L151.425 238.25L154.688 239.292L157.95 242.417L161 244.5" stroke="black" stroke-linecap="round" stroke-linejoin="round"/>
<path d="M115.125 242.625C114.272 242.833 112.738 243.5 113.42 244.5" stroke="black" stroke-linecap="round" stroke-linejoin="round"/>
<path d="M147 306.375C148.618 308.678 160.348 322.954 157.921 332.625" stroke="black" stroke-linecap="round" stroke-linejoin="round"/>
<path d="M147.602 320.362C145.518 315.511 150.642 315.107 152.813 315.511C155.419 310.659 159.164 311.872 160.63 313.085C172.356 322.788 160.63 331.278 158.025 332.491C155.419 333.704 150.208 326.427 147.602 320.362Z" stroke="black" stroke-linecap="round" stroke-linejoin="round"/>
<path d="M177.17 295.125C176.318 299.188 176.488 314.625 177.17 319.5" stroke="black" stroke-linecap="round" stroke-linejoin="round"/>
<path d="M184.138 311.284C185.992 300.792 180.275 300.792 177.185 302.104C177.185 300.792 172.55 295.546 170.232 302.104C168.378 307.35 170.232 315.031 173.708 317.842C176.412 320.028 182.284 321.777 184.138 311.284Z" stroke="black" stroke-linecap="round" stroke-linejoin="round"/>
<path d="M143.25 310.125C138.736 314.091 125.542 328.514 124.5 338.25" stroke="black" stroke-linecap="round" stroke-linejoin="round"/>
<path d="M135.75 322.009C135.75 319.41 132.75 320.71 132.75 322.009C132.75 320.5 131.5 319.5 129.5 319.5C124.051 319.5 120.75 326.34 120.75 329.588C120.75 332.836 122.75 338.25 125.75 338.25C128.75 338.25 135.75 325.257 135.75 322.009Z" stroke="black" stroke-linecap="round" stroke-linejoin="round"/>
<path d="M201.375 285.75C191.342 289.813 168.991 298.344 159.857 299.969C148.44 302 147.402 307.078 143.25 310.125" stroke="black" stroke-linecap="round" stroke-linejoin="round"/>
<path d="M142.5 310.5C137 307 124.708 307.154 113.25 310.125" stroke="black" stroke-linecap="round" stroke-linejoin="round"/>
<path d="M115.872 311.088C124.987 313.267 134.517 311.088 137.625 309.272C132.446 305.639 129.338 303.823 122.087 304.731C118.31 305.205 108.621 309.354 115.872 311.088Z" stroke="black" stroke-linecap="round" stroke-linejoin="round"/>
<path d="M156.375 300.75C152 297 137.192 290.46 130.125 291.482" stroke="black" stroke-linecap="round" stroke-linejoin="round"/>
<path d="M186.375 291.375C181.974 287.389 169.109 277.244 162 278.331" stroke="black" stroke-linecap="round" stroke-linejoin="round"/>
<path d="M130.473 293.191C132.084 294.958 143.563 299.818 152.625 298.714C152.625 297.609 151.619 289.877 143.563 286.564C135.507 283.25 128.459 290.982 130.473 293.191Z" stroke="black" stroke-linecap="round" stroke-linejoin="round"/>
<path d="M162.3 279.44C163.846 281.058 173.893 288.543 182.586 287.531C182.586 286.52 183.553 276.405 175.824 273.37C168.096 270.336 160.368 277.417 162.3 279.44Z" stroke="black" stroke-linecap="round" stroke-linejoin="round"/>
<rect x="722" y="77.9685" width="24" height="64" rx="12" transform="rotate(-45 722 77.9685)" fill="white"/>
<path d="M730.485 86.4535C725.799 81.7673 725.799 74.1693 730.485 69.483C735.172 64.7967 742.77 64.7967 747.456 69.483L761.973 84C761.973 84 755.297 86.8713 752 90C748.314 93.498 745.002 100.971 745.002 100.971L730.485 86.4535Z" fill="#9E9E9E"/>
<ellipse cx="738.185" cy="71.1848" rx="3.09726" ry="2.82109" transform="rotate(-45 738.185 71.1848)" fill="white"/>
<path d="M728 77.9999L767 117C764.5 117 761.996 115.814 760.5 114.5C759.931 114 730.875 84.9999 730.5 84.4999C727.878 80.9999 728 77.9999 728 77.9999Z" fill="#E0E0E0"/>
<rect x="722" y="77.9702" width="24" height="64" rx="12" transform="rotate(-45 722 77.9702)" stroke="black" stroke-linecap="round" stroke-linejoin="round"/>
<path d="M745.054 100.921C745.054 100.921 748.698 93.4912 752.5 90C755.606 87.1486 761.671 84.3039 761.671 84.3039" stroke="black" stroke-linecap="round" stroke-linejoin="round"/>
</svg>
