<svg width="375" height="105" viewBox="0 0 375 105" fill="none" xmlns="http://www.w3.org/2000/svg">
<circle cx="175.844" cy="55.344" r="25.6" fill="#F5F5F5"/>
<circle cx="175.716" cy="55.984" r="18.816" fill="#E0E0E0"/>
<path fill-rule="evenodd" clip-rule="evenodd" d="M190.139 68.1315C186.913 70.7275 182.813 72.2811 178.35 72.2811C167.959 72.2811 159.534 63.8569 159.534 53.4651C159.534 48.5901 161.388 44.1482 164.43 40.8058C160.144 44.2546 157.402 49.5431 157.402 55.4722C157.402 65.864 165.826 74.2882 176.218 74.2882C181.735 74.2882 186.697 71.9139 190.139 68.1315Z" fill="#9E9E9E"/>
<path d="M190.271 75.952C190.271 75.952 192.589 74.1698 193.919 72.816C195.121 71.5922 196.671 69.424 196.671 69.424L212.775 85.6981C214.556 87.4978 214.549 90.3983 212.758 92.1887V92.1887C210.951 93.9958 208.017 93.9841 206.225 92.1626L190.271 75.952Z" fill="#66C08C"/>
<path fill-rule="evenodd" clip-rule="evenodd" d="M213.501 91.4858C211.702 92.6864 209.245 92.4833 207.67 90.8826L191.855 74.8138C192.583 74.2116 193.447 73.4647 194.084 72.816C194.239 72.6579 194.4 72.4841 194.563 72.3013C194.849 72.0409 195.123 71.7814 195.364 71.536C195.902 70.9887 196.509 70.2524 197.016 69.6057L212.941 85.6981C214.504 87.2776 214.689 89.7051 213.501 91.4858Z" fill="#99D5B3"/>
<circle cx="176.1" cy="55.6" r="25.1" stroke="black"/>
<circle cx="176.1" cy="55.6" r="18.7" stroke="black"/>
<path d="M196.829 70.1926L212.521 86.0498C214.109 87.654 214.102 90.2393 212.506 91.8351C210.895 93.4459 208.281 93.4355 206.683 91.8119L191.121 76.0003C191.356 75.8142 191.668 75.5641 192.016 75.2775C192.764 74.6605 193.693 73.8629 194.377 73.1664C195 72.5324 195.702 71.6651 196.242 70.967C196.471 70.6718 196.672 70.404 196.829 70.1926Z" stroke="black"/>
<path d="M200.228 73.328C200.228 73.328 199.716 74.8 197.796 76.848C195.876 78.896 194.084 79.344 194.084 79.344" stroke="black"/>
<rect x="327.25" y="13.4764" width="18" height="48" rx="9" transform="rotate(-45 327.25 13.4764)" fill="white"/>
<path d="M333.614 19.8401C330.099 16.3254 330.099 10.6269 333.614 7.11222V7.11222C337.129 3.5975 342.827 3.5975 346.342 7.11222L357.23 18C357.23 18 352.223 20.1535 349.75 22.5C346.985 25.1235 344.502 30.7279 344.502 30.7279L333.614 19.8401Z" fill="#A03189"/>
<ellipse cx="339.389" cy="8.38862" rx="2.32295" ry="2.11582" transform="rotate(-45 339.389 8.38862)" fill="white"/>
<path d="M331.75 13.4999L361 42.7499C359.125 42.7499 357.247 41.8608 356.125 40.8749C355.698 40.4999 333.906 18.7499 333.625 18.3749C331.658 15.7499 331.75 13.4999 331.75 13.4999Z" fill="#E0E0E0"/>
<rect x="327.25" y="13.4777" width="18" height="48" rx="9" transform="rotate(-45 327.25 13.4777)" stroke="black" stroke-linecap="round" stroke-linejoin="round"/>
<path d="M344.541 30.6907C344.541 30.6907 347.274 25.1184 350.125 22.5C352.455 20.3614 357.004 18.2279 357.004 18.2279" stroke="black" stroke-linecap="round" stroke-linejoin="round"/>
<rect x="8.02881" y="74.722" width="18" height="48" rx="9" transform="rotate(-75.7189 8.02881 74.722)" fill="white"/>
<path d="M16.7507 76.9419C11.9337 75.7158 9.02279 70.8169 10.2489 65.9999V65.9999C11.4751 61.183 16.374 58.272 21.1909 59.4982L36.1127 63.2965C36.1127 63.2965 32.9084 67.7054 31.9813 70.9858C30.9448 74.6534 31.6725 80.7402 31.6725 80.7402L16.7507 76.9419Z" fill="#E50046"/>
<ellipse cx="15.8652" cy="64.1474" rx="2.32295" ry="2.11582" transform="rotate(-75.7189 15.8652 64.1474)" fill="white"/>
<path d="M11.9093 72.4434L51.9964 82.6476C50.3845 83.6054 48.3158 83.8005 46.8478 83.5259C46.2894 83.4215 16.4446 75.8554 16.0114 75.6766C12.9795 74.4247 11.9093 72.4434 11.9093 72.4434Z" fill="#E0E0E0"/>
<rect x="8.02979" y="74.7231" width="18" height="48" rx="9" transform="rotate(-75.7189 8.02979 74.7231)" stroke="black" stroke-linecap="round" stroke-linejoin="round"/>
<path d="M31.6868 80.6883C31.6868 80.6883 31.1897 74.5018 32.3037 70.7942C33.2136 67.7658 36.0345 63.6079 36.0345 63.6079" stroke="black" stroke-linecap="round" stroke-linejoin="round"/>
<rect width="18" height="48" rx="9" transform="matrix(-0.517269 -0.855823 -0.855823 0.517269 309.641 59.3959)" fill="white"/>
<path d="M301.939 64.0511C306.193 61.48 307.557 55.9472 304.986 51.6933V51.6933C302.415 47.4394 296.882 46.0752 292.628 48.6463L279.45 56.611C279.45 56.611 283.796 59.9005 285.635 62.7707C287.691 65.9798 288.761 72.0158 288.761 72.0158L301.939 64.0511Z" fill="#AFCA0B"/>
<ellipse rx="2.32295" ry="2.11582" transform="matrix(-0.517269 -0.855823 -0.855823 0.517269 299.073 51.5501)" fill="white"/>
<path d="M305.266 58.3414L269.864 79.7387C271.685 80.1876 273.721 79.7739 275.046 79.0852C275.551 78.8233 301.916 62.9226 302.278 62.6258C304.817 60.548 305.266 58.3414 305.266 58.3414Z" fill="#E0E0E0"/>
<rect width="18" height="48" rx="9" transform="matrix(-0.517269 -0.855823 -0.855823 0.517269 309.641 59.3971)" stroke="black" stroke-linecap="round" stroke-linejoin="round"/>
<path d="M288.732 71.9703C288.732 71.9703 287.413 65.9058 285.271 62.6809C283.521 60.0469 279.615 56.8865 279.615 56.8865" stroke="black" stroke-linecap="round" stroke-linejoin="round"/>
<rect x="128.403" y="43.453" width="18" height="48" rx="9" transform="rotate(145.353 128.403 43.453)" fill="white"/>
<path d="M123.286 36.0491C126.112 40.1382 125.088 45.7439 120.999 48.5698V48.5698C116.91 51.3957 111.304 50.3716 108.478 46.2824L99.7243 33.6153C99.7243 33.6153 105.037 32.3967 107.891 30.5327C111.082 28.4488 114.532 23.3819 114.532 23.3819L123.286 36.0491Z" fill="#00B3CC"/>
<ellipse cx="115.547" cy="46.2764" rx="2.32295" ry="2.11582" transform="rotate(145.353 115.547 46.2764)" fill="white"/>
<path d="M123.98 42.6211L100.463 8.59073C102.307 8.9277 103.995 10.1398 104.921 11.3113C105.274 11.7569 122.802 37.0691 123.011 37.4885C124.475 40.4242 123.98 42.6211 123.98 42.6211Z" fill="#E0E0E0"/>
<rect x="128.403" y="43.4517" width="18" height="48" rx="9" transform="rotate(145.353 128.403 43.4517)" stroke="black" stroke-linecap="round" stroke-linejoin="round"/>
<path d="M114.487 23.4116C114.487 23.4116 110.798 28.402 107.522 30.4653C104.846 32.1505 99.9878 33.4317 99.9878 33.4317" stroke="black" stroke-linecap="round" stroke-linejoin="round"/>
</svg>
