<svg width="887" height="450" viewBox="0 0 887 450" fill="none" xmlns="http://www.w3.org/2000/svg">
<path d="M50.8214 208.352C62.594 197.121 60.0032 186.345 60.0032 186.345L56.4979 172.969L6.72241 201.06L13.032 211.761C22.6144 220.902 39.0488 219.583 50.8214 208.352Z" fill="#E6E6E6"/>
<ellipse rx="28.6963" ry="23.3574" transform="matrix(0.723545 -0.690277 0.723545 0.690277 31.1083 185.108)" fill="white"/>
<path d="M13.3335 172.667L47.9665 197.868" stroke="#E6E6E6" stroke-width="1.33333" stroke-linecap="round" stroke-linejoin="round"/>
<path d="M50.2224 167.333C41.635 159.21 26.2224 159.778 15.1113 170.84L49.3336 195.778C56.5691 186.176 57.7295 174.435 50.2224 167.333Z" fill="#E0E0E0"/>
<path d="M47.9647 198.971C48.2554 198.745 48.3077 198.326 48.0817 198.035C47.8556 197.745 47.4368 197.692 47.1462 197.918L47.9647 198.971ZM12.3629 202.444L11.9059 202.93L11.9426 202.964L11.9842 202.993L12.3629 202.444ZM12.8748 175.316C13.1106 175.033 13.0725 174.613 12.7897 174.377C12.5069 174.141 12.0865 174.179 11.8507 174.462L12.8748 175.316ZM47.1462 197.918C35.2915 207.138 22.7284 208.788 12.7415 201.896L11.9842 202.993C22.6047 210.323 35.819 208.417 47.9647 198.971L47.1462 197.918ZM12.8199 201.959C9.07689 198.435 7.15831 194.121 7.12321 189.541C7.08806 184.953 8.94324 180.031 12.8748 175.316L11.8507 174.462C7.76097 179.367 5.75187 184.585 5.78992 189.551C5.82803 194.524 7.92015 199.177 11.9059 202.93L12.8199 201.959Z" fill="#E0E0E0"/>
<path d="M51.5445 165.213C59.745 173.037 59.4483 186.377 51.5445 196.955C51.1264 197.515 50.6826 199.489 50.222 200.032C49.8134 200.514 49.3926 199.566 48.9508 200.032C48.5358 200.471 48.1063 200.902 47.6622 201.326C36.1374 212.32 19.1902 213.979 9.8096 205.029C0.428969 196.08 2.16714 179.912 13.6919 168.917C25.2167 157.922 42.1639 156.264 51.5445 165.213Z" stroke="black"/>
<path d="M49.4356 166.829L49.0888 167.189L49.0888 167.189L49.4356 166.829ZM14.764 169.858C14.5651 170.05 14.5591 170.367 14.7507 170.565C14.9422 170.764 15.2587 170.77 15.4576 170.579L14.764 169.858ZM49.4282 195.036C49.2639 195.258 49.3106 195.571 49.5326 195.735C49.7545 195.9 50.0676 195.853 50.232 195.631L49.4282 195.036ZM15.4576 170.579C25.7836 160.637 40.8382 159.245 49.0888 167.189L49.7824 166.469C41.0202 158.032 25.3395 159.676 14.764 169.858L15.4576 170.579ZM49.0888 167.189C56.3007 174.133 56.4847 185.505 49.4282 195.036L50.232 195.631C57.5099 185.8 57.4428 173.845 49.7824 166.469L49.0888 167.189Z" fill="black"/>
<path d="M47.4538 199.092C47.6549 198.903 47.6644 198.587 47.4751 198.386C47.2858 198.185 46.9694 198.175 46.7683 198.364L47.4538 199.092ZM11.899 202.985L11.5563 203.349L11.899 202.985ZM12.7466 174.32C12.9235 174.108 12.8949 173.793 12.6828 173.616C12.4707 173.439 12.1554 173.468 11.9786 173.68L12.7466 174.32ZM46.7683 198.364C41.6223 203.209 35.0417 206.228 28.712 207.05C22.3787 207.872 16.3527 206.491 12.2418 202.621L11.5563 203.349C15.9462 207.482 22.3043 208.89 28.8408 208.041C35.3809 207.192 42.1559 204.081 47.4538 199.092L46.7683 198.364ZM12.2418 202.621C4.75402 195.571 4.84853 183.793 12.7466 174.32L11.9786 173.68C3.83406 183.449 3.58666 195.845 11.5563 203.349L12.2418 202.621Z" fill="black"/>
<line x1="13.0027" y1="171.371" x2="48.7773" y2="197.302" stroke="black" stroke-linecap="round" stroke-linejoin="round"/>
<path d="M6.6665 201.111L13.0316 211.761C22.614 220.903 39.0484 219.583 50.8211 208.352C62.5937 197.121 60.0028 186.345 60.0028 186.345L56.8887 174.445" stroke="black" stroke-linecap="round" stroke-linejoin="round"/>
<path d="M197.312 83.9375C198.25 86.75 198.25 89.875 198.25 89.875C198.25 90.9105 193.213 93.5 187 93.5C180.787 93.5 175.75 90.9105 175.75 89.875C175.75 89.875 175.75 86.75 176.687 83.9375C179.187 84.25 184.75 85.5 187 85.5C189.25 85.5 194.812 84.25 197.312 83.9375Z" fill="#E0E0E0"/>
<path d="M172 92.375V105.917C172 108.793 178.716 112 187 112C195.284 112 202 108.793 202 105.917V92.375C200.125 94.25 193.038 96.125 187 96.125C180.962 96.125 173.562 93.9375 172 92.375Z" fill="#F5F5F5"/>
<path d="M175.75 77.375V82.7917C175.75 83.9423 180.787 86 187 86C193.213 86 198.25 83.9423 198.25 82.7917V77.375H175.75Z" fill="#F5F5F5"/>
<path d="M187 97C195.284 97 202 94.0263 202 91.4375C201.997 90.5 200.117 89.5625 198.242 89.5625C198.242 90.5 195.993 93.5 187 93.5C178.007 93.5 175.747 90.5 175.742 89.5625C172.742 89.5625 171.997 90.8125 172 91.4375C172 94.0263 178.716 97 187 97Z" fill="#E6E6E6"/>
<path d="M187.008 157.062C195.292 157.062 202.008 154.964 202.008 152.375V115.737C202.008 109.4 196.5 111 196.5 111C196.5 111 190.917 112.079 187.008 112C184.3 111.945 180.313 111.938 177.5 111C174.688 110.062 171.717 113.757 172.029 115.737V152.375C172.029 154.964 178.724 157.062 187.008 157.062Z" fill="#9E9E9E"/>
<path d="M174.812 118.625C174.812 115.812 174.812 113.938 176.688 113L180.438 113.937C180.75 126.75 180.438 150.5 180.438 153.312C176.688 153.312 175.75 152.375 174.813 151.437L174.812 151.437V118.625Z" fill="white"/>
<path d="M179.5 73.625H194.5L190.849 40.7646C190.793 40.2581 190.365 39.875 189.855 39.875H184.145C183.635 39.875 183.207 40.2581 183.151 40.7646L179.5 73.625Z" fill="white"/>
<path d="M187 148.625C195.284 148.625 202 146.526 202 143.938V117.688C202 120.276 195.284 122.375 187 122.375C178.716 122.375 172 120.276 172 117.688V143.938C172 146.526 178.716 148.625 187 148.625Z" fill="#F5F5F5"/>
<path d="M197.312 83.9375C198.25 86.75 198.25 89.875 198.25 89.875C198.25 90.9105 193.213 93.3125 187 93.3125C180.787 93.3125 175.75 90.9105 175.75 89.875C175.75 89.875 175.75 86.75 176.687 83.9375" stroke="black" stroke-linecap="round" stroke-linejoin="round"/>
<path d="M172 91.5V105.917C172 108.793 178.716 112.062 187 112.062C195.284 112.062 202 108.793 202 105.917V91.5" stroke="black" stroke-linecap="round" stroke-linejoin="round"/>
<path d="M175.75 77.375V82.7917C175.75 83.9423 180.787 85.8125 187 85.8125C193.213 85.8125 198.25 83.9423 198.25 82.7917V77.375" stroke="black" stroke-linecap="round" stroke-linejoin="round"/>
<path d="M198.242 89.5625C200.117 89.5625 201.997 90.5 202 91.4375C202 94.0263 195.284 97.0625 187 97.0625C178.716 97.0625 172 94.0263 172 91.4375C171.997 90.8125 172.742 89.5625 175.742 89.5625" stroke="black" stroke-linecap="round" stroke-linejoin="round"/>
<path d="M202.5 143.937C202.5 143.661 202.276 143.437 202 143.437C201.724 143.437 201.5 143.661 201.5 143.937H202.5ZM172.529 143.937C172.529 143.661 172.305 143.437 172.029 143.437C171.753 143.437 171.529 143.661 171.529 143.937H172.529ZM202.5 117.687C202.5 117.411 202.276 117.187 202 117.187C201.724 117.187 201.5 117.411 201.5 117.687H202.5ZM172.529 117.687C172.529 117.411 172.305 117.187 172.029 117.187C171.753 117.187 171.529 117.411 171.529 117.687H172.529ZM172.029 115.737L172.529 115.737L172.529 115.737L172.029 115.737ZM196.375 111.125L196.466 111.617L196.494 111.611L196.521 111.603L196.375 111.125ZM187 112.063L187.01 111.563L187.01 111.563L187 112.063ZM201.5 143.937C201.5 144.351 201.231 144.838 200.524 145.36C199.827 145.874 198.788 146.359 197.457 146.775C194.803 147.604 191.106 148.125 187 148.125V149.125C191.178 149.125 194.981 148.596 197.756 147.729C199.14 147.297 200.297 146.771 201.118 146.164C201.93 145.564 202.5 144.818 202.5 143.937H201.5ZM187 148.125C182.91 148.125 179.223 147.43 176.572 146.512C175.243 146.052 174.195 145.543 173.489 145.051C173.136 144.804 172.885 144.574 172.727 144.37C172.568 144.165 172.529 144.021 172.529 143.937H171.529C171.529 144.322 171.699 144.677 171.938 144.984C172.178 145.293 172.514 145.59 172.917 145.871C173.724 146.434 174.865 146.979 176.244 147.457C179.007 148.413 182.805 149.125 187 149.125V148.125ZM201.5 117.687C201.5 118.101 201.231 118.588 200.524 119.11C199.827 119.625 198.788 120.109 197.457 120.525C194.803 121.354 191.106 121.875 187 121.875V122.875C191.178 122.875 194.981 122.346 197.756 121.479C199.14 121.047 200.297 120.521 201.118 119.914C201.93 119.314 202.5 118.568 202.5 117.687H201.5ZM187 121.875C182.894 121.875 179.204 121.354 176.557 120.525C175.231 120.109 174.195 119.625 173.501 119.11C172.798 118.589 172.529 118.102 172.529 117.687H171.529C171.529 118.567 172.096 119.313 172.905 119.914C173.724 120.521 174.878 121.046 176.258 121.479C179.026 122.346 182.822 122.875 187 122.875V121.875ZM201.508 152.375C201.508 152.789 201.238 153.276 200.532 153.798C199.835 154.312 198.795 154.797 197.465 155.212C194.811 156.042 191.114 156.562 187.008 156.562V157.562C191.186 157.562 194.989 157.034 197.763 156.167C199.148 155.734 200.304 155.209 201.126 154.602C201.938 154.002 202.508 153.256 202.508 152.375H201.508ZM187.008 156.562C182.902 156.562 179.21 156.042 176.561 155.212C175.234 154.797 174.197 154.312 173.502 153.798C172.798 153.276 172.529 152.79 172.529 152.375H171.529C171.529 153.255 172.097 154.002 172.907 154.602C173.726 155.209 174.881 155.734 176.262 156.167C179.032 157.034 182.829 157.562 187.008 157.562V156.562ZM172.529 152.375V115.737H171.529V152.375H172.529ZM172.529 115.737C172.529 115.4 172.665 114.912 172.962 114.363C173.255 113.823 173.684 113.26 174.223 112.777C175.301 111.81 176.77 111.192 178.441 111.61L178.684 110.64C176.605 110.12 174.807 110.909 173.555 112.032C172.93 112.594 172.429 113.248 172.083 113.887C171.741 114.518 171.529 115.174 171.529 115.737L172.529 115.737ZM196.375 111.125C196.521 111.603 196.521 111.603 196.521 111.603C196.521 111.603 196.521 111.603 196.521 111.603C196.52 111.603 196.52 111.603 196.52 111.603C196.52 111.603 196.521 111.603 196.521 111.603C196.523 111.603 196.526 111.602 196.529 111.601C196.537 111.598 196.55 111.595 196.568 111.59C196.603 111.581 196.657 111.567 196.727 111.551C196.867 111.519 197.07 111.48 197.314 111.451C197.807 111.392 198.444 111.379 199.067 111.539C199.683 111.697 200.276 112.02 200.722 112.636C201.172 113.257 201.508 114.225 201.508 115.737H202.508C202.508 114.081 202.139 112.888 201.532 112.05C200.922 111.207 200.108 110.773 199.315 110.57C198.531 110.369 197.76 110.391 197.196 110.458C196.912 110.492 196.675 110.538 196.507 110.576C196.423 110.595 196.356 110.612 196.308 110.624C196.285 110.631 196.266 110.636 196.253 110.64C196.246 110.642 196.241 110.643 196.236 110.645C196.234 110.645 196.233 110.646 196.231 110.646C196.231 110.646 196.23 110.646 196.23 110.647C196.229 110.647 196.229 110.647 196.229 110.647C196.229 110.647 196.228 110.647 196.375 111.125ZM201.508 115.737V152.375H202.508V115.737H201.508ZM178.441 111.61C182.252 112.563 184.283 112.508 186.99 112.562L187.01 111.563C184.3 111.508 182.373 111.562 178.684 110.64L178.441 111.61ZM186.99 112.562C188.983 112.603 191.357 112.364 193.219 112.119C194.152 111.996 194.963 111.871 195.541 111.776C195.83 111.729 196.06 111.689 196.219 111.661C196.298 111.647 196.36 111.636 196.402 111.628C196.423 111.625 196.439 111.622 196.449 111.62C196.455 111.619 196.459 111.618 196.462 111.617C196.463 111.617 196.464 111.617 196.465 111.617C196.465 111.617 196.466 111.617 196.466 111.617C196.466 111.617 196.466 111.617 196.466 111.617C196.466 111.617 196.466 111.617 196.375 111.125C196.284 110.633 196.284 110.633 196.284 110.633C196.283 110.633 196.283 110.633 196.283 110.633C196.283 110.634 196.283 110.634 196.283 110.634C196.282 110.634 196.281 110.634 196.28 110.634C196.278 110.635 196.274 110.635 196.269 110.636C196.259 110.638 196.244 110.641 196.223 110.644C196.183 110.652 196.123 110.662 196.046 110.676C195.89 110.703 195.664 110.743 195.379 110.789C194.809 110.883 194.009 111.006 193.088 111.128C191.24 111.371 188.926 111.601 187.01 111.563L186.99 112.562Z" fill="black"/>
<path d="M198.81 77.375V77.875C198.871 77.875 198.931 77.8639 198.988 77.8422L198.81 77.375ZM198.81 68L198.988 67.5328C198.931 67.5111 198.871 67.5 198.81 67.5V68ZM175.19 68V67.5C175.129 67.5 175.069 67.5111 175.012 67.5328L175.19 68ZM175.19 77.375L175.012 77.8422C175.069 77.8639 175.129 77.875 175.19 77.875V77.375ZM203.375 72.6875C203.375 73.4159 202.992 74.1655 202.179 74.9027C201.365 75.6399 200.161 76.3251 198.632 76.9078L198.988 77.8422C200.585 77.2337 201.913 76.4933 202.85 75.6437C203.788 74.7939 204.375 73.7954 204.375 72.6875H203.375ZM198.632 68.4672C200.161 69.0499 201.365 69.7351 202.179 70.4723C202.992 71.2095 203.375 71.9591 203.375 72.6875H204.375C204.375 71.5796 203.788 70.5811 202.85 69.7313C201.913 68.8817 200.585 68.1413 198.988 67.5328L198.632 68.4672ZM198.81 67.5H175.19V68.5H198.81V67.5ZM170.625 72.6875C170.625 71.9591 171.008 71.2095 171.821 70.4723C172.635 69.7351 173.839 69.0499 175.368 68.4672L175.012 67.5328C173.415 68.1413 172.087 68.8817 171.15 69.7313C170.212 70.5811 169.625 71.5796 169.625 72.6875H170.625ZM175.368 76.9078C173.839 76.3251 172.635 75.6399 171.821 74.9027C171.008 74.1655 170.625 73.4159 170.625 72.6875H169.625C169.625 73.7954 170.212 74.7939 171.15 75.6437C172.087 76.4933 173.415 77.2337 175.012 77.8422L175.368 76.9078ZM175.19 77.875H198.81V76.875H175.19V77.875Z" fill="black"/>
<path fill-rule="evenodd" clip-rule="evenodd" d="M198.81 77.375C201.936 76.1839 203.875 74.5238 203.875 72.6875C203.875 70.8512 201.936 69.1911 198.81 68H175.19C172.064 69.1911 170.125 70.8512 170.125 72.6875C170.125 74.5238 172.064 76.1839 175.19 77.375H198.81Z" fill="#E0E0E0"/>
<path d="M198.81 77.375V77.875C198.871 77.875 198.931 77.8639 198.988 77.8422L198.81 77.375ZM198.81 68L198.988 67.5328C198.931 67.5111 198.871 67.5 198.81 67.5V68ZM175.19 68V67.5C175.129 67.5 175.069 67.5111 175.012 67.5328L175.19 68ZM175.19 77.375L175.012 77.8422C175.069 77.8639 175.129 77.875 175.19 77.875V77.375ZM203.375 72.6875C203.375 73.4159 202.992 74.1655 202.179 74.9027C201.365 75.6399 200.161 76.3251 198.632 76.9078L198.988 77.8422C200.585 77.2337 201.913 76.4933 202.85 75.6437C203.788 74.7939 204.375 73.7954 204.375 72.6875H203.375ZM198.632 68.4672C200.161 69.0499 201.365 69.7351 202.179 70.4723C202.992 71.2095 203.375 71.9591 203.375 72.6875H204.375C204.375 71.5796 203.788 70.5811 202.85 69.7313C201.913 68.8817 200.585 68.1413 198.988 67.5328L198.632 68.4672ZM198.81 67.5H175.19V68.5H198.81V67.5ZM170.625 72.6875C170.625 71.9591 171.008 71.2095 171.821 70.4723C172.635 69.7351 173.839 69.0499 175.368 68.4672L175.012 67.5328C173.415 68.1413 172.087 68.8817 171.15 69.7313C170.212 70.5811 169.625 71.5796 169.625 72.6875H170.625ZM175.368 76.9078C173.839 76.3251 172.635 75.6399 171.821 74.9027C171.008 74.1655 170.625 73.4159 170.625 72.6875H169.625C169.625 73.7954 170.212 74.7939 171.15 75.6437C172.087 76.4933 173.415 77.2337 175.012 77.8422L175.368 76.9078ZM175.19 77.875H198.81V76.875H175.19V77.875Z" fill="black"/>
<path d="M183.091 41.575L179.5 69.8164C179.5 71.8551 182.858 73.5078 187 73.5078C191.142 73.5078 194.5 71.8551 194.5 69.8164L190.914 41.5694C190.821 40.6083 190.013 39.875 189.048 39.875H184.957C183.99 39.875 183.181 40.6115 183.091 41.575Z" fill="#F5F5F5" stroke="black" stroke-linecap="round" stroke-linejoin="round"/>
<path d="M181.375 99.875V107.375" stroke="black" stroke-linecap="round" stroke-linejoin="round"/>
<path d="M175.75 98V105.5" stroke="black" stroke-linecap="round" stroke-linejoin="round"/>
<path d="M187 99.875V107.375" stroke="black" stroke-linecap="round" stroke-linejoin="round"/>
<path d="M192.625 99.875V107.375" stroke="black" stroke-linecap="round" stroke-linejoin="round"/>
<path d="M198.25 98V105.5" stroke="black" stroke-linecap="round" stroke-linejoin="round"/>
<ellipse cx="187" cy="40.8125" rx="3.75" ry="1.64062" fill="#E0E0E0" stroke="black" stroke-linecap="round" stroke-linejoin="round"/>
<path d="M484.746 243.524C483.996 242.762 481.936 243.207 481 243.524C483.185 241.302 487.821 237.198 488.491 236.857C490.364 235.905 495.982 234 527.82 234C559.658 234 564.685 234.234 567.149 235.905C569.958 237.81 564.964 240.985 564.34 243.524V331.148C564.34 341.624 546.548 342.577 546.548 342.577C546.548 342.577 520.329 343.529 509.092 342.577C496.919 341.545 492.237 337.5 492.237 331.148V253.049C492.237 252.096 485.682 244.477 484.746 243.524Z" fill="white"/>
<path d="M495.938 325.595C495.938 303.473 495.937 287.79 495.938 284.43C503.498 284.429 548.864 284.43 560.625 284.43V325.595C560.625 334.836 551.214 334.992 544.663 335.676C534.375 336.75 521.14 336.516 511.059 335.676C500.138 334.766 495.937 332.062 495.938 325.595Z" fill="#E0E0E0"/>
<path d="M560.625 270.187V288.937C560.625 288.937 553.155 293.101 545.625 293.625C532.868 294.511 524.301 287.616 513.75 286.125C502.387 284.519 495.938 288.937 495.938 288.937V270.187C495.938 270.187 502.387 265.769 513.75 267.375C524.301 268.866 533.438 267.375 545.625 265.5C553.085 264.353 560.625 270.187 560.625 270.187Z" fill="#9E9E9E"/>
<circle cx="508.125" cy="316.125" r="1.875" fill="white"/>
<circle cx="523.125" cy="308.625" r="1.875" fill="white"/>
<circle cx="547.5" cy="318" r="1.875" fill="white"/>
<circle cx="502.5" cy="297.375" r="1.875" fill="white"/>
<circle cx="545.625" cy="304.875" r="3.75" fill="#9E9E9E"/>
<circle cx="528.75" cy="323.625" r="3.75" fill="#9E9E9E"/>
<circle cx="515.625" cy="297.375" r="3.75" fill="#9E9E9E"/>
<path d="M549.375 330.188V241.125H554.062C554.375 269.875 554.812 324.188 554.062 326.438C553.312 328.688 550.625 329.875 549.375 330.188Z" fill="#F5F5F5"/>
<path d="M496.875 241.125L493.125 251.437C490.625 249.25 483.75 243.375 483.75 241.125C488.438 242.063 493.125 240.5 496.875 241.125Z" fill="#E6E6E6"/>
<path d="M484.688 243C483.938 242.25 481.875 242.688 480.938 243C483.125 240.813 487.767 236.773 488.438 236.438C490.313 235.5 495.938 233.625 527.813 233.625C559.688 233.625 564.721 233.856 567.188 235.5C570 237.375 565 240.5 564.375 243V329.719C564.375 340.031 556.875 340.969 553.125 341.906C549.375 342.844 537.451 343.312 528.281 343.312C519.112 343.312 509.063 343.312 503.438 341.906C499.688 340.969 492.188 340.5 492.188 329.719V252.375C492.188 251.438 485.625 243.938 484.688 243Z" stroke="black" stroke-linecap="round" stroke-linejoin="round"/>
<path d="M484.688 241.125C484.688 241.125 490.858 237.795 495 238.312C510 240.187 554.062 239.25 565.312 237.375" stroke="black" stroke-linecap="round" stroke-linejoin="round"/>
<path d="M495.938 270.188V326.027C495.938 332.062 499.309 335.434 510.511 336.367C520.851 337.229 539.062 336.75 544.979 336.367C552.288 335.895 560.625 335.506 560.625 326.027V270.188M495.938 270.188V288.936C495.938 288.936 505.171 284.589 515.337 286.169C524.775 287.636 532.439 294.42 543.852 293.548C550.587 293.033 560.625 288.936 560.625 288.936V270.188M495.938 270.188C495.938 270.188 505.171 266.141 515.337 267.721M560.625 270.188C560.625 270.188 550.587 274.585 543.852 275.1C532.439 275.972 524.775 269.188 515.337 267.721M560.625 270.188C558.125 268.525 551.25 265.5 543.75 265.5C534.375 265.5 536.611 269.004 515.337 267.721" stroke="black" stroke-linecap="round" stroke-linejoin="round"/>
<circle cx="502.5" cy="297.375" r="3.25" stroke="black"/>
<circle cx="523.125" cy="308.625" r="3.25" stroke="black"/>
<circle cx="508.125" cy="316.125" r="3.25" stroke="black"/>
<circle cx="547.5" cy="318" r="3.25" stroke="black"/>
<path d="M520.75 297.375C520.75 300.205 518.455 302.5 515.625 302.5C512.795 302.5 510.5 300.205 510.5 297.375C510.5 294.545 512.795 292.25 515.625 292.25C518.455 292.25 520.75 294.545 520.75 297.375Z" stroke="black"/>
<circle cx="528.75" cy="323.625" r="5.125" stroke="black"/>
<circle cx="545.625" cy="304.875" r="5.125" stroke="black"/>
<path d="M323.844 127.78C331.166 120.458 335.618 113.038 333.787 111.208C332.184 109.604 326.291 112.821 319.932 118.566L314.629 123.869C308.884 130.228 305.667 136.121 307.271 137.724C309.101 139.555 316.521 135.103 323.844 127.78Z" fill="#F5F5F5"/>
<ellipse cx="306.939" cy="110.876" rx="9.375" ry="2.34375" transform="rotate(-45 306.939 110.876)" fill="#F5F5F5"/>
<path d="M404.719 208.656C406.183 207.191 406.411 205.044 406.045 204.678L397.427 196.06C396.764 197.607 394.775 200.833 392.124 201.364L400.741 209.981C401.108 210.348 403.254 210.12 404.719 208.656Z" fill="#E0E0E0"/>
<path d="M320.529 124.466C319.065 125.93 317.581 126.821 317.215 126.455L306 115L311.304 109.697L322.518 121.151C322.884 121.517 321.994 123.001 320.529 124.466Z" fill="#E0E0E0"/>
<path d="M397.429 196.059C396.863 197.459 396.506 198.307 395.438 199.375C394.37 200.442 393.523 200.798 392.123 201.364C387.506 203.228 382.71 202.557 379.528 199.375L315.5 135C315.5 135 325.5 127.5 331.5 118.5C342 129.5 395.438 183.465 395.438 183.465C398.62 186.647 399.293 191.442 397.429 196.059Z" fill="#F5F5F5"/>
<path d="M380.191 200.038L375.551 195.397C377.319 194.514 381.65 191.95 384.832 188.768C388.014 185.586 390.577 181.255 391.461 179.488L396.101 184.128C395.88 185.675 394.377 189.829 390.135 194.072C385.892 198.314 381.738 199.817 380.191 200.038Z" fill="#9E9E9E"/>
<path d="M388.809 180.813C387.748 182.934 386.599 184.349 386.157 184.791C382.18 180.813 333.787 132.421 328.484 127.117C329.545 126.057 330.473 124.245 331.136 123.14L388.809 180.813Z" fill="#E0E0E0"/>
<path d="M317.877 132.421L319.203 125.792L323.18 121.814L319.866 118.5L327.821 113.196C330.472 110.545 335.113 109.882 333.124 114.522C330.082 121.62 322.076 129.548 317.877 132.421Z" fill="#E0E0E0"/>
<path d="M390.798 178.825C391.896 179.923 389.225 184.375 384.832 188.768C380.438 193.162 375.986 195.833 374.888 194.735" stroke="black" stroke-linecap="round" stroke-linejoin="round"/>
<path d="M380.191 168.218C381.289 169.316 378.618 173.768 374.225 178.162" stroke="black" stroke-linecap="round" stroke-linejoin="round"/>
<path d="M372.899 160.926C373.998 162.024 371.326 166.476 366.933 170.87" stroke="black" stroke-linecap="round" stroke-linejoin="round"/>
<path d="M365.607 153.634C366.705 154.732 364.034 159.184 359.641 163.578" stroke="black" stroke-linecap="round" stroke-linejoin="round"/>
<path d="M358.315 146.342C359.413 147.44 356.742 151.892 352.349 156.286" stroke="black" stroke-linecap="round" stroke-linejoin="round"/>
<path d="M351.023 139.05C352.121 140.148 349.45 144.6 345.057 148.994" stroke="black" stroke-linecap="round" stroke-linejoin="round"/>
<path d="M343.731 131.758C344.829 132.856 342.158 137.308 337.765 141.702" stroke="black" stroke-linecap="round" stroke-linejoin="round"/>
<path d="M336.439 124.466C337.537 125.564 334.866 130.016 330.472 134.409" stroke="black" stroke-linecap="round" stroke-linejoin="round"/>
<path d="M314.629 123.869C308.884 130.228 305.667 136.121 307.271 137.724C309.101 139.555 316.521 135.103 323.844 127.78C331.166 120.458 335.618 113.038 333.787 111.208C332.184 109.604 326.291 112.821 319.932 118.566" stroke="black" stroke-linecap="round" stroke-linejoin="round"/>
<ellipse cx="306.939" cy="110.876" rx="9.375" ry="2.34375" transform="rotate(-45 306.939 110.876)" stroke="black" stroke-linecap="round" stroke-linejoin="round"/>
<path d="M392.124 201.364L400.741 209.981C401.108 210.348 403.254 210.12 404.719 208.656C406.183 207.191 406.411 205.044 406.045 204.678L397.427 196.06" stroke="black" stroke-linecap="round" stroke-linejoin="round"/>
<path d="M305.942 115.183L317.175 126.415C317.563 126.803 319.064 125.93 320.529 124.466C321.993 123.001 322.866 121.5 322.478 121.112L311.246 109.88" stroke="black" stroke-linecap="round" stroke-linejoin="round"/>
<path d="M395.438 183.465L395.084 183.818L395.085 183.818L395.438 183.465ZM379.528 199.375L379.174 199.727L379.175 199.728L379.528 199.375ZM397.429 196.059L397.892 196.246L397.892 196.246L397.429 196.059ZM395.438 199.375L395.792 199.728L395.792 199.728L395.438 199.375ZM392.123 201.364L392.311 201.827L392.311 201.827L392.123 201.364ZM331.764 118.737C331.57 118.542 331.253 118.541 331.057 118.736C330.862 118.93 330.861 119.247 331.055 119.443L331.764 118.737ZM315.855 134.647C315.66 134.452 315.343 134.451 315.147 134.645C314.952 134.84 314.951 135.157 315.145 135.353L315.855 134.647ZM395.085 183.818C395.125 183.859 395.181 183.949 395.212 184.137C395.243 184.324 395.242 184.576 395.196 184.896C395.103 185.534 394.837 186.365 394.392 187.322C393.505 189.23 391.939 191.56 389.781 193.718L390.488 194.425C392.724 192.19 394.359 189.765 395.299 187.743C395.768 186.735 396.074 185.807 396.185 185.04C396.241 184.656 396.252 184.295 396.199 183.975C396.147 183.656 396.026 183.346 395.792 183.111L395.085 183.818ZM389.781 193.718C387.623 195.876 385.294 197.442 383.385 198.329C382.428 198.774 381.597 199.04 380.959 199.133C380.64 199.179 380.387 199.18 380.2 199.149C380.012 199.118 379.922 199.061 379.882 199.021L379.175 199.728C379.409 199.963 379.719 200.084 380.038 200.136C380.358 200.188 380.72 200.178 381.103 200.122C381.87 200.01 382.798 199.705 383.807 199.236C385.828 198.296 388.253 196.66 390.488 194.425L389.781 193.718ZM396.965 195.871C396.403 197.262 396.077 198.029 395.085 199.021L395.792 199.728C396.936 198.585 397.323 197.656 397.892 196.246L396.965 195.871ZM395.085 199.021C394.093 200.013 393.327 200.338 391.936 200.9L392.311 201.827C393.72 201.258 394.648 200.871 395.792 199.728L395.085 199.021ZM331.055 119.443L395.084 183.818L395.793 183.112L331.764 118.737L331.055 119.443ZM315.145 135.353L379.174 199.727L379.883 199.022L315.855 134.647L315.145 135.353ZM391.936 200.9C387.467 202.705 382.895 202.035 379.882 199.021L379.175 199.728C382.525 203.079 387.545 203.752 392.311 201.827L391.936 200.9ZM397.892 196.246C399.817 191.48 399.142 186.462 395.792 183.111L395.085 183.818C398.098 186.832 398.769 191.403 396.965 195.871L397.892 196.246Z" fill="black"/>
<path d="M663 295.625C662.147 295.833 660.613 296.5 661.295 297.5" stroke="white" stroke-width="2"/>
<path d="M694.875 359.375C696.493 361.678 706.677 372.204 704.25 381.875" stroke="white" stroke-width="2" stroke-linecap="round" stroke-linejoin="round"/>
<path d="M724.875 348.125C723.937 351.875 724.875 364.625 724.875 368.75" stroke="white" stroke-width="2" stroke-linecap="round" stroke-linejoin="round"/>
<path d="M674.25 387.5C675.291 377.764 686.611 367.091 691.125 363.125C695.812 358.438 696.582 355.781 708 353.75C717.134 352.125 737.341 343.75 747.375 339.688" stroke="white" stroke-width="2" stroke-linecap="round" stroke-linejoin="round"/>
<path d="M689.25 363.125C685.083 361.145 676.333 359.217 664.875 362.187" stroke="white" stroke-width="2" stroke-linecap="round" stroke-linejoin="round"/>
<path d="M704.25 353.75C699.875 350 686.942 343.353 679.875 344.375" stroke="white" stroke-width="2" stroke-linecap="round" stroke-linejoin="round"/>
<path d="M734.25 344.375C729.849 340.389 718.859 330.163 711.75 331.25" stroke="white" stroke-width="2" stroke-linecap="round" stroke-linejoin="round"/>
<path d="M679.876 335C650.813 337.5 638 319 638.625 307.812C637.687 305 646 299 652.5 297.5L651.5 300.5C648.688 301.75 642.938 305.562 645.188 307.812C648.001 310.625 659.251 314.375 679.876 313.438C696.376 312.688 706.375 307.5 709.5 305L707.063 301.25L706.5 297.5C709 297.812 715.501 299.375 715.501 303.125C715.501 307.812 714.5 332.022 679.876 335Z" fill="#F5F5F5"/>
<path d="M652.837 295.417L651.75 297.5V300.312C650.187 300.938 646.687 302.938 645.187 305.938C643.312 309.688 661.537 314.375 678.937 313.438C696.337 312.5 711.375 305.438 709.5 304.5C708 303.75 706.437 298.993 706.125 296.458L703.95 295.417L700.687 292.292L697.425 291.25L695.25 289.167L692.667 285H689.812L688.725 282.917L684.375 279.792L678.937 278.75H673.5H668.062L664.8 280.833L661.537 283.958L659.362 285L657.187 288.125L653.925 289.167L652.837 292.292V295.417Z" fill="#E6E6E6"/>
<path d="M693.602 373.362C691.518 368.511 696.642 368.106 698.813 368.511C701.419 363.659 705.164 364.872 706.63 366.085C718.356 375.788 706.63 384.278 704.025 385.491C701.419 386.704 696.208 379.427 693.602 373.362Z" fill="#E6E6E6"/>
<path d="M730.138 364.284C731.992 353.792 726.275 353.792 723.185 355.103C723.185 353.792 718.55 348.546 716.232 355.103C714.378 360.35 716.232 368.031 719.708 370.842C722.412 373.028 728.284 374.776 730.138 364.284Z" fill="#E6E6E6"/>
<path d="M678.994 374.756C680.043 373.719 681.75 372.608 681.75 375.009C681.75 378.257 674.75 391.25 671.75 391.25C668.75 391.25 666.75 385.836 666.75 382.588C666.75 379.34 670.75 370.678 675.75 372.843C678.18 373.896 678.888 374.468 678.994 374.756Z" fill="#E6E6E6"/>
<path d="M661.872 364.088C670.987 366.267 680.517 364.088 683.625 362.272C678.446 358.639 675.338 356.823 668.087 357.731C664.31 358.204 654.621 362.354 661.872 364.088Z" fill="#E6E6E6"/>
<path d="M676.473 346.191C678.084 347.958 689.563 352.818 698.625 351.714C698.625 350.609 697.619 342.877 689.563 339.564C681.507 336.25 674.459 343.982 676.473 346.191Z" fill="#E6E6E6"/>
<path d="M708.3 332.44C709.846 334.058 719.893 341.543 728.586 340.531C728.586 339.52 729.553 329.405 721.824 326.37C714.096 323.336 706.368 330.417 708.3 332.44Z" fill="#E6E6E6"/>
<path d="M691.125 305C691.542 303.295 692.875 300.226 694.875 301.59" stroke="black" stroke-linecap="round"/>
<path d="M679.875 303.125C680.813 302.008 683.25 300.221 685.5 302.008" stroke="black" stroke-linecap="round"/>
<path d="M689.25 291.875C690.834 291.875 693.765 292.625 692.814 295.625" stroke="black" stroke-linecap="round"/>
<path d="M678 288.125C676.594 286.71 673.5 284.729 672.375 288.125" stroke="black" stroke-linecap="round"/>
<path d="M638.625 306.875C638.625 325.99 657.858 335.461 676.664 334.984C695.871 334.497 715.5 325.426 715.5 303.125" stroke="black" stroke-linecap="round" stroke-linejoin="round"/>
<path d="M646.935 308.633C641.857 306.204 647.641 302.223 651.167 300.536L653.283 297.5C646.935 299.524 635.298 304.585 639.53 308.633C644.82 313.693 659.631 317.742 683.964 315.718C700.892 314.31 709.355 309.645 714.645 304.585C718.135 301.246 710.061 297.837 706.181 297.5L707.239 300.536C707.592 301.548 708.509 303.775 709.355 304.585C710.413 305.597 701.95 310.657 683.964 312.681C665.979 314.706 653.283 311.669 646.935 308.633Z" stroke="black" stroke-linecap="round" stroke-linejoin="round"/>
<path d="M651.75 297.5L652.837 295.417V292.292L653.925 289.167L657.188 288.125L659.362 285L661.537 283.958L664.8 280.833L668.062 278.75H673.5H678.938L684.375 279.792L688.725 282.917L689.812 285H692.667L695.25 289.167L697.425 291.25L700.688 292.292L703.95 295.417L707 297.5" stroke="black" stroke-linecap="round" stroke-linejoin="round"/>
<path d="M661.125 295.625C660.272 295.833 658.738 296.5 659.42 297.5" stroke="black" stroke-linecap="round" stroke-linejoin="round"/>
<path d="M693 359.375C694.618 361.678 706.348 375.954 703.921 385.625" stroke="black" stroke-linecap="round" stroke-linejoin="round"/>
<path d="M693.602 373.362C691.518 368.511 696.642 368.106 698.813 368.511C701.419 363.659 705.164 364.872 706.63 366.085C718.356 375.788 706.63 384.278 704.025 385.491C701.419 386.704 696.208 379.427 693.602 373.362Z" stroke="black" stroke-linecap="round" stroke-linejoin="round"/>
<path d="M723.17 348.125C722.318 352.187 722.488 367.625 723.17 372.5" stroke="black" stroke-linecap="round" stroke-linejoin="round"/>
<path d="M730.138 364.284C731.992 353.792 726.275 353.792 723.185 355.103C723.185 353.792 718.55 348.546 716.232 355.103C714.378 360.35 716.232 368.031 719.708 370.842C722.412 373.028 728.284 374.776 730.138 364.284Z" stroke="black" stroke-linecap="round" stroke-linejoin="round"/>
<path d="M689.25 363.125C684.736 367.091 671.542 381.514 670.5 391.25" stroke="black" stroke-linecap="round" stroke-linejoin="round"/>
<path d="M681.75 375.009C681.75 372.41 678.75 373.71 678.75 375.009C678.75 373.5 677.5 372.5 675.5 372.5C670.051 372.5 666.75 379.34 666.75 382.588C666.75 385.836 668.75 391.25 671.75 391.25C674.75 391.25 681.75 378.257 681.75 375.009Z" stroke="black" stroke-linecap="round" stroke-linejoin="round"/>
<path d="M747.375 338.75C737.342 342.813 714.991 351.344 705.857 352.969C694.44 355 693.402 360.078 689.25 363.125" stroke="black" stroke-linecap="round" stroke-linejoin="round"/>
<path d="M688.5 363.5C683 360 670.708 360.154 659.25 363.125" stroke="black" stroke-linecap="round" stroke-linejoin="round"/>
<path d="M661.872 364.088C670.987 366.267 680.517 364.088 683.625 362.272C678.446 358.639 675.338 356.823 668.087 357.731C664.31 358.204 654.621 362.354 661.872 364.088Z" stroke="black" stroke-linecap="round" stroke-linejoin="round"/>
<path d="M702.375 353.75C698 350 683.192 343.46 676.125 344.482" stroke="black" stroke-linecap="round" stroke-linejoin="round"/>
<path d="M732.375 344.375C727.974 340.389 715.109 330.244 708 331.331" stroke="black" stroke-linecap="round" stroke-linejoin="round"/>
<path d="M676.473 346.191C678.084 347.958 689.563 352.818 698.625 351.714C698.625 350.609 697.619 342.877 689.563 339.564C681.507 336.25 674.459 343.982 676.473 346.191Z" stroke="black" stroke-linecap="round" stroke-linejoin="round"/>
<path d="M708.3 332.44C709.846 334.058 719.893 341.543 728.586 340.531C728.586 339.52 729.553 329.405 721.824 326.37C714.096 323.336 706.368 330.417 708.3 332.44Z" stroke="black" stroke-linecap="round" stroke-linejoin="round"/>
<path d="M224.506 289.063L189.316 318.591L118.81 234.566L121.02 218.025L136.469 205.062L154 205.037L224.506 289.063Z" fill="#9E9E9E"/>
<path d="M196.142 278.596L183.215 289.443L154.546 259.651C149.802 253.026 144.648 243.48 148.098 234.466C157.575 232.633 166.961 239.443 171.782 245.189L196.142 278.596Z" fill="#E0E0E0" fill-opacity="0.5"/>
<path d="M230.636 257.806L216.076 262.257L203.347 229.3C201.856 222.497 201.09 213.24 207.199 207.185C215.65 208.789 220.886 217.238 222.76 223.365L230.636 257.806Z" fill="white"/>
<path d="M186.25 282.625L183.437 285.438C169.309 270.927 161.724 264.113 157.187 258.25C150.586 249.718 148.75 242.312 149.687 236.688L186.25 282.625Z" fill="#E0E0E0"/>
<path d="M221.875 257.313L217.188 259.188C210.625 240.438 208.071 236.287 205.937 229.188C204.063 219.813 204.793 214.498 207.683 209.582L221.875 257.313Z" fill="#E0E0E0"/>
<path d="M189.062 313.562L191.875 310.75L122.5 227.312L121.562 233.875L189.062 313.562Z" fill="#E0E0E0"/>
<path d="M224.506 289.063L189.316 318.591L118.81 234.566L121.02 218.025L136.469 205.062L154 205.037L224.506 289.063Z" stroke="black" stroke-linecap="round" stroke-linejoin="round"/>
<path d="M196.142 278.596L183.215 289.443L154.546 259.651C149.802 253.026 144.648 243.48 148.098 234.466C157.575 232.633 166.961 239.443 171.782 245.189L196.142 278.596Z" stroke="black" stroke-linecap="round" stroke-linejoin="round"/>
<path d="M230.636 257.806L216.076 262.257L203.347 229.3C201.856 222.497 201.09 213.24 207.199 207.185C215.65 208.789 220.886 217.238 222.76 223.365L230.636 257.806Z" stroke="black" stroke-linecap="round" stroke-linejoin="round"/>
<path d="M181.944 303.972L210.671 279.867" stroke="black" stroke-linecap="round" stroke-linejoin="round"/>
<path d="M178.328 299.663L207.055 275.558" stroke="black" stroke-linecap="round" stroke-linejoin="round"/>
<path d="M174.713 295.354L179.74 291.135" stroke="black" stroke-linecap="round" stroke-linejoin="round"/>
<path d="M171.097 291.045L176.124 286.826" stroke="black" stroke-linecap="round" stroke-linejoin="round"/>
<path d="M167.481 286.736L171.79 283.12" stroke="black" stroke-linecap="round" stroke-linejoin="round"/>
<path d="M163.865 282.427L168.174 278.811" stroke="black" stroke-linecap="round" stroke-linejoin="round"/>
<path d="M160.25 278.118L164.559 274.502" stroke="black" stroke-linecap="round" stroke-linejoin="round"/>
<path d="M156.634 273.809L160.225 270.796" stroke="black" stroke-linecap="round" stroke-linejoin="round"/>
<path d="M153.018 269.5L156.609 266.487" stroke="black" stroke-linecap="round" stroke-linejoin="round"/>
<path d="M149.403 265.191L152.994 262.178" stroke="black" stroke-linecap="round" stroke-linejoin="round"/>
<path d="M145.787 260.882L149.378 257.869" stroke="black" stroke-linecap="round" stroke-linejoin="round"/>
<path d="M142.172 256.573L146.481 252.957" stroke="black" stroke-linecap="round" stroke-linejoin="round"/>
<path d="M138.556 252.264L144.301 247.443" stroke="black" stroke-linecap="round" stroke-linejoin="round"/>
<path d="M136.376 246.75L143.558 240.723" stroke="black" stroke-linecap="round" stroke-linejoin="round"/>
<path d="M135.633 240.03L142.815 234.004" stroke="black" stroke-linecap="round" stroke-linejoin="round"/>
<path d="M203.439 271.249L198.412 275.468" stroke="black" stroke-linecap="round" stroke-linejoin="round"/>
<path d="M199.823 266.94L194.796 271.158" stroke="black" stroke-linecap="round" stroke-linejoin="round"/>
<path d="M196.208 262.631L191.899 266.247" stroke="black" stroke-linecap="round" stroke-linejoin="round"/>
<path d="M192.592 258.322L188.283 261.938" stroke="black" stroke-linecap="round" stroke-linejoin="round"/>
<path d="M188.977 254.013L184.668 257.629" stroke="black" stroke-linecap="round" stroke-linejoin="round"/>
<path d="M185.361 249.704L181.77 252.717" stroke="black" stroke-linecap="round" stroke-linejoin="round"/>
<path d="M181.745 245.395L178.155 248.408" stroke="black" stroke-linecap="round" stroke-linejoin="round"/>
<path d="M178.129 241.086L174.539 244.099" stroke="black" stroke-linecap="round" stroke-linejoin="round"/>
<path d="M174.514 236.777L170.923 239.79" stroke="black" stroke-linecap="round" stroke-linejoin="round"/>
<path d="M170.898 232.468L166.589 236.084" stroke="black" stroke-linecap="round" stroke-linejoin="round"/>
<path d="M167.282 228.159L161.537 232.98" stroke="black" stroke-linecap="round" stroke-linejoin="round"/>
<path d="M162.23 225.055L155.049 231.082" stroke="black" stroke-linecap="round" stroke-linejoin="round"/>
<path d="M155.742 223.157L148.56 229.183" stroke="black" stroke-linecap="round" stroke-linejoin="round"/>
<path d="M351.062 398.25C366.675 398.25 373.57 392.591 374.499 389.812V338.952C374.499 335.248 371 329 367.065 327.839V319.5C367.065 312.938 358 313.768 358 312.938C358 309.171 357.624 305.5 357.624 305.5C357.624 303.625 358.562 297 357.624 296.062C356.687 289.5 355.749 286.687 353.874 284.812C352.937 283.875 349 283 346.374 284.812C343.562 289.5 343.562 293.25 342.624 296.062L341.687 307.313C341.687 307.313 342.624 312.938 340.749 312.938C336.772 312.938 333.249 316.688 333.249 316.688V319.5V327.839C328.045 330.802 326.687 334.5 325.749 338.952C325.44 355.623 325.006 388.331 325.749 389.812C326.679 391.665 331.547 398.25 351.062 398.25Z" fill="white"/>
<path d="M274.188 360.75L277.938 357C278.25 354.813 280.75 349.75 289 349C291.812 348.744 294 346 297 345C300.75 342.187 308.933 338.198 317.312 347.625C324.812 356.062 323.5 373.5 314.5 380C306.852 385.523 302.438 382.437 299 381.5H292C288.25 381.812 281.688 380.437 277.938 375.75C276.389 373.814 275.262 372.028 274.649 371.707C274.493 371.811 274.339 371.909 274.188 372C274.271 371.667 274.426 371.59 274.649 371.707C277.708 369.654 281.324 365.032 274.188 360.75Z" fill="white"/>
<path d="M301.375 364.5C301.375 354 293.875 350.125 290.125 349.5L301.375 343.875C307.625 343.875 319.188 349.5 319.188 360.75C319.188 375.75 309.5 380.125 305.125 381.375H291.062C294.5 380.125 301.375 375 301.375 364.5Z" fill="#E0E0E0"/>
<path d="M281.688 375.75L274.188 372L275.125 359.812C276.688 358.562 280.254 356.625 280.75 356.062C281.688 355 290.5 353.5 292 365.437C293 373.396 284.812 376.062 281.688 375.75Z" fill="#E6E6E6"/>
<path d="M355.75 323.25L348.5 319.5C351.5 319.5 356.688 318.562 358.563 317.625L364.188 320.438C365.125 324.187 365.125 326.062 365.125 329.812V329.812C369.625 330.562 370.75 339.5 370.75 343.875C372.313 358.562 371.688 384.188 370.75 390.75C367 393 362.938 393.562 361.375 393.562V355.125V346.688C361.375 337.688 357.625 333.562 355.75 332.625V323.25Z" fill="#E0E0E0"/>
<path d="M337 355.125C359.5 358.125 371.375 352.625 374.5 349.5V382.313C360.25 392.063 343.563 389.5 337 387L337 386.06C337 379.373 337 360.472 337 355.125Z" fill="#9E9E9E"/>
<path d="M374.5 339.188C374.5 343.847 363.587 347.625 350.125 347.625C336.663 347.625 325.75 343.847 325.75 339.188" stroke="black" stroke-linecap="round" stroke-linejoin="round"/>
<path d="M367 327C367 330.226 359.445 333.058 350.125 333.058C340.805 333.058 333.25 330.226 333.25 327" stroke="black" stroke-linecap="round" stroke-linejoin="round"/>
<ellipse cx="350.125" cy="317.841" rx="16.875" ry="5.84135" stroke="black" stroke-linecap="round" stroke-linejoin="round"/>
<path d="M374.5 347.625C374.5 352.285 363.587 356.062 350.125 356.062C345.293 356.062 340.789 355.576 337 354.736V387.549C340.789 388.388 345.293 388.875 350.125 388.875C363.587 388.875 374.5 385.097 374.5 380.438" stroke="black" stroke-linecap="round" stroke-linejoin="round"/>
<path d="M333.25 327L333.25 317.625" stroke="black" stroke-linecap="round" stroke-linejoin="round"/>
<path d="M367 327L367 317.625" stroke="black" stroke-linecap="round" stroke-linejoin="round"/>
<path d="M333.25 327.938C328.563 328.875 325.75 335.438 325.75 339.188V388.875C325.75 393.535 336.663 398.25 350.125 398.25C363.587 398.25 374.5 393.535 374.5 388.875V340.125C374.5 336.375 371.688 328.875 367 327.938" stroke="black" stroke-linecap="round" stroke-linejoin="round"/>
<rect x="342" y="299" width="16" height="17" fill="#C4C4C4" stroke="black" stroke-linecap="round" stroke-linejoin="round"/>
<path fill-rule="evenodd" clip-rule="evenodd" d="M358.104 297C356.452 298.017 353.496 298.695 350.125 298.695C346.754 298.695 343.798 298.017 342.146 297C341.261 297.545 340.75 298.187 340.75 298.875C340.75 300.846 344.947 302.445 350.125 302.445C355.303 302.445 359.5 300.846 359.5 298.875C359.5 298.187 358.989 297.545 358.104 297Z" fill="#C4C4C4"/>
<path d="M358.104 297L358.366 296.574C358.206 296.475 358.003 296.475 357.842 296.574L358.104 297ZM342.146 297L342.408 296.574C342.247 296.475 342.044 296.475 341.884 296.574L342.146 297ZM357.842 296.574C356.302 297.523 353.452 298.195 350.125 298.195V299.195C353.541 299.195 356.603 298.512 358.366 297.426L357.842 296.574ZM350.125 298.195C346.798 298.195 343.948 297.523 342.408 296.574L341.884 297.426C343.647 298.512 346.709 299.195 350.125 299.195V298.195ZM341.25 298.875C341.25 298.453 341.57 297.942 342.408 297.426L341.884 296.574C340.952 297.148 340.25 297.921 340.25 298.875H341.25ZM350.125 301.945C347.581 301.945 345.3 301.551 343.674 300.932C342.859 300.622 342.234 300.264 341.821 299.893C341.409 299.521 341.25 299.177 341.25 298.875H340.25C340.25 299.559 340.616 300.153 341.152 300.636C341.689 301.119 342.436 301.531 343.318 301.866C345.085 302.539 347.491 302.945 350.125 302.945V301.945ZM359 298.875C359 299.177 358.841 299.521 358.429 299.893C358.016 300.264 357.391 300.622 356.576 300.932C354.95 301.551 352.669 301.945 350.125 301.945V302.945C352.759 302.945 355.165 302.539 356.932 301.866C357.814 301.531 358.561 301.119 359.098 300.636C359.634 300.153 360 299.559 360 298.875H359ZM357.842 297.426C358.68 297.942 359 298.453 359 298.875H360C360 297.921 359.298 297.148 358.366 296.574L357.842 297.426Z" fill="black"/>
<path fill-rule="evenodd" clip-rule="evenodd" d="M358.104 306.375C356.452 307.392 353.496 308.07 350.125 308.07C346.754 308.07 343.798 307.392 342.146 306.375C341.261 306.92 340.75 307.562 340.75 308.25C340.75 310.221 344.947 311.82 350.125 311.82C355.303 311.82 359.5 310.221 359.5 308.25C359.5 307.562 358.989 306.92 358.104 306.375Z" fill="#C4C4C4"/>
<path d="M358.104 306.375L358.366 305.949C358.206 305.85 358.003 305.85 357.842 305.949L358.104 306.375ZM342.146 306.375L342.408 305.949C342.247 305.85 342.044 305.85 341.884 305.949L342.146 306.375ZM357.842 305.949C356.302 306.898 353.452 307.57 350.125 307.57V308.57C353.541 308.57 356.603 307.887 358.366 306.801L357.842 305.949ZM350.125 307.57C346.798 307.57 343.948 306.898 342.408 305.949L341.884 306.801C343.647 307.887 346.709 308.57 350.125 308.57V307.57ZM341.25 308.25C341.25 307.828 341.57 307.317 342.408 306.801L341.884 305.949C340.952 306.523 340.25 307.296 340.25 308.25H341.25ZM350.125 311.32C347.581 311.32 345.3 310.926 343.674 310.307C342.859 309.997 342.234 309.639 341.821 309.268C341.409 308.896 341.25 308.552 341.25 308.25H340.25C340.25 308.934 340.616 309.528 341.152 310.011C341.689 310.494 342.436 310.906 343.318 311.241C345.085 311.914 347.491 312.32 350.125 312.32V311.32ZM359 308.25C359 308.552 358.841 308.896 358.429 309.268C358.016 309.639 357.391 309.997 356.576 310.307C354.95 310.926 352.669 311.32 350.125 311.32V312.32C352.759 312.32 355.165 311.914 356.932 311.241C357.814 310.906 358.561 310.494 359.098 310.011C359.634 309.528 360 308.934 360 308.25H359ZM357.842 306.801C358.68 307.317 359 307.828 359 308.25H360C360 307.296 359.298 306.523 358.366 305.949L357.842 306.801Z" fill="black"/>
<path fill-rule="evenodd" clip-rule="evenodd" d="M358.104 313.875C356.452 314.892 353.496 315.57 350.125 315.57C346.754 315.57 343.798 314.892 342.146 313.875C341.261 314.42 340.75 315.062 340.75 315.75C340.75 317.721 344.947 319.32 350.125 319.32C355.303 319.32 359.5 317.721 359.5 315.75C359.5 315.062 358.989 314.42 358.104 313.875Z" fill="#C4C4C4"/>
<path d="M358.104 313.875L358.366 313.449C358.206 313.35 358.003 313.35 357.842 313.449L358.104 313.875ZM342.146 313.875L342.408 313.449C342.247 313.35 342.044 313.35 341.884 313.449L342.146 313.875ZM357.842 313.449C356.302 314.398 353.452 315.07 350.125 315.07V316.07C353.541 316.07 356.603 315.387 358.366 314.301L357.842 313.449ZM350.125 315.07C346.798 315.07 343.948 314.398 342.408 313.449L341.884 314.301C343.647 315.387 346.709 316.07 350.125 316.07V315.07ZM341.25 315.75C341.25 315.328 341.57 314.817 342.408 314.301L341.884 313.449C340.952 314.023 340.25 314.796 340.25 315.75H341.25ZM350.125 318.82C347.581 318.82 345.3 318.426 343.674 317.807C342.859 317.497 342.234 317.139 341.821 316.768C341.409 316.396 341.25 316.052 341.25 315.75H340.25C340.25 316.434 340.616 317.028 341.152 317.511C341.689 317.994 342.436 318.406 343.318 318.741C345.085 319.414 347.491 319.82 350.125 319.82V318.82ZM359 315.75C359 316.052 358.841 316.396 358.429 316.768C358.016 317.139 357.391 317.497 356.576 317.807C354.95 318.426 352.669 318.82 350.125 318.82V319.82C352.759 319.82 355.165 319.414 356.932 318.741C357.814 318.406 358.561 317.994 359.098 317.511C359.634 317.028 360 316.434 360 315.75H359ZM357.842 314.301C358.68 314.817 359 315.328 359 315.75H360C360 314.796 359.298 314.023 358.366 313.449L357.842 314.301Z" fill="black"/>
<path d="M353.458 284.946C353.458 285.537 351.966 286.017 350.125 286.017C348.284 286.017 346.792 285.537 346.792 284.946M353.458 284.946C353.458 284.354 351.966 283.875 350.125 283.875C348.284 283.875 346.792 284.354 346.792 284.946M353.458 284.946C354.847 285.258 357.625 291 357.625 297M346.792 284.946C345.403 285.258 342.625 291 342.625 297" stroke="black" stroke-linecap="round" stroke-linejoin="round"/>
<path d="M276.666 357.938C278.875 352.916 283.234 349.5 288.25 349.5C295.498 349.5 301.375 356.635 301.375 365.438C301.375 374.24 295.498 381.375 288.25 381.375C283.652 381.375 279.607 378.505 277.262 374.159" stroke="black" stroke-linecap="round" stroke-linejoin="round"/>
<ellipse cx="274.132" cy="366.375" rx="4.63235" ry="5.625" fill="#C4C4C4" stroke="black" stroke-linecap="round" stroke-linejoin="round"/>
<path d="M294.812 346.339C297.69 343.619 301.307 342 305.235 342C314.616 342 322.221 351.234 322.221 362.625C322.221 374.016 314.616 383.25 305.235 383.25C302.706 383.25 300.306 382.579 298.149 381.375" stroke="black" stroke-linecap="round" stroke-linejoin="round"/>
<path d="M273.25 360.75L280.172 355.991C281.21 355.434 282.356 355.125 283.562 355.125C288.222 355.125 292 359.742 292 365.437C292 369.922 289.555 373.53 285.863 375.025C284.867 375.429 283.919 375.678 282.625 375.75C279.025 375.95 274.188 372 274.188 372" stroke="black" stroke-linecap="round" stroke-linejoin="round"/>
<path d="M288.25 349.5L300.438 343.875C313.562 343.875 319.132 352.269 319.132 362.625C319.132 372.98 312.219 381.375 303.691 381.375H288.25" stroke="black" stroke-linecap="round" stroke-linejoin="round"/>
<path d="M304.188 364.5L316.375 363.562" stroke="black" stroke-linecap="round" stroke-linejoin="round"/>
<path d="M304.188 370.125H314.5" stroke="black" stroke-linecap="round" stroke-linejoin="round"/>
<path d="M303.25 359.812L315.438 357.938" stroke="black" stroke-linecap="round" stroke-linejoin="round"/>
<path d="M302.312 355.125L311.688 352.312" stroke="black" stroke-linecap="round" stroke-linejoin="round"/>
<path d="M302.312 375.75H310.75" stroke="black" stroke-linecap="round" stroke-linejoin="round"/>
<path d="M297.625 350.438C300.438 349.5 303.25 348.562 306.062 347.625" stroke="black" stroke-linecap="round" stroke-linejoin="round"/>
<path d="M519.625 90.5V68.9375H598.375V90.5C592.125 114.875 579.438 164.188 578.688 166.438C577.938 168.688 575.25 169.875 574 170.188V180.5C573.375 182.062 569.313 185.188 558.063 185.188C546.813 185.188 544 182.062 544 180.5V170.188C541.75 169.438 539.938 167.375 539.313 166.438L519.625 90.5Z" fill="white"/>
<path d="M588.063 99.875C584.313 104.562 576.625 120.875 575.875 148.625L588.063 99.875Z" fill="#E0E0E0"/>
<path d="M530.875 99.875C534.625 104.562 542.313 120.875 543.063 148.625L530.875 99.875Z" fill="#E0E0E0"/>
<path d="M596.5 95.1875H520.563L519.625 90.5H598.375L596.5 95.1875Z" fill="#E0E0E0"/>
<path d="M549.625 183.001V171.125C557.125 172.063 562.75 172.063 568.226 171.125L568.375 183.313C568.375 183.313 562.248 185.3 559 185.188C554.902 185.045 550.189 184.321 549.625 183.001Z" fill="#E0E0E0"/>
<path d="M558.063 83.9375C534.063 83.9375 523.063 75.1875 520.563 70.8125V90.5H597.438V69.875C594.313 74.5625 582.063 83.9375 558.063 83.9375Z" fill="#E0E0E0"/>
<path d="M560.875 168.312C550.375 168.312 545.25 165.188 544 163.625H575.875C575.25 165.188 571.375 168.312 560.875 168.312Z" fill="#E0E0E0"/>
<path d="M573.766 180.339C573.766 183.06 567.155 185.265 559 185.265C550.845 185.265 544.234 183.06 544.234 180.339" stroke="black" stroke-linecap="round" stroke-linejoin="round"/>
<path d="M519.625 90.6892L539.312 166.547" stroke="black" stroke-linecap="round"/>
<path d="M578.688 166.547C578.688 169.267 569.873 171.473 559 171.473C548.127 171.473 539.312 169.267 539.312 166.547" stroke="black" stroke-linecap="round" stroke-linejoin="round"/>
<rect x="519.625" y="69.0154" width="78.75" height="21.6737" stroke="black" stroke-linecap="round" stroke-linejoin="round"/>
<path d="M598.375 90.6892L578.688 166.547" stroke="black" stroke-linecap="round"/>
<path d="M573.766 180.339V170.488" stroke="black" stroke-linecap="round"/>
<path d="M544.234 180.339V170.488" stroke="black" stroke-linecap="round"/>
<path d="M524.781 85.3517V75.5" stroke="black" stroke-linecap="round"/>
<path d="M532.75 85.3517V75.5" stroke="black" stroke-linecap="round"/>
<path d="M540.25 85.3517V75.5" stroke="black" stroke-linecap="round"/>
<path d="M547.75 85.3517V75.5" stroke="black" stroke-linecap="round"/>
<path d="M555.25 85.3517V75.5" stroke="black" stroke-linecap="round"/>
<path d="M562.75 85.3517V75.5" stroke="black" stroke-linecap="round"/>
<path d="M570.25 85.3517V75.5" stroke="black" stroke-linecap="round"/>
<path d="M577.75 85.3517V75.5" stroke="black" stroke-linecap="round"/>
<path d="M585.25 85.3517V75.5" stroke="black" stroke-linecap="round"/>
<path d="M592.75 85.3517V75.5" stroke="black" stroke-linecap="round"/>
<rect x="722" y="77.9685" width="24" height="64" rx="12" transform="rotate(-45 722 77.9685)" fill="white"/>
<path d="M730.485 86.4535C725.799 81.7673 725.799 74.1693 730.485 69.483V69.483C735.172 64.7967 742.77 64.7967 747.456 69.483L761.973 84C761.973 84 755.297 86.8713 752 90C748.314 93.498 745.002 100.971 745.002 100.971L730.485 86.4535Z" fill="#9E9E9E"/>
<ellipse cx="738.185" cy="71.1848" rx="3.09726" ry="2.82109" transform="rotate(-45 738.185 71.1848)" fill="white"/>
<path d="M728 78L767 117C764.5 117 761.996 115.815 760.5 114.5C759.931 114 730.875 85 730.5 84.5C727.877 81 728 78 728 78Z" fill="#E0E0E0"/>
<rect x="722" y="77.9702" width="24" height="64" rx="12" transform="rotate(-45 722 77.9702)" stroke="black" stroke-linecap="round" stroke-linejoin="round"/>
<path d="M745.054 100.921C745.054 100.921 748.698 93.4913 752.5 90.0002C755.606 87.1487 761.671 84.3041 761.671 84.3041" stroke="black" stroke-linecap="round" stroke-linejoin="round"/>
<path d="M826.062 278.375V259.625C828 254 837.5 252.375 842.5 253L853.5 254.5L863.562 257.75V274.625C856.812 282.875 848.875 281.812 845.75 280.25L826.062 278.375Z" fill="#9E9E9E"/>
<path d="M807.312 277.437L826.063 278.375C826.375 272.437 826.063 260.375 826.063 259.625C826.063 258.687 828.5 254.707 831.688 254C828.875 254 821.375 257.75 817.625 258.687C818.375 254.937 807.812 207.812 802.5 185C800.937 185.938 797 188.25 794 190.5C791 192.75 792 193.5 791.375 195.875C793.5 205.5 806.375 255.875 807.312 259.625C805.062 261.125 804.5 266.5 804.5 269L807.312 270.875V277.437Z" fill="#E0E0E0"/>
<path d="M818 259C818 254.5 807.937 207.437 802.625 184.625C807.312 183.375 817.625 180.687 821.375 179.937C825.125 179.187 826.687 182.75 827 184.625C830.906 208.062 841.062 251.187 841.062 253.062C838.25 252.125 825.5 254.5 818 259Z" fill="#F5F5F5"/>
<path d="M789.499 174.312L793.249 191.187L802.625 184.625L820.437 179.937L818.562 170.562C817.625 165.875 817.5 165.875 813.5 165.875C810.688 165.875 806.886 165.229 803.563 165.875C798.209 166.915 792.531 170.562 791.375 170.562C789.5 170.562 788.562 173.375 789.499 174.312Z" fill="white"/>
<path d="M800.75 186.5L793.25 191.188C792 185.25 789 174 789 172.5C789 171 793.812 168.625 796 168L800.75 186.5Z" fill="#E0E0E0"/>
<path d="M793.25 191.187L788.92 173.001C788.709 172.116 789.12 171.203 789.933 170.796C792.561 169.479 798.42 166.7 802.625 165.875C807.019 165.013 813.378 165.459 816.193 165.724C817.051 165.805 817.739 166.445 817.908 167.291L820.438 179.937" stroke="black" stroke-linecap="round" stroke-linejoin="round"/>
<path d="M802.625 184.625L821.375 179.937C822.937 179.312 826.25 179.562 827 185.562C827.75 191.562 836.688 233.062 841.062 253.062" stroke="black"/>
<path d="M826 278C820.688 276.125 807.5 271.25 804.5 269C804.5 266.188 805.125 261.812 807.313 259.625M807.313 259.625C810.125 260.25 816.125 261.125 817.625 259.625C819.125 258.125 808.25 209 802.625 184.625L793.25 191.188C792.313 192.125 790.813 192.875 792.313 199.625C793.813 206.375 802.938 242.438 807.313 259.625Z" stroke="black" stroke-linecap="round" stroke-linejoin="round"/>
<path d="M845.75 262.437C845.75 270.875 845.75 274.625 845.75 280.25M845.75 262.437L826.062 259.625M845.75 262.437C847.85 259.638 852.563 255.479 857.938 255.736M845.75 280.25C855.5 283.25 861.688 277.75 863.563 274.625C863.563 269 863.563 266.188 863.563 257.75C861.662 256.42 859.762 255.824 857.938 255.736M845.75 280.25L826.062 278.375V259.625M826.062 259.625C826.688 257.125 830.375 252.313 840.125 253.063C849.875 253.813 856.063 255.158 857.938 255.736" stroke="black" stroke-linecap="round" stroke-linejoin="round"/>
<path d="M826.062 278.375L807.312 277.437V270.5M826.062 259.625H817.625C820.438 257.75 827.938 252.125 840.125 253.062" stroke="black" stroke-linecap="round" stroke-linejoin="round"/>
</svg>
