<svg width="153" height="85" viewBox="0 0 153 85" fill="none" xmlns="http://www.w3.org/2000/svg">
<rect x="0.5" y="69.5" width="23" height="15" fill="white" stroke="black"/>
<rect x="32.5" y="61.5" width="23" height="23" fill="white" stroke="black"/>
<rect x="64.5" y="53.5" width="23" height="31" fill="white" stroke="black"/>
<rect x="96.5" y="37.5" width="23" height="47" fill="white" stroke="black"/>
<rect x="128.5" y="29.5" width="23" height="55" fill="white" stroke="black"/>
<rect x="128.375" y="7.73828" width="9" height="24" rx="4.5" transform="rotate(-45 128.375 7.73828)" fill="white"/>
<path d="M131.557 10.9198C129.8 9.16241 129.8 6.31317 131.557 4.55581V4.55581C133.314 2.79845 136.164 2.79845 137.921 4.55581L143.365 9.99969C143.365 9.99969 140.861 11.0764 139.625 12.2497C138.243 13.5614 137.001 16.3637 137.001 16.3637L131.557 10.9198Z" fill="#9E9E9E"/>
<ellipse cx="134.444" cy="5.19435" rx="1.16147" ry="1.05791" transform="rotate(-45 134.444 5.19435)" fill="white"/>
<path d="M130.625 7.75L145.25 22.375C144.312 22.375 143.373 21.9305 142.812 21.4375C142.599 21.25 131.703 10.375 131.563 10.1875C130.579 8.875 130.625 7.75 130.625 7.75Z" fill="#E0E0E0"/>
<rect x="128.375" y="7.73877" width="9" height="24" rx="4.5" transform="rotate(-45 128.375 7.73877)" stroke="black" stroke-linecap="round" stroke-linejoin="round"/>
<path d="M137.02 16.3454C137.02 16.3454 138.387 13.5592 139.813 12.25C140.977 11.1807 143.252 10.114 143.252 10.114" stroke="black" stroke-linecap="round" stroke-linejoin="round"/>
</svg>
