<svg width="152" height="81" viewBox="0 0 152 81" fill="none" xmlns="http://www.w3.org/2000/svg">
<rect y="65" width="24" height="16" fill="white"/>
<rect x="32" y="57" width="24" height="24" fill="white"/>
<rect x="64" y="49" width="24" height="32" fill="white"/>
<rect x="96" y="33" width="24" height="48" fill="white"/>
<rect opacity="0.2" x="128" y="25" width="24" height="56" fill="white"/>
<path d="M108 15C109.105 15 110 14.1046 110 13C110 11.8954 109.105 11 108 11C106.895 11 106 11.8954 106 13C106 14.1046 106.895 15 108 15Z" fill="white"/>
<path d="M111.89 17.11C111.5 16.72 110.83 16 109.53 16C109.32 16 108.11 16 106.99 16C104.53 15.99 102.48 14.2 102.07 11.85C101.99 11.36 101.58 11 101.09 11C100.48 11 100 11.54 100.09 12.14C100.53 14.8 102.47 16.95 105 17.71V30C105 30.55 105.45 31 106 31C106.55 31 107 30.55 107 30V25H109V30C109 30.55 109.45 31 110 31C110.55 31 111 30.55 111 30V19.05L114.24 22.29C114.63 22.68 115.26 22.68 115.65 22.29C116.04 21.9 116.04 21.27 115.65 20.88L111.89 17.11Z" fill="white"/>
</svg>
