<svg width="152" height="81" viewBox="0 0 152 81" fill="none" xmlns="http://www.w3.org/2000/svg">
<rect y="65" width="24" height="16" fill="white"/>
<rect x="32" y="57" width="24" height="24" fill="white"/>
<rect opacity="0.2" x="64" y="49" width="24" height="32" fill="white"/>
<rect opacity="0.2" x="96" y="33" width="24" height="48" fill="white"/>
<rect opacity="0.2" x="128" y="25" width="24" height="56" fill="white"/>
<path d="M44 39C45.1046 39 46 38.1046 46 37C46 35.8954 45.1046 35 44 35C42.8954 35 42 35.8954 42 37C42 38.1046 42.8954 39 44 39Z" fill="white"/>
<path d="M47.89 41.11C47.5 40.72 46.83 40 45.53 40C45.32 40 44.11 40 42.99 40C40.53 39.99 38.48 38.2 38.07 35.85C37.99 35.36 37.58 35 37.09 35C36.48 35 36 35.54 36.09 36.14C36.53 38.8 38.47 40.95 41 41.71V54C41 54.55 41.45 55 42 55C42.55 55 43 54.55 43 54V49H45V54C45 54.55 45.45 55 46 55C46.55 55 47 54.55 47 54V43.05L50.24 46.29C50.63 46.68 51.26 46.68 51.65 46.29C52.04 45.9 52.04 45.27 51.65 44.88L47.89 41.11Z" fill="white"/>
</svg>
