<svg width="152" height="81" viewBox="0 0 152 81" fill="none" xmlns="http://www.w3.org/2000/svg">
<rect x="0.5" y="65.5" width="23" height="15" fill="white" stroke="black"/>
<rect x="32.5" y="57.5" width="23" height="23" fill="white" stroke="black"/>
<rect opacity="0.2" x="64" y="49" width="24" height="32" fill="white"/>
<rect opacity="0.2" x="96" y="33" width="24" height="48" fill="white"/>
<rect opacity="0.2" x="128" y="25" width="24" height="56" fill="white"/>
<rect x="32.375" y="35.7383" width="9" height="24" rx="4.5" transform="rotate(-45 32.375 35.7383)" fill="white"/>
<path d="M35.557 38.9198C33.7996 37.1624 33.7996 34.3132 35.557 32.5558V32.5558C37.3143 30.7985 40.1636 30.7985 41.9209 32.5558L47.3648 37.9997C47.3648 37.9997 44.8614 39.0764 43.625 40.2497C42.2427 41.5614 41.0009 44.3637 41.0009 44.3637L35.557 38.9198Z" fill="#9E9E9E"/>
<ellipse cx="38.4443" cy="33.1943" rx="1.16147" ry="1.05791" transform="rotate(-45 38.4443 33.1943)" fill="white"/>
<path d="M34.6251 35.75L49.2499 50.375C48.3124 50.375 47.3734 49.9305 46.8125 49.4375C46.5992 49.25 35.7031 38.375 35.5626 38.1875C34.579 36.875 34.6251 35.75 34.6251 35.75Z" fill="#E0E0E0"/>
<rect x="32.375" y="35.7388" width="9" height="24" rx="4.5" transform="rotate(-45 32.375 35.7388)" stroke="black" stroke-linecap="round" stroke-linejoin="round"/>
<path d="M41.0203 44.3454C41.0203 44.3454 42.3867 41.5592 43.8126 40.25C44.9771 39.1807 47.2517 38.114 47.2517 38.114" stroke="black" stroke-linecap="round" stroke-linejoin="round"/>
</svg>
