<svg width="152" height="81" viewBox="0 0 152 81" fill="none" xmlns="http://www.w3.org/2000/svg">
<rect y="65" width="24" height="16" fill="white"/>
<rect opacity="0.2" x="32" y="57" width="24" height="24" fill="white"/>
<rect opacity="0.2" x="64" y="49" width="24" height="32" fill="white"/>
<rect opacity="0.2" x="96" y="33" width="24" height="48" fill="white"/>
<rect opacity="0.2" x="128" y="25" width="24" height="56" fill="white"/>
<path d="M12 47C13.1046 47 14 46.1046 14 45C14 43.8954 13.1046 43 12 43C10.8954 43 10 43.8954 10 45C10 46.1046 10.8954 47 12 47Z" fill="white"/>
<path d="M15.89 49.11C15.5 48.72 14.83 48 13.53 48C13.32 48 12.11 48 10.99 48C8.52999 47.99 6.47999 46.2 6.06999 43.85C5.98999 43.36 5.57999 43 5.08999 43C4.47999 43 3.99999 43.54 4.08999 44.14C4.52999 46.8 6.46999 48.95 8.99999 49.71V62C8.99999 62.55 9.44999 63 9.99999 63C10.55 63 11 62.55 11 62V57H13V62C13 62.55 13.45 63 14 63C14.55 63 15 62.55 15 62V51.05L18.24 54.29C18.63 54.68 19.26 54.68 19.65 54.29C20.04 53.9 20.04 53.27 19.65 52.88L15.89 49.11Z" fill="white"/>
</svg>
