<svg width="152" height="81" viewBox="0 0 152 81" fill="none" xmlns="http://www.w3.org/2000/svg">
<rect y="65" width="24" height="16" fill="white"/>
<rect x="32" y="57" width="24" height="24" fill="white"/>
<rect x="64" y="49" width="24" height="32" fill="white"/>
<rect opacity="0.2" x="96" y="33" width="24" height="48" fill="white"/>
<rect opacity="0.2" x="128" y="25" width="24" height="56" fill="white"/>
<path d="M76 31C77.1046 31 78 30.1046 78 29C78 27.8954 77.1046 27 76 27C74.8954 27 74 27.8954 74 29C74 30.1046 74.8954 31 76 31Z" fill="white"/>
<path d="M79.89 33.11C79.5 32.72 78.83 32 77.53 32C77.32 32 76.11 32 74.99 32C72.53 31.99 70.48 30.2 70.07 27.85C69.99 27.36 69.58 27 69.09 27C68.48 27 68 27.54 68.09 28.14C68.53 30.8 70.47 32.95 73 33.71V46C73 46.55 73.45 47 74 47C74.55 47 75 46.55 75 46V41H77V46C77 46.55 77.45 47 78 47C78.55 47 79 46.55 79 46V35.05L82.24 38.29C82.63 38.68 83.26 38.68 83.65 38.29C84.04 37.9 84.04 37.27 83.65 36.88L79.89 33.11Z" fill="white"/>
</svg>
