<svg width="152" height="81" viewBox="0 0 152 81" fill="none" xmlns="http://www.w3.org/2000/svg">
<rect x="0.5" y="65.5" width="23" height="15" fill="white" stroke="black"/>
<rect x="32.5" y="57.5" width="23" height="23" fill="white" stroke="black"/>
<rect x="64.5" y="49.5" width="23" height="31" fill="white" stroke="black"/>
<rect opacity="0.2" x="96" y="33" width="24" height="48" fill="white"/>
<rect opacity="0.2" x="128" y="25" width="24" height="56" fill="white"/>
<rect x="64.375" y="27.7383" width="9" height="24" rx="4.5" transform="rotate(-45 64.375 27.7383)" fill="white"/>
<path d="M67.557 30.9198C65.7996 29.1624 65.7996 26.3132 67.557 24.5558V24.5558C69.3143 22.7985 72.1636 22.7985 73.9209 24.5558L79.3648 29.9997C79.3648 29.9997 76.8614 31.0764 75.625 32.2497C74.2427 33.5614 73.0009 36.3637 73.0009 36.3637L67.557 30.9198Z" fill="#9E9E9E"/>
<ellipse cx="70.4443" cy="25.1943" rx="1.16147" ry="1.05791" transform="rotate(-45 70.4443 25.1943)" fill="white"/>
<path d="M66.6251 27.75L81.2499 42.375C80.3124 42.375 79.3734 41.9305 78.8125 41.4375C78.5992 41.25 67.7031 30.375 67.5626 30.1875C66.579 28.875 66.6251 27.75 66.6251 27.75Z" fill="#E0E0E0"/>
<rect x="64.375" y="27.7388" width="9" height="24" rx="4.5" transform="rotate(-45 64.375 27.7388)" stroke="black" stroke-linecap="round" stroke-linejoin="round"/>
<path d="M73.0203 36.3454C73.0203 36.3454 74.3867 33.5592 75.8126 32.25C76.9771 31.1807 79.2517 30.114 79.2517 30.114" stroke="black" stroke-linecap="round" stroke-linejoin="round"/>
</svg>
