<svg width="153" height="81" viewBox="0 0 153 81" fill="none" xmlns="http://www.w3.org/2000/svg">
<path d="M1.5 65.5H24.5V80.5H1.5V65.5Z" fill="white" stroke="black"/>
<rect opacity="0.2" x="33" y="57" width="24" height="24" fill="white"/>
<rect opacity="0.2" x="65" y="49" width="24" height="32" fill="white"/>
<rect opacity="0.2" x="97" y="33" width="24" height="48" fill="white"/>
<rect opacity="0.2" x="129" y="25" width="24" height="56" fill="white"/>
<rect x="1.375" y="43.7383" width="9" height="24" rx="4.5" transform="rotate(-45 1.375 43.7383)" fill="white"/>
<path d="M4.55698 46.9198C2.79962 45.1624 2.79962 42.3132 4.55698 40.5558V40.5558C6.31434 38.7985 9.16358 38.7985 10.9209 40.5558L16.3648 45.9997C16.3648 45.9997 13.8614 47.0764 12.625 48.2497C11.2427 49.5614 10.0009 52.3637 10.0009 52.3637L4.55698 46.9198Z" fill="#9E9E9E"/>
<ellipse cx="7.44434" cy="41.1943" rx="1.16147" ry="1.05791" transform="rotate(-45 7.44434 41.1943)" fill="white"/>
<path d="M3.62509 43.75L18.2499 58.375C17.3124 58.375 16.3734 57.9305 15.8125 57.4375C15.5992 57.25 4.70309 46.375 4.56258 46.1875C3.57904 44.875 3.62509 43.75 3.62509 43.75Z" fill="#E0E0E0"/>
<rect x="1.375" y="43.7388" width="9" height="24" rx="4.5" transform="rotate(-45 1.375 43.7388)" stroke="black" stroke-linecap="round" stroke-linejoin="round"/>
<path d="M10.0203 52.3454C10.0203 52.3454 11.3867 49.5592 12.8126 48.25C13.9771 47.1807 16.2517 46.114 16.2517 46.114" stroke="black" stroke-linecap="round" stroke-linejoin="round"/>
</svg>
