<svg width="152" height="81" viewBox="0 0 152 81" fill="none" xmlns="http://www.w3.org/2000/svg">
<rect y="65" width="24" height="16" fill="white"/>
<rect x="32" y="57" width="24" height="24" fill="white"/>
<rect x="64" y="49" width="24" height="32" fill="white"/>
<rect x="96" y="33" width="24" height="48" fill="white"/>
<rect x="128" y="25" width="24" height="56" fill="white"/>
<path d="M140 7C141.105 7 142 6.10457 142 5C142 3.89543 141.105 3 140 3C138.895 3 138 3.89543 138 5C138 6.10457 138.895 7 140 7Z" fill="white"/>
<path d="M143.89 9.11C143.5 8.72 142.83 8 141.53 8C141.32 8 140.11 8 138.99 8C136.53 7.99 134.48 6.2 134.07 3.85C133.99 3.36 133.58 3 133.09 3C132.48 3 132 3.54 132.09 4.14C132.53 6.8 134.47 8.95 137 9.71V22C137 22.55 137.45 23 138 23C138.55 23 139 22.55 139 22V17H141V22C141 22.55 141.45 23 142 23C142.55 23 143 22.55 143 22V11.05L146.24 14.29C146.63 14.68 147.26 14.68 147.65 14.29C148.04 13.9 148.04 13.27 147.65 12.88L143.89 9.11Z" fill="white"/>
</svg>
