<svg width="80" height="80" viewBox="0 0 80 80" fill="none" xmlns="http://www.w3.org/2000/svg">
<path d="M11.5197 72.7144C11.5197 70.4947 11.3838 64.7479 18.6345 61.7108C21.7844 60.3915 29.3971 57.0895 31.5195 56.3199C33.8063 55.4908 36.0836 57.4939 47.5195 56.3199C49.642 57.0895 57.8947 60.3915 61.0446 61.7108C68.2953 64.7479 68.1594 70.4947 68.1594 72.7144L68.1593 79.0399H11.6795L11.5197 72.7144Z" fill="white"/>
<path d="M32.3203 55.5177L33.1203 48.4777C37.9203 49.9177 40.8003 49.5977 46.5603 48.9577C46.5603 54.2057 46.827 55.091 47.5203 55.5177C46.507 56.371 40.0003 66.4 40.0003 66.4L32.3203 55.5177Z" fill="#E0E0E0"/>
<path d="M55.3594 27.9976C55.3594 26.8488 56.2906 25.9176 57.4394 25.9176C58.5881 25.9176 59.5194 26.8489 59.5194 27.9976V31.6776C59.5194 33.9751 57.6569 35.8376 55.3594 35.8376V27.9976Z" fill="#E0E0E0"/>
<path d="M24.3203 27.9976C24.3203 26.8488 23.3891 25.9176 22.2403 25.9176C21.0916 25.9176 20.1603 26.8489 20.1603 27.9976V31.6776C20.1603 33.9751 22.0228 35.8376 24.3203 35.8376V27.9976Z" fill="#E0E0E0"/>
<path d="M44.3203 16.96C49.2803 20.16 49.4403 24.96 55.3603 26.72C55.3603 27.1565 55.3603 30.9227 55.3603 35.3568C55.3603 43.9282 48.4118 50.88 39.8403 50.88C31.2689 50.88 24.3203 43.9308 24.3203 35.3594C24.3203 31.979 24.3203 28.7964 24.3203 26.72C27.5203 26.72 35.5203 23.84 44.3203 16.96Z" fill="#E0E0E0"/>
<path d="M44.5576 16.9316C36.8776 22.2116 32.3976 25.2516 24.2376 26.8516C24.1736 26.5316 23.1428 25.5716 22.1575 25.5716C21.1976 25.5716 20.3976 26.3716 20.3976 27.3316V32.4516C20.3976 32.4516 21.1977 35.8116 24.2376 35.8116C24.2376 40.6116 27.3599 44.32 27.3599 44.32C27.3599 44.32 17.4347 37.8788 13.5201 31.3599C13.0979 30.6569 14.1132 28.724 13.5201 27.3316L11.6577 25.5414C11.1568 25.197 10.7504 24.9068 10.7199 24.6399C10.084 23.0503 12.536 23.8958 12.6399 22.2399C12.721 20.9476 10.2357 20.6783 8.63989 19.3599C11.9999 16.1599 6.51005 15.8157 6.71991 14.8799C4.78269 13.3898 10.3998 10.2399 12.6399 11.5581C13.3479 11.0031 11.8399 8.47993 14.7199 7.03993C15.1425 6.78594 15.8995 7.01829 16.724 7.29853L19.6798 7.67995C21.7598 3.67995 24.0374 7.97969 26.5598 5.75992C27.5072 5.02312 27.3599 3.24989 30.3998 2.87994C34.2398 1.71819 33.7053 4.62628 36.9598 4.63992L39.2836 4.07914C40.3429 3.64948 41.3958 3.14624 42.7198 3.24989C43.8627 3.33935 44.6257 4.28692 45.6139 5.06592L46.7198 5.75992C48.6363 6.62568 50.3176 7.03993 52.6398 7.67995C60.607 9.87573 58.9576 26.5316 58.9576 26.5316C58.9576 26.5316 56.8776 25.5716 55.9176 26.6916C53.6776 26.5316 51.2071 24.4752 50.3176 23.3316C46.9576 19.0116 46.6377 18.5316 44.5576 16.9316Z" fill="black"/>
<path d="M44.3975 16.9318C49.3575 20.1318 49.5175 24.9318 55.4375 26.6918C55.4375 27.1283 55.4375 30.8945 55.4375 35.3286C55.4375 43.9 48.4889 50.8518 39.9175 50.8518V50.8518C31.346 50.8518 24.3975 43.9026 24.3975 35.3312C24.3975 31.9508 24.3975 28.7682 24.3975 26.6918C27.5975 26.6918 35.5975 23.8118 44.3975 16.9318Z" stroke="black" stroke-linecap="round" stroke-linejoin="round"/>
<path d="M46.7973 49.5719C47.3279 55.1101 46.9864 55.8887 49.2732 56.7179C51.3956 57.4875 57.9725 60.0435 61.1224 61.3628C68.3731 64.3999 68.2372 70.1467 68.2371 72.3664C68.2371 74.5861 68.2371 78.6919 68.2371 78.6919" stroke="black" stroke-linecap="round" stroke-linejoin="round"/>
<path d="M32.9595 49.6001C32.429 55.1383 32.7704 55.9169 30.4836 56.7461C28.3612 57.5157 21.7844 60.0717 18.6345 61.391C11.3838 64.4281 11.5197 70.1749 11.5197 72.3946C11.5197 74.6143 11.5197 78.7201 11.5197 78.7201" stroke="black" stroke-linecap="round" stroke-linejoin="round"/>
<path d="M55.4375 27.9718C55.4375 26.8231 56.3687 25.8918 57.5175 25.8918V25.8918C58.6663 25.8918 59.5975 26.8231 59.5975 27.9718V31.6518C59.5975 33.9494 57.735 35.8118 55.4375 35.8118V35.8118V27.9718Z" stroke="black" stroke-linecap="round" stroke-linejoin="round"/>
<path d="M24.3975 27.9718C24.3975 26.8231 23.4662 25.8918 22.3175 25.8918V25.8918C21.1687 25.8918 20.2375 26.8231 20.2375 27.9718V31.6518C20.2375 33.9494 22.1 35.8118 24.3975 35.8118V35.8118V27.9718Z" stroke="black" stroke-linecap="round" stroke-linejoin="round"/>
<path d="M40.0001 66.5601L32.3568 56.0001L30.0801 58.4201L33.6578 60.4001L31.5437 62.3801L40.0001 66.5601Z" stroke="black" stroke-linecap="round" stroke-linejoin="round"/>
<path d="M39.9999 66.5601L47.6432 56.0001L49.9199 58.4201L46.3422 60.4001L48.4563 62.3801L39.9999 66.5601Z" stroke="black" stroke-linecap="round" stroke-linejoin="round"/>
<path d="M10.7199 24.6401C10.084 23.0504 12.536 23.8959 12.6399 22.2401C12.721 20.9477 10.2357 20.6784 8.63989 19.3601C11.9999 16.1601 6.51005 15.8159 6.71991 14.8801C4.78269 13.3899 10.3998 10.2401 12.6399 11.5582C13.3479 11.0033 11.8399 8.48006 14.7199 7.04006M10.7199 24.6401C10.792 25.2711 12.9669 26.0333 13.5201 27.3317M10.7199 24.6401L13.5201 27.3317M19.6798 7.68007C21.7598 3.68007 24.0374 7.97981 26.5598 5.76004C27.5072 5.02324 27.3599 3.25001 30.3998 2.88006C34.2398 1.71831 33.7053 4.6264 36.9598 4.64004M19.6798 7.68007C18.4112 8.42889 15.6882 6.45815 14.7199 7.04006M19.6798 7.68007L14.7199 7.04006M13.5201 27.3317C14.1132 28.7241 13.0979 30.6571 13.5201 31.3601C17.4347 37.8789 27.3599 44.3201 27.3599 44.3201C27.3599 44.3201 24.2376 40.6117 24.2376 35.8117C21.1977 35.8117 20.3976 32.4517 20.3976 32.4517C20.3976 32.4517 20.3976 28.2917 20.3976 27.3317C20.3976 26.3717 21.1976 25.5717 22.1575 25.5717C23.1428 25.5717 24.1736 26.5317 24.2376 26.8517C32.3976 25.2517 36.8776 22.2117 44.5576 16.9317C46.6377 18.5317 46.9576 19.0117 50.3176 23.3317C51.2071 24.4754 53.6776 26.5317 55.9176 26.6917C56.8776 25.5717 58.9576 26.5317 58.9576 26.5317C58.9576 26.5317 60.607 9.87586 52.6398 7.68007C50.3176 7.04005 48.6363 6.6258 46.7198 5.76004M36.9598 4.64004C39.0046 4.64862 40.471 3.07397 42.7198 3.25001M36.9598 4.64004L42.7198 3.25001M42.7198 3.25001C44.2501 3.3698 45.0992 5.02793 46.7198 5.76004M42.7198 3.25001L46.7198 5.76004" stroke="black" stroke-linecap="round" stroke-linejoin="round"/>
<path d="M25.9199 30.2933C25.9199 28.4082 27.4481 26.88 29.3333 26.88H35.3066C37.1917 26.88 38.7199 28.4082 38.7199 30.2933V30.72C38.7199 34.2546 35.8545 37.12 32.3199 37.12V37.12C28.7853 37.12 25.9199 34.2546 25.9199 30.72V30.2933Z" stroke="black" stroke-linecap="round" stroke-linejoin="round"/>
<path d="M40.96 30.2933C40.96 28.4082 42.4882 26.88 44.3733 26.88H50.3466C52.2318 26.88 53.76 28.4082 53.76 30.2933V30.72C53.76 34.2546 50.8946 37.12 47.36 37.12V37.12C43.8253 37.12 40.96 34.2546 40.96 30.72V30.2933Z" stroke="black" stroke-linecap="round" stroke-linejoin="round"/>
<path d="M38.7197 29.7601C39.0931 29.4401 40.0637 28.9921 40.9597 29.7601" stroke="black" stroke-linecap="round"/>
<path d="M35.6543 38.7228C35.6543 38.7228 36.7557 40.1502 39.9376 40.1502C43.1194 40.1502 44.2191 38.7228 44.2191 38.7228" stroke="black" stroke-linecap="round" stroke-linejoin="round"/>
<path d="M34.584 29.4442V32.1207M45.29 29.4442V32.1207" stroke="black" stroke-linecap="round" stroke-linejoin="round"/>
</svg>
