<svg width="24" height="24" viewBox="0 0 24 24" fill="none" xmlns="http://www.w3.org/2000/svg">
<path d="M12 21C9.6 21 9 19.6667 9 19H15C15 19.6667 14.4 21 12 21Z" fill="white" stroke="black" stroke-linecap="round" stroke-linejoin="round"/>
<path d="M9 19V17H15V19H9Z" stroke="black" stroke-linecap="round" stroke-linejoin="round"/>
<path d="M19 9.46154C19 12.6923 15 15 15 17C14.6354 17 9.40104 17 9 17C9 15 5 12.6923 5 9.46154C5 5.89293 8.13401 3 12 3C15.866 3 19 5.89293 19 9.46154Z" fill="white" stroke="black" stroke-linecap="round" stroke-linejoin="round"/>
<path d="M11 4.49977C14.5 3.99995 16.5 6 17 7" stroke="black" stroke-linecap="round" stroke-linejoin="round"/>
<path d="M11 15V10C11 9.66667 10.8 9 10 9C9.2 9 9 9.66667 9 10C9 10.3333 9.2 11 10 11C10.8 11 13 11 14 11C14.3333 11 15 10.8 15 10C15 9.2 14.3333 9 14 9C13.6667 9 13 9.2 13 10C13 10.8 13 13.6667 13 15" stroke="black" stroke-linecap="round" stroke-linejoin="round"/>
</svg>
