<svg width="80" height="80" viewBox="0 0 80 80" fill="none" xmlns="http://www.w3.org/2000/svg">
<path d="M64 67.0965V74.0266C64 74.6745 63.4729 75.1998 62.8227 75.1998C62.1726 75.1998 61.6454 74.6745 61.6454 74.0266V67.0965C61.6454 61.7006 57.2637 57.3339 51.8485 57.334C49.2863 57.334 46.9616 56.0333 45.6296 53.8544C45.2914 53.3011 45.4673 52.5791 46.0227 52.2421C46.5779 51.905 47.3022 52.0804 47.6406 52.6338C48.5415 54.1078 50.1145 54.9877 51.8485 54.9877C58.5645 54.9874 64 60.4034 64 67.0965V67.0965ZM43.4555 55.3364C43.5939 55.9695 43.1912 56.5945 42.5559 56.7325C39.4575 57.4052 36.3064 56.7318 33.7974 55.0252C31.3136 57.6776 28.0323 57.334 28.4715 57.334C23.0567 57.3339 18.6746 61.7002 18.6746 67.0965V74.0266C18.6746 74.6745 18.1475 75.1998 17.4973 75.1998C16.8471 75.1998 16.32 74.6745 16.32 74.0266V67.0965C16.32 60.4041 21.7545 54.9877 28.4712 54.9877C31.1881 54.9877 33.3907 52.8063 33.3907 50.0982V49.7892C28.252 47.3406 24.645 42.1952 24.4252 36.2033C22.3105 35.6966 20.7348 33.8105 20.7348 31.5663V25.4844C20.6705 22.5075 21.1141 15.0515 26.5695 9.81117C33.3058 3.34021 44.1086 3.75126 52.052 7.56189C52.8262 7.93365 52.9438 8.97602 52.3009 9.51583C56.325 10.494 59.795 12.9591 62.0244 16.4872C62.1394 16.6688 62.3502 16.9541 62.2951 17.4091C62.261 17.6923 62.1764 17.9319 61.9574 18.1534C60.5226 19.6034 59.7325 21.5249 59.7325 23.5641V31.5666C59.7325 32.2145 59.2054 32.7398 58.5552 32.7398C57.905 32.7398 57.3779 32.2145 57.3779 31.5666V23.5641C57.3779 21.2123 58.1842 18.98 59.6651 17.1868C57.4079 13.9699 53.8864 11.901 49.9036 11.4761L47.8344 11.2552C46.6244 11.1262 46.387 9.46508 47.5115 9.00388L48.4526 8.61776C36.1962 4.35985 23.0893 9.09084 23.0893 25.4717V31.5663C23.0893 32.4972 23.6273 33.3063 24.4137 33.7127V26.1071C24.4137 21.5789 28.1107 17.8948 32.6547 17.8948H47.6651C52.2092 17.8948 55.9062 21.5786 55.9062 26.1066V35.7125C55.9062 45.9153 45.901 53.6651 35.7201 50.6783C35.6539 51.5154 35.4447 52.3231 35.1041 53.0739C37.0846 54.4292 39.5856 54.9759 42.0545 54.4398C42.6898 54.302 43.317 54.7033 43.4555 55.3364V55.3364ZM40.1599 48.9682C47.5442 48.9682 53.5516 42.9818 53.5516 35.6233V26.1066C53.5516 22.8725 50.9109 20.2412 47.6651 20.2412H32.6547C29.4089 20.2412 26.7683 22.8726 26.7683 26.1071V35.6233C26.7683 42.9818 32.7757 48.9682 40.1599 48.9682ZM52.08 69.1873H48.5481C47.898 69.1873 47.3708 69.7125 47.3708 70.3604C47.3708 71.0083 47.898 71.5336 48.5481 71.5336H52.08C52.7301 71.5336 53.2573 71.0083 53.2573 70.3604C53.2573 69.7125 52.7301 69.1873 52.08 69.1873Z" fill="black"/>
</svg>
