<svg width="80" height="80" viewBox="0 0 80 80" fill="none" xmlns="http://www.w3.org/2000/svg">
<path d="M11.2004 72.3946C11.2003 70.1749 11.0644 64.428 18.3151 61.391C21.465 60.0716 28.0419 57.5157 30.1643 56.7461C32.4511 55.9169 37.4402 57.9201 48.8761 56.7461C50.9985 57.5157 57.5754 60.0716 60.7252 61.391C67.9759 64.428 67.84 70.1749 67.84 72.3946L67.84 78.7201H11.3602L11.2004 72.3946Z" fill="white"/>
<path d="M23.7526 10.9584C19.192 15.7963 22.5215 25.6001 22.5215 25.6001L24.4797 28.64L56.3197 28.32L57.6275 25.6001C57.135 22.5918 61.2669 15.7038 61.2669 14.9593C61.2669 14.2148 56.3424 12.7259 56.8349 12.4777C57.3273 12.2295 60.7745 7.01811 62.0056 5.77729C63.2368 4.53647 48.7094 7.01811 48.4632 7.51443C48.217 8.01075 50.1868 3.29566 50.9255 1.55852C51.6641 -0.178627 31.257 6.84045 30.7349 7.01811C28.3197 7.84004 26.2397 8.32006 23.7526 10.9584Z" fill="#9E9E9E"/>
<path d="M24.3203 26.6515C24.3203 21.2991 28.6593 16.9601 34.0117 16.9601H45.6689C51.0213 16.9601 55.3603 21.2991 55.3603 26.6515V35.3601C55.3603 43.9315 48.4118 50.8801 39.8403 50.8801C31.2689 50.8801 24.3203 43.9315 24.3203 35.3601V26.6515Z" fill="#E6E6E6"/>
<path d="M32.3199 55.5201L33.1199 48.4801C37.9199 49.9201 40.7999 49.6001 46.5599 48.9601C46.5599 54.2081 47.9465 56.3734 48.6399 56.8001C47.6265 57.6534 44.4159 59.3921 39.6799 59.5201C34.9439 59.6481 31.8399 57.7601 30.8799 56.8001L31.3599 56.3201L32.3199 55.5201Z" fill="#E6E6E6"/>
<path d="M55.3604 28C55.3604 26.8513 56.2916 25.92 57.4404 25.92C58.5891 25.92 59.5204 26.8513 59.5204 28V31.68C59.5204 33.9775 57.6579 35.84 55.3604 35.84V28Z" fill="#E6E6E6"/>
<path d="M24.3203 28C24.3203 26.8513 23.3891 25.92 22.2403 25.92C21.0916 25.92 20.1603 26.8513 20.1603 28V31.68C20.1603 33.9776 22.0228 35.84 24.3203 35.84V28Z" fill="#E6E6E6"/>
<path d="M31.3604 57.6001C31.3604 57.6001 33.5825 60.1601 40.0021 60.1601C46.4217 60.1601 48.6404 57.6001 48.6404 57.6001" stroke="#E6E6E6" stroke-width="3" stroke-linecap="round" stroke-linejoin="round"/>
<path d="M32.6406 61.76C32.6406 61.76 34.5747 64 40.1622 64C45.7496 64 47.6806 61.76 47.6806 61.76" stroke="#E6E6E6" stroke-width="3" stroke-linecap="round" stroke-linejoin="round"/>
<path d="M50.5605 75.8401H57.2805" stroke="#E6E6E6" stroke-width="3" stroke-linecap="round" stroke-linejoin="round"/>
<path d="M24.3193 26.6515C24.3193 21.2991 28.6583 16.9601 34.0108 16.9601H45.6679C51.0203 16.9601 55.3593 21.2991 55.3593 26.6515V35.3601C55.3593 43.9315 48.4108 50.8801 39.8393 50.8801V50.8801C31.2679 50.8801 24.3193 43.9315 24.3193 35.3601V26.6515Z" stroke="black" stroke-linecap="round" stroke-linejoin="round"/>
<path d="M32.9595 49.6001C32.429 55.1383 32.7704 55.9169 30.4836 56.7461C28.3612 57.5157 21.7844 60.0717 18.6345 61.391C11.3838 64.4281 11.5197 70.1749 11.5197 72.3946C11.5197 74.6143 11.5197 78.7201 11.5197 78.7201" stroke="black" stroke-linecap="round" stroke-linejoin="round"/>
<path d="M46.7192 49.6001C47.2497 55.1383 46.9083 55.9169 49.1951 56.7461C51.3175 57.5157 57.8944 60.0717 61.0442 61.391C68.2949 64.4281 68.159 70.1749 68.159 72.3946C68.159 74.6143 68.159 78.7201 68.159 78.7201" stroke="black" stroke-linecap="round" stroke-linejoin="round"/>
<path d="M55.3594 28C55.3594 26.8513 56.2906 25.92 57.4394 25.92V25.92C58.5881 25.92 59.5194 26.8513 59.5194 28V31.68C59.5194 33.9775 57.6569 35.84 55.3594 35.84V35.84V28Z" stroke="black" stroke-linecap="round" stroke-linejoin="round"/>
<path d="M24.3193 28C24.3193 26.8513 23.3881 25.92 22.2393 25.92V25.92C21.0906 25.92 20.1593 26.8513 20.1593 28V31.68C20.1593 33.9776 22.0218 35.84 24.3193 35.84V35.84V28Z" stroke="black" stroke-linecap="round" stroke-linejoin="round"/>
<path d="M31.3594 56.9601C31.3594 56.9601 33.5815 59.5201 40.0011 59.5201C46.4207 59.5201 48.6394 56.9601 48.6394 56.9601" stroke="black" stroke-linecap="round" stroke-linejoin="round"/>
<path d="M32.6396 60.8C32.6396 60.8 34.5738 63.0401 40.1612 63.0401C45.7486 63.0401 47.6796 60.8 47.6796 60.8" stroke="black" stroke-linecap="round" stroke-linejoin="round"/>
<path d="M50.5596 75.2001H57.2796" stroke="black" stroke-linecap="round" stroke-linejoin="round"/>
<path d="M22.5211 25.6001C22.2749 25.1037 19.1916 15.7963 23.7522 10.9584C26.2393 8.32005 28.3193 7.84004 30.7345 7.01811C31.2566 6.84045 51.6637 -0.178627 50.9251 1.55852C50.1864 3.29566 48.2166 8.01075 48.4628 7.51443C48.709 7.01811 63.2363 4.53646 62.0052 5.77729C60.7741 7.01811 57.3269 12.2295 56.8345 12.4777C56.342 12.7259 61.2665 14.2148 61.2665 14.9593C61.2665 15.7038 57.1346 22.5918 57.6271 25.6001" stroke="black" stroke-linecap="round" stroke-linejoin="round"/>
<path d="M35.5762 38.751C35.5762 38.751 36.6776 40.1784 39.8594 40.1784C43.0413 40.1784 44.141 38.751 44.141 38.751" stroke="black" stroke-linecap="round" stroke-linejoin="round"/>
<path d="M34.5059 29.4724V32.1489M45.2119 29.4724V32.1489" stroke="black" stroke-linecap="round" stroke-linejoin="round"/>
</svg>
