<svg width="150" height="150" viewBox="0 0 150 150" fill="none" xmlns="http://www.w3.org/2000/svg">
<path d="M21.0003 135.74C21.0003 131.578 20.7455 120.803 34.3405 115.108C40.2465 112.634 52.5781 107.842 56.5577 106.399C60.8454 104.844 70.2 108.6 91.6423 106.399C95.6219 107.842 107.953 112.634 113.859 115.108C127.455 120.803 127.2 131.578 127.2 135.74L127.2 147.6H21.3L21.0003 135.74Z" fill="white"/>
<path d="M44.5365 20.5469C35.9854 29.618 42.2283 48 42.2283 48L45.9 53.7L105.6 53.1L108.052 48C107.129 42.3595 114.876 29.4445 114.876 28.0486C114.876 26.6527 105.643 23.8609 106.566 23.3956C107.489 22.9303 113.953 13.1588 116.261 10.8323C118.569 8.50576 91.3307 13.1588 90.869 14.0894C90.4073 15.0201 94.1007 6.17925 95.4857 2.92211C96.8707 -0.335033 58.6073 12.8257 57.6285 13.1588C53.0999 14.7 49.1999 15.6 44.5365 20.5469Z" fill="#795207"/>
<path d="M45.6 49.9712C45.6 39.9354 53.7356 31.7998 63.7714 31.7998H85.6285C95.6643 31.7998 103.8 39.9354 103.8 49.9712V66.2998C103.8 82.3713 90.7715 95.3998 74.7 95.3998C58.6285 95.3998 45.6 82.3713 45.6 66.2998V49.9712Z" fill="#C68642"/>
<path d="M60.6 104.1L62.1 90.8999C71.1 93.5999 76.5 92.9999 87.3 91.7999C87.3 101.64 89.9 105.7 91.2 106.5C89.3 108.1 83.28 111.36 74.4 111.6C65.52 111.84 59.7 108.3 57.9 106.5L58.8 105.6L60.6 104.1Z" fill="#C68642"/>
<path d="M103.8 52.5001C103.8 50.3462 105.546 48.6001 107.7 48.6001C109.854 48.6001 111.6 50.3462 111.6 52.5001V59.4001C111.6 63.7079 108.108 67.2001 103.8 67.2001V52.5001Z" fill="#C68642"/>
<path d="M45.6 52.5001C45.6 50.3462 43.8539 48.6001 41.7 48.6001C39.5461 48.6001 37.8 50.3462 37.8 52.5001V59.4001C37.8 63.7079 41.2922 67.2001 45.6 67.2001V52.5001Z" fill="#C68642"/>
<path d="M58.8 108C58.8 108 62.9666 112.8 75.0034 112.8C87.0401 112.8 91.2 108 91.2 108" stroke="#E6E6E6" stroke-width="3" stroke-linecap="round" stroke-linejoin="round"/>
<path d="M61.2 115.8C61.2 115.8 64.8264 120 75.3028 120C85.7793 120 89.4 115.8 89.4 115.8" stroke="#E6E6E6" stroke-width="3" stroke-linecap="round" stroke-linejoin="round"/>
<path d="M94.8 142.2H107.4" stroke="#E6E6E6" stroke-width="3" stroke-linecap="round" stroke-linejoin="round"/>
<path d="M45.6 49.9712C45.6 39.9354 53.7356 31.7998 63.7714 31.7998H85.6285C95.6643 31.7998 103.8 39.9354 103.8 49.9712V66.2998C103.8 82.3713 90.7715 95.3998 74.7 95.3998V95.3998C58.6285 95.3998 45.6 82.3713 45.6 66.2998V49.9712Z" stroke="black" stroke-width="3" stroke-linecap="round" stroke-linejoin="round"/>
<path d="M61.8 93C60.8052 103.384 61.4453 104.844 57.1577 106.399C53.1781 107.842 40.8465 112.634 34.9405 115.108C21.3454 120.802 21.6003 131.578 21.6003 135.74C21.6004 139.902 21.6003 147.6 21.6003 147.6" stroke="black" stroke-width="3" stroke-linecap="round" stroke-linejoin="round"/>
<path d="M87.6 93C88.5948 103.384 87.9546 104.844 92.2423 106.399C96.2219 107.842 108.553 112.634 114.459 115.108C128.055 120.802 127.8 131.578 127.8 135.74C127.8 139.902 127.8 147.6 127.8 147.6" stroke="black" stroke-width="3" stroke-linecap="round" stroke-linejoin="round"/>
<path d="M103.8 52.5001C103.8 50.3462 105.546 48.6001 107.7 48.6001V48.6001C109.854 48.6001 111.6 50.3462 111.6 52.5001V59.4001C111.6 63.7079 108.108 67.2001 103.8 67.2001V67.2001V52.5001Z" stroke="black" stroke-width="3" stroke-linecap="round" stroke-linejoin="round"/>
<path d="M45.6 52.5001C45.6 50.3462 43.8539 48.6001 41.7 48.6001V48.6001C39.5461 48.6001 37.8 50.3462 37.8 52.5001V59.4001C37.8 63.7079 41.2922 67.2001 45.6 67.2001V67.2001V52.5001Z" stroke="black" stroke-width="3" stroke-linecap="round" stroke-linejoin="round"/>
<path d="M58.7999 106.8C58.7999 106.8 62.9665 111.6 75.0032 111.6C87.04 111.6 91.1999 106.8 91.1999 106.8" stroke="black" stroke-width="3" stroke-linecap="round" stroke-linejoin="round"/>
<path d="M61.2 114C61.2 114 64.8264 118.2 75.3028 118.2C85.7793 118.2 89.4 114 89.4 114" stroke="black" stroke-width="3" stroke-linecap="round" stroke-linejoin="round"/>
<path d="M94.7999 141H107.4" stroke="black" stroke-width="3" stroke-linecap="round" stroke-linejoin="round"/>
<path d="M42.2284 48C41.7667 47.0694 35.9855 29.618 44.5366 20.5469C49.2 15.6 53.1 14.7 57.6286 13.1588C58.6074 12.8257 96.8708 -0.335033 95.4858 2.92211C94.1008 6.17925 90.4074 15.02 90.8691 14.0894C91.3308 13.1588 118.569 8.50576 116.261 10.8323C113.953 13.1588 107.489 22.9303 106.566 23.3956C105.643 23.8609 114.876 26.6527 114.876 28.0486C114.876 29.4445 107.129 42.3595 108.052 48" stroke="black" stroke-width="3" stroke-linecap="round" stroke-linejoin="round"/>
<path d="M66.7075 72.6582C66.7075 72.6582 68.7727 75.3347 74.7387 75.3347C80.7046 75.3347 82.7665 72.6582 82.7665 72.6582" stroke="black" stroke-width="3" stroke-linecap="round" stroke-linejoin="round"/>
<path d="M64.7001 55.2607V60.2792M84.7738 55.2607V60.2792" stroke="black" stroke-width="3" stroke-linecap="round" stroke-linejoin="round"/>
</svg>
