<svg width="150" height="150" viewBox="0 0 150 150" fill="none" xmlns="http://www.w3.org/2000/svg">
<path d="M21.0003 135.74C21.0003 131.578 20.7455 120.803 34.3405 115.108C40.2465 112.634 52.5781 107.842 56.5577 106.399C60.8454 104.844 70.2 108.6 91.6423 106.399C95.6219 107.842 107.953 112.634 113.859 115.108C127.455 120.803 127.2 131.578 127.2 135.74L127.2 147.6H21.3L21.0003 135.74Z" fill="white"/>
<path d="M44.5367 20.5469C35.9856 29.618 42.2284 48 42.2284 48L45.9001 53.7L105.6 53.1L108.052 48C107.129 42.3595 114.876 29.4446 114.876 28.0486C114.876 26.6527 105.643 23.8609 106.566 23.3956C107.489 22.9303 113.953 13.1588 116.261 10.8323C118.57 8.50577 91.3308 13.1588 90.8691 14.0894C90.4074 15.0201 94.1008 6.17925 95.4858 2.92211C96.8709 -0.335033 58.6075 12.8257 57.6286 13.1588C53.1 14.7 49.2 15.6 44.5367 20.5469Z" fill="#9E9E9E"/>
<path d="M45.6 43.7998C45.6 37.1724 50.9726 31.7998 57.6 31.7998H91.8001C98.4275 31.7998 103.8 37.1724 103.8 43.7998V66.2998C103.8 82.3713 90.7715 95.3998 74.7001 95.3998C58.6286 95.3998 45.6 82.3713 45.6 66.2998V43.7998Z" fill="#E0E0E0"/>
<path d="M60.6 104.1L62.1 90.8998C71.1001 93.5998 76.5 92.9998 87.3001 91.7998C87.3001 101.64 89.9001 105.7 91.2001 106.5C89.3 108.1 83.28 111.36 74.4001 111.6C65.5201 111.84 59.7001 108.3 57.9 106.5L58.8 105.6L60.6 104.1Z" fill="#E0E0E0"/>
<path d="M103.8 52.4998C103.8 50.3459 105.546 48.5998 107.7 48.5998C109.854 48.5998 111.6 50.3459 111.6 52.4998V59.3998C111.6 63.7076 108.108 67.1998 103.8 67.1998V52.4998Z" fill="#E0E0E0"/>
<path d="M45.6 52.4998C45.6 50.3459 43.854 48.5998 41.7 48.5998C39.5461 48.5998 37.8 50.3459 37.8 52.4998V59.3998C37.8 63.7076 41.2922 67.1998 45.6 67.1998V52.4998Z" fill="#E0E0E0"/>
<path d="M58.8 108C58.8 108 62.9666 112.8 75.0034 112.8C87.0401 112.8 91.2 108 91.2 108" stroke="#E6E6E6" stroke-width="2" stroke-linecap="round" stroke-linejoin="round"/>
<path d="M61.2 115.8C61.2 115.8 64.8264 120 75.3028 120C85.7793 120 89.4 115.8 89.4 115.8" stroke="#E6E6E6" stroke-width="2" stroke-linecap="round" stroke-linejoin="round"/>
<path d="M94.8 142.2H107.4" stroke="#E6E6E6" stroke-width="2" stroke-linecap="round" stroke-linejoin="round"/>
<path d="M45.6001 41.7998C45.6001 36.277 50.0772 31.7998 55.6001 31.7998H93.8001C99.3229 31.7998 103.8 36.277 103.8 41.7998V66.2998C103.8 82.3713 90.7716 95.3998 74.7001 95.3998V95.3998C58.6286 95.3998 45.6001 82.3713 45.6001 66.2998V41.7998Z" stroke="black" stroke-width="2" stroke-linecap="round" stroke-linejoin="round"/>
<path d="M61.8001 93C60.8053 103.384 61.4455 104.844 57.1578 106.399C53.1782 107.842 40.8466 112.634 34.9406 115.108C21.3456 120.802 21.6004 131.578 21.6004 135.74C21.6005 139.902 21.6005 147.6 21.6005 147.6" stroke="black" stroke-width="2" stroke-linecap="round" stroke-linejoin="round"/>
<path d="M87.6 93C88.5948 103.384 87.9547 104.844 92.2424 106.399C96.2219 107.842 108.554 112.634 114.46 115.108C128.055 120.802 127.8 131.578 127.8 135.74C127.8 139.902 127.8 147.6 127.8 147.6" stroke="black" stroke-width="2" stroke-linecap="round" stroke-linejoin="round"/>
<path d="M103.8 52.5001C103.8 50.3462 105.546 48.6001 107.7 48.6001V48.6001C109.854 48.6001 111.6 50.3462 111.6 52.5001V59.4001C111.6 63.7079 108.108 67.2001 103.8 67.2001V67.2001V52.5001Z" stroke="black" stroke-width="2" stroke-linecap="round" stroke-linejoin="round"/>
<path d="M45.6001 52.5001C45.6001 50.3462 43.854 48.6001 41.7001 48.6001V48.6001C39.5462 48.6001 37.8001 50.3462 37.8001 52.5001V59.4001C37.8001 63.7079 41.2923 67.2001 45.6001 67.2001V67.2001V52.5001Z" stroke="black" stroke-width="2" stroke-linecap="round" stroke-linejoin="round"/>
<path d="M58.8 106.8C58.8 106.8 62.9666 111.6 75.0034 111.6C87.0401 111.6 91.2 106.8 91.2 106.8" stroke="black" stroke-width="2" stroke-linecap="round" stroke-linejoin="round"/>
<path d="M61.2002 114C61.2002 114 64.8267 118.2 75.3031 118.2C85.7795 118.2 89.4002 114 89.4002 114" stroke="black" stroke-width="2" stroke-linecap="round" stroke-linejoin="round"/>
<path d="M94.8 141H107.4" stroke="black" stroke-width="2" stroke-linecap="round" stroke-linejoin="round"/>
<path d="M42.2286 48C41.767 47.0694 35.9858 29.618 44.5369 20.5469C49.2002 15.6 53.1002 14.7 57.6288 13.1588C58.6077 12.8257 96.8711 -0.335033 95.4861 2.92211C94.101 6.17925 90.4077 15.0201 90.8693 14.0894C91.331 13.1588 118.57 8.50577 116.261 10.8323C113.953 13.1588 107.49 22.9303 106.566 23.3956C105.643 23.8609 114.876 26.6527 114.876 28.0486C114.876 29.4446 107.129 42.3595 108.052 48" stroke="black" stroke-width="2" stroke-linecap="round" stroke-linejoin="round"/>
<path d="M66.7078 72.6582C66.7078 72.6582 68.7729 75.3347 74.7389 75.3347C80.7049 75.3347 82.7667 72.6582 82.7667 72.6582" stroke="black" stroke-width="2" stroke-linecap="round" stroke-linejoin="round"/>
<path d="M64.7002 55.2607V60.2792M84.7739 55.2607V60.2792" stroke="black" stroke-width="2" stroke-linecap="round" stroke-linejoin="round"/>
</svg>
