<svg width="101" height="101" viewBox="0 0 101 101" fill="none" xmlns="http://www.w3.org/2000/svg">
<circle cx="40.6" cy="40.5996" r="40" fill="#F5F5F5"/>
<circle cx="40.4" cy="41.5992" r="29.4" fill="#E0E0E0"/>
<path fill-rule="evenodd" clip-rule="evenodd" d="M62.9349 60.5807C57.8949 64.6368 51.489 67.0643 44.516 67.0643C28.2788 67.0643 15.116 53.9014 15.116 37.6643C15.116 30.047 18.0129 23.1063 22.765 17.8838C16.0689 23.2726 11.784 31.536 11.784 40.8002C11.784 57.0374 24.9468 70.2002 41.184 70.2002C49.8039 70.2002 57.5573 66.4906 62.9349 60.5807Z" fill="#9E9E9E"/>
<path d="M63.1412 72.8002C63.1412 72.8002 66.7634 70.0156 68.8412 67.9002C70.7195 65.988 73.1412 62.6002 73.1412 62.6002L98.3047 88.0285C101.087 90.8405 101.076 95.3725 98.2781 98.17V98.17C95.4544 100.994 90.8707 100.975 88.0696 98.1293L63.1412 72.8002Z" fill="#66C08C"/>
<path fill-rule="evenodd" clip-rule="evenodd" d="M99.4385 97.0713C96.6279 98.9473 92.7898 98.63 90.3283 96.1289L65.618 71.0215C66.7544 70.0805 68.1044 68.9134 69.1 67.8999C69.3426 67.6529 69.5942 67.3813 69.8486 67.0956C70.2959 66.6887 70.7233 66.2833 71.1 65.8999C71.94 65.0446 72.8888 63.8943 73.681 62.8838L98.5634 88.0281C101.006 90.4961 101.295 94.289 99.4385 97.0713Z" fill="#99D5B3"/>
<circle cx="41" cy="41" r="38.8" stroke="black" stroke-width="2.4"/>
<circle cx="41" cy="41" r="28.8" stroke="black" stroke-width="2.4"/>
<line x1="31.4971" y1="29.7998" x2="52.4274" y2="50.7302" stroke="black" stroke-width="2.4" stroke-linecap="round"/>
<line x1="1.2" y1="-1.2" x2="30.8" y2="-1.2" transform="matrix(-0.707107 0.707107 0.707107 0.707107 52.6 29.7998)" stroke="black" stroke-width="2.4" stroke-linecap="round"/>
<path d="M73.4336 64.4413L97.6105 88.8725C99.9288 91.2153 99.919 94.9909 97.5884 97.3214C95.2359 99.6739 91.4172 99.6587 89.0836 97.2875L65.0951 72.9134C65.3993 72.6698 65.7529 72.3836 66.1341 72.0694C67.3058 71.1035 68.771 69.8457 69.8561 68.7411C70.8472 67.7321 71.9577 66.3606 72.8035 65.2675C73.0333 64.9704 73.2458 64.691 73.4336 64.4413Z" stroke="black" stroke-width="2.4"/>
<path d="M78.7 68.7002C78.7 68.7002 77.9 71.0002 74.9 74.2002C71.9 77.4002 69.1 78.1002 69.1 78.1002" stroke="black" stroke-width="2.4"/>
</svg>
