<svg width="80" height="80" viewBox="0 0 80 80" fill="none" xmlns="http://www.w3.org/2000/svg">
<path d="M12.1603 71.6485C12.1603 69.4288 12.0244 63.682 19.2751 60.6449C22.425 59.3255 23.7402 58.0836 28.5 57C33 60 36.5 68 40.5 70C44.5 65.814 48.5 60.6449 52.5 57C59.7 59.294 63.8402 60.6449 67.0402 65.814C68.9222 69.6279 67.9682 77.766 68.0002 78.5H12.1603V71.6485Z" fill="#9E9E9E"/>
<path d="M56.7775 26.6174C47.8361 21.6858 43.1961 16.4058 43.1961 16.4058C43.1961 16.4058 37.2553 21.1115 32.9561 23.2858C30.0028 24.7794 27.3375 26.2974 25.0975 26.4574C24.1375 25.3374 22.0575 26.2974 22.0575 26.2974C22.0575 26.2974 20.3777 14.7222 25.596 10.1658C30.8143 5.6093 38.8906 5.6443 42.716 5.52577C55.1229 5.14136 59.9961 25.6858 59.9961 25.6858L58.8576 25.3374C57.8723 25.3374 56.7775 26.6174 56.7775 26.6174Z" fill="#9E9E9E"/>
<path d="M50.8406 1.12572C48.1584 1.7459 46.2023 3.49856 45.0361 5.12572L53.4361 44.8857V53.0457L55.6761 47.988L57.3739 56.1835L60.0672 50.1168L62.565 56.2502C63.7918 42.9788 69.0174 20.5892 61.5961 9.36574C58.7666 5.08651 55.8388 -0.0299988 50.8406 1.12572Z" fill="#9E9E9E"/>
<path d="M33 48.5C37.8 49.94 40.74 50.14 46.5 49.5C46.5 51.8848 47 56.5 51.5 57C51.5 57 43.5 67 40.5 70C37.5 67 32 60.5 29.5 56.5C32.9998 55 33 54 33 48.5Z" fill="#E0E0E0"/>
<path d="M56.3594 27.6777C56.3594 26.5289 57.2906 25.5977 58.4394 25.5977C59.5881 25.5977 60.5194 26.5289 60.5194 27.6777V31.3576C60.5194 33.6552 58.6569 35.5177 56.3594 35.5177V27.6777Z" fill="#E0E0E0"/>
<path d="M25.3203 27.6777C25.3203 26.5289 24.3891 25.5977 23.2403 25.5977C22.0916 25.5977 21.1603 26.5289 21.1603 27.6777V31.3577C21.1603 33.6552 23.0228 35.5177 25.3203 35.5177V27.6777Z" fill="#E0E0E0"/>
<path d="M42.9203 16.64C47.8803 19.84 50.4403 24.64 56.3603 26.4C56.3603 26.8365 56.3603 30.6027 56.3603 35.0368C56.3603 43.6082 49.4118 50.56 40.8403 50.56C32.2689 50.56 25.3203 43.6108 25.3203 35.0394C25.3203 31.659 25.3203 28.4764 25.3203 26.4C28.5203 26.4 34.1203 23.52 42.9203 16.64Z" fill="#E0E0E0"/>
<path d="M33 49C33 50 33.2641 53.1378 33 54C33 54 32.1224 55.7304 30 56.5C27.8776 57.2696 22.2648 59.4263 19.115 60.7456C11.8643 63.7827 12.0002 69.5295 12.0002 71.7492C12.0002 73.9689 12.0002 78.0747 12.0002 78.0747" stroke="black" stroke-linecap="round" stroke-linejoin="round"/>
<path d="M59 71H48.5V73H59V71Z" stroke="black" stroke-linecap="round" stroke-linejoin="round"/>
<path d="M47 50C46.7999 53.0453 47.1777 53.0257 47.5005 54C47.5005 54 48.3781 55.7304 50.5005 56.5C52.6229 57.2696 58.3758 59.4263 61.5257 60.7456C68.7764 63.7827 68.6405 69.5295 68.6404 71.7492C68.6404 73.9689 68.6404 78.0747 68.6404 78.0747" stroke="black" stroke-linecap="round" stroke-linejoin="round"/>
<path d="M29 57L40.5 70L52 57" stroke="black"/>
<path d="M56.501 26.6917C56.501 28.7681 56.501 31.9507 56.501 35.3311C56.501 43.9025 49.5524 50.8517 40.981 50.8517V50.8517C32.4095 50.8517 25.461 43.8999 25.461 35.3285C25.461 30.8944 25.461 27.1282 25.461 26.6917" stroke="black" stroke-linecap="round" stroke-linejoin="round"/>
<path d="M56.4375 27.9717C56.4375 26.8229 57.3687 25.8917 58.5175 25.8917V25.8917C59.6663 25.8917 60.5975 26.8229 60.5975 27.9717V31.6517C60.5975 33.9492 58.735 35.8117 56.4375 35.8117V35.8117V27.9717Z" stroke="black" stroke-linecap="round" stroke-linejoin="round"/>
<path d="M25.3975 27.9717C25.3975 26.8229 24.4662 25.8917 23.3175 25.8917V25.8917C22.1687 25.8917 21.2375 26.8229 21.2375 27.9717V31.6517C21.2375 33.9492 23.1 35.8117 25.3975 35.8117V35.8117V27.9717Z" stroke="black" stroke-linecap="round" stroke-linejoin="round"/>
<path d="M36.6543 38.7227C36.6543 38.7227 37.7557 40.1501 40.9376 40.1501C44.1194 40.1501 45.2191 38.7227 45.2191 38.7227" stroke="black" stroke-linecap="round" stroke-linejoin="round"/>
<path d="M35.584 29.4441V32.1206M46.29 29.4441V32.1206" stroke="black" stroke-linecap="round" stroke-linejoin="round"/>
<path d="M44.9199 5.35991C46.0861 3.73275 48.0422 1.98009 50.7244 1.35992C55.7226 0.204193 58.6504 5.32071 61.4799 9.59993C68.9012 20.8234 63.6757 43.213 62.4488 56.4844L59.951 50.351L57.2577 56.4177L55.5599 48.2221L53.3199 53.2799C53.3199 53.2799 53.3199 47.421 53.3199 45.1199" stroke="black" stroke-linecap="round" stroke-linejoin="round"/>
<path d="M56.6613 26.8516C47.7199 21.92 43.0799 16.64 43.0799 16.64C43.0799 16.64 37.1391 21.3457 32.8399 23.52C29.8866 25.0136 27.2213 26.5316 24.9813 26.6916C24.0213 25.5716 21.9413 26.5316 21.9413 26.5316C21.9413 26.5316 20.2615 14.9564 25.4798 10.4C30.698 5.84349 38.7744 5.87849 42.5998 5.75997C55.0067 5.37555 59.8799 25.92 59.8799 25.92L58.7414 25.5716C57.7561 25.5716 56.6613 26.8516 56.6613 26.8516Z" stroke="black" stroke-linecap="round" stroke-linejoin="round"/>
</svg>
