<svg width="80" height="80" viewBox="0 0 80 80" fill="none" xmlns="http://www.w3.org/2000/svg">
<path d="M12.1603 71.6485C12.1603 69.4288 12.0244 63.682 19.2751 60.6449C22.425 59.3255 23.7402 58.0836 28.5 57C33.5 65 48 62.5 52.5 57C59.7 59.294 63.8402 60.6449 67.0402 65.814C68.9222 69.6279 67.9682 77.766 68.0002 78.5H12.1603V71.6485Z" fill="#9E9E9E"/>
<path d="M21 30C21 34.4181 22.8333 35.1667 24 35C24 38 26 42.5 27 44C27.6657 44.9985 31.6667 47.8333 34 49L32.5 54C30.5 54.5 30.5 56 28.5 57C30 60.5 31.5 61.5 40 62C46.8 62.4 50.8334 58.6667 52 57C50.6667 56.1667 47.9 54.3 47.5 53.5C47.1 52.7 47.3334 49.8333 47.5 48.5C48.6667 47.6667 50.9 46.2 52.5 45C54.1 43.8 55.6667 37.6667 56 35C55.3334 35.1667 54.7 35.3 57.5 34.5C60.3 33.7 60.3334 30.1667 60 28.5C60.3334 27.5 60.4 25.4 58 25C55.6 24.6 55.5 27.8333 55.5 29.5C54.5 27.3333 50.9 22.6 46.5 21C41 19 41 13.5 40.5 13.5C40 13.5 40.5 20.5 40.5 21C40.5 21.5 35.5 12 35 12C34.6 12 35.5 18 36 21C34 20 32.5 18.5 31.5 17C30.2301 17.5 25.5 27.5 24 32.5V28C24 27 23.7 25 22.5 25C21.0001 25 21 26 21 30Z" fill="#E6E6E6"/>
<path d="M30.5001 56.5C30.1001 58.5 34.5 59.5 37 60C37.5 64 35.5149 75.6213 36 75.5C38.0001 75 39.5001 74.5 41.5001 73.5V60C43.0001 60 45.6001 59.7 48.0001 58.5C51.0001 57 51.0001 54.75 49.5001 54C48.5001 53.5 45.5001 55.5 44.0001 56H42.5001C41.6668 55.8333 39.2001 56 38.0001 56C36.8001 56 36.6668 56.8333 36.5001 57.5C35.8334 56.6667 34.3001 54.9 33.5001 54.5C32.5001 54 31.0001 54 30.5001 56.5Z" fill="white"/>
<path d="M56 31C53.5 26.5 50.0002 24.0447 48.0002 22.5C46.3157 21.199 42.0002 19.6875 40.5002 14C39.5002 17.1875 40.5002 17 40.5002 21L35.0002 12.5C34.5002 16.5 35.0002 18.5 36.0002 21.5C31.5002 19 32.2833 16.4406 31.5002 17C28.8071 18.9236 24.4638 35 23.9819 33C23.5 31 25.5 25.5 22.5009 25.42C19.5017 25.3399 22.5009 12.5 23.9819 10C25.463 7.5 28.7156 5.6145 31.5002 5C35.0112 4.22518 39.3271 4.00001 41.0002 4C44.0002 3.99998 49.501 5.5 52.0006 7C54.5002 8.5 56.6686 11.9715 57.7413 16C58.6529 19.4234 58.0004 25.5 58.0004 25.5C57.0151 25.5 55.3125 25 56 31Z" fill="#C4C4C4"/>
<path d="M21.5 39.5C22.7 39.5 22.3333 36.5 22 35L23.9819 35.5L24.5 38.5C23.9819 41 20 39.5 21.5 39.5Z" fill="#C4C4C4"/>
<path d="M59 39.5C57 38.5 57.3333 37.3333 57.5 35.5H56L55.5 38.5C56.3125 40 58.0002 40.2497 59 39.5Z" fill="#C4C4C4"/>
<path d="M24.0001 27.5C23.6667 32.1667 24.0001 42.3 28.0001 45.5C33.0001 49.5 35 50 36.5 50C37 50 38.5 51 40 51C41.2602 51 42.3412 50 43.4023 50C45 50 46.9023 49.5 51.9023 45.5C55.9023 42.3 56.2356 32.1667 55.9023 27.5" stroke="black" stroke-linecap="round" stroke-linejoin="round"/>
<path d="M22 35C22.3333 36.5 22.7 39.5 21.5 39.5C20 39.5 23.9819 41 24.5 38.5M57.5 35.5C57.3333 37.3333 57 38.5 59 39.5C58.0002 40.2497 56.3125 40 55.5 38.5M48.0002 22.5C50.0002 24.0447 53.5 26.5 56 31C55.3125 25 57.0151 25.5 58.0004 25.5C58.0004 25.5 58.6529 19.4234 57.7413 16C56.6686 11.9715 54.5002 8.5 52.0006 7C49.501 5.5 44.0002 3.99998 41.0002 4C39.3271 4.00001 35.0112 4.22518 31.5002 5C28.7156 5.6145 25.463 7.5 23.9819 10C22.5009 12.5 19.5017 25.3399 22.5009 25.42C25.5 25.5 23.5 31 23.9819 33C24.4638 35 28.8071 18.9236 31.5002 17C32.2833 16.4406 31.5002 19 36.0002 21.5C35.0002 18.5 34.5002 16.5 35.0002 12.5L40.5002 21C40.5002 17 39.5002 17.1875 40.5002 14C42.0002 19.6875 46.3157 21.199 48.0002 22.5Z" stroke="black" stroke-linecap="round" stroke-linejoin="round"/>
<path d="M33.5 49.5C33.5 50.5 33.2641 53.1378 33 54M12.0002 78.0747C12.0002 78.0747 12.0002 73.9689 12.0002 71.7492C12.0002 69.5295 11.8643 63.7827 19.115 60.7456C22.2648 59.4263 27.8776 57.2696 30 56.5" stroke="black" stroke-linecap="round" stroke-linejoin="round"/>
<path d="M47.2001 48.9547C47 52 47.1772 53.0257 47.5 54M68.6399 78.0747C68.6399 78.0747 68.6399 73.9689 68.64 71.7492C68.64 69.5295 68.7759 63.7827 61.5252 60.7456C58.3753 59.4263 52.6224 57.2696 50.5 56.5" stroke="black" stroke-linecap="round" stroke-linejoin="round"/>
<path d="M56 27.5C56 26.3954 56.8954 25.5 58 25.5V25.5C59.1046 25.5 60 26.3954 60 27.5V31.5C60 33.7091 58.2091 35.5 56 35.5V35.5V27.5Z" stroke="black" stroke-linecap="round" stroke-linejoin="round"/>
<path d="M24 27C24 26.1716 23.3284 25.5 22.5 25.5V25.5C21.6716 25.5 21 26.1716 21 27V32.5C21 34.1569 22.3431 35.5 24 35.5V35.5V27Z" stroke="black" stroke-linecap="round" stroke-linejoin="round"/>
<path d="M28.3198 57.5947C28.3198 57.5947 30 62.0692 36.5 62.0692M41.5 62.0692C48.5 62.5 52.3198 57.5947 52.3198 57.5947" stroke="black" stroke-linecap="round" stroke-linejoin="round"/>
<path d="M37.1353 39.3574C37.1353 39.3574 37.2367 40.7849 40.4185 40.7849C43.6004 40.7849 43.7 39.3574 43.7 39.3574" stroke="black" stroke-linecap="round" stroke-linejoin="round"/>
<path d="M35.0645 30.0789V31.6348M45.7704 30.0789V31.6348" stroke="black" stroke-linecap="round" stroke-linejoin="round"/>
<path d="M26.3999 30.9033C26.3999 28.4796 28.3647 26.5148 30.7885 26.5148H34.0799C36.9076 26.5148 39.1999 28.8071 39.1999 31.6348V31.6348C39.1999 34.4625 36.9076 36.7548 34.0799 36.7548H32.2513C29.0197 36.7548 26.3999 34.135 26.3999 30.9033V30.9033Z" stroke="black" stroke-linecap="round" stroke-linejoin="round"/>
<path d="M41.4399 31.6348C41.4399 28.8071 43.7322 26.5148 46.5599 26.5148H49.8514C52.2751 26.5148 54.2399 28.4796 54.2399 30.9033V30.9033C54.2399 34.135 51.6202 36.7548 48.3885 36.7548H46.5599C43.7322 36.7548 41.4399 34.4625 41.4399 31.6348V31.6348Z" stroke="black" stroke-linecap="round" stroke-linejoin="round"/>
<path d="M39.1997 29.3949C39.573 29.0749 40.5437 28.6269 41.4397 29.3949" stroke="black" stroke-linecap="round"/>
<path d="M36.7096 57.5C36.7908 56.7516 37.0201 56.16 37.5 56.0001C39 55.5001 41.5 56.0001 42 56.0001C42.4 56.0001 42.1666 56.6667 42 57.0001C41.0001 58.5001 41.5 74 41.5 73.5C41.5 73 33.5 76.5 35.5 75.5C37.1 74.7 37.1666 65.5 37 61C36.7999 60.0998 36.5878 58.6233 36.7096 57.5ZM36.7096 57.5C36.7932 57.0001 33.9998 54 32.9998 54C31.9998 54 30.4998 54.9999 30.4998 55.5C30.4998 56.0001 29.4195 59.5 36.7096 60" stroke="black"/>
<path d="M47.5 54C45.5 56.0001 44 56.0001 42.5 56.5C42.0005 57.4989 42.0001 59.4957 42 59.9984V60C44.5 60.5 49 59.0001 50.5 56.0001C50.5 53.0001 48.5 53.5 47.5 54Z" stroke="black"/>
</svg>
