<svg width="80" height="81" viewBox="0 0 80 81" fill="none" xmlns="http://www.w3.org/2000/svg">
<path d="M11.84 73.3384C11.84 71.0008 11.7041 64.9486 18.9548 61.7502C22.1047 60.3607 30.8776 56.3104 33 55.5C34.5565 54.9056 36 57 40.5 58L42.5554 57.0514C43.5983 56.2654 44.7424 55.2441 47 55C49.1224 55.8105 58.215 60.3607 61.3649 61.7502C68.6156 64.9486 68.4797 71.0008 68.4797 73.3384L68.4796 80H11.9998L11.84 73.3384Z" fill="white"/>
<path d="M38.5 62.5L39 61.5H42L42.5 62L42 64L43.5 75.5L40 80L37 75.5L39 64L38.5 62.5Z" fill="#E0E0E0"/>
<path d="M55.3594 27.6777C55.3594 26.5289 56.2906 25.5977 57.4394 25.5977C58.5881 25.5977 59.5194 26.5289 59.5194 27.6777V31.3576C59.5194 33.6552 57.6569 35.5177 55.3594 35.5177V27.6777Z" fill="#F5F5F5"/>
<path d="M24.3203 27.6777C24.3203 26.5289 23.3891 25.5977 22.2403 25.5977C21.0916 25.5977 20.1603 26.5289 20.1603 27.6777V31.3577C20.1603 33.6552 22.0228 35.5177 24.3203 35.5177V27.6777Z" fill="#F5F5F5"/>
<path d="M51 13.5C55.8598 17 55.3595 21 55.3595 26.4C55.3595 26.8365 55.3595 30.6027 55.3595 35.0368C55.3595 43.6082 48.411 50.56 39.8396 50.56C31.2681 50.56 24.3196 43.6108 24.3196 35.0394C24.3196 31.659 24.3196 28.4764 24.3195 26.4C23.9996 21.5 24.5 17.5 26.5001 15.5C28.8928 13.7054 35 10 40.5 10C43.6875 10 45.6838 10.6003 51 13.5Z" fill="#F5F5F5"/>
<path d="M32.5 55L33 49.5C34.6667 50 38.4 51 40 51C41.6 51 45.3333 50 47 49.5C47.1667 51 48.2155 54.6422 47.5 55C46.5 55.5 43 57 40.5 58.5L32.5 55Z" fill="#F5F5F5"/>
<path d="M37.9996 34.5C36.9996 34.5 32.9996 37 32.4996 38C36.4996 36.5 42.4996 36.5 46.9996 38C46.4996 37 43.2062 34.5 42.4991 34.5L37.9996 34.5Z" fill="#E6E6E6"/>
<path d="M41.9996 41.5C40.7996 41.9 38.6662 41.6667 37.9996 41.5C37.9996 42.5 39.4996 43 39.9996 43C40.4996 43 41.9996 42.5 41.9996 41.5Z" fill="#E6E6E6"/>
<path d="M31.4996 39C30.3492 38.6165 26.3559 32.1667 24.4996 31C22.9992 44 31.4996 48 31.9996 48.5C32.4996 49 37.4991 51 39.4991 51C42.9991 51 45 50 48 48.5C55.6158 44.6921 55.9991 34 54.9996 31C52.9991 35 48.9996 39 46.9996 39.5C46.0294 39.7425 46.5811 40.9189 45 42.5C43 44.5 40.9996 44 39.9996 44C38.9989 44 36 44.5 34.5 42.5C33 40.5 32.65 39.3835 31.4996 39Z" fill="#E6E6E6"/>
<path d="M27.9991 22C26.284 23.0287 24.8328 25.6667 24.4996 27.5V20C24.4996 19.5 24.9991 17 26.4991 16C27.8147 15.1229 31.9327 10 39.4991 10C46.9996 10 53.4991 14.5 54.4991 17C55.2991 19 55.1661 24.8333 54.9996 27.5C54.0001 22.5 52.9991 24 51.9991 22C49.1313 16.2645 50 12.5 43.5 12C39.4991 11.6922 40.9933 11.7781 36.9991 12C27.9991 12.5 30.5 20.5 27.9991 22Z" fill="#E6E6E6"/>
<path d="M55.501 26.6917C55.501 28.7682 55.501 31.9507 55.501 35.3311C55.501 43.9026 48.5524 50.8517 39.981 50.8517V50.8517C31.4095 50.8517 24.461 43.9 24.461 35.3285C24.461 30.8944 24.461 27.1282 24.461 26.6917" stroke="black" stroke-linecap="round" stroke-linejoin="round"/>
<path d="M46.7973 49.5718C47.3279 55.1099 46.9864 55.8886 49.2732 56.7178C51.3956 57.4874 57.9725 60.0433 61.1224 61.3627C68.3731 64.3998 68.2372 70.1466 68.2371 72.3663C68.2371 74.586 68.2371 79.52 68.2371 79.52" stroke="black" stroke-linecap="round" stroke-linejoin="round"/>
<path d="M32.9595 49.6C32.429 55.1381 32.7704 55.9168 30.4836 56.746C28.3612 57.5156 21.7844 60.0715 18.6345 61.3909C11.3838 64.428 11.5197 70.1748 11.5197 72.3945C11.5197 74.6142 11.5197 79.5199 11.5197 79.5199" stroke="black" stroke-linecap="round" stroke-linejoin="round"/>
<path d="M55.4375 27.9717C55.4375 26.823 56.3687 25.8917 57.5175 25.8917V25.8917C58.6663 25.8917 59.5975 26.823 59.5975 27.9717V31.6517C59.5975 33.9492 57.735 35.8117 55.4375 35.8117V35.8117V27.9717Z" stroke="black" stroke-linecap="round" stroke-linejoin="round"/>
<path d="M24.3975 27.9717C24.3975 26.823 23.4662 25.8917 22.3175 25.8917V25.8917C21.1687 25.8917 20.2375 26.823 20.2375 27.9717V31.6517C20.2375 33.9492 22.1 35.8117 24.3975 35.8117V35.8117V27.9717Z" stroke="black" stroke-linecap="round" stroke-linejoin="round"/>
<path d="M32.0363 79.0001V56L25.5996 61.12L29.5996 66.56L26.3996 67.52L32.0363 79.0001Z" stroke="black" stroke-linecap="round" stroke-linejoin="round"/>
<path d="M48.1228 80.0001V56L54.5596 61.12L50.5596 66.56L53.7596 67.52L48.1228 80.0001Z" stroke="black" stroke-linecap="round" stroke-linejoin="round"/>
<path d="M55.5 27.5C55.5001 25.6484 55.6494 22.2999 55.5 20C55.1908 15.2382 48.3584 9.99993 40.5 10C34.8065 10 24.5 14 24.5 20C24.5 24.4306 24.5 23.8083 24.5 27" stroke="black" stroke-linecap="round" stroke-linejoin="round"/>
<path d="M35.6543 38.7227C35.6543 38.7227 36.7557 40.1502 39.9376 40.1502C43.1194 40.1502 44.2191 38.7227 44.2191 38.7227" stroke="black" stroke-linecap="round" stroke-linejoin="round"/>
<path d="M34.584 29.4442V32.1206M45.29 29.4442V32.1206" stroke="black" stroke-linecap="round" stroke-linejoin="round"/>
<path d="M40.5 58.5L42.5 62.5L48 58V56L47 55L40.5 58.5ZM40.5 58.5L33 55L32 56V58L38.5 62.5L40.5 58.5Z" stroke="black" stroke-linecap="round" stroke-linejoin="round"/>
<path d="M42.5 62.5L42 64H39L38.5 62.5" stroke="black" stroke-linecap="round" stroke-linejoin="round"/>
<path d="M39 64L37 75.5L40 80L43.5 75.5L42 64" stroke="black" stroke-linecap="round" stroke-linejoin="round"/>
<path d="M42 61.5H39" stroke="black"/>
</svg>
