<svg width="64" height="64" viewBox="0 0 64 64" fill="none" xmlns="http://www.w3.org/2000/svg">
<path d="M50.8215 50.3524C62.5942 39.121 60.0033 28.3455 60.0033 28.3455L56.498 14.9692L6.72253 43.06L13.0321 53.7609C22.6145 62.9027 39.0489 61.5837 50.8215 50.3524Z" fill="#E6E6E6"/>
<ellipse rx="28.6963" ry="23.3574" transform="matrix(0.723545 -0.690277 0.723545 0.690277 31.1084 27.1082)" fill="white"/>
<path d="M13.3337 14.6665L47.9667 39.8674" stroke="#E6E6E6" stroke-width="1.33333" stroke-linecap="round" stroke-linejoin="round"/>
<path d="M50.2224 9.33318C41.635 1.20983 26.2224 1.77758 15.1113 12.8402L49.3336 37.7776C56.5691 28.1758 57.7295 16.4346 50.2224 9.33318Z" fill="#E0E0E0"/>
<path d="M47.9647 40.9705C48.2554 40.7444 48.3077 40.3256 48.0817 40.0349C47.8556 39.7443 47.4368 39.6919 47.1462 39.918L47.9647 40.9705ZM12.3629 44.4442L11.9059 44.9296L11.9426 44.9642L11.9842 44.9929L12.3629 44.4442ZM12.8748 17.3156C13.1106 17.0328 13.0725 16.6124 12.7897 16.3766C12.5069 16.1408 12.0865 16.179 11.8507 16.4618L12.8748 17.3156ZM47.1462 39.918C35.2915 49.1381 22.7284 50.788 12.7415 43.8955L11.9842 44.9929C22.6047 52.3227 35.819 50.417 47.9647 40.9705L47.1462 39.918ZM12.8199 43.9588C9.07689 40.4347 7.15831 36.1204 7.12321 31.5405C7.08806 26.9527 8.94324 22.0312 12.8748 17.3156L11.8507 16.4618C7.76097 21.3672 5.75187 26.5851 5.78992 31.5507C5.82803 36.5241 7.92015 41.177 11.9059 44.9296L12.8199 43.9588Z" fill="#E0E0E0"/>
<path d="M51.5444 7.21341C59.7449 15.0369 59.4482 28.3769 51.5444 38.955C51.1263 39.5145 50.6825 41.4894 50.2219 42.0323C49.8133 42.5139 49.3925 41.5655 48.9506 42.0323C48.5357 42.4706 48.1062 42.9019 47.6621 43.3256C36.1373 54.3204 19.1901 55.9787 9.80948 47.0294C0.428847 38.08 2.16702 21.9121 13.6918 10.9172C25.2166 -0.0776501 42.1638 -1.7359 51.5444 7.21341Z" stroke="black" stroke-width="0.666667"/>
<path d="M49.4356 8.82897L49.2044 9.06909L49.4356 8.82897ZM14.8796 11.9786C14.747 12.1062 14.743 12.3173 14.8707 12.4499C14.9984 12.5825 15.2094 12.5865 15.342 12.4588L14.8796 11.9786ZM49.5622 37.1351C49.4526 37.2831 49.4838 37.4918 49.6318 37.6013C49.7797 37.7109 49.9885 37.6797 50.098 37.5318L49.5622 37.1351ZM15.342 12.4588C25.7095 2.47641 40.8685 1.04289 49.2044 9.06909L49.6668 8.58885C40.9899 0.234274 25.4135 1.83601 14.8796 11.9786L15.342 12.4588ZM49.2044 9.06909C56.4911 16.0851 56.6555 27.5538 49.5622 37.1351L50.098 37.5318C57.339 27.751 57.2525 15.8928 49.6668 8.58885L49.2044 9.06909Z" fill="black"/>
<path d="M47.3393 40.9711C47.4734 40.8449 47.4797 40.6339 47.3535 40.4999C47.2273 40.3658 47.0163 40.3595 46.8823 40.4857L47.3393 40.9711ZM11.8988 44.9847L11.6703 45.2274L11.8988 44.9847ZM12.6184 16.2135C12.7363 16.0721 12.7172 15.8619 12.5758 15.744C12.4344 15.6261 12.2242 15.6451 12.1063 15.7865L12.6184 16.2135ZM46.8823 40.4857C41.711 45.3546 35.098 48.3886 28.7332 49.2149C22.366 50.0415 16.2847 48.6564 12.1273 44.742L11.6703 45.2274C16.0137 49.3169 22.3164 50.7202 28.8191 49.876C35.3241 49.0315 42.0667 45.9354 47.3393 40.9711L46.8823 40.4857ZM12.1273 44.742C4.55922 37.6165 4.6792 25.736 12.6184 16.2135L12.1063 15.7865C4.00289 25.5061 3.78098 37.7994 11.6703 45.2274L12.1273 44.742Z" fill="black"/>
<line x1="12.7698" y1="13.4082" x2="48.8143" y2="39.5345" stroke="black" stroke-width="0.666667" stroke-linecap="round" stroke-linejoin="round"/>
<path d="M6.66626 43.111L13.0314 53.7606C22.6138 62.9024 39.0482 61.583 50.8208 50.3517C62.5934 39.1204 60.0026 28.3451 60.0026 28.3451L56.8885 16.4443" stroke="black" stroke-width="0.666667" stroke-linecap="round" stroke-linejoin="round"/>
</svg>
