<svg width="120" height="120" viewBox="0 0 120 120" fill="none" xmlns="http://www.w3.org/2000/svg">
<path d="M3.85083 111.895C3.85083 111.895 25.2327 108.636 35.1363 106.975C48.172 104.787 49.9126 106.421 60.1647 108.615C70.5702 106.433 72.1575 105.881 85.7146 106.975C95.9167 107.797 116.149 111.834 116.149 111.834V110.194L61.2762 91.4775L3.85083 110.255V111.895Z" fill="#9E9E9E"/>
<path d="M3 110.194L3.00022 19.2411H5.55224L114.927 19.1641H117V110.194C117 110.194 95.6738 107.32 85.9091 104.472C80.6767 102.946 77.1 102.391 72.9545 102.391C67.7953 102.391 65.0591 106.057 60 107.073C55.0421 106.057 52.3646 102.391 47.3045 102.391C43.4182 102.391 39.2255 102.946 34.0909 104.472C24.5339 107.313 3 110.194 3 110.194Z" fill="#E0E0E0"/>
<path d="M5.55225 107.565L5.55247 16.6123H8.67893H111.843H114.448V107.642C114.448 107.642 95.6095 104.691 85.7911 101.843C80.53 100.317 76.9336 99.7625 72.7654 99.7625C67.5778 99.7625 64.4291 104.078 59.7398 107.122C54.5295 104.078 52.0623 99.7625 46.9745 99.7625C43.0667 99.7625 39.372 100.317 34.2092 101.843C24.5997 104.684 5.55225 107.565 5.55225 107.565Z" fill="#E6E6E6"/>
<path d="M8.95532 104.712V14.785C8.95532 14.785 23.8853 14.213 32.8707 11.6662C38.5059 10.0689 40.6079 9.23368 46.3882 8.28739C51.6217 7.43062 54.9312 9.82802 59.9056 11.6662C64.5847 9.58692 67.3968 7.4605 72.1232 8.28739C77.4466 9.21873 79.2228 9.93117 84.3409 11.6662C94.5319 15.1208 111.896 14.785 111.896 14.785V59.7484V104.712C111.896 104.712 95.6977 101.84 85.9006 98.9939C80.6509 97.4688 77.0623 96.9147 72.9031 96.9147C67.7267 96.9147 64.0648 100.553 59.9056 106.791C56.7862 100.553 52.2449 96.9147 47.168 96.9147C43.2688 96.9147 39.5821 97.4687 34.4304 98.9939C24.8417 101.833 8.95532 104.712 8.95532 104.712Z" fill="white"/>
<path d="M60 106.366C59.6597 103.984 53.3358 99.1343 51.0671 97.4328V8.52978C52.3433 9.38053 58.2985 10.6566 60 11.5074C64.4239 8.44471 67.5149 8.2462 68.5074 8.52978V97.4328C61.7015 100.41 60.4253 109.343 60 106.366Z" fill="#F5F5F5"/>
<path d="M59.9999 105.94L55.3208 99.9848V9.80566L59.9999 11.9325L64.679 9.80566V99.9848L59.9999 105.94Z" fill="#E6E6E6"/>
<path d="M88.9253 99.5597V13.209C98.1134 15.2508 108.067 15.1941 111.895 14.9105V105.09L88.9253 99.5597Z" fill="#F5F5F5"/>
<path d="M59.9056 11.6662C59.9056 46.7848 59.9056 71.6725 59.9056 106.791M59.9056 11.6662C64.5847 9.58692 67.3968 7.4605 72.1232 8.28739C77.4466 9.21873 79.2228 9.93117 84.3409 11.6662C94.5319 15.1208 111.896 14.785 111.896 14.785V59.7484V104.712C111.896 104.712 95.6977 101.84 85.9006 98.9939C80.6509 97.4688 77.0623 96.9147 72.9031 96.9147C67.7267 96.9147 64.0648 100.553 59.9056 106.791M59.9056 11.6662C54.9312 9.82802 51.6217 7.43062 46.3882 8.28739C40.6079 9.23368 38.5059 10.0689 32.8707 11.6662C23.8853 14.213 8.95532 14.785 8.95532 14.785V104.712C8.95532 104.712 24.8417 101.833 34.4304 98.9939C39.5821 97.4687 43.2688 96.9147 47.168 96.9147C52.2449 96.9147 56.7862 100.553 59.9056 106.791" stroke="black" stroke-linecap="round" stroke-linejoin="round"/>
<path d="M114.927 19.1641H117V110.194C117 110.194 95.6738 107.32 85.9091 104.472C80.6767 102.946 77.1 102.391 72.9545 102.391C67.7953 102.391 65.0591 106.057 60 107.073C55.0421 106.057 52.3646 102.391 47.3045 102.391C43.4182 102.391 39.2255 102.946 34.0909 104.472C24.5339 107.313 3 110.194 3 110.194L3.00022 19.2411H5.55224" stroke="black" stroke-linecap="round" stroke-linejoin="round"/>
<path d="M116.149 110.194V111.834C116.149 111.834 95.9167 107.798 85.7146 106.975C72.1575 105.881 70.5702 106.433 60.1647 108.615C49.9126 106.421 48.172 104.788 35.1363 106.975C25.2327 108.636 3.85083 111.896 3.85083 111.896V110.255" stroke="black" stroke-linecap="round" stroke-linejoin="round"/>
<path d="M111.843 16.6123H114.448V107.642C114.448 107.642 95.6096 104.691 85.7912 101.843C80.53 100.317 76.9337 99.7625 72.7654 99.7625C67.5778 99.7625 64.4291 104.078 59.7398 107.122C54.5295 104.078 52.0623 99.7625 46.9745 99.7625C43.0667 99.7625 39.372 100.317 34.2092 101.843C24.5997 104.684 5.55225 107.565 5.55225 107.565L5.55247 16.6123H8.67893" stroke="black" stroke-linecap="round" stroke-linejoin="round"/>
</svg>
