<svg width="250" height="250" viewBox="0 0 250 250" fill="none" xmlns="http://www.w3.org/2000/svg">
<path d="M41.4998 243.5L14.9998 237H13.9998C14.6665 233.833 15.5998 224.2 13.9998 211C11.9998 194.5 21.4998 179.5 21.4998 178.5C21.4998 177.5 26.5 164.5 36.9998 154C43.7998 144 69.8331 134.167 81.9998 130.5C82.1665 131.167 82.4998 131.8 82.4998 129C82.4998 126.2 89.4998 121.5 92.9998 119.5C92.9998 118.667 93.52 116.64 94 116C95.4998 114 95.9998 115 97.4998 115L96.4998 125L94.9998 137C97.3331 140 102.2 146 103 146C107.5 150 113 157 122 162C128.8 159.2 136.833 151 139.5 147.5L148 135.5V125C148.833 124.5 150.7 123.4 151.5 123C152.3 122.6 154.166 125.833 155 127.5C156.5 129.333 160.1 132.9 162.5 132.5C165.5 132 169 137.5 170 138.5C171 139.5 199 149 206 152.5C209 155 211 156 211.5 158.5C215.5 159.5 219 169.5 222 177.5C226 183.5 227.5 197 230 216.5C231.666 229.5 233 238 232.5 240L195.5 243.5H41.4998Z" fill="#F5F5F5"/>
<path d="M127 176C126.6 174.8 113.5 172.833 107 172C117.4 168.8 129.667 161.333 134.5 158C138.167 153 146.4 142.6 150 141C153.6 139.4 152.5 132.333 151.5 129L159 137C159.5 138.333 162.3 141.4 169.5 143C176.7 144.6 200.167 153.667 211 158C211 162.5 209 169.7 209 174.5C209 180.5 211 162.5 216 172C213.5 180.5 205.5 195.333 199.5 202L209 240.5C204.667 240.5 195.7 240.9 194.5 242.5C193 244.5 119 245 132 240.5C142.4 236.9 169 204.667 181 189L169.5 147.5C161.333 156.5 144.3 174.5 141.5 174.5C138.7 174.5 130.667 181.167 127 184.5C127.167 182.167 127.4 177.2 127 176Z" fill="#E0E0E0"/>
<path d="M59.5 191C61.1667 202.667 67.2 227.1 78 231.5C75.5 213 69.5 202 59.5 191Z" fill="#E0E0E0"/>
<path d="M28.5 226.5V187C30.3333 189 34.5 193.9 36.5 197.5C38.5 201.1 40.6667 230 41.5 244L34 240.5C32.1667 238.167 28.5 232.1 28.5 226.5Z" fill="#E0E0E0"/>
<path d="M91 143C87 139.4 89.3333 127.167 91 121.5C89 121.5 86.1667 124.167 85 125.5C84.8333 127.5 84.3 132.6 83.5 137C82.5 142.5 88 152.5 89.5 154.5C91 156.5 102.5 165.5 104 165.5C105.5 165.5 107 163 110.5 162.5C114 162 109 158 105.5 154.5C102 151 96 147.5 91 143Z" fill="#E0E0E0"/>
<path d="M109 46L115.5 40C116.666 41.1667 119.8 43.5 123 43.5C123 42 119 37.1764 125 34C124.5 39 125 39.5 125 43.5C127 39.5 129.6 33.9 134 33.5C128.5 37.5 130 46 130.5 47C132.5 43.5 137 39 146.5 39C142.5 44 140 47 137.5 48C140 47.5 143.4 47.7 145 46.5C146.6 45.3 148 41 148.5 38.5C152.5 39 154.5 41.5 153.5 43.5C150.5 46 161.5 47 165 43.5C164.175 45.9746 162.33 48.4492 159.183 49.8013C162.506 48.8499 167.432 47.3522 168 46.5C168.5 49.5 167.5 54.5 164.5 58C165.847 57.6633 168 55 169 56C169.5 60.5 167.775 75.0101 167 78.5C166 83 162 103 162 103.5C162 104 156 117.5 149.5 123C148 125 148.523 130.164 147 134.5C142.323 147.81 130.5 159.2 122.5 162C114 156.5 97.9999 142.5 95.4999 137.5C94.9999 136 97.4998 107 97.4998 106C97.4998 105 95.4999 91.5 95.9999 90C95 89.5 92.5 89.5 92 89C91.5 88.5 86.4999 80 86.9999 76C87.4999 72 87.4999 60 93.4999 60.5C93 65 93 65.5 94.4998 68C94.6663 70.3333 95.6998 74.6 96.5 75C96.5 76.5 97.5 81 98 83.5C98.1667 81.5 99.1 76.9 99.5 76.5L100.5 75.5L102 67.5C104 65.8333 106.5 64 108 62.5C108.5 59 109.667 56.8333 110 54L109 46Z" fill="#FFDBAC"/>
<path d="M146.5 72.5001C151.334 71.8334 162 71.7001 166 76.5001C165.5 77.5 165.334 80.5001 162.5 79.5001C161.334 78.1667 158.2 75.4001 155 75.0001C151.8 74.6001 148.667 75.8334 147.5 76.5001C147.667 77.5001 148.4 79.5001 150 79.5001C152 79.5001 157.5 81.5001 158.5 80.5001C159.5 79.5001 155.5 85.0001 155 84.5001C154.53 84.0293 148.296 82.672 147.569 81.2628C147.87 83.4261 149.297 94.3715 154.5 95.0001C157.323 95.341 159.411 94.9283 161.5 93.0001C164.146 90.5581 162.5 87 163.5 84L168.5 77.5001C170.203 81.9255 169 87.5 165 93.5C163.884 96.4493 163.139 102.351 162.5 103.5C160.436 107.216 157.689 116.73 147.783 125L147.5 133.5C147.334 134 145.7 137.2 140.5 146C134 157 122 162 123 161C123.791 160.209 132.462 145.677 136.847 138.259C135.948 139.466 132.045 141.372 122 141C111.524 140.612 102.71 121.687 99.3008 111.425C101.17 113.509 105.532 118.091 110.221 122.627C113.957 121.316 130.903 118.349 134.5 117C135.322 116.863 136.162 116.679 137 116.459C142.286 115.07 147.5 112.226 147.5 110.5C147.5 108.9 145.5 101.167 145.5 97C144.334 93.1667 144.1 83.1001 144.5 77.5001C144.9 71.9001 146 71.8334 146.5 72.5001Z" fill="#F1C27D"/>
<path d="M125 70C122.6 69.2 115.667 67 112.5 66C115.5 64 130 68.5 131.5 69C132.7 69.4 136.334 69.8333 138 70L134.5 78.5L131.5 75.0001C130.334 73.6667 127.4 70.8 125 70Z" fill="#F1C27D"/>
<path d="M134 90.5V81.5C134 83.1 130.667 86.5 129 88C127.667 89.3334 125.6 91.6 128 90C130.4 88.4 133 89.6667 134 90.5Z" fill="#F1C27D"/>
<path d="M140.5 96C137.7 97.2 136.334 95.8334 136 95.0001C135.5 94.3334 134.7 93.1 135.5 93.5C136.3 93.9 139.167 94.3333 140.5 94.5C141.667 94.5 143.3 94.8 140.5 96Z" fill="#F1C27D"/>
<path d="M121 93.5C117.4 95.1 113.834 97.5 112.5 98.5C124.5 99 124 93.5 125 93.5C125.8 93.5 125.667 96.1667 125.5 97.5L131.5 98.5C133 99.3334 136.2 101 137 101C138 101 142 100.5 144 100C145.6 99.6 145 98.5 144.5 98L142 98.5H135.5L131 95.5C130.334 95.6667 128.7 95.9 127.5 95.5C126.3 95.1 126 92 126 90.5C125.834 90.8334 124.6 91.9 121 93.5Z" fill="#F1C27D"/>
<path d="M98.5003 86L96.0003 89C95.1669 88.6667 96.5 98 96.5003 100.5C98.9003 110.5 102.167 114.667 103.5 115.5L101.5 93.5L98.5003 86Z" fill="#F1C27D"/>
<path d="M93.0002 63.5C92.8264 64.0431 92.6401 64.6689 92.4529 65.3528C92.3694 67.1595 93.9659 67.8707 95.0005 68C94.8338 69.1667 94.6005 71.7 95.0005 72.5001C95.4005 73.3001 96.167 74.5001 96.5003 75.0001C96.8337 77.1667 97.5005 81.8 97.5005 83C97.5005 84.5 95.0002 83 92.0002 79.5001C89.913 77.065 91.204 69.9157 92.4529 65.3528C92.4771 64.8308 92.6415 64.2173 93.0002 63.5Z" fill="#F1C27D"/>
<path d="M100 81.5V76.5001L101 76L102.5 68L105.5 65C105.834 65.5 106.9 65.1 108.5 59.5C110.1 53.9 109.834 47.8333 109.5 45.5C111.284 44.0986 114.314 41.6844 115.286 40.8033C115.361 40.6379 115.433 40.5337 115.5 40.5C115.689 40.4058 115.585 40.5317 115.286 40.8033C114.242 43.0915 112.534 57.1011 113 58.5C113.501 60 109.5 64.5 107.5 66.5C105.901 68.1 101.834 77.1667 100 81.5Z" fill="#F1C27D"/>
<path d="M163.5 71.5C165.9 63.5 165.834 52.5 165.5 48L168.5 46.5L166.5 56C166.667 55.3333 167.1 54.5 167.5 56.5C167.9 58.5 166.667 69.6667 166 75.0001C165 73.5 164.5 72.5001 163.5 71.5Z" fill="#F1C27D"/>
<path d="M125 150C123.8 151.2 121.167 148.833 120 147.5C122 147.5 124.5 149 127.5 143C128.5 144 126.5 148.5 125 150Z" fill="#F1C27D"/>
<path d="M129 75.0001H117.5C116.7 75.0001 121.576 78.5415 124.5 78C126.577 77.6155 130.2 75.0001 129 75.0001Z" fill="#F1C27D"/>
<path d="M149.5 79.5C149.1 79.5 147.667 77.8333 147 77C149.5 75 151.5 75 155 75C157.8 75 161.167 78.3333 162.5 80C162.333 80.1667 161.2 80.5 158 80.5C154 80.5 150 79.5 149.5 79.5Z" fill="white"/>
<path d="M124.5 70C127.3 70 130.333 73 131.5 74.5C131 75.1667 128.5 75.5 123 75.5C115.929 75.5 114.5 71 114 71C113.5 71 121 70 124.5 70Z" fill="white"/>
<path opacity="0.4" d="M133.5 106C130.3 102.8 122.5 103.667 119 104.5C120 104.5 129.5 109.5 133 110C135.8 110.4 143.167 110.333 146.5 110C144.667 108.667 140.259 105.753 139.5 105.5C138 105 136.5 106 133.5 106Z" fill="#F599B5"/>
<path opacity="0.3" d="M136.5 116C140.1 116.4 145.333 112.5 147 110.5H133.5C127 109 125 107 119 104.5C120.2 108.5 123.5 112.167 125.5 113.5C129.297 115.67 132.125 115.205 136.5 116Z" fill="#F599B5"/>
<path d="M128 72C126.5 69 121.5 70.5 119.5 70.5C119.5 72.5 119.673 73.4895 121 74.5C122.253 75.4535 123.5 75 125 75C126.5 75 127 74 128 72Z" fill="#99E1EB"/>
<path d="M158.5 76.5C156.1 74.1 152.167 74.6667 151 75.5C151 79.1 153.5 79.5 153.5 79.5C153.5 79.5 158 80 158.5 76.5Z" fill="#99E1EB"/>
<path d="M147 73L146.5 71C157.5 70 159.5 71 162 71.5C164 71.9 166.167 75.3333 167 77C165.667 76.3333 162.3 74.6 159.5 73C156.7 71.4 150 72.3333 147 73Z" fill="#C68642"/>
<path d="M134 68L131.5 69C128.667 67.8333 122.7 65.5 121.5 65.5C120.356 65.5 115.72 65.209 113.364 65.2929C112.433 65.52 111.868 65.632 112 65.5C112.119 65.3814 112.631 65.319 113.364 65.2929C115.959 64.6599 121.396 63.132 122.5 63.5C123.7 63.9 130.667 66.6666 134 68Z" fill="#C68642"/>
<path d="M167 79.5L169 56C167.167 57 163.7 58.8 164.5 58C165.5 57 168 51.5 168.5 46C167.025 46.8852 163.46 48.1185 161.197 48.9809C160.559 49.6023 159.967 50 159.5 50C158.68 50 159.625 49.58 161.197 48.9809C162.743 47.4741 164.556 44.6521 165.5 43C160 45.5 156.5 46.5 153 44C155 41.5 151.5 39 148.5 38.5C147.833 41 146.5 44.5 146 46C144.667 47.3326 138.599 47.8759 137.612 47.9806C137.566 47.9937 137.528 48 137.5 48C137.444 48 137.488 47.9938 137.612 47.9806C138.397 47.7601 141.78 45.6076 146.5 39C140.5 39.5 130.343 42.5 130.5 48C129.589 46.6328 130.339 34.881 134.643 32.8108C129.746 34.3572 126.223 40.0951 125 43L124.5 39L125 34.5C125 34.5 124.5 34 124 34.5C120.5 35.5 123 43 122.5 44C118.9 44 116.333 41.5 115.5 40C113.833 41.3333 110.4 43.7 110 44.5C109.6 45.3 109.833 50.8333 110 53.5C109.5 55.8333 108.3 60.9 107.5 62.5C106.7 64.1 103.167 66.6667 102 67.5L101 76H99L98 83C97.5 81.5 97 77.5 96.4999 75C94.4998 72 95.0001 69 94.5001 68C93.5001 67.0001 93.5001 62.5008 93.5001 60.5005V60.5C92.5 60.5 91.9997 61.5 90 62C88.4661 62.3835 90.0003 59 90.5002 55.5C87.0001 46 92.0001 36 94.0001 34.5C93.5001 33 96.4999 28.5 96.4999 28C96.4999 27.6 101 21 103 20C102 20.5 102.5 19.5 102 19C104 15.4 113.167 13.1667 117.5 12.5C115.5 12 114.5 11.5 112.5 11C114.9 7.40001 130 7.5 132 8.5C131.5 7.5 130 6 128 5.5C130.8 5.1 136.833 7.33333 139.5 8.5C139 8 137 5 137 4C147 5.00002 149.5 6.5 154.5 10C154.5 9 154 8 154.5 7.00003C163 9 163.5 12.5 165 15C165.5 14 166 12.5 166 11C171.71 15.8314 170.475 22.5919 170.09 23.4864C170.789 23.3116 173.597 21.5243 175.5 22C177.1 22.4 175.333 24.6667 174 25.5C175 25.5 177.757 26.643 178.5 28.5C179.5 31 179 34 177.5 34C177.5 38.5 182.5 40.5 182 41C181.6 41.4 177.5 40.1667 175.5 39.5C175 40.3333 174.92 41.26 175.5 43C176 44.5 178.5 45 183.5 44C181.1 47.2 177.833 47.6667 176.5 47.5C177 47.6667 178 48.6 178 51C178 53.4 176.667 55 176 55.5V56.5C176 57.6667 175.9 61.1 175.5 65.5C175.1 69.9 169.667 76.6666 167 79.5Z" fill="#C68642"/>
<path d="M114.867 70.79C117.674 69.8355 120.627 69.9598 123.584 69.9598C126.955 69.9598 129.022 71.8694 131.263 74.1109" stroke="black" stroke-linecap="round" stroke-linejoin="round"/>
<path d="M147.452 76.809C149.946 75.6119 152.906 73.9489 155.754 75.0564C158.267 76.0336 161.126 77.3836 162.396 79.9223" stroke="black" stroke-linecap="round" stroke-linejoin="round"/>
<path d="M148.698 74.5259C150.692 73.5288 151.915 73.0225 154.14 73.0731C155.686 73.1082 157.498 73.6334 158.868 74.3184" stroke="black" stroke-linecap="round" stroke-linejoin="round"/>
<path d="M151 75.5C150.747 77.08 150.63 78.0867 152.226 78.8845" stroke="black" stroke-linecap="round" stroke-linejoin="round"/>
<path d="M158.5 76.5C158.192 78.2131 157.729 78.9989 155.924 79.2996" stroke="black" stroke-linecap="round" stroke-linejoin="round"/>
<path d="M120.046 70.0428C119.64 70.8885 119.608 72.028 119.998 72.8943C120.183 73.3046 120.396 73.7704 120.712 74.0952C121.243 74.6405 121.678 74.7088 122.426 74.7088" stroke="black" stroke-linecap="round" stroke-linejoin="round"/>
<path d="M128.044 71.376C127.802 72.8884 127.034 74.4296 125.378 74.6136" stroke="black" stroke-linecap="round" stroke-linejoin="round"/>
<circle cx="124" cy="72" r="1" fill="black"/>
<path d="M123.257 71.4839C123.537 71.2041 123.261 70.9945 123.099 71.0001M123.257 71.4839C122.915 71.1422 122.972 71.0045 123.099 71.0001M123.257 71.4839L123.099 71.0001" stroke="white" stroke-linecap="round" stroke-linejoin="round"/>
<circle cx="154.5" cy="77" r="1" fill="black"/>
<path d="M153.757 76.4839C154.037 76.2041 153.761 75.9945 153.599 76.0001M153.757 76.4839C153.415 76.1422 153.472 76.0045 153.599 76.0001M153.757 76.4839L153.599 76.0001" stroke="white" stroke-linecap="round" stroke-linejoin="round"/>
<path d="M130.52 70.6142C128.896 69.4202 126.779 68.4883 124.828 68.0643C123.439 67.7624 121.495 67.6367 120.141 68.0431" stroke="black" stroke-linecap="round" stroke-linejoin="round"/>
<path d="M146.613 71.1855C146.804 72.3777 146.505 73.1585 147.994 72.8996C150.544 72.456 153.129 72.5187 155.707 72.5187C159.747 72.5187 162.791 74.9897 166.229 76.7086" stroke="black" stroke-linecap="round" stroke-linejoin="round"/>
<path d="M147.089 70.995C150.495 70.3613 153.973 70.5189 157.421 70.5189C159.323 70.5189 161.605 70.8902 163.182 72.0372C164.918 73.3 165.764 74.99 166.8 76.8037" stroke="black" stroke-linecap="round" stroke-linejoin="round"/>
<path d="M133.758 68.0431C132.692 68.7463 132.009 69.3324 130.732 68.8049C128.082 67.7105 125.569 66.4942 122.733 65.927C119.256 65.2317 114.879 65.0038 111.475 66.1386" stroke="black" stroke-linecap="round" stroke-linejoin="round"/>
<path d="M133.472 67.6622C131.335 66.741 129.442 65.4593 127.229 64.6626C124.587 63.7115 121.785 62.7824 118.961 63.5147C116.392 64.1806 113.957 64.9223 111.475 65.853" stroke="black" stroke-linecap="round" stroke-linejoin="round"/>
<path d="M129.377 88.2307C127.823 88.6311 127.699 89.2411 127 90.5C126.141 92.0454 126.686 95.884 128.901 95.9439C129.843 95.9693 130.8 95.7534 131.758 95.7534" stroke="black" stroke-linecap="round" stroke-linejoin="round"/>
<path d="M125.759 90.4208C122 95 117 94 112.427 98.1339" stroke="black" stroke-linecap="round" stroke-linejoin="round"/>
<path d="M148.613 94.8011C149.095 97.9078 151.274 100.376 151.66 103.467" stroke="black" stroke-linecap="round" stroke-linejoin="round"/>
<path d="M133.663 105.942C132.691 104.514 131.79 104.353 130.235 104.017C126.621 103.235 122.424 104.133 118.712 104.133" stroke="black" stroke-linecap="round" stroke-linejoin="round"/>
<path d="M133.948 105.942C136.008 105.901 138.543 104.721 140.519 105.71C142.831 106.866 144.418 108.977 146.804 110.037" stroke="black" stroke-linecap="round" stroke-linejoin="round"/>
<path d="M118.712 104.133C120.787 105.763 123.363 106.201 125.59 107.487C127.753 108.737 130.773 109.406 133.186 110.058C137.524 111.23 142.72 110.522 147.089 110.037" stroke="black" stroke-linecap="round" stroke-linejoin="round"/>
<path d="M126.711 113.846C128.021 115.381 130.395 115.274 132.229 115.274C133.664 115.274 135.653 116.709 136.995 115.75" stroke="black" stroke-linecap="round" stroke-linejoin="round"/>
<path d="M136.329 71.8521C135.136 73.6593 135.103 76.0007 134.52 78.0416" stroke="black" stroke-linecap="round" stroke-linejoin="round"/>
<path d="M146.137 72.0425C145.171 73.3048 144.903 74.3938 144.634 75.9467C143.605 81.8936 144.994 88.4546 144.994 94.5155" stroke="black" stroke-linecap="round" stroke-linejoin="round"/>
<path d="M146.042 90.7065C146.042 93.5 146.935 94.2512 146.899 95.9227C146.863 97.563 144.044 97.5683 142.857 97.6632C140.896 97.8201 138.771 100.079 136.853 98.8006C136.11 98.3058 135.282 97.7655 134.615 97.1818" stroke="black" stroke-linecap="round" stroke-linejoin="round"/>
<path d="M169 56.5C169 68.701 166.611 81.1198 164.687 93.1432C163.476 100.709 161.154 107.413 157.282 113.966C153.606 120.187 145.096 128.005 138.736 131.365C135.484 133.083 131.5 134.5 128.415 134.641C126.739 134.718 124.698 134.524 123.115 133.97C115.894 131.442 110.856 124.48 105.995 119.012C102.593 115.185 98.8728 110.166 97.3691 105.226C95.9343 100.511 96.124 94.8942 96.124 89.9649" stroke="black" stroke-linecap="round" stroke-linejoin="round"/>
<path d="M93.6175 60.7703C90.1836 60.1163 88.6604 65.6521 87.7933 68.0608C86.3254 72.1384 86.9231 77.9701 88.5 82C89.3984 84.2958 90.4893 88.9289 93.3226 89.6372C94.4514 89.9195 96.3806 89.2853 97.0088 88.343" stroke="black" stroke-linecap="round" stroke-linejoin="round"/>
<path d="M94.3548 72.7136C94.0571 74.1358 93.9124 75.3918 93.9124 76.8421C93.9124 77.1909 94.0825 78.0269 93.6175 78.1363C93.1793 78.2395 92.3256 77.6676 91.9956 77.4319" stroke="black" stroke-linecap="round" stroke-linejoin="round"/>
<path d="M115.693 39.6766C111.101 43.8045 106.254 47.7507 102.116 52.3483" stroke="black" stroke-linecap="round" stroke-linejoin="round"/>
<path d="M110.5 44C108.013 46.0208 110.237 51.7944 109.533 54.6111C108.781 57.618 108.491 62.1153 106 64C103.051 66.2318 101.082 67.5978 100.256 70.9033C100.06 71.6872 99.3055 71.769 99.4512 70.853C100.06 67.027 103.664 63.0612 105.284 59.5893" stroke="black" stroke-linecap="round" stroke-linejoin="round"/>
<path d="M93.5174 61.1733C93.4851 62.7895 93.0759 64.3168 93.4671 65.9252C93.6417 66.6431 94.0263 67.1212 94.4225 67.7354C94.9058 68.4846 95.5539 65.5 95.5539 66.1514" stroke="black" stroke-linecap="round" stroke-linejoin="round"/>
<path d="M95.7804 65.02C94.1016 68.5174 93.8472 73.0956 97.1381 75.6552C97.7797 76.1542 98.6583 76.3389 99.3757 76.7489C99.7371 76.9554 99.1338 75.2533 99.0614 74.9638C98.6188 73.1932 99.2966 71.2161 99.8534 69.5456" stroke="black" stroke-linecap="round" stroke-linejoin="round"/>
<path d="M89.6709 61.8521C89.6709 54.9335 92.2399 48.6056 96.0067 42.8446" stroke="black" stroke-linecap="round" stroke-linejoin="round"/>
<path d="M142.62 35.1511C137.003 37.5585 132.5 41 130.5 47.5" stroke="black" stroke-linecap="round" stroke-linejoin="round"/>
<path d="M147 39C140.673 39.4586 136.213 41.4633 132 44" stroke="black" stroke-linecap="round" stroke-linejoin="round"/>
<path d="M136.5 32.5C130.984 32.6902 128.951 43.3535 130.627 47.8227" stroke="black" stroke-linecap="round" stroke-linejoin="round"/>
<path d="M131.306 29.494C125.153 31.6239 123.516 37.4809 124.97 43.2971" stroke="black" stroke-linecap="round" stroke-linejoin="round"/>
<path d="M136.284 32.4357C130.267 33.4576 127.53 37.5779 125 43" stroke="black" stroke-linecap="round" stroke-linejoin="round"/>
<path d="M126.102 31.078C121.055 34.2809 113.847 37.4258 107.773 35.6036" stroke="black" stroke-linecap="round" stroke-linejoin="round"/>
<path d="M116.372 36.0562C115.816 37.9873 115.336 39.4965 116.699 41.2103C118.039 42.8948 120.932 43.5272 122.934 43.7497" stroke="black" stroke-linecap="round" stroke-linejoin="round"/>
<path d="M125.197 34.0197C121.44 34.8246 120.5 39 123 43.5" stroke="black" stroke-linecap="round" stroke-linejoin="round"/>
<path d="M148.504 38.7715C147.903 41.1209 146.835 45.1628 145 46.5C142.811 48.0953 139.592 47.1358 137 48" stroke="black" stroke-linecap="round" stroke-linejoin="round"/>
<path d="M147 38.5C143.133 42.4805 142.673 46.3791 137 48" stroke="black" stroke-linecap="round" stroke-linejoin="round"/>
<path d="M125.649 26.5524C124.352 26.533 123.283 26.2907 122.029 26.0495C119.371 25.5385 116.71 25.6698 114.033 25.9867C111.035 26.3418 106.732 26.7706 104 28" stroke="black" stroke-linecap="round" stroke-linejoin="round"/>
<path d="M126.102 28.5889C121.872 30.3008 116.946 31.0831 112.374 30.5752C109.389 30.2435 106.815 28.7784 103.926 28.1364" stroke="black" stroke-linecap="round" stroke-linejoin="round"/>
<path d="M122.255 22.4794C120.917 20.1714 118.45 19.9174 115.97 19.4497C111.099 18.5313 106.5 17.5 102 19.5" stroke="black" stroke-linecap="round" stroke-linejoin="round"/>
<path d="M121.803 22.0268C117.885 22.692 114.089 23.4441 110.111 22.8062C108.296 22.5151 106.572 21.9282 104.832 21.348" stroke="black" stroke-linecap="round" stroke-linejoin="round"/>
<path d="M104.832 23.6108C99.4419 25.0517 94.711 28.3415 93.2915 34.0197" stroke="black" stroke-linecap="round" stroke-linejoin="round"/>
<path d="M97.5905 31.3043C90.6435 34.2123 87.0161 48.9774 90.362 55" stroke="black" stroke-linecap="round" stroke-linejoin="round"/>
<path d="M163.664 31.078C165.102 33.2998 165.518 36.2293 164.18 38.6584C161.789 42.9977 156.572 44 152 44" stroke="black" stroke-linecap="round" stroke-linejoin="round"/>
<path d="M151.898 43.7497C154.215 45.5281 157.452 46.1657 160.295 45.2834C164.329 44.0315 169.359 41.0745 169.774 36.5087" stroke="black" stroke-linecap="round" stroke-linejoin="round"/>
<path d="M148.956 38.7715C150.721 39.015 151.867 38.9761 152.991 40.5818C154.053 42.0977 154.019 42.2712 153.5 44" stroke="black" stroke-linecap="round" stroke-linejoin="round"/>
<path d="M150.767 33.7934C152.43 32.8651 155.234 33.2559 156.021 35.2516C157.34 38.5952 156.382 41.755 153.935 44.2023" stroke="black" stroke-linecap="round" stroke-linejoin="round"/>
<path d="M165.475 42.8446C165.306 47.1416 159.567 49.9644 155.745 50.3119" stroke="black" stroke-linecap="round" stroke-linejoin="round"/>
<path d="M171.132 30.6254C177.387 35.0037 171.901 43.2176 167.511 46.465C164.763 48.4981 159.407 50.2161 156 50.5" stroke="black" stroke-linecap="round" stroke-linejoin="round"/>
<path d="M170.905 43.2971C172.549 48.4339 169.606 55.9908 164.569 58.0053" stroke="black" stroke-linecap="round" stroke-linejoin="round"/>
<path d="M174.073 36.0562C175.66 38.3044 174.992 41.8529 174.702 44.4285C174.016 50.5213 171.5 55 164.5 58" stroke="black" stroke-linecap="round" stroke-linejoin="round"/>
<path d="M170.905 54.6111C171.809 56.9157 173.697 57.5221 175.883 56.6477" stroke="black" stroke-linecap="round" stroke-linejoin="round"/>
<path d="M174.979 43.2971C175.377 45.4386 175.205 47.6866 175.205 49.8592C175.205 52.2437 175.825 56.1559 177.92 57.5528" stroke="black" stroke-linecap="round" stroke-linejoin="round"/>
<path d="M176 56C176.656 59.4455 176.059 64.0669 174.752 67.3331C172.877 72.0216 169.936 75.4633 167 79.5" stroke="black" stroke-linecap="round" stroke-linejoin="round"/>
<path d="M168.869 77.0129C169.56 79.2146 169.5 82.2551 169.045 84.5304C168.412 87.6964 167.068 90.7426 165.475 93.5313" stroke="black" stroke-linecap="round" stroke-linejoin="round"/>
<path d="M96.6855 75.6552C96.6855 77.1865 96.8573 78.8988 97.3644 80.3568C97.7383 81.4317 97.6691 82.4348 97.8672 83.5247C98.1849 85.2717 98.2392 82.7617 98.3198 82.2173C98.5762 80.4865 98.6348 78.7375 98.9483 77.0129" stroke="black" stroke-linecap="round" stroke-linejoin="round"/>
<path d="M99.627 72.4873C99.627 73.4921 100.15 78.3219 100.809 75.0267C101.252 72.8117 101.772 70.6513 102.116 68.4142" stroke="black" stroke-linecap="round" stroke-linejoin="round"/>
<path d="M112.525 101.451C112.525 102.739 112.572 103.628 112.977 104.845" stroke="black" stroke-linecap="round" stroke-linejoin="round"/>
<path d="M151.671 110.276C151.172 110.875 150.66 111.345 150.087 111.86" stroke="black" stroke-linecap="round" stroke-linejoin="round"/>
<path d="M131.759 119.101C130.994 120.141 130.562 120.986 130.401 122.269" stroke="black" stroke-linecap="round" stroke-linejoin="round"/>
<path d="M130.627 119.327C129.855 119.936 129.479 120.493 129.043 121.364" stroke="black" stroke-linecap="round" stroke-linejoin="round"/>
<path d="M128.817 118.196C128.537 118.888 128.246 119.565 127.912 120.232" stroke="black" stroke-linecap="round" stroke-linejoin="round"/>
<path d="M127.686 117.743C127.259 118.478 126.889 119.225 126.555 120.006" stroke="black" stroke-linecap="round" stroke-linejoin="round"/>
<path d="M133.117 118.422C133.003 119.052 132.846 119.626 132.664 120.232" stroke="black" stroke-linecap="round" stroke-linejoin="round"/>
<path d="M134.248 118.422C134.248 118.799 134.248 119.176 134.248 119.554" stroke="black" stroke-linecap="round" stroke-linejoin="round"/>
<path d="M98.4959 89.0057C97.9173 90.7415 97.4981 92.4108 97.1382 94.2102" stroke="black" stroke-linecap="round" stroke-linejoin="round"/>
<path d="M99.8536 89.9109C98.7646 92.1219 97.9407 94.7029 97.5908 97.1519" stroke="black" stroke-linecap="round" stroke-linejoin="round"/>
<path d="M100.532 92.1737C99.8421 94.5278 98.9785 96.7739 98.4956 99.1884" stroke="black" stroke-linecap="round" stroke-linejoin="round"/>
<path d="M101.89 93.9839C101.38 96.1769 100.452 98.35 99.8535 100.546" stroke="black" stroke-linecap="round" stroke-linejoin="round"/>
<path d="M103.926 95.3416C103.671 96.8765 103.03 98.175 102.569 99.6409C102.234 100.705 102.227 101.93 102.116 103.035" stroke="black" stroke-linecap="round" stroke-linejoin="round"/>
<path d="M106.415 98.7358C105.671 101.133 104.379 103.159 104.379 105.751" stroke="black" stroke-linecap="round" stroke-linejoin="round"/>
<path d="M107.773 101.451C107.725 103.464 106.642 105.252 106.642 107.334" stroke="black" stroke-linecap="round" stroke-linejoin="round"/>
<path d="M109.131 104.393C109.345 105.754 109.219 106.678 108.905 108.013" stroke="black" stroke-linecap="round" stroke-linejoin="round"/>
<path d="M115.693 99.6409C115.356 100.694 115.151 101.717 115.014 102.809" stroke="black" stroke-linecap="round" stroke-linejoin="round"/>
<path d="M117.956 99.1884C117.63 100.622 117.051 101.772 117.051 103.261" stroke="black" stroke-linecap="round" stroke-linejoin="round"/>
<path d="M120.219 99.1884C119.795 100.433 119.313 101.483 119.313 102.809" stroke="black" stroke-linecap="round" stroke-linejoin="round"/>
<path d="M122.255 98.962C122.225 100.266 121.733 101.331 121.576 102.583" stroke="black" stroke-linecap="round" stroke-linejoin="round"/>
<path d="M124.292 98.962C124.086 99.9207 123.729 100.766 123.387 101.677" stroke="black" stroke-linecap="round" stroke-linejoin="round"/>
<path d="M126.328 98.5095C126.135 99.718 125.616 100.747 125.423 101.904" stroke="black" stroke-linecap="round" stroke-linejoin="round"/>
<path d="M128.139 98.2832C128.139 99.6266 127.897 100.64 127.686 101.904" stroke="black" stroke-linecap="round" stroke-linejoin="round"/>
<path d="M130.175 98.962C130.374 100.156 129.907 100.796 129.722 101.904" stroke="black" stroke-linecap="round" stroke-linejoin="round"/>
<path d="M131.985 99.1884C132.33 100.337 132.264 101.013 131.985 102.13" stroke="black" stroke-linecap="round" stroke-linejoin="round"/>
<path d="M135.606 100.32C135.449 101.05 135.259 101.691 134.927 102.356" stroke="black" stroke-linecap="round" stroke-linejoin="round"/>
<path d="M137.416 100.546C137.277 101.352 137.06 101.873 136.737 102.583" stroke="black" stroke-linecap="round" stroke-linejoin="round"/>
<path d="M139.226 100.546C138.982 101.379 138.689 102.184 138.547 103.035" stroke="black" stroke-linecap="round" stroke-linejoin="round"/>
<path d="M141.715 100.32C141.527 101.389 141.189 102.42 141.037 103.488" stroke="black" stroke-linecap="round" stroke-linejoin="round"/>
<path d="M143.525 100.546C143.04 101.745 142.577 102.883 142.394 104.167" stroke="black" stroke-linecap="round" stroke-linejoin="round"/>
<path d="M144.657 101.451C144.612 102.765 144.106 103.833 143.752 105.072" stroke="black" stroke-linecap="round" stroke-linejoin="round"/>
<path d="M146.467 103.488C146.467 104.745 146.221 105.502 145.788 106.656" stroke="black" stroke-linecap="round" stroke-linejoin="round"/>
<path d="M137.19 126.342C136.739 128.765 136.205 131.227 134.927 133.357" stroke="black" stroke-linecap="round" stroke-linejoin="round"/>
<path d="M133.795 130.189C133.441 131.396 132.999 132.46 132.438 133.583" stroke="black" stroke-linecap="round" stroke-linejoin="round"/>
<path d="M131.759 130.189C131.137 131.763 130.766 133.47 129.949 134.941" stroke="black" stroke-linecap="round" stroke-linejoin="round"/>
<path d="M130.175 130.415C128.994 131.451 128.532 132.414 127.912 133.809" stroke="black" stroke-linecap="round" stroke-linejoin="round"/>
<path d="M131.985 124.305C131.552 125.687 131.533 126.949 131.533 128.378" stroke="black" stroke-linecap="round" stroke-linejoin="round"/>
<path d="M133.795 124.532C133.468 126.237 132.664 127.745 132.664 129.51" stroke="black" stroke-linecap="round" stroke-linejoin="round"/>
<path d="M109.131 115.933C108.643 117.369 108.114 118.755 107.773 120.232" stroke="black" stroke-linecap="round" stroke-linejoin="round"/>
<path d="M107.773 114.575C107.186 116.117 107.147 117.864 106.416 119.327" stroke="black" stroke-linecap="round" stroke-linejoin="round"/>
<path d="M107.094 113.444C105.935 115.217 105.698 116.726 105.058 118.648" stroke="black" stroke-linecap="round" stroke-linejoin="round"/>
<path d="M104.831 110.502C104.357 111.898 103.715 113.354 103.474 114.802" stroke="black" stroke-linecap="round" stroke-linejoin="round"/>
<path d="M102.248 109.918C101.997 111.311 101.751 112.948 101.116 114.218" stroke="black" stroke-linecap="round" stroke-linejoin="round"/>
<path d="M101.569 107.882C100.903 109.213 100.454 110.546 99.9849 111.955" stroke="black" stroke-linecap="round" stroke-linejoin="round"/>
<path d="M99.3057 105.393C99.0413 106.627 98.6166 107.834 98.1743 109.013" stroke="black" stroke-linecap="round" stroke-linejoin="round"/>
<path d="M98.9481 102.13C98.9185 103.404 98.5361 104.374 98.043 105.524" stroke="black" stroke-linecap="round" stroke-linejoin="round"/>
<path d="M98.2694 100.546C97.8829 101.524 97.6002 102.465 97.3643 103.488" stroke="black" stroke-linecap="round" stroke-linejoin="round"/>
<path d="M107.094 107.108C106.663 109.12 105.962 111.176 106.416 113.218" stroke="black" stroke-linecap="round" stroke-linejoin="round"/>
<path d="M108.452 109.371C108.051 110.6 107.773 111.699 107.773 112.991" stroke="black" stroke-linecap="round" stroke-linejoin="round"/>
<path d="M110.262 110.05C109.625 111.377 109.222 112.697 108.905 114.123" stroke="black" stroke-linecap="round" stroke-linejoin="round"/>
<path d="M112.073 111.181C111.445 112.732 110.99 114.284 110.715 115.933" stroke="black" stroke-linecap="round" stroke-linejoin="round"/>
<path d="M115.919 118.422C115.151 119.744 114.735 121.03 114.335 122.495" stroke="black" stroke-linecap="round" stroke-linejoin="round"/>
<path d="M117.503 119.101C117.234 120.388 116.598 121.628 116.598 122.948" stroke="black" stroke-linecap="round" stroke-linejoin="round"/>
<path d="M120.445 120.232C119.715 121.225 119.289 122.19 119.087 123.4" stroke="black" stroke-linecap="round" stroke-linejoin="round"/>
<path d="M121.803 120.232C121.298 121.48 120.838 122.519 120.671 123.853" stroke="black" stroke-linecap="round" stroke-linejoin="round"/>
<path d="M123.839 120.232C122.991 121.374 122.635 122.297 122.255 123.627" stroke="black" stroke-linecap="round" stroke-linejoin="round"/>
<path d="M126.102 122.269C125.212 123.186 124.504 124.164 124.292 125.437" stroke="black" stroke-linecap="round" stroke-linejoin="round"/>
<path d="M127.233 123.174C126.559 124.306 126.283 125.347 125.875 126.568" stroke="black" stroke-linecap="round" stroke-linejoin="round"/>
<path d="M128.591 124.079C128.173 125.531 127.852 126.881 127.686 128.379" stroke="black" stroke-linecap="round" stroke-linejoin="round"/>
<path d="M129.949 125.663C129.927 126.743 129.74 127.438 129.27 128.378" stroke="black" stroke-linecap="round" stroke-linejoin="round"/>
<path d="M127.46 131.057C127.709 132.552 127.03 134.089 126.781 135.583" stroke="black" stroke-linecap="round" stroke-linejoin="round"/>
<path d="M124.744 131.32C124.744 132.751 124.466 133.995 124.292 135.393" stroke="black" stroke-linecap="round" stroke-linejoin="round"/>
<path d="M122.481 130.641C122.279 131.903 122.147 132.894 121.576 134.036" stroke="black" stroke-linecap="round" stroke-linejoin="round"/>
<path d="M121.124 129.736C120.731 130.937 120.297 132.139 119.992 133.357" stroke="black" stroke-linecap="round" stroke-linejoin="round"/>
<path d="M119.992 129.057C119.334 130.164 118.757 131.301 118.182 132.452" stroke="black" stroke-linecap="round" stroke-linejoin="round"/>
<path d="M117.73 127.021C117.475 128.239 117.157 129.524 116.598 130.641" stroke="black" stroke-linecap="round" stroke-linejoin="round"/>
<path d="M117.051 126.568C116.376 127.729 115.969 128.782 115.014 129.736" stroke="black" stroke-linecap="round" stroke-linejoin="round"/>
<path d="M115.693 125.211C115.016 126.513 114.232 127.803 113.204 128.831" stroke="black" stroke-linecap="round" stroke-linejoin="round"/>
<path d="M113.657 124.532C112.957 125.422 112.466 126.198 112.073 127.247" stroke="black" stroke-linecap="round" stroke-linejoin="round"/>
<path d="M112.073 122.722C111.349 123.604 110.761 124.567 110.036 125.437" stroke="black" stroke-linecap="round" stroke-linejoin="round"/>
<path d="M110.715 122.269C109.961 123.023 109.206 123.777 108.452 124.532" stroke="black" stroke-linecap="round" stroke-linejoin="round"/>
<path d="M110.036 119.554C109.304 120.802 108.343 121.846 107.773 123.174" stroke="black" stroke-linecap="round" stroke-linejoin="round"/>
<path d="M113.204 116.838C112.94 118.129 112.525 119.361 112.525 120.685" stroke="black" stroke-linecap="round" stroke-linejoin="round"/>
<path d="M120.219 124.984C119.803 125.978 119.349 126.879 119.087 127.926" stroke="black" stroke-linecap="round" stroke-linejoin="round"/>
<path d="M122.255 125.437C121.552 126.618 121.055 127.838 120.445 129.057" stroke="black" stroke-linecap="round" stroke-linejoin="round"/>
<path d="M123.386 127.021C122.81 127.99 122.384 128.897 122.029 129.963" stroke="black" stroke-linecap="round" stroke-linejoin="round"/>
<path d="M125.649 127.7C124.899 128.648 124.313 129.536 123.839 130.641" stroke="black" stroke-linecap="round" stroke-linejoin="round"/>
<path d="M125.876 128.605C125.654 129.582 125.432 130.18 124.744 130.868" stroke="black" stroke-linecap="round" stroke-linejoin="round"/>
<path d="M107.321 118.648C106.414 119.577 105.683 120.617 104.832 121.59" stroke="black" stroke-linecap="round" stroke-linejoin="round"/>
<path d="M104.153 115.028C103.723 115.871 103.264 116.696 102.795 117.517" stroke="black" stroke-linecap="round" stroke-linejoin="round"/>
<path d="M113.43 112.765C113.146 113.601 112.835 114.427 112.525 115.254" stroke="black" stroke-linecap="round" stroke-linejoin="round"/>
<path d="M173.395 29.7203C176.135 29.3914 177.451 33.075 177.706 35.3773C178.004 38.0592 179.939 39.8942 182.219 41.0343" stroke="black" stroke-linecap="round" stroke-linejoin="round"/>
<path d="M175.657 39.4504C177.588 40.5994 180.318 41.5456 182.5 41" stroke="black" stroke-linecap="round" stroke-linejoin="round"/>
<path d="M175.431 46.9176C178.964 48.0954 181.886 47.4119 183.351 43.7497" stroke="black" stroke-linecap="round" stroke-linejoin="round"/>
<path d="M183.5 43.5C180.794 45.2509 177.451 45.1787 175 43" stroke="black" stroke-linecap="round" stroke-linejoin="round"/>
<path d="M176 48.0291C177.952 47.7848 177.929 49.1094 177.995 50.8949C178.051 52.3746 177.602 54.0618 176.455 55" stroke="black" stroke-linecap="round" stroke-linejoin="round"/>
<path d="M159.365 19.3114C159.217 13.1054 151.978 9.58136 146.467 9.58136" stroke="black" stroke-linecap="round" stroke-linejoin="round"/>
<path d="M150.766 18.8589C150.974 18.1049 151.393 17.1264 151.169 16.3195C150.554 14.1057 150 11 146.5 9.5" stroke="black" stroke-linecap="round" stroke-linejoin="round"/>
<path d="M169.321 24.7422C170.872 22.2985 170.737 18.1007 169.246 15.6155C168.229 13.921 166.735 12.4512 165.475 10.9391" stroke="black" stroke-linecap="round" stroke-linejoin="round"/>
<path d="M165.5 11C166.203 12.9766 165.132 14.8519 164.569 16.8224" stroke="black" stroke-linecap="round" stroke-linejoin="round"/>
<path d="M170 23.6108C171.437 22.6917 173.646 21.6147 175.431 21.8131C176.993 21.9866 174.261 25.1651 173.847 25.6473" stroke="black" stroke-linecap="round" stroke-linejoin="round"/>
<path d="M174 25.5C177.186 25.0627 178.871 28.2304 179.504 31.078" stroke="black" stroke-linecap="round" stroke-linejoin="round"/>
<path d="M179.5 31C179.468 32.3697 178.896 33.6705 177.694 34.4722" stroke="black" stroke-linecap="round" stroke-linejoin="round"/>
<path d="M165 16C164.822 13.4554 162.421 10.5481 160.5 9.50002C159.009 8.68676 155.875 7.71031 154.437 6.81577C153.302 6.10973 155.161 10.983 155.5 12" stroke="black" stroke-linecap="round" stroke-linejoin="round"/>
<path d="M141.036 10.0339C137.315 7.64689 134 5 128 5.50001" stroke="black" stroke-linecap="round" stroke-linejoin="round"/>
<path d="M127.233 5.28204C129.881 6.05816 131.988 7.72027 133.117 10.2602" stroke="black" stroke-linecap="round" stroke-linejoin="round"/>
<path d="M130.628 8.22372C124.61 7.2019 117.63 8.68161 112 11" stroke="black" stroke-linecap="round" stroke-linejoin="round"/>
<path d="M112.073 10.9391C114.038 11.6705 116.435 11.4547 117.956 12.9756" stroke="black" stroke-linecap="round" stroke-linejoin="round"/>
<path d="M117 12.5C111.787 12.6185 105.866 15.648 102.116 19.0851" stroke="black" stroke-linecap="round" stroke-linejoin="round"/>
<path d="M105.5 18.5C101.476 19.7071 98.3092 24.3816 96.5 28" stroke="black" stroke-linecap="round" stroke-linejoin="round"/>
<path d="M155 11.5C153.5 8.5 149.878 6.54187 148.5 6C146.151 5.0761 139.377 4.79232 137 4" stroke="black" stroke-linecap="round" stroke-linejoin="round"/>
<path d="M137 4C137.724 6.17183 138.789 8.90882 141.036 9.80768" stroke="black" stroke-linecap="round" stroke-linejoin="round"/>
<path d="M127.714 143.025C126.925 144.35 126.129 146.302 124.78 147.145C123.621 147.869 122.045 147.744 120.748 147.744" stroke="black" stroke-linecap="round" stroke-linejoin="round"/>
<path d="M97.1637 104.5C97.7886 107.486 97.4284 112.901 97.1637 115.945C96.7801 120.357 96.0276 124.68 96.0276 129.092C96.0276 131.64 95.5 135.454 95.5 138" stroke="black" stroke-linecap="round" stroke-linejoin="round"/>
<path d="M150.411 125.271C150.494 128.738 152.534 132.127 151.76 135.609C151.382 137.308 150.572 138.894 149.512 140.278C148.735 141.293 147.892 142.364 147.215 143.449C146.441 144.691 146.058 146.071 145.243 147.295" stroke="black" stroke-linecap="round" stroke-linejoin="round"/>
<path d="M148.164 125C147.457 129.507 148.06 134.14 145.455 138.047C143.077 141.614 141.917 145.151 138.726 149.046C134.278 154.475 129.973 157.268 124.893 160.519C118.794 164.422 110.5 168 105.691 171.968" stroke="black" stroke-linecap="round" stroke-linejoin="round"/>
<path d="M95.5781 126.395C94.9672 129.246 93.4698 133.205 94.5793 136.058C96.8768 141.966 101.559 144.834 105.965 149.142C110.834 153.903 116.68 157.351 121.871 161.677" stroke="black" stroke-linecap="round" stroke-linejoin="round"/>
<path d="M96.9264 114.934C95.6218 115.343 93.4391 115.529 93.1061 117.194C92.8483 118.483 92.2192 119.662 91.9325 120.952C91.3815 123.431 89.7644 125.858 88.9487 128.305C88.2066 130.531 88.1686 132.898 87.6003 135.172C87.0627 137.322 86 141 87.6003 143" stroke="black" stroke-linecap="round" stroke-linejoin="round"/>
<path d="M87.7129 143.25C88.3664 145.332 88.6977 147.242 89.6855 149.217C90.5768 151 91.6577 152.727 92.9315 154.261C94.4792 156.125 96.3151 157.768 97.7756 159.704C99.5368 162.04 102.238 163.75 104.567 165.497" stroke="black" stroke-linecap="round" stroke-linejoin="round"/>
<path d="M86.814 137.407C85.9356 138.738 85.6451 139.332 84.1173 139.704C83.3529 139.89 82.4828 140.085 81.6953 140.103C79.6413 140.15 79.1492 140.816 78.7738 142.8C78.501 144.242 79.2493 146.58 80.1222 147.744C80.7408 148.569 81.6722 149.043 82.3195 149.817C83.0972 150.745 83.7227 151.821 84.5668 152.688C86.5107 154.684 88.2673 156.838 90.2349 158.806C92.2712 160.842 93.7992 163.241 96.0278 165.098C98.9453 167.529 101.511 171.131 105.466 171.79" stroke="black" stroke-linecap="round" stroke-linejoin="round"/>
<path d="M107 171C113.672 170.841 122.5 170 129.013 170.441C131.519 171.368 139.41 166.004 141.647 164.823C147.291 161.845 152.629 155.894 155.468 150.216C157.917 145.319 160.961 139.955 161.873 134.485" stroke="black" stroke-linecap="round" stroke-linejoin="round"/>
<path d="M148.838 123.698C149.535 123.35 150.848 122.341 151.71 122.675C152.611 123.023 152.975 124.152 153.57 124.822C154.591 125.971 155.515 127.641 156.704 128.592C157.984 129.616 163.507 132.531 161.873 134.71" stroke="black" stroke-linecap="round" stroke-linejoin="round"/>
<path d="M110.46 177.857C110.998 175.439 111.5 174.262 114.231 174.262C116.124 174.262 118.544 175.902 117.939 178.082C117.383 180.083 116 181.678 113.544 181.678C111.363 181.242 109.9 180.378 110.46 177.857Z" stroke="black" stroke-linecap="round" stroke-linejoin="round"/>
<path d="M112.658 178.307C112.702 176.674 113.63 176.336 115.13 176.284C115.683 176.265 116.549 176.875 116.203 178.257C116.002 179.064 115.071 179.88 114.231 179.88C113.176 179.88 112.63 179.32 112.658 178.307Z" stroke="black" stroke-linecap="round" stroke-linejoin="round"/>
<path d="M120.523 163.025C123.272 162.163 125.817 162.775 128.164 164.424C129.136 165.107 130.163 165.662 131.098 166.409C132.061 167.18 133.234 168.194 134.456 168.194" stroke="black" stroke-linecap="round" stroke-linejoin="round"/>
<path d="M124.343 161.003C126.434 160.668 129.405 161.493 130.81 163.25C132.204 164.992 134.144 166.143 136.254 166.846" stroke="black" stroke-linecap="round" stroke-linejoin="round"/>
<path d="M133.5 154.5C135.5 154.5 137.909 156.456 139.163 156.958C141.551 157.913 142.641 160.735 145.468 161.677" stroke="black" stroke-linecap="round" stroke-linejoin="round"/>
<path d="M135.355 152.913C138.178 153.364 139.265 155.233 141.697 156.284C143.854 157.215 145.671 159.517 148.164 159.205" stroke="black" stroke-linecap="round" stroke-linejoin="round"/>
<path d="M141.198 145.946C142.499 145.667 145.591 144.643 146.192 146.396C147.002 148.76 151.175 151.077 153.108 152.688" stroke="black" stroke-linecap="round" stroke-linejoin="round"/>
<path d="M142.097 143.924C145.547 143.382 146.401 143.15 148.314 145.934C149.711 147.965 152.129 149.55 154.007 151.115" stroke="black" stroke-linecap="round" stroke-linejoin="round"/>
<path d="M145.917 137.407C148.201 137.407 151.337 135.848 153.333 136.957C155.279 138.038 157.72 140.729 158.951 142.575" stroke="black" stroke-linecap="round" stroke-linejoin="round"/>
<path d="M146.816 135.159C149.187 135.159 152.156 133.675 154.219 134.81C155.92 135.745 159.299 138.368 159.625 140.328" stroke="black" stroke-linecap="round" stroke-linejoin="round"/>
<path d="M111.983 154.935C110.351 156.926 108.136 157.908 106.378 159.754C105.368 160.814 103.71 161.053 102.545 161.952C100.651 163.413 101.821 166.84 99.8481 168.419" stroke="black" stroke-linecap="round" stroke-linejoin="round"/>
<path d="M110.5 153.5C109.311 155.055 108.345 155.818 106.815 157.008C105.531 158.006 104.456 159.108 102.994 159.879C101.924 160.444 100.336 161.214 100.298 162.576C100.259 163.964 99.5 166 98.5 167" stroke="black" stroke-linecap="round" stroke-linejoin="round"/>
<path d="M103.219 147.295C101.149 150.339 97.8271 151.875 95.1289 154.274C93.6302 155.606 94 159.5 93 162" stroke="black" stroke-linecap="round" stroke-linejoin="round"/>
<path d="M100.972 144.823C100.542 146.876 99.0979 148.253 97.8255 149.879C96.7772 151.218 95.7903 152.031 94.3423 152.913C93.1809 153.62 91.9301 154.671 91.5831 156.059C91.4254 156.69 91.7407 157.238 91.7579 157.857C91.777 158.542 91.6294 159.205 91.5332 159.879" stroke="black" stroke-linecap="round" stroke-linejoin="round"/>
<path d="M95.5783 138.98C94.8386 140.747 93.7783 142.23 92.9315 143.924C92.1936 145.4 91.77 147.064 90.1849 147.856C87.2825 149.308 88.5681 152.594 87.7129 155.16" stroke="black" stroke-linecap="round" stroke-linejoin="round"/>
<path d="M94.0052 137.631C92.7023 140.706 91.6844 144.168 88.6117 146.046C86.242 147.494 85.4018 149.539 85.0161 152.239" stroke="black" stroke-linecap="round" stroke-linejoin="round"/>
<path d="M95.1287 128.867C92.6211 128.927 91.5688 130.908 90.1848 132.687C88.9254 134.307 87.9375 135.774 87.9375 137.856" stroke="black" stroke-linecap="round" stroke-linejoin="round"/>
<path d="M87.7129 134.036C88.7385 132.339 89.7039 130.282 91.5332 129.316C92.5948 128.756 94.3898 127.773 94.9041 129.316" stroke="black" stroke-linecap="round" stroke-linejoin="round"/>
<path d="M96 125.5C95.5541 124.46 95.0697 122.799 93.7682 122.799C92.545 122.799 92.0383 123.511 91.084 124.148" stroke="black" stroke-linecap="round" stroke-linejoin="round"/>
<path d="M92.4321 121.226C94.766 120.837 96.0278 123.184 96.0278 125.271" stroke="black" stroke-linecap="round" stroke-linejoin="round"/>
<path d="M148.164 129.316C149.563 129.093 151.052 129.346 152.197 128.43" stroke="black" stroke-linecap="round" stroke-linejoin="round"/>
<path d="M148.389 128.193C149.685 127.778 150.554 127.799 151.535 126.844C152.383 126.02 152.925 125.461 154 125" stroke="black" stroke-linecap="round" stroke-linejoin="round"/>
<path d="M94.0054 116.732C94.8833 117.423 95.3313 118.365 96.2526 118.979" stroke="black" stroke-linecap="round" stroke-linejoin="round"/>
<path d="M95.1289 116.058C95.6769 116.88 96.2095 117.593 96.4773 118.53" stroke="black" stroke-linecap="round" stroke-linejoin="round"/>
<path d="M78.9487 143.025C80.4455 142.516 81.9015 141.987 83.4557 141.676C85.0269 141.362 85.806 140.864 86.8142 139.654" stroke="black" stroke-linecap="round" stroke-linejoin="round"/>
<path d="M211.506 158.764C212.005 161.88 210.798 165.546 210.013 168.572C208.366 174.926 206.424 181.436 203.175 187.19C200.658 191.649 197.987 198.77 193.501 201.761" stroke="black" stroke-linecap="round" stroke-linejoin="round"/>
<path d="M162.06 132.428C163.331 132.834 164.613 132.728 165.449 133.756C169.21 138.385 176.626 141.31 182.155 143.446C190.378 146.623 201.602 149.042 208.819 154.255C210.62 155.555 211.148 157.153 211.507 159.301" stroke="black" stroke-linecap="round" stroke-linejoin="round"/>
<path d="M211.238 159.032C212.575 159.032 213.623 158.806 214.403 160.048C218.407 166.425 220.998 174.988 223.928 181.934C228.769 193.408 227.811 204.994 229.78 216.81" stroke="black" stroke-linecap="round" stroke-linejoin="round"/>
<path d="M196.457 184.562C194.78 188.805 193.435 193.992 192.979 198.551C192.458 203.764 194.919 208.825 195.368 213.988C196.284 224.532 196.864 233.181 195.114 243.683" stroke="black" stroke-linecap="round" stroke-linejoin="round"/>
<path d="M196.457 203.642C202.581 201.742 206.326 192.416 209.64 187.652C212.819 183.083 213.551 177.353 215.268 172.2" stroke="black" stroke-linecap="round" stroke-linejoin="round"/>
<path d="M229.512 215.466C230.636 223.619 233.005 231.085 233.005 239.384" stroke="black" stroke-linecap="round" stroke-linejoin="round"/>
<path d="M31.7236 166.557C29.4698 180.643 35.485 188.991 37.4267 203.433C39.5203 219.006 41.9354 229.813 41.9354 243.415" stroke="black" stroke-linecap="round" stroke-linejoin="round"/>
<path d="M92.5 119C89.1418 122.46 83.8829 125.717 81.7122 130.059C79.6782 134.127 80.8983 138.703 79 142.5" stroke="black" stroke-linecap="round" stroke-linejoin="round"/>
<path d="M14.0001 237C15.9087 222.776 11.1318 202.16 16.9788 188.978C22.1305 177.363 24.8537 165.094 36.0001 154.5C48.0413 143.056 66.7278 135.966 82.0001 130" stroke="black" stroke-linecap="round" stroke-linejoin="round"/>
<path d="M81.2344 131.021C82.926 129.777 84.5526 128.602 86.3267 127.504C87.8261 126.576 88.8955 125.261 90.5366 124.441" stroke="black" stroke-linecap="round" stroke-linejoin="round"/>
<path d="M104.391 39.1887C102.951 43.957 101.973 47.8473 101.973 52.7308" stroke="black" stroke-linecap="round" stroke-linejoin="round"/>
<path d="M168.361 46.2174C168.52 49.9054 167.288 55.2118 164.5 58" stroke="black" stroke-linecap="round" stroke-linejoin="round"/>
<path d="M28.2197 185.518C30.794 194.888 35.8233 204.265 37.4133 213.806" stroke="black" stroke-linecap="round" stroke-linejoin="round"/>
<path d="M100.173 169.747C100.058 175 98.9999 178 100.058 184.089C106.5 186 109.437 186.402 115.5 186C120.079 185.696 125.5 186 129.515 184.089C130.5 181.5 129.515 173.89 129.515 171" stroke="black" stroke-linecap="round" stroke-linejoin="round"/>
<path d="M101.803 182.195C111 184 118.761 183.225 127 182.195" stroke="black" stroke-linecap="round" stroke-linejoin="round"/>
<path d="M181.259 189.948C166.331 206.663 151.668 229.358 131.656 240.476" stroke="black" stroke-linecap="round" stroke-linejoin="round"/>
<path d="M60.7939 192.413C69.406 199.981 76.448 220.244 78.3554 230.925" stroke="black" stroke-linecap="round" stroke-linejoin="round"/>
<path d="M139.386 127.499C139.386 129.104 139.366 130.688 139.221 132.287" stroke="black" stroke-linecap="round" stroke-linejoin="round"/>
<path d="M141.037 127.829C141.188 128.929 141.185 130.038 141.367 131.131" stroke="black" stroke-linecap="round" stroke-linejoin="round"/>
<path d="M143.018 125.683C143.356 126.677 143.671 127.618 143.844 128.655" stroke="black" stroke-linecap="round" stroke-linejoin="round"/>
<path d="M144.834 123.371C145.561 124.418 145.76 125.656 146.155 126.839" stroke="black" stroke-linecap="round" stroke-linejoin="round"/>
<path d="M146.98 121.555C147.592 122.411 147.89 123.402 148.301 124.362" stroke="black" stroke-linecap="round" stroke-linejoin="round"/>
<path d="M148.962 120.4C149.334 121.174 149.343 122.896 150.118 123.206" stroke="black" stroke-linecap="round" stroke-linejoin="round"/>
<path d="M150.778 119.079C151.27 119.777 151.346 120.394 151.438 121.225" stroke="black" stroke-linecap="round" stroke-linejoin="round"/>
<path d="M152.099 117.593C152.499 118.266 152.737 118.825 152.924 119.574" stroke="black" stroke-linecap="round" stroke-linejoin="round"/>
<path d="M153.584 115.942C153.907 116.93 154.142 117.88 154.245 118.914" stroke="black" stroke-linecap="round" stroke-linejoin="round"/>
<path d="M155 114C155.468 114.982 155.773 115.909 156 117" stroke="black" stroke-linecap="round" stroke-linejoin="round"/>
<path d="M156.226 113.135C156.62 114.141 156.9 115.144 157.382 116.107" stroke="black" stroke-linecap="round" stroke-linejoin="round"/>
<path d="M157.547 111.649C157.925 112.206 158.33 112.742 158.703 113.3" stroke="black" stroke-linecap="round" stroke-linejoin="round"/>
<path d="M158.868 109.173C159.267 109.772 159.666 110.364 160.023 110.989" stroke="black" stroke-linecap="round" stroke-linejoin="round"/>
<path d="M159.858 106.861C160.302 107.555 160.59 108.23 160.849 109.008" stroke="black" stroke-linecap="round" stroke-linejoin="round"/>
<path d="M136.249 123.041C136.428 123.98 136.414 124.895 136.414 125.848" stroke="black" stroke-linecap="round" stroke-linejoin="round"/>
<path d="M138.395 122.216C138.395 123.416 138.611 124.869 138.23 126.013" stroke="black" stroke-linecap="round" stroke-linejoin="round"/>
<path d="M140.046 122.051C140.285 123.305 140.399 124.78 140.046 126.013" stroke="black" stroke-linecap="round" stroke-linejoin="round"/>
<path d="M142.027 119.739C142.061 121.169 142.192 122.59 142.192 124.032" stroke="black" stroke-linecap="round" stroke-linejoin="round"/>
<path d="M143.513 118.088C143.972 119.32 144.008 120.743 144.008 122.051" stroke="black" stroke-linecap="round" stroke-linejoin="round"/>
<path d="M145.495 116.602C145.826 117.638 145.882 118.662 145.99 119.739" stroke="black" stroke-linecap="round" stroke-linejoin="round"/>
<path d="M147.476 115.281C148.127 116.449 147.971 117.606 147.971 118.914" stroke="black" stroke-linecap="round" stroke-linejoin="round"/>
<path d="M149.622 114.621C149.891 115.496 150.027 116.359 150.117 117.263" stroke="black" stroke-linecap="round" stroke-linejoin="round"/>
<path d="M135.918 119.574C136.058 120.449 136.015 121.179 135.918 122.051" stroke="black" stroke-linecap="round" stroke-linejoin="round"/>
<path d="M133.112 121.555C133.226 122.168 133.277 122.75 133.277 123.371" stroke="black" stroke-linecap="round" stroke-linejoin="round"/>
<path d="M138.065 119.079C138.308 119.717 138.395 120.218 138.395 120.895" stroke="black" stroke-linecap="round" stroke-linejoin="round"/>
<path d="M151.604 113.3C151.795 113.899 151.946 114.507 152.099 115.116" stroke="black" stroke-linecap="round" stroke-linejoin="round"/>
<path d="M154.245 111.649C154.515 112.211 154.74 112.677 154.74 113.3" stroke="black" stroke-linecap="round" stroke-linejoin="round"/>
<path d="M148.466 106.531C148.466 107.191 148.466 107.852 148.466 108.512" stroke="black" stroke-linecap="round" stroke-linejoin="round"/>
<path d="M150.118 107.026C150.188 107.468 150.238 107.903 150.283 108.347" stroke="black" stroke-linecap="round" stroke-linejoin="round"/>
<path d="M155.401 108.182C155.902 109.08 156.027 109.991 156.226 110.989" stroke="black" stroke-linecap="round" stroke-linejoin="round"/>
</svg>
