<svg width="122" height="120" viewBox="0 0 122 120" fill="none" xmlns="http://www.w3.org/2000/svg">
<path d="M90.7389 40H1V99.4781H90.7389V40Z" fill="#F5F5F5" stroke="black" stroke-linecap="round" stroke-linejoin="round"/>
<path d="M90.2174 95.3621V98.9563H1.52197V40.5217H11.435L38.9223 95.3621H90.2174Z" fill="#E0E0E0"/>
<path d="M117.538 76.9675L112.375 66.6418H101.875V76.9675H117.538Z" fill="white" stroke="black" stroke-linecap="round" stroke-linejoin="round"/>
<path d="M109.904 62.9565H90.7393V99.4781H121V80.749L117.974 77.0032H101.835V66.7023H112.93L109.904 62.9565Z" fill="#E0E0E0" stroke="black" stroke-linecap="round" stroke-linejoin="round"/>
<path d="M102.5 75.2713L108.194 67.3513H112L113.548 70.5913L108.581 76.3513H102.5V75.2713Z" fill="#F5F5F5"/>
<path d="M92.519 63.3513H91V99.3513H121V95.4562H96.6962L92.519 63.3513Z" fill="#9E9E9E"/>
<ellipse cx="19.7824" cy="101.565" rx="9.39128" ry="9.39127" fill="#9E9E9E" stroke="black"/>
<path d="M13 101.351C13 97.4853 16.134 94.3513 20 94.3513" stroke="black" stroke-linecap="round" stroke-linejoin="round"/>
<circle cx="106.391" cy="101.565" r="9.39127" fill="#9E9E9E" stroke="black"/>
<path d="M100 101.351C100 97.4853 103.134 94.3513 107 94.3513" stroke="black" stroke-linecap="round" stroke-linejoin="round"/>
<circle cx="19.7828" cy="101.565" r="4.1739" fill="black"/>
<circle cx="106.391" cy="101.565" r="4.1739" fill="black"/>
<path d="M33.3477 96.3476L87.6084 96.3476" stroke="black" stroke-linecap="round" stroke-linejoin="round"/>
<rect width="17.4141" height="46.4376" rx="8.70705" transform="matrix(0.699118 -0.715007 0.699118 0.715007 24.6738 57.3573)" fill="white"/>
<path d="M30.7611 63.5827C27.3992 60.1444 27.3992 54.5698 30.7611 51.1315C34.123 47.6932 39.5737 47.6932 42.9356 51.1315L53.3499 61.7825C53.3499 61.7825 48.5607 63.8892 46.1955 66.1847C43.5512 68.7511 41.1754 74.2337 41.1754 74.2337L30.7611 63.5827Z" fill="#9E9E9E"/>
<ellipse rx="2.24733" ry="2.04695" transform="matrix(0.699118 -0.715007 0.699118 0.715007 36.2849 52.3801)" fill="white"/>
<path d="M28.9782 57.3802L56.9561 85.9943C55.1626 85.9943 53.3661 85.1245 52.2932 84.1601C51.885 83.7932 31.0404 62.5161 30.7716 62.1493C28.8901 59.5813 28.9782 57.3802 28.9782 57.3802Z" fill="#E0E0E0"/>
<rect width="17.4141" height="46.4376" rx="8.70705" transform="matrix(0.699118 -0.715007 0.699118 0.715007 24.6738 57.3586)" stroke="black" stroke-linecap="round" stroke-linejoin="round"/>
<path d="M41.2129 74.1973C41.2129 74.1973 43.8269 68.7461 46.5546 66.1847C48.7825 64.0926 53.1338 62.0055 53.1338 62.0055" stroke="black" stroke-linecap="round" stroke-linejoin="round"/>
<mask id="path-20-inside-1" fill="white">
<path fill-rule="evenodd" clip-rule="evenodd" d="M92.682 4.31801L89.5 7.49999L98.693 16.693L89.318 26.068L92.5 29.25L101.875 19.875L111.328 29.3281L114.51 26.1461L105.057 16.693L114.328 7.42188L111.146 4.2399L101.875 13.5111L92.682 4.31801Z"/>
</mask>
<path fill-rule="evenodd" clip-rule="evenodd" d="M92.682 4.31801L89.5 7.49999L98.693 16.693L89.318 26.068L92.5 29.25L101.875 19.875L111.328 29.3281L114.51 26.1461L105.057 16.693L114.328 7.42188L111.146 4.2399L101.875 13.5111L92.682 4.31801Z" fill="white"/>
<path d="M89.5 7.49999L88.7929 6.79288L88.0858 7.49999L88.7929 8.20709L89.5 7.49999ZM92.682 4.31801L93.3891 3.6109L92.682 2.90379L91.9749 3.6109L92.682 4.31801ZM98.693 16.693L99.4001 17.4001L100.107 16.693L99.4001 15.9859L98.693 16.693ZM89.318 26.068L88.6109 25.3609L87.9038 26.068L88.6109 26.7751L89.318 26.068ZM92.5 29.25L91.7929 29.9571L92.5 30.6642L93.2071 29.9571L92.5 29.25ZM101.875 19.875L102.582 19.1679L101.875 18.4608L101.168 19.1679L101.875 19.875ZM111.328 29.3281L110.621 30.0352L111.328 30.7423L112.035 30.0352L111.328 29.3281ZM114.51 26.1461L115.217 26.8532L115.924 26.1461L115.217 25.439L114.51 26.1461ZM105.057 16.693L104.35 15.9859L103.643 16.693L104.35 17.4001L105.057 16.693ZM114.328 7.42188L115.035 8.12898L115.742 7.42188L115.035 6.71477L114.328 7.42188ZM111.146 4.2399L111.853 3.53279L111.146 2.82568L110.439 3.53279L111.146 4.2399ZM101.875 13.5111L101.168 14.2182L101.875 14.9253L102.582 14.2182L101.875 13.5111ZM90.2071 8.20709L93.3891 5.02511L91.9749 3.6109L88.7929 6.79288L90.2071 8.20709ZM99.4001 15.9859L90.2071 6.79288L88.7929 8.20709L97.9859 17.4001L99.4001 15.9859ZM90.0252 26.7751L99.4001 17.4001L97.9859 15.9859L88.6109 25.3609L90.0252 26.7751ZM93.2071 28.5429L90.0252 25.3609L88.6109 26.7751L91.7929 29.9571L93.2071 28.5429ZM101.168 19.1679L91.7929 28.5429L93.2071 29.9571L102.582 20.5821L101.168 19.1679ZM112.035 28.621L102.582 19.1679L101.168 20.5821L110.621 30.0352L112.035 28.621ZM113.803 25.439L110.621 28.621L112.035 30.0352L115.217 26.8532L113.803 25.439ZM104.35 17.4001L113.803 26.8532L115.217 25.439L105.764 15.9859L104.35 17.4001ZM113.621 6.71477L104.35 15.9859L105.764 17.4001L115.035 8.12898L113.621 6.71477ZM110.439 4.947L113.621 8.12898L115.035 6.71477L111.853 3.53279L110.439 4.947ZM102.582 14.2182L111.853 4.947L110.439 3.53279L101.168 12.8039L102.582 14.2182ZM91.9749 5.02511L101.168 14.2182L102.582 12.8039L93.3891 3.6109L91.9749 5.02511Z" fill="black" mask="url(#path-20-inside-1)"/>
</svg>
