<svg width="150" height="150" viewBox="0 0 150 150" fill="none" xmlns="http://www.w3.org/2000/svg">
<path d="M106.667 28.8111C109.121 33.7533 110.735 39.9682 109.35 45.4028C109.35 45.4028 89.0852 52.5432 75 52.5002C60.9526 52.4572 40.8002 45.2528 40.8002 45.2528C39.5368 38.9359 38.0999 33.2528 43.2 25.7528C51.2998 16.4528 55.2002 14.2028 66.0002 12.7028C65.1733 11.6503 63.9002 8.69922 63.9002 7.45284C63.9002 6.49071 64.6829 8.4234 68.8252 10.7695C72.6584 12.9405 76.8855 14.6937 81.1836 15.6695C85.626 16.678 90.0107 17.3986 94.3502 18.8528C99.8841 20.3746 104.054 23.5501 106.667 28.8111Z" fill="black"/>
<path d="M45.6001 47.5718C45.6001 37.536 53.7357 29.4004 63.7715 29.4004H85.6287C95.6645 29.4004 103.8 37.536 103.8 47.5718V63.9004C103.8 79.9719 90.7716 93.0004 74.7001 93.0004C58.6286 93.0004 45.6001 79.9719 45.6001 63.9004V47.5718Z" fill="#E0AC69"/>
<path d="M60.6 101.7L62.1 88.5C71.1 91.2 76.5 90.6 87.3 89.4C87.3 99.24 89.9 103.3 91.2 104.1C89.3 105.7 83.28 108.96 74.4 109.2C65.52 109.44 59.7 105.9 57.9 104.1L58.8 103.2L60.6 101.7Z" fill="#E0AC69"/>
<path d="M103.8 50.6998C103.8 48.5459 105.546 46.7998 107.7 46.7998C109.854 46.7998 111.6 48.5459 111.6 50.6998V57.5998C111.6 61.9076 108.108 65.3998 103.8 65.3998V50.6998Z" fill="#E0AC69"/>
<path d="M45.6001 50.1002C45.6001 47.9463 43.854 46.2002 41.7001 46.2002C39.5462 46.2002 37.8001 47.9463 37.8001 50.1002V57.0002C37.8001 61.308 41.2923 64.8002 45.6001 64.8002V50.1002Z" fill="#E0AC69"/>
<path d="M86.4001 56.9306C86.4001 59.2388 81.2961 58.759 75.0001 58.759C68.704 58.759 63.6001 59.2388 63.6001 56.9306C63.6001 54.6224 68.704 50.4004 75.0001 50.4004C81.2961 50.4004 86.4001 54.6224 86.4001 56.9306Z" fill="#FACCDA" fill-opacity="0.4"/>
<path d="M22.8004 134.341C22.8003 130.179 22.5455 119.404 36.1406 113.709C42.0466 111.235 48.9754 107.032 57.9 105C69.3 110.801 78.9 113.709 91.2 105C104.7 109.301 119.7 113.709 125.7 123.401C129.229 130.552 127.44 144.225 127.5 145.601H22.8004L22.8004 134.341Z" fill="#CCF0F5"/>
<path d="M45.6 47.5708C45.6 37.535 53.7356 29.3994 63.7714 29.3994H85.6285C95.6643 29.3994 103.8 37.535 103.8 47.5708V63.8994C103.8 79.9709 90.7715 92.9994 74.7 92.9994V92.9994C58.6285 92.9994 45.6 79.9709 45.6 63.8994V47.5708Z" stroke="black" stroke-width="3" stroke-linecap="round" stroke-linejoin="round"/>
<path d="M61.8 90.5996C60.8052 100.984 61.4453 102.444 57.1577 103.998C53.1781 105.441 40.8465 110.234 34.9405 112.708C21.3454 118.402 21.6003 129.177 21.6003 133.339C21.6004 137.501 21.6003 145.2 21.6003 145.2" stroke="black" stroke-width="3" stroke-linecap="round" stroke-linejoin="round"/>
<path d="M87.6 90.5996C88.5948 100.984 87.9546 102.444 92.2423 103.998C96.2219 105.441 108.553 110.234 114.459 112.708C128.055 118.402 127.8 129.177 127.8 133.339C127.8 137.501 127.8 145.2 127.8 145.2" stroke="black" stroke-width="3" stroke-linecap="round" stroke-linejoin="round"/>
<path d="M103.8 50.0992C103.8 47.9453 105.546 46.1992 107.7 46.1992V46.1992C109.854 46.1992 111.6 47.9453 111.6 50.0992V56.9992C111.6 61.307 108.108 64.7992 103.8 64.7992V64.7992V50.0992Z" stroke="black" stroke-width="3" stroke-linecap="round" stroke-linejoin="round"/>
<path d="M45.6 50.0992C45.6 47.9453 43.8539 46.1992 41.7 46.1992V46.1992C39.5461 46.1992 37.8 47.9453 37.8 50.0992V56.9992C37.8 61.307 41.2922 64.7992 45.6 64.7992V64.7992V50.0992Z" stroke="black" stroke-width="3" stroke-linecap="round" stroke-linejoin="round"/>
<path d="M58.7999 104.399C58.7999 104.399 62.9665 109.199 75.0032 109.199C87.04 109.199 91.1999 104.399 91.1999 104.399" stroke="black" stroke-width="3" stroke-linecap="round" stroke-linejoin="round"/>
<path d="M52.2 106.8C52.2 106.8 57.9868 115.8 74.7045 115.8C91.4222 115.8 97.1999 106.8 97.1999 106.8" stroke="black" stroke-width="3" stroke-linecap="round" stroke-linejoin="round"/>
<path d="M109.35 45.4497C110.735 40.0151 109.121 33.8002 106.667 28.858C104.054 23.597 99.284 20.2715 93.7501 18.7497M94.3502 18.8997C90.0107 17.4455 85.626 16.7249 81.1835 15.7164C76.8855 14.7406 72.6584 12.9873 68.8252 10.8164C64.6829 8.47028 63.9002 6.53759 63.9002 7.49972C63.9002 8.74609 65.1733 11.6972 66.0002 12.7497M66.0001 12.8997C55.2001 14.3997 51.2998 16.4997 43.2 25.7997C38.0999 33.2997 39.5368 38.9827 40.8002 45.2997" stroke="black" stroke-width="3" stroke-linecap="round" stroke-linejoin="round"/>
<path d="M74.4 109.5V115.5" stroke="black" stroke-width="3" stroke-linecap="round"/>
<path d="M87.6 106.8L90.6 111.996" stroke="black" stroke-width="3" stroke-linecap="round"/>
<path d="M61.2 106.8L58.2 111.996" stroke="black" stroke-width="3" stroke-linecap="round"/>
<path d="M81.7236 108.9L83.2765 114.696" stroke="black" stroke-width="3" stroke-linecap="round"/>
<path d="M67.0763 108.9L65.5234 114.696" stroke="black" stroke-width="3" stroke-linecap="round"/>
<path d="M114 27.2994L117.6 23.3994L120.9 26.3994L124.5 22.1994M109.8 22.1994L114 15.8994L119.4 17.9994L123 11.3994" stroke="black" stroke-width="3" stroke-linecap="round" stroke-linejoin="round"/>
<path d="M66.7075 72.9336C66.7075 72.9336 68.7727 70.2571 74.7387 70.2571C80.7046 70.2571 82.7665 72.9336 82.7665 72.9336" stroke="black" stroke-width="3" stroke-linecap="round" stroke-linejoin="round"/>
<path d="M66.9 56.3994L61.7001 57.8786M83.6001 56.3994L88.8 57.8786" stroke="black" stroke-width="3" stroke-linecap="round" stroke-linejoin="round"/>
</svg>
