<svg width="80" height="80" viewBox="0 0 80 80" fill="none" xmlns="http://www.w3.org/2000/svg">
<path d="M12.1603 71.6485C12.1603 69.4288 12.0244 63.682 19.2751 60.6449C22.425 59.3255 23.7402 58.0836 28.5 57C33.5 59.5 36 61.5 40 63.5C45.5 60.5 48 59 52.5 57C59.7 59.294 63.8402 60.6449 67.0402 65.814C68.9222 69.6279 67.9682 77.766 68.0002 78.5H12.1603V71.6485Z" fill="#9E9E9E"/>
<path d="M21 30C21 34.4181 22.8333 35.1667 24 35C24 38 25.5 41.5 26 44C26.3101 45.5504 31.1667 48.8333 33.5 50L32.5 54C31.5 56 30.5 56 28.5 57C33 59.5 35.5 61 40 63.5C46 60 49.5 58.5 52 57C50.6667 56.1667 47.9 54.3 47.5 53.5C47.1 52.7 47.3334 50.8333 47.5 49.5C48.6667 48.6667 50.9 47.2 52.5 46C54.1 44.8 55.6667 38.1667 56 35.5C57 35 55.2 35.8 58 35C60.8 34.2 60.3334 30.1667 60 28.5C60.3334 27.5 60.0001 25 58 25.5C56 26 55.5 26 54.5 26C53.5 25.5 55.1532 25.017 50.5 24.5C46 24 37 23.5 29.5 24C25 26 24.5 25.5 22.5 25.5C21 25.5 21 26 21 30Z" fill="#E6E6E6"/>
<path d="M54.0001 36C36.5001 31 28.0001 36 26.0001 35.5C24.8001 37.1 25.8334 42.8333 26.5001 45.5C28.8334 47.5 34.8001 51.5 40.0001 51.5C45.2001 51.5 50.5001 47.5 52.5001 45.5C54.0001 43 54.5 41 54.0001 36Z" fill="white"/>
<path d="M54.3359 25.5C55.6284 25.7742 55.9434 26.8551 55.9686 28.0386C55.8562 28.7225 55.8005 29.578 55.825 30.6427C55.8233 30.771 55.8263 30.8907 55.8359 31C55.8313 30.8783 55.8277 30.7593 55.825 30.6427C55.8342 29.9304 55.9881 28.9538 55.9686 28.0386C56.2993 26.0272 57.1209 25.5 57.8363 25.5C57.8363 25.5 58.4889 19.4234 57.5773 16C56.5045 11.9715 54.3361 8.5 51.8365 7C49.337 5.5 43.8361 3.99998 40.8361 4C39.163 4.00001 35.347 5.22518 31.8359 6C29.0514 6.6145 25.2989 9.5 23.8179 12C22.3368 14.5 19.5 25 22.5 25.5C25.5 26 27.8359 25 29.3359 24.5C30.8359 24 37.8359 22 54.3359 25.5Z" fill="#9E9E9E"/>
<path d="M21.3359 39.5C22.5359 39.5 22.1693 36.5 21.8359 35L24.3359 35.5V38.5C23.8179 41 19.8359 39.5 21.3359 39.5Z" fill="#9E9E9E"/>
<path d="M58.8359 39.5C56.8359 38.5 57.1693 37.3333 57.3359 35.5H55.8359L55.3359 38.5C56.1484 40 57.8362 40.2497 58.8359 39.5Z" fill="#9E9E9E"/>
<path d="M24.0003 27.5C23.6669 32.1667 25 41.5 26.9999 45.5M55.9025 27.5C56.2358 32.1667 55.9025 40 53.0002 45" stroke="black" stroke-linecap="round" stroke-linejoin="round"/>
<path d="M58.0004 25.5C58.0004 25.5 58.6529 19.4234 57.7413 16C55.6384 8.10301 48.0926 3.99993 40 4C31.9074 4.00007 23.5 10 22 16C20.875 20.5 21 22.5 21.5 25.5M22 35C22.3333 36.5 22.7 39.5 21.5 39.5C20 39.5 23.9819 41 24.5 38.5M57.5 35.5C57.3333 37.3333 57 38.5 59 39.5C58.0002 40.2497 56.3125 40 55.5 38.5" stroke="black" stroke-linecap="round" stroke-linejoin="round"/>
<path d="M33.5 50C33.5 51 33.2641 53.1378 33 54C33 54 32.1224 55.7304 30 56.5C27.8776 57.2696 22.2648 59.4263 19.115 60.7456C11.8643 63.7827 12.0002 69.5295 12.0002 71.7492C12.0002 73.9689 12.0002 78.0747 12.0002 78.0747" stroke="black" stroke-linecap="round" stroke-linejoin="round"/>
<path d="M47 50C46.7999 53.0453 47.1777 53.0257 47.5005 54C47.5005 54 48.3781 55.7304 50.5005 56.5C52.6229 57.2696 58.3758 59.4263 61.5257 60.7456C68.7764 63.7827 68.6405 69.5295 68.6404 71.7492C68.6404 73.9689 68.6404 78.0747 68.6404 78.0747" stroke="black" stroke-linecap="round" stroke-linejoin="round"/>
<path d="M56 27.5C56 26.3954 56.8954 25.5 58 25.5V25.5C59.1046 25.5 60 26.3954 60 27.5V31.5C60 33.7091 58.2091 35.5 56 35.5V35.5V27.5Z" stroke="black" stroke-linecap="round" stroke-linejoin="round"/>
<path d="M24 27C24 26.1716 23.3284 25.5 22.5 25.5V25.5C21.6716 25.5 21 26.1716 21 27V32.5C21 34.1569 22.3431 35.5 24 35.5V35.5V27Z" stroke="black" stroke-linecap="round" stroke-linejoin="round"/>
<path d="M26 35.5C28.8333 35 35.3005 34 40.5005 34C45.7005 34 52.0005 35.3333 54.5005 36M26 35.5C25.6 39.1 26.0005 43.3333 26.5005 45C27.5004 46.5 30.5004 48.5 32.5005 49.5C32.9477 49.7236 36.0005 51.5 40.0005 51.5C44.0005 51.5 46.0003 50.3334 47.0004 50C48.5003 49.5 52.5005 46.5 53.0005 45C53.4005 43.8 54.1671 38.5 54.5005 36M26 35.5C26 34.7 24.3333 28.8333 23.5 26M54.5005 36L56.0004 26.5M30.0004 37C30.5004 37 42.0004 35.5 51.0004 37.5" stroke="black" stroke-linecap="round" stroke-linejoin="round"/>
<path d="M24 26C26.8333 25 34 23.1 40 23.5C47.5 24 56 25 56 27" stroke="black"/>
<path d="M29 57L40 63.5L52 57" stroke="black"/>
<path d="M35.0645 30.0789V31.6348M45.7704 30.0789V31.6348" stroke="black" stroke-linecap="round" stroke-linejoin="round"/>
</svg>
