<svg width="120" height="120" viewBox="0 0 120 120" fill="none" xmlns="http://www.w3.org/2000/svg">
<path d="M84.1669 51.667L110.869 67.0837V97.917L84.1669 113.334L57.4645 97.917V67.0837L84.1669 51.667Z" fill="#F5F5F5" stroke="#E6E6E6" stroke-linecap="round" stroke-linejoin="round"/>
<path d="M29.9999 115L55.8336 100.834" stroke="#E6E6E6" stroke-linecap="round" stroke-linejoin="round"/>
<path d="M108.334 69.167L85.0003 55.8337" stroke="#E6E6E6" stroke-linecap="round" stroke-linejoin="round"/>
<path d="M80.0003 20.8335L56.667 7.50016" stroke="#E6E6E6" stroke-linecap="round" stroke-linejoin="round"/>
<path d="M61.5766 97.6035L61.7582 70.7299" stroke="#E6E6E6" stroke-linecap="round" stroke-linejoin="round"/>
<path d="M33.2433 49.2705L33.4249 22.3969" stroke="#E6E6E6" stroke-linecap="round" stroke-linejoin="round"/>
<path d="M110 99.167L86.667 112.5" stroke="#E6E6E6" stroke-linecap="round" stroke-linejoin="round"/>
<path d="M55.8336 3.3335L82.5361 18.7502V49.5835L55.8336 65.0002L29.1312 49.5835V18.7502L55.8336 3.3335Z" fill="#F5F5F5" stroke="#E6E6E6" stroke-linecap="round" stroke-linejoin="round"/>
<path d="M31.6613 112.795L31.6612 84.167" stroke="#E6E6E6" stroke-linecap="round" stroke-linejoin="round"/>
<path d="M30.0833 115L6.74999 101.667" stroke="#E6E6E6" stroke-linecap="round" stroke-linejoin="round"/>
<path d="M84.1666 50L112.312 66.25V98.75L84.1666 115L56.0208 98.75V66.25L84.1666 50Z" stroke="black" stroke-linecap="round" stroke-linejoin="round"/>
<path d="M29.9996 113.333L55.8334 99.1666" stroke="black" stroke-linecap="round" stroke-linejoin="round"/>
<path d="M30.0003 112.794L30.3182 83.333" stroke="black" stroke-linecap="round" stroke-linejoin="round"/>
<path d="M108.333 67.5L85.0001 54.1667" stroke="black" stroke-linecap="round" stroke-linejoin="round"/>
<path d="M30.089 113.333L6.75569 99.9997" stroke="black" stroke-linecap="round" stroke-linejoin="round"/>
<path d="M80.0001 19.1665L56.6668 5.83317" stroke="black" stroke-linecap="round" stroke-linejoin="round"/>
<path d="M59.9097 95.9365L60.0913 69.063" stroke="black" stroke-linecap="round" stroke-linejoin="round"/>
<path d="M31.5763 47.6035L31.7579 20.7299" stroke="black" stroke-linecap="round" stroke-linejoin="round"/>
<path d="M108.333 97.5L85.0001 110.833" stroke="black" stroke-linecap="round" stroke-linejoin="round"/>
<path d="M55.8334 1.6665L83.9792 17.9165V50.4165L55.8334 66.6665L27.6875 50.4165V17.9165L55.8334 1.6665Z" stroke="black" stroke-linecap="round" stroke-linejoin="round"/>
</svg>
