<svg width="150" height="150" viewBox="0 0 150 150" fill="none" xmlns="http://www.w3.org/2000/svg">
<path d="M21.6003 136.53C21.6003 132.368 21.3454 121.593 34.9405 115.898C40.8465 113.424 53.1781 108.632 57.1576 107.189C61.4453 105.634 70.8 109.39 92.2423 107.189C96.2218 108.632 108.553 113.424 114.459 115.898C128.054 121.593 127.8 132.368 127.8 136.53L127.8 148.39H21.9L21.6003 136.53Z" fill="white"/>
<path d="M60.6 104.096L62.1 90.8955C71.1 93.5955 76.5 92.9955 87.3 91.7955C87.3 101.636 89.9 105.696 91.2 106.496C89.3 108.096 87.3 118.767 75 119.1C65.1 119.367 59.7 108.296 57.9 106.496L58.8 105.596L60.6 104.096Z" fill="#FCE5CC"/>
<path d="M103.8 52.4957C103.8 50.3418 105.546 48.5957 107.7 48.5957C109.854 48.5957 111.6 50.3418 111.6 52.4957V59.3957C111.6 63.7035 108.108 67.1957 103.8 67.1957V52.4957Z" fill="#FCE5CC"/>
<path d="M45.6 52.4957C45.6 50.3418 43.8539 48.5957 41.7 48.5957C39.5461 48.5957 37.8 50.3418 37.8 52.4957V59.3957C37.8 63.7035 41.2922 67.1957 45.6 67.1957V52.4957Z" fill="#FCE5CC"/>
<path d="M83.1 31.7998C92.4 37.7998 92.7 46.7998 103.8 50.0998C103.8 50.9183 103.8 57.9799 103.8 66.2938C103.8 82.3653 90.7715 95.3998 74.7 95.3998C58.6285 95.3998 45.6 82.3702 45.6 66.2987C45.6 59.9604 45.6 53.9931 45.6 50.0998C51.6 50.0998 66.6 44.6998 83.1 31.7998Z" fill="#FCE5CC"/>
<path d="M46.2 142.8H58.7999" stroke="#E6E6E6" stroke-width="3" stroke-linecap="round" stroke-linejoin="round"/>
<path d="M45.4457 50.3469C60.7457 47.3469 69.1457 41.6469 83.5457 31.7469C87.4458 34.7469 88.0457 35.6469 94.3457 43.7469C96.0135 45.8912 100.646 49.7469 104.846 50.0469C106.646 47.9469 109.046 48.2469 110.546 49.7469C112.646 51.8469 111.746 56.9469 111.746 60.5469C111.146 64.1469 108.746 66.5469 103.946 67.4469C102.146 86.9469 88.0457 91.4469 88.0457 92.3469C88.0457 93.0669 88.6457 103.747 89.8457 104.947C95.2457 107.547 107.546 111.847 110.546 113.347C110.246 112.747 107.396 109.447 106.046 105.847C105.146 104.047 101.846 94.7469 103.946 89.0469C105.959 83.5811 114.446 74.9469 117.446 66.5469C119.872 59.7546 121.5 46.1999 111 18.5999C108.489 12 100.046 15.2469 99.4457 14.0469C78.1736 -11.0927 43.9457 11.3469 35.8455 17.6469C13.3456 37.4469 22.3455 80.6469 30.1455 86.6469C37.9455 92.6469 34.6455 104.647 35.8455 115.147C37.0455 125.647 57.7455 133.147 52.6455 127.147C47.5455 121.147 55.6457 106.747 57.1457 106.447C61.9457 104.347 61.3457 99.2469 61.9457 92.6469C52.9457 88.1469 45.4457 76.1469 45.4457 67.1469C39.7459 67.1469 38.2456 60.8469 38.2456 60.8469V51.2469C38.2456 49.4469 39.7457 47.9469 41.5456 47.9469C43.393 47.9469 45.3257 49.7469 45.4457 50.3469Z" fill="#F29733"/>
<path d="M58.7999 108.6C58.7999 108.6 62.6632 121.2 74.6999 121.2C86.7367 121.2 91.1999 108.6 91.1999 108.6" stroke="#E6E6E6" stroke-width="3" stroke-linecap="round" stroke-linejoin="round"/>
<path d="M83.2456 31.7471C92.5456 37.7471 92.8456 46.7471 103.946 50.0471C103.946 50.8655 103.946 57.9272 103.946 66.2411C103.946 82.3126 90.9171 95.3471 74.8456 95.3471V95.3471C58.7741 95.3471 45.7456 82.3175 45.7456 66.246C45.7456 59.9077 45.7456 53.9404 45.7456 50.0471C51.7456 50.0471 66.7456 44.6471 83.2456 31.7471Z" stroke="black" stroke-width="3" stroke-linecap="round" stroke-linejoin="round"/>
<path d="M61.9456 92.9468C60.9508 103.331 61.591 104.791 57.3033 106.346M35.0861 115.055C21.4911 120.749 21.7459 131.525 21.7459 135.686C21.746 139.848 21.746 147.547 21.746 147.547" stroke="black" stroke-width="3" stroke-linecap="round" stroke-linejoin="round"/>
<path d="M87.7456 92.9468C88.7403 103.331 88.1002 104.791 92.3879 106.346C96.3674 107.789 108.699 112.581 114.605 115.055C128.2 120.749 127.945 131.525 127.945 135.686C127.945 139.848 127.945 147.547 127.945 147.547" stroke="black" stroke-width="3" stroke-linecap="round" stroke-linejoin="round"/>
<path d="M103.946 52.4469C103.946 50.293 105.692 48.5469 107.846 48.5469V48.5469C109.999 48.5469 111.746 50.293 111.746 52.4469V59.3469C111.746 63.6547 108.253 67.1469 103.946 67.1469V67.1469V52.4469Z" stroke="black" stroke-width="3" stroke-linecap="round" stroke-linejoin="round"/>
<path d="M45.7456 52.4469C45.7456 50.293 43.9995 48.5469 41.8456 48.5469V48.5469C39.6917 48.5469 37.9456 50.293 37.9456 52.4469V59.3469C37.9456 63.6547 41.4378 67.1469 45.7456 67.1469V67.1469V52.4469Z" stroke="black" stroke-width="3" stroke-linecap="round" stroke-linejoin="round"/>
<path d="M58.7999 106.8C58.7999 106.8 62.6632 119.4 74.6999 119.4C86.7367 119.4 91.1999 106.8 91.1999 106.8" stroke="black" stroke-width="3" stroke-linecap="round" stroke-linejoin="round"/>
<path d="M46.3456 140.947H58.9456" stroke="black" stroke-width="3" stroke-linecap="round" stroke-linejoin="round"/>
<path d="M45.4457 50.3469C60.7457 47.3469 69.1457 41.6469 83.5457 31.7469C87.4458 34.7469 88.0457 35.6469 94.3457 43.7469C96.0135 45.8912 100.646 49.7469 104.846 50.0469C106.646 47.9469 109.046 48.2469 110.546 49.7469C112.646 51.8469 111.746 56.9469 111.746 60.5469C111.146 64.1469 108.746 66.5469 103.946 67.4469C102.146 86.9469 88.0457 91.4469 88.0457 92.3469C88.0457 93.0669 88.6457 103.747 89.8457 104.947C95.2457 107.547 107.546 111.847 110.546 113.347C110.246 112.747 107.396 109.447 106.046 105.847C105.146 104.047 101.846 94.7469 103.946 89.0469C105.959 83.5811 114.446 74.9469 117.446 66.5469C119.872 59.7546 121.5 46.1999 111 18.5999C108.489 12 100.046 15.2469 99.4457 14.0469C78.1736 -11.0927 43.9457 11.3469 35.8455 17.6469C13.3456 37.4469 22.3455 80.6469 30.1455 86.6469C37.9455 92.6469 34.6455 104.647 35.8455 115.147C37.0455 125.647 57.7455 133.147 52.6455 127.147C47.5455 121.147 55.6457 106.747 57.1457 106.447C61.9457 104.347 61.3457 99.2469 61.9457 92.6469C52.9457 88.1469 45.4457 76.1469 45.4457 67.1469C39.7459 67.1469 38.2456 60.8469 38.2456 60.8469V51.2469C38.2456 49.4469 39.7457 47.9469 41.5456 47.9469C43.393 47.9469 45.3257 49.7469 45.4457 50.3469Z" stroke="black" stroke-width="3" stroke-linecap="round" stroke-linejoin="round"/>
<path d="M66.8531 72.6055C66.8531 72.6055 68.9183 75.282 74.8843 75.282C80.8503 75.282 82.9121 72.6055 82.9121 72.6055" stroke="black" stroke-width="3" stroke-linecap="round" stroke-linejoin="round"/>
<path d="M64.8457 55.208V60.2264M84.9194 55.208V60.2264" stroke="black" stroke-width="3" stroke-linecap="round" stroke-linejoin="round"/>
</svg>
